<svg xmlns="http://www.w3.org/2000/svg" viewBox="0 0 141.82 141.73"><defs><style>.cls-1{fill:#a7c6c6;}.cls-2{fill:#0b3142;}</style></defs><title>Icon</title><g id="Icons_to_export" data-name="Icons to export"><path class="cls-1" d="M8.53,78.94C2.7,73.78,1,62.24,7.11,56.86c1-.83.94-3.38-.54-2.09-4.05,3.54-4.89,6.48-5.21,12C1,72.65,2.51,77.55,7,81.51c.85.75,2.49-1.74,1.54-2.57Z"/><path class="cls-1" d="M13.24,72.36c-3.41-1.5.2-11.39,3.14-12.27,1.16-.35,2-3.19.48-2.73-4,1.2-5.06,4.81-6.22,8.44-.92,2.9-2.77,7.45,1,9.13,1.24.54,2.73-2.05,1.55-2.57Z"/><path class="cls-1" d="M5.28,60c1.31-1.74,2.79-4.14,4.83-5.06l.49-2.45A19.47,19.47,0,0,0,6.33,56.7c-.29.4-.9,1.34-.53,1.84s1-.13,1.28-.45a14.84,14.84,0,0,1,3.28-3.29,2.75,2.75,0,0,0,1.06-1.66c.05-.37,0-1.06-.58-.8-2.7,1.21-4.58,4-6.32,6.25-.29.39-.89,1.34-.53,1.84s1-.14,1.29-.45Z"/><path class="cls-1" d="M6.55,56.8l-.48.59a2.93,2.93,0,0,0-.9,1.85c.06.63.68.2.91-.08l.49-.58a3,3,0,0,0,.89-1.86c-.06-.63-.67-.2-.91.08Z"/><path class="cls-1" d="M2.11,64.27c-.14.5-.28,1-.39,1.5-.16.72.45,1.53,1.22,1.09A2.31,2.31,0,0,0,4,65.63c.22-.54.17-1.43-.53-1.55s-1.34.64-1.57,1.22l0,.07,1-1.12-.07,0L4,65.38c.06-.26.13-.52.21-.77.16-.55.19-1.42-.54-1.55s-1.39.62-1.57,1.21Z"/><path class="cls-1" d="M3.6,61.08,2.4,65.67l1.92-1a22,22,0,0,1,1.53-5.14l-1.61,0A22.08,22.08,0,0,0,2.56,65.4a16.6,16.6,0,0,0,.92,6.24c.37,1.29,2.22-1,2-1.84a20,20,0,0,1-.94-4.44,14.28,14.28,0,0,1,1.35-5.8c.73-1.89-1.06-1.33-1.61,0A28,28,0,0,0,2.34,66c-.27,1.59,1.74-.28,1.92-1l1.2-4.59C6,58.54,3.87,60,3.6,61.08Z"/><path class="cls-1" d="M25.21,75.33c5.22-1.85,8.41-9,5.74-13.94-.64-1.17-2.51,1.14-1.92,2.22,1.6,2.94.08,7.81-3.3,9-1.09.38-1.94,3.21-.52,2.71Z"/><path class="cls-1" d="M38.91,50.61l2.5-1c.67-.26,1.72-2.72,1.29-2.6l-2.65.71a3,3,0,0,0-1.5,2.3c.39,10-2.06,19.82-1.24,29.81,0,.47,1.62-1.71,1.7-2.17a165.54,165.54,0,0,0,2.28-28.81c0-.82-1.72,1.3-1.71,2A167.51,167.51,0,0,1,37.3,79.68L39,77.5c-.81-9.86,1.65-19.58,1.26-29.44l-1.5,2.29,2.65-.71L42.7,47l-2.5,1c-.78.31-1.54,2.7-1.29,2.6Z"/><path class="cls-1" d="M50.21,62.35c1,5.76.6,11.51.08,17.29-.15,1.77,2,0,2.2-.8l.11-.44c.48-1.9-1.84-.8-2.16.46l-.11.45,2.19-.8c.53-6,.91-11.92-.16-17.89-.27-1.48-2.35.6-2.15,1.73Z"/><path class="cls-1" d="M62.07,68.55l.25,7.25,2.4-1A20.37,20.37,0,0,1,68,60.59l-2-.75c-1.45,3.43-3.14,6.13-3,10A15.48,15.48,0,0,0,67.49,80.1c1.11,1.16,2.71-1.07,2-2.19l-2.68-4.07c-.83-1.26-2.74,1-2,2.19l2.68,4.07,2-2.19a13.5,13.5,0,0,1-4.11-9.07c-.08-3.38,1.54-5.65,2.79-8.61.68-1.61-1.21-2-2-.75A23.72,23.72,0,0,0,62.32,75.8c.24,1.89,2.45.29,2.4-1l-.25-7.24c-.07-1.84-2.45-.34-2.4,1Z"/><path class="cls-1" d="M49.83,61.35c3.86,1.36.35,16.55.56,20.17.11,1.82,2.41.22,2.33-1.08-.26-4.39,4.13-19.73-1.86-21.85-1.2-.42-2.46,2.26-1,2.76Z"/><path class="cls-1" d="M72.92,77.31c6.78-1.93,6.87-13.51,3.66-18.2-.13-.19-2,1.87-1.55,2.57,1.86,2.72,3.7,11.75-.81,13-.78.23-1.59,2.68-1.3,2.6Z"/><path class="cls-1" d="M90.46,55.87c-2.66,1.11-3.74,3.54-3.92,6.31-.21,3.22.12,6.25-.45,9.49a41,41,0,0,0-1,8.6c0,1,1.81-1.18,1.81-1.93a45.7,45.7,0,0,1,.7-7.91l-1.8,1.67a31.63,31.63,0,0,0,.59,8.35c.13.68,1.79-1.54,1.78-2.13-.07-2.4-1.08-10.21.21-12.09l-1,.67.14.14.75-2.18-.1.11c-.58.65-1.24,3.22,0,1.8l.11-.11c.37-.41,1.27-1.63.75-2.19l-.14-.14c-.26-.28-.94.53-1,.66-2.67,3.89-1.64,10.89-1.52,15.26l1.78-2.13a29.91,29.91,0,0,1-.51-8c.07-1-1.7,1.16-1.79,1.67a47.6,47.6,0,0,0-.74,8.43l1.81-1.93c-.1-3.8,1-7.33,1.4-11.07.19-1.93-.77-8,1.32-8.89.7-.29,1.82-2.91.85-2.51Z"/><path class="cls-1" d="M100.2,77.78l-1.43-.42-.94,2.42a20.09,20.09,0,0,1,1.72-1.32c.29-.21,1.69-2.68.76-2.46-2.69.63,0-11.89-.11-13.48-.08-2.24-1.28-4.08-3.72-3.77-.91.12-2,2.76-1.2,2.65,6.4-.82-1.33,18.45,3.83,17.25l.77-2.46a16.7,16.7,0,0,0-1.72,1.32c-.37.31-1.7,2-.93,2.42,1,.57.65.48,1.77.5.89,0,2.11-2.63,1.2-2.65Z"/><path class="cls-1" d="M86.76,60.3a165.67,165.67,0,0,1-.45,18.1l1.71-2a100.71,100.71,0,0,1,2.31-16.49c.32-1.4-1.37.81-1.51,1.21C86.67,67.38,87.6,75,87.68,81.48c0,.8,1.71-1.31,1.7-2-.06-6-1.11-13.57.85-19.28l-1.51,1.21a104.7,104.7,0,0,0-2.41,17c0,.77,1.65-1.33,1.71-2a165.61,165.61,0,0,0,.45-18.1c0-.81-1.73,1.31-1.71,2Z"/><path class="cls-1" d="M105.17,59.84l-.87.2v2c3.7-4.58,5.36,6.38,5.38,8.33,0,3-1.13,5.88-1.12,8.93,0,1.14,1.93-1,1.93-1.86,0-3.06,1.24-5.86,1.12-8.93a23.89,23.89,0,0,0-1.29-7.21c-1.44-3.88-4.56-3.33-6.74-.63-.32.39-1.16,2.24,0,2l.86-.2c.85-.19,2-2.86.75-2.57Z"/><path class="cls-1" d="M101,60.89a12.59,12.59,0,0,1,5.29-2.15l1.26-2.61a9.66,9.66,0,0,0-3.53,1.75A3.16,3.16,0,0,0,103,59.7c-.07.54.13.72.61.36a7.62,7.62,0,0,1,2.75-1.32c.58-.15,1-.89,1.25-1.4.08-.17.54-1.3,0-1.21a14.27,14.27,0,0,0-6.06,2.58,3.13,3.13,0,0,0-1.09,1.82c-.07.56.13.7.6.36Z"/><path class="cls-1" d="M126.58,78.93c-4.55-2.62-5.09-7.86-3.35-12.45,1.49-3.93,3.66-6.24,7-8.62.67-.48,1.32-2.11.21-2.45-6.84-2-9.19,7-9.66,11.92-.33,3.45-.36,8.15,2.61,10.58,2.45,2,5.84,1.81,8.8,1.64,1.19-.07,2.12-2.81.51-2.71-4.65.26-8.55-.33-9.58-5.66-.69-3.58,0-14.9,6.26-13l.21-2.44c-.58.42-1.64.36-2.29.8a8.25,8.25,0,0,0-1.84,2.11,29.05,29.05,0,0,0-5,9.72c-1.29,5-.2,10.46,4.5,13.16,1.12.65,2.67-1.93,1.55-2.57Z"/><path class="cls-1" d="M131.34,65.18l-.44-.2-1.28,2.67c1.59.57,4.06,1.29,5.73.64s1.48-2.35,1.38-3.7c-.24-3.32-2-7.15-6-6.65-1.3.16-2.09,3-.43,2.76a3.43,3.43,0,0,1,3.41,2.12,7.12,7.12,0,0,1,.56,2.08c0,.16.16,1.7.28,1.45l.81-.75a4.94,4.94,0,0,1-2.35-.08,13.38,13.38,0,0,1-2.41-.64c-1.11-.39-2.44,2.14-1.28,2.67l.44.2c1.29.59,2.8-2,1.55-2.57Z"/><path class="cls-1" d="M7.63,81.74a21.31,21.31,0,0,0,10.24.84c1.34-.21,2.07-3,.4-2.79A20.13,20.13,0,0,1,8.62,79c-1.29-.44-2.49,2.27-1,2.77Z"/><path class="cls-1" d="M38.64,79.93a12.65,12.65,0,0,0,2.56.79L42,78l-2.49.25c-1.15.12-2.11,2.87-.53,2.71l2.49-.25c1-.1,2.13-2.46.8-2.72a10.27,10.27,0,0,1-2.09-.63c-.63-.27-1.27.28-1.57.8s-.61,1.5,0,1.77Z"/><path class="cls-1" d="M51.77,80.72l.6.17,1.4-2.59c-.46.07-1.23.13-1.18-.53s.33-1.17.12-1.82-1,.43-1.07.57c-.31.41-.83,1.21-.65,1.77a1.47,1.47,0,0,1-.08.8,2.61,2.61,0,0,0-.07,1.11c.19.79,1,.82,1.67.72s1-.82,1.16-1.22c.09-.18.64-1.26.24-1.38l-.6-.18c-.83-.24-2.07,2.42-1.54,2.58Z"/><path class="cls-1" d="M40.47,77.26A22.65,22.65,0,0,1,40,72.68.73.73,0,0,0,38.89,72a2.11,2.11,0,0,0-1.09,1.82A24.33,24.33,0,0,0,38.33,79c.14.71,1,.52,1.37.2a2,2,0,0,0,.77-1.93Z"/><path class="cls-1" d="M73.28,78c-.83.48-1.9-.81-2.46-1.3l-2.38-2.07c-.54-.48-2.25,1.95-1.54,2.57l3,2.59c.75.65,1.6,1.31,2.59.74a2.88,2.88,0,0,0,1.24-1.64c.09-.3.19-1.24-.42-.89Z"/><path class="cls-1" d="M89.52,77.75l-.83-.1-1,2.77A4.92,4.92,0,0,0,90.16,80c.84-.38,1.8-2.35.41-2.68L88,76.7c-1.32-.31-2.51,2.42-1,2.77l2.59.6L90,77.39a2.59,2.59,0,0,1-1.28.26,1.66,1.66,0,0,0-1.59,1.19c-.19.53-.16,1.48.58,1.58l.83.1a1.66,1.66,0,0,0,1.59-1.2c.19-.53.15-1.48-.58-1.57Z"/><path class="cls-1" d="M101.6,77.49a7.23,7.23,0,0,1-1.74,0c-.48-.08-.93.73-1.14,1.06-.06.11-.76,1.45-.41,1.51a8.28,8.28,0,0,0,2,.07c.2,0,.47-.34.57-.46a4.75,4.75,0,0,0,.63-1c.09-.17.58-1.21.1-1.16Z"/><path class="cls-1" d="M112.63,76.79c.28-.21.08,0,0-.07s-.22,0-.33,0a1.41,1.41,0,0,1-.56-.34,3.54,3.54,0,0,1-.73-1.54c-.19-.65-.84-.47-1.25-.13a2.19,2.19,0,0,0-.8,1.92,4.12,4.12,0,0,0,1.44,2.48,2.27,2.27,0,0,0,2.7-.23,2.15,2.15,0,0,0,.81-1.92c-.17-.71-.85-.41-1.25-.12Z"/><path class="cls-1" d="M108.53,78.64l0,.47c-.18,1.73,1.88,1.31,2.23,0a17.42,17.42,0,0,0,.49-7.18c-.27-1.84-2.52-.28-2.36,1a48.55,48.55,0,0,1,.35,7,.86.86,0,0,0,1.26.76,2,2,0,0,0,1.09-1.82,47,47,0,0,0-.34-7l-2.36,1a14.09,14.09,0,0,1-.26,5.78h2.23l0-.46c.2-2-2.18-1.1-2.33.36Z"/><path class="cls-1" d="M91,60.18l2.68-1.52a2.25,2.25,0,0,0,1.09-1.82.68.68,0,0,0-1.07-.64L91,57.72A2.25,2.25,0,0,0,90,59.54a.67.67,0,0,0,1.07.64Z"/><path class="cls-2" d="M22.18,61.43c0-2.21,1.65-.3,1.85.13a17.31,17.31,0,0,1-.87,3.12c-.4,1.51-.79,3-1.2,4.54-.3,1.13-1.52,3.82-.42,5,1.82,1.89,6.13-2.46,6.93-4,5.4-10.56-8-20.88-17.46-15C2.42,60.45,1,76.34,12.23,79.3a14.91,14.91,0,0,0,8.26-.53c1.42-.44,5.71-1.74,3,.65-1.45,1.28-5,1.71-6.83,1.94C6.91,82.59.53,73.9,2.11,64.66c1.62-9.48,10.51-14.9,19.36-11.47,2.87,1.11,6,2.82,7.59,5.56a19.65,19.65,0,0,1,2.2,7.93c.16,4.35-1.76,7.08-5.21,8.06-2.67.75-6.34.05-6.18-3.43,0-.26-.18-.44-.43-.26-5,3.77-11.7,4.58-8.66-4.89.43-1.33,2.05-5.08,2.77-5.57l5.11-1.26a11.85,11.85,0,0,1,2.63,2.93c.31.43,1.12-.68.85-1.06-2.69-3.77-6.39-5.26-9.19-1-1.89,2.89-6.59,10.32-3.42,13.61,1.54,1.6,3.83,1.55,5.79.86,1.05-.37,2.46-2,3.56-1.69.11,0,.84,1.91,1.15,2.19,3,2.83,8.71.23,10.76-2.71C33.72,68.27,32.15,61,29.45,57c-2.16-3.19-6.68-5.22-10.38-6-8.85-1.82-16.49,5.66-17.89,14-1,5.77.89,12.36,5.85,15.85,5.54,3.89,13.36,1.26,18.71-1.57.28-.15.68-.77.47-1.08l-1.36-2.08a.22.22,0,0,0-.27-.07c-5.67,2.36-14.28,4.19-18.11-2.39C1.72,65.55,8.86,53.66,18.26,54.49c6.94.61,14.48,11.26,8,17.19-3.28,3-4.06-.43-3.26-3.3s1.5-5.79,2.36-8.67c.05-.15.06-.47-.17-.48l-3.2,0c-.39,0-.74.58-.74.92l0,1.9c0,.79.93-.14.93-.59Z"/><path class="cls-2" d="M21.18,62.82c-.71,0-1.24-.92-1.86-1.2a2.66,2.66,0,0,0-1.25-.24,4,4,0,0,0-2.7,1.35c-1.55,1.62-3,4.71-2.49,7s2.77,2.93,4.68,1.84c2.52-1.45,3.27-5.09,4.21-7.59.33-.86-.69-.85-1-.14a40.35,40.35,0,0,1-1.91,4.85,3.41,3.41,0,0,1-2.77,2.1,2.21,2.21,0,0,1-2.26-2.15c-.17-1.72,1.2-4.79,2.76-5.65,1.14-.62,2-.13,2.92.59a1.69,1.69,0,0,0,1.15.54c.59,0,1.14-1.24.48-1.28Z"/><path class="cls-2" d="M39.14,48.34c3.36-1.16,3.71,0,3.26,3.09a58.75,58.75,0,0,0-.55,9.46c0,.14.08.23.21.13,3.36-2.43,10.45-6.48,13.08-.59.78,1.75,0,4.68-.07,6.57-.14,2.38,0,4.75.09,7.13,0,1.54,1.14,6.81-2.06,5.6-2.18-.81-1.36-3.83-1.27-5.45.18-3.39,1.24-9.6-.14-12.75s-6.6-1.36-8.42,1.08a6.17,6.17,0,0,0-.93,3.28c-.66,4.65-.21,9.75-.3,14.45l.8-1.23c-5,.65-4.18-3.43-3.9-6.69s.44-6.31.51-9.47a159.21,159.21,0,0,0-.51-16.2c0-.14-.94.79-.91,1.25a153.41,153.41,0,0,1,.14,23.58c-.36,5-2.67,9.77,4,8.92.39,0,.8-.88.81-1.22.08-4-1.71-18.43,4.85-17.86,5.43.46,3,15.44,2.64,19.35,0,.11,0,.16.12.17,2.75.27,4.75.56,5.46-2.23.58-2.26,0-5.1,0-7.42-.1-3.23.4-6.41.35-9.61-.07-4.29-3.57-6.38-7.65-5.36-1.64.41-4.77,3.18-6,1.79s1-10.52,1.33-11.85c0-.08.07-.32-.1-.29a20.62,20.62,0,0,0-4.16,1c-.42.15-.85,1.45-.68,1.39Z"/><path class="cls-2" d="M73.82,59.24C65.8,55.63,63.14,73,69,76c3.48,1.81,7.53-.51,8.45-4a14.66,14.66,0,0,0-3.46-13.29c-.49-.55-1.36.53-.93,1,3,3.43,6.78,13,.24,15.2-9.37,3.09-7-17.59-.15-14.5.62.28,1.33-.92.72-1.2Z"/><path class="cls-2" d="M72.79,55.57c-5.65,0-9.59,4.45-10.46,9.83-1.1,6.88,1.08,13.76,8.41,15.26,6.51,1.33,8.67-4.56,9.9-9.87,1.41-6.08-1.84-14.12-8.42-15.68-.45-.11-1.09,1.12-.53,1.25,3.5.83,5.87,4,7.42,7.09,2.75,5.51-.24,16.84-7.78,15.86-11.58-1.49-10.77-22.5.93-22.48.48,0,1-1.26.53-1.26Z"/><path class="cls-2" d="M87.3,58.2a171.61,171.61,0,0,0-2.24,18.06c-.21,4,1.41,4.08,5.3,4.14.31,0,.7-.8.7-1.07,0-3.92-.39-8.86.72-12.7.44-1.49,2.43-6.35,4.57-4.88,1.92,1.31,1.1,4.45.88,6.32-.31,2.6-1.67,8-.6,10.6,1,2.33,2.8,1.32,5.07,2,.32.1.78-.82.76-1.06a52.07,52.07,0,0,1,0-7.8,22.81,22.81,0,0,1,.89-5.89c.54-1.35,1.87-4.19,3.79-4.09,4.59.23.5,13.66,1.24,16.29.94,3.34,4.63,2.45,5.27-.31a56,56,0,0,0,1.6-13.37c-.15-3.77-2-8.18-6.21-8.85-1.65-.26-3,.37-4.49.86-3,1-3.06,0-5.86-.91-1.86-.6-3,.09-4.85.35-.19,0-2.6,2.33-2.27,0,0-.07,0-.15-.1-.14a9.31,9.31,0,0,0-3.71,1.07c-.29.14-.8,1.32-.45,1.15,2.25-1.13,3.11-1.14,3.5,1,0,.2.35-.13.37-.15,3.23-3.47,7.47-2.9,10.18.4a.17.17,0,0,0,.14,0c4.26-3,9.41-3.51,12,1.72,2,4,.53,8.64-.13,12.81-.11.7-.23,4.87-.67,5.13-2.87,1.72-3.27-3.17-3.32-4.8-.11-3.32,1.47-7.2.55-10.5-.84-3-4-4.45-5.92-1.58-3.07,4.5-2.66,13.53-2.34,18.52l.76-1.06c-2-.6-4,.08-5-2.67-.41-1.1.12-4.13.2-5.29.19-2.64,1.4-6.3.63-9-.91-3.14-4.4-3.28-6-.64a11.37,11.37,0,0,0-1,3.85A67.48,67.48,0,0,0,90.43,73c-.08,1.17.42,4.74-.19,5.45a2.87,2.87,0,0,1-3.87.17c-1.43-1.46-.19-6.84,0-8.71.46-4.23,1.05-8.43,1.72-12.63.06-.33-.75.61-.8.93Z"/><path class="cls-2" d="M125.42,66.41q3.28.36,6.57.65c1,.09,2.54.53,3.42-.3,1.48-1.4-.2-4.63-1.21-5.84a4.57,4.57,0,0,0-6.35-.59,7,7,0,0,0-2.17,5.08c0,.46.84-.52.86-.89.08-2.06,1.23-4,3.5-4a4.68,4.68,0,0,1,4.2,2.9,5.32,5.32,0,0,1,.71,2.07c-.09.91-1.21.45-2,.38q-3.48-.3-7-.68c-.38,0-1,1.19-.57,1.23Z"/><path class="cls-2" d="M125.9,70.48a120,120,0,0,0,14.18-.74c.41,0,.63-.54.65-.89.42-6.91-5.62-15.57-13.45-13.57-7,1.78-9.65,13.33-7.59,19.29,2.41,7,12.68,8.18,18,4,2-1.51,2.74-3.4.27-5.21a2.13,2.13,0,0,0-1.65-.56c-1.75-.08-3.29,1.68-5.4,1.43a4.68,4.68,0,0,1-4.36-4.87c0-.84-1.06-.08-1.07.51-.09,4.26,3.79,6.31,7.68,5.44l1.39-.46c1.7-1.3,2.64-.39,2.82,2.7-.68,1.28-4.08,1.88-5.27,2-3.66.47-8-.77-10.32-3.83-2.59-3.44-1.49-10.06,0-13.8,2.58-6.48,9.74-7,14.36-2.3,1.9,1.93,5.25,7.14,2.59,9-.89.61-3.66.32-4.67.38-2.56.15-5.12.19-7.68.17-.6,0-1.14,1.28-.49,1.29Z"/><path class="cls-2" d="M3.67,89.77a12,12,0,0,0,3.43-.21c.5-.11,1-1.4.27-1.25a11.38,11.38,0,0,1-3.19.2c-.53-.05-1.1,1.22-.51,1.26Z"/><path class="cls-2" d="M5.11,89.89l.16,4.31c0,.33.36.1.48,0a1.27,1.27,0,0,0,.4-.88L6,89c0-.33-.35-.1-.47,0a1.24,1.24,0,0,0-.41.88Z"/><path class="cls-2" d="M11.26,89.19a35.74,35.74,0,0,0,.13,5.07c.11.85,1.17.12,1.09-.49a37.48,37.48,0,0,1-.13-5.08c0-.85-1.09-.11-1.09.5Z"/><path class="cls-2" d="M12.05,91.6h2.41c.47,0,1-1.26.53-1.26H12.58c-.47,0-1,1.26-.53,1.26Z"/><path class="cls-2" d="M14,89.12,14.25,94c0,.54.92-.47.89-.88l-.28-4.82c0-.54-.91.47-.89.87Z"/><path class="cls-2" d="M23.35,88.16a6.63,6.63,0,0,0-2.74.38c-.7.39-.69,1.2-.7,1.9,0,.55,0,1.11.05,1.66a3.51,3.51,0,0,0,.18,1.33c.33.6,1.77.21,2.33.17s1.08-1.31.5-1.27l-1.2.08c-.6,0-.65.09-.76-.52a8.47,8.47,0,0,1-.07-1.33,3.76,3.76,0,0,1,0-1.34l-.44.53a5.47,5.47,0,0,1,2.31-.32c.55,0,1.09-1.29.5-1.27Z"/><path class="cls-2" d="M20.32,91.49H22a.8.8,0,0,0,.73-.57c.08-.21.1-.72-.25-.72H20.8a.79.79,0,0,0-.72.57c-.08.2-.1.72.24.72Z"/><path class="cls-2" d="M33.6,89.35a21.67,21.67,0,0,0,.24,5c.11.61,1-.41.93-.85a20,20,0,0,1-.23-4.7c.05-.77-.91.15-.94.59Z"/><path class="cls-2" d="M33.91,91.85a6.55,6.55,0,0,0,2-.12.94.94,0,0,0,.65-.9l.05-1.8-1.09.5.33,3.85c.07.85,1.14.11,1.09-.5L36.63,89c-.08-.89-1.08-.06-1.09.5l0,1.8.65-.89a5.73,5.73,0,0,1-1.75.13c-.61,0-1.16,1.23-.48,1.28Z"/><path class="cls-2" d="M44.53,88.47c-1-.86-2.07.4-2.42,1.29A5.21,5.21,0,0,0,42.48,94c.72,1.1,1.64.3,2.05-.59.66-1.47.15-3-.43-4.36-.14-.33-1,.69-.82,1.08a11.19,11.19,0,0,1,.58,1.59c0,.2.27,1.2.11,1.41-.27.37-.61-.12-.74-.34a4.58,4.58,0,0,1-.51-1.93,2.57,2.57,0,0,1,0-1.07.64.64,0,0,1,1.06-.16c.25.22,1-.92.72-1.2Z"/><path class="cls-2" d="M50.35,93.66,50.88,89l-1,.64A9.62,9.62,0,0,1,51.76,93c.17.57.84,0,.94-.36l1-3.22-.94.35a16.74,16.74,0,0,1,.16,5.56c-.12.9.91.38,1-.23a18.35,18.35,0,0,0-.16-6.14c-.12-.6-.86.08-.94.36l-1,3.22.94-.36a10.09,10.09,0,0,0-1.93-3.59c-.34-.42-.9.3-.94.63l-.52,4.7c-.11.91.92.39,1-.22Z"/><path class="cls-2" d="M62.08,93.06a6.81,6.81,0,0,1-1.77.47l.34.21-.17-1.63a8.72,8.72,0,0,1-.19-1.89c.08-.5-.11-.11.21-.14s.38,0,.57,0a2,2,0,0,0,.87-.2c.46-.22.77-1.49,0-1.14-.53.24-1.16-.09-1.72.14a1.63,1.63,0,0,0-.87,1,4.3,4.3,0,0,0,0,1.75l.3,2.91c0,.18.2.23.35.21a8,8,0,0,0,2-.58c.47-.2.78-1.47,0-1.14Z"/><path class="cls-2" d="M59.39,92.83l1.53-.5a1,1,0,0,0,.62-.74c0-.23,0-.62-.36-.51l-1.53.5a1,1,0,0,0-.62.74c0,.22,0,.62.36.51Z"/><path class="cls-2" d="M66.12,89.81c-.12,0,.78,3.83.87,4.24.13.61.87-.06,1-.34a37.64,37.64,0,0,1,1.59-4.22l-1,.35.65,4.53c.1.72.94-.24,1-.51l1.11-4.75c.21-.89-.87-.38-1,.22l-1.11,4.75,1-.51L69.58,89c-.09-.65-.85.13-1,.35A34.94,34.94,0,0,0,67,93.59l.95-.35-.73-3.34c-.1-.48-.16-1.55-.9-1.35-.52.14-.93,1.45-.24,1.26Z"/><path class="cls-2" d="M76.7,93.79a13.92,13.92,0,0,1,1.87-4.16l-.92.15c.33,1.49.58,3,.77,4.49.11.84,1.15.09,1.08-.51-.21-1.6-.48-3.19-.82-4.77-.12-.55-.76-.08-.91.16A16.05,16.05,0,0,0,75.65,94a.41.41,0,0,0,.41.55c.35,0,.57-.46.64-.74Z"/><path class="cls-2" d="M76.43,92.87l2.15-.27c.56-.07,1-1.36.24-1.27l-2.16.27c-.55.07-1,1.37-.23,1.27Z"/><path class="cls-2" d="M84.79,89.39l-.13,5.46c0,.45.84-.54.85-.9l.13-5.46c0-.45-.84.54-.85.9Z"/><path class="cls-2" d="M85.45,89.62c.66-.11,2.08-.16,1.47.87-.36.6-.93.65-1.59.76-.41.07-1,1.19-.37,1.27,1.23.15,1.63,1.55,2.28,2.41.39.52,1.24-.59.9-1-.79-1.05-1.2-2.48-2.68-2.66l-.37,1.27c1.36-.23,2.73-.79,3.06-2.29.37-1.67-1.11-2.08-2.45-1.86-.53.09-1,1.38-.25,1.26Z"/><path class="cls-2" d="M95.42,93.37a6,6,0,0,1-1.69,0c-.46-.2-.35-1.12-.37-1.55s-.19-1.16.11-1.48,1-.06,1.38-.13c.61-.11,1-1.44.19-1.3s-1.6-.25-2.29.37-.54,1.56-.53,2.36q0,.83.09,1.65a2.1,2.1,0,0,0,.24,1.16,1,1,0,0,0,.82.22h1.86c.63,0,1-1.3.19-1.29Z"/><path class="cls-2" d="M92.44,92.89l1.78-.22c.61-.07,1-1.38.2-1.29l-1.78.22c-.62.07-1,1.38-.2,1.29Z"/><path class="cls-2" d="M107.94,89.82c.32-.67.27-1.47-.65-1.54s-1.35.66-1.65,1.3a2.08,2.08,0,0,0,.15,2.2,7.6,7.6,0,0,0,1.19,1c.37.34.31.51-.22.29a1.18,1.18,0,0,1-.66-.72c-.1-.24-.94.74-.8,1.09.7,1.71,2.46.67,2.78-.7.19-.85-.38-1.11-1-1.57a2.1,2.1,0,0,1-.88-1.25c-.18-.23-.15-.35.07-.37a.72.72,0,0,1,.5,0c.12,0,.64.29.58.4-.41.86.32.4.56-.1Z"/><path class="cls-2" d="M112.49,89.48l2.92-.17c.6,0,1-1.33.21-1.28l-2.92.16c-.6,0-1,1.33-.21,1.29Z"/><path class="cls-2" d="M114,89.47l-.64,4.84c0,.33.23.36.46.27s.47-.56.51-.84l.63-4.84c0-.33-.22-.36-.45-.28s-.47.57-.51.85Z"/><path class="cls-2" d="M123.14,88.58c-1-.71-2,.27-2.46,1.08a4,4,0,0,0,.11,3.85c.76,1.25,1.86-.2,2.26-1a6,6,0,0,0,.29-3.92c0-.1-.85.73-.78,1.11a9.06,9.06,0,0,1,.2,1.94c0,.45-.26,1.36-.89,1a1.24,1.24,0,0,1-.48-.7,4.69,4.69,0,0,1-.35-1.88c0-.71.9-.71,1.37-.36.19.14,1-1,.73-1.2Z"/><path class="cls-2" d="M127.53,90a38.13,38.13,0,0,1-.18,4.78c-.1.91,1,.49,1.07-.18a41.34,41.34,0,0,0,.2-5.1c0-.85-1.1-.11-1.09.5Z"/><path class="cls-2" d="M128.71,90.12a1,1,0,0,1,1.49-.31.57.57,0,0,1,.19.22c.06.12.08.12.08,0-.11.12-.41.16-.55.2a4.9,4.9,0,0,1-1.62.13c-.62,0-1.17,1-.46,1.3a2.29,2.29,0,0,0,1.16.1c.62-.1,1-1.42.18-1.3a1.66,1.66,0,0,1-.88-.1l-.46,1.3a5.09,5.09,0,0,0,2.88-.49,1.5,1.5,0,0,0,.68-2c-.83-1.42-2.93-.77-3.56.48-.13.25-.23.67.07.86s.67-.09.8-.34Z"/><path class="cls-2" d="M128.78,91.64,129.9,95c.12.36,1-.65.83-1.07l-1.12-3.31c-.12-.36-1,.65-.83,1.07Z"/><path class="cls-2" d="M138.86,93.15a9.09,9.09,0,0,1-1.28,0c-.59-.09-.48-.22-.47-.81a18,18,0,0,1,.3-2.93l-.63.73a3.38,3.38,0,0,1,1.61-.08c.58.1,1.16-1.17.48-1.29a3.94,3.94,0,0,0-1.87.09.93.93,0,0,0-.64.74,12.92,12.92,0,0,0-.31,4.06c.17,1.1,1.47.79,2.32.81.6,0,1.14-1.27.49-1.29Z"/><path class="cls-2" d="M136.08,92.23a8.65,8.65,0,0,1,2-.11c.56,0,1.13-1.24.5-1.28a10.21,10.21,0,0,0-2.28.13c-.54.09-1,1.38-.25,1.26Z"/></g></svg>