<svg xmlns="http://www.w3.org/2000/svg" viewBox="0 0 141.82 141.73"><defs><style>.cls-1{fill:#a7c6c6;}.cls-2{fill:#0b3142;}</style></defs><title>Icon</title><g id="Icons_to_export" data-name="Icons to export"><path class="cls-1" d="M53,100.85c.83.63.75,1.74,1.46,2.47a.5.5,0,0,0,.58.18c1-.3,1.39-.9,1.83-1.85.13-.26.33-.9.09-1.17l-.25-.28c-.79-.89-2.17,1.31-1.91,2l.72,2.09,1.57-2.26a18.55,18.55,0,0,1-9.33-4.81l-1.55,2.57,2.49,1.91c.8.62,2.39-1.87,1.54-2.57l-4.26-3.53L44.4,98.22a68.24,68.24,0,0,0,15.18,6.86c1,.3,2.49-2,1.55-2.57l-4.87-3.16-1.55,2.57L65,107.75c1,.55,2.29-1.85,1.55-2.57a42.34,42.34,0,0,1-5.84-7.11L59,100.49a45.38,45.38,0,0,1,7.82,8c.74,1,2.3-1.44,1.84-2.27A111.19,111.19,0,0,1,63.52,95.6l-1.84,2.27,8,11.75c.66,1,2.15-1.34,1.91-2.05q-2.81-8.29-6.3-16.32l-1.84,2.27a129.89,129.89,0,0,0,9.24,17c.68,1.06,2.13-1.46,1.84-2.27L66.9,87.57l-1.84,2.27a202.38,202.38,0,0,0,10.61,22.25c.6,1,2.09-1.37,1.92-2A122.61,122.61,0,0,0,68.74,86.3c-.5-1-2.15,1.31-1.92,2A159.81,159.81,0,0,0,76,111c.51,1,2.09-1.34,1.91-2L71.44,84l-1.92,2,7.22,12.66c.64,1.13,2-1.48,1.91-2a43.83,43.83,0,0,0-3.1-12.45l-1.84,2.27,3.71,6.33c.6,1,1.93-1.24,1.93-1.76A60,60,0,0,0,78,78.27l-1.91,2,3.3,5.17c.64,1,1.93-1.23,1.93-1.77V73.52l-1.78,1.92L81.24,77C82,77.58,83,75.55,83,75L83,70.23l-1.78,1.92,1.17,1.13c.53.53,1.5-1,1.6-1.24a11.3,11.3,0,0,0,.72-4.24,31.24,31.24,0,0,1,1.66-9c1.26-4,2.31-7.78,1.4-12-.29-1.32-2.2.88-2,1.82,1,4.7-.8,8.71-2,13.11-.92,3.29-.31,7.13-1.43,10.2l1.61-1.25-1.17-1.13C82,68.91,80.92,71,80.93,71.5L81,76.3l1.78-1.92L81,72.87c-.73-.63-1.78,1.4-1.78,1.91V85l1.93-1.76-3.3-5.17c-.67-1-2.06,1.38-1.92,2a57.35,57.35,0,0,1,1.37,12.18l1.93-1.77-3.71-6.33c-.61-1-2.19,1.43-1.84,2.27a42.28,42.28,0,0,1,3,12l1.92-2L71.36,83.74c-.59-1-2.09,1.37-1.91,2.05l6.43,24.94,1.92-2a156.43,156.43,0,0,1-9-22.16l-1.92,2a119.41,119.41,0,0,1,8.69,23.3l1.92-2.05A202.38,202.38,0,0,1,66.9,87.57c-.42-1-2.18,1.35-1.84,2.27l7.6,20.73,1.84-2.27a129.89,129.89,0,0,1-9.24-17c-.43-1-2.25,1.33-1.84,2.27q3.4,7.82,6.15,15.87l1.92-2-8-11.75c-.7-1-2.19,1.45-1.84,2.27a111.19,111.19,0,0,0,5.17,10.65l1.84-2.27a47.38,47.38,0,0,0-8.11-8.33c-.81-.64-2.15,1.74-1.7,2.42A44.07,44.07,0,0,0,65,107.75l1.55-2.57-10.3-5.83c-.92-.52-2.44,2-1.55,2.57l4.87,3.16,1.55-2.57a68.31,68.31,0,0,1-15.19-6.86c-.91-.56-2.36,1.89-1.54,2.57l4.26,3.53,1.54-2.57-2.48-1.91c-.82-.63-2.34,1.84-1.55,2.57a19.54,19.54,0,0,0,9.73,4.93c.81.16,1.81-1.58,1.57-2.26l-.72-2.09-1.92,2c-.72-.81,1.36-2.91-.32-4.19-.8-.6-2.42,1.91-1.55,2.57Z"/><path class="cls-1" d="M60.28,98.36l-1.63-2.74-2,2.19,3.19,5.07c.75,1.19,2.65-.91,2.11-1.93L58.2,93.81l-2.12,1.92a23.21,23.21,0,0,0,7.09,5.87c1,.54,2.1-.89,2-1.8A63.61,63.61,0,0,0,61.3,85.71L59,87.37a37.1,37.1,0,0,0,5.41,8.33c1,1.15,2.49-.9,2.11-1.92l-3.31-9L61.13,86.7a55.51,55.51,0,0,0,6.05,8.63c.88,1,2.33-.65,2.18-1.61a102,102,0,0,0-3.08-13.26L64,82.12a55.76,55.76,0,0,0,5,9.25c.82,1.22,2.23-.8,2.18-1.62a75.9,75.9,0,0,0-1.23-10L67.79,81.4l6.15,10c.77,1.26,2.22-.83,2.18-1.61a85.48,85.48,0,0,0-1.35-11.5l-2.18,1.61,4.19,6.7c.82,1.3,2.16-.89,2.18-1.62a53.56,53.56,0,0,0-1.13-12.56l-2.11,1.93,4.38,7.49c.64,1.09,2.13-.52,2.17-1.27a49.12,49.12,0,0,0-.42-10l-2,1.8a9.55,9.55,0,0,1,2.6,2.7c.67.91,1.81-.25,2.07-.91,1.37-3.5-.07-6.37,0-9.94C84.6,61,86.72,59.68,87.67,57a15.55,15.55,0,0,0,.64-4.7c.26-7.45-1.35-15.72-9.15-18.5-1-.37-2.24,1.72-1.49,2.48a36.59,36.59,0,0,1,8.49,13.35L88.41,48A27,27,0,0,0,75.62,35c-1.29-.63-2.81,2-1.55,2.57A25.46,25.46,0,0,1,86.16,49.63c.74,1.55,2.71-.44,2.25-1.67a38,38,0,0,0-8.76-13.87l-1.5,2.48c8.86,3.16,9.37,15.75,5.66,22.71a10.49,10.49,0,0,0-1.67,4.54c-.28,3.44,1.59,6.58.25,10l2.07-.91a15.52,15.52,0,0,0-3-3.08c-.91-.72-2.08,1-2,1.81a45.86,45.86,0,0,1,.44,9.3l2.17-1.26-4.39-7.5c-.82-1.4-2.29,1.06-2.11,1.93a51.44,51.44,0,0,1,1,11.94l2.18-1.62-4.19-6.69c-.74-1.18-2.34.74-2.18,1.61a87.13,87.13,0,0,1,1.35,11.5l2.18-1.62-6.16-10C69,78,67.42,80,67.58,80.83a77.65,77.65,0,0,1,1.24,10L71,89.18a52.83,52.83,0,0,1-4.72-8.72c-.69-1.6-2.63.44-2.26,1.66a96.17,96.17,0,0,1,3,12.64l2.18-1.61a55.74,55.74,0,0,1-6-8.64c-.72-1.28-2.48.93-2.12,1.93l3.32,9,2.11-1.92a35.44,35.44,0,0,1-5.12-7.81c-.74-1.54-2.75.43-2.26,1.66a60.32,60.32,0,0,1,3.71,13.47l2-1.81a22,22,0,0,1-6.65-5.49c-.91-1.11-2.65.91-2.12,1.93l3.79,7.15,2.11-1.93-3.19-5.07c-.8-1.28-2.65,1-2,2.19l1.62,2.74c.76,1.28,2.67-1,2-2.19Z"/><path class="cls-1" d="M49.22,53.35c.41-1.51,2.57-2.92,3.66-3.93q2-1.89,4.15-3.7c3.09-2.67,6.31-5.19,9.6-7.61.54-.39,1.54-2.86,1-2.44A159.86,159.86,0,0,0,54.49,46.35c-2.74,2.49-5.87,4.82-6.88,8.5-.36,1.33,1.45-.93,1.61-1.5Z"/><path class="cls-1" d="M67,38.2a113.52,113.52,0,0,1,11.91,1.31l1.26-2.62A95.49,95.49,0,0,0,66,38.05l-1.26,2.62,9.44-2.55c.49-.13,2.14-2.18,1.41-2.59a17.92,17.92,0,0,0-7-2.22l-1.26,2.61a29.05,29.05,0,0,1,10.35.33l1.4-2.59c-6.65-.43-13.15-.41-18.23,4.41-.41.39-1.75,3.1-.48,2.19,4.64-3.33,10.29-6,15.88-3.21,4.52,2.28,6.9,7,8.88,11.41.26.59,2-1.6,1.72-2.34A23.52,23.52,0,0,1,85,38.48l-1.75,2.15A37,37,0,0,1,86,58.76l1.77-1.95v-6.1l-1.77,2c.38,4.23.57,8.45.55,12.7,0,.92,1.78-1.21,1.78-2,0-4.25-.17-8.47-.56-12.71-.09-1-1.77,1.3-1.77,2v6.09c0,1,1.71-1.32,1.77-1.95A37.64,37.64,0,0,0,85,38.29c-.3-.73-1.78,1.67-1.75,2.15a24.83,24.83,0,0,0,1.88,8l1.72-2.34C84.44,40.79,81.21,34.88,75,33.46c-5.21-1.18-10.13,1.71-14.18,4.61l-.48,2.19c4.82-4.58,11.26-4.38,17.45-4,.71,0,1.91-2.49,1.41-2.6a30.19,30.19,0,0,0-10.64-.37c-.65.09-2.09,2.52-1.26,2.61A17,17,0,0,1,74,38.1l1.4-2.6L66,38.05c-.71.2-1.9,2.72-1.26,2.62a94.18,94.18,0,0,1,14.23-1.16c.7,0,2.06-2.49,1.26-2.62a116.25,116.25,0,0,0-11.91-1.31c-.77,0-2,2.57-1.26,2.62Z"/><path class="cls-1" d="M85.77,68A52.78,52.78,0,0,0,83,61.53c-.54-1-1.93,1.53-1.87,2.08l1.45,13.64,1.88-2.07a51.13,51.13,0,0,0-3.07-6.37c-.57-1-1.8,1.4-1.87,1.79l-.75,4.63,1.87-1.8q-2.25-2.7-4.37-5.5c-.67-.89-1.85,1.27-1.87,1.8a24.66,24.66,0,0,0,1.26,8.82l1.81-2.29a17.84,17.84,0,0,0-4-6.27c-.78-.74-1.86,1.86-1.68,2.43a120.81,120.81,0,0,1,4.36,19.07c.18,1.23,2.06-1,1.94-1.86a124.12,124.12,0,0,0-4.49-19.5l-1.68,2.43a16.47,16.47,0,0,1,3.78,6c.39.92,2.08-1.44,1.81-2.29a20.51,20.51,0,0,1-1.13-7.84l-1.87,1.8c1.41,1.87,2.86,3.7,4.37,5.5.74.89,1.79-1.29,1.87-1.8l.75-4.63-1.87,1.8a54,54,0,0,1,3.06,6.37c.41,1,1.93-1.5,1.87-2.07L83,61.75l-1.87,2.07A52.17,52.17,0,0,1,84,70.28c.29.83,2.14-1.36,1.8-2.29Z"/><path class="cls-1" d="M41.94,100.8c-2.29,3-1.84,7.65,2.36,8.51,1.13.23,2.42-2.46,1.08-2.73-1.65-.34-3.69-2.46-2.35-4.2.34-.45.84-1.35.41-1.91s-1.18-.09-1.5.33Z"/><path class="cls-1" d="M45.81,106.88a8,8,0,0,1-3-7c.07-.69-.73-.09-.91.08a3.11,3.11,0,0,0-.89,1.86,8.74,8.74,0,0,0,3.2,7.64c.52.42,2.21-2,1.55-2.57Z"/><path class="cls-1" d="M94.88,98.82l-.82,1.08,1.21-.31,1.08-4.51-1.63,1a9.44,9.44,0,0,1-.63,5l1.76-1.33a23.2,23.2,0,0,1,2-8.4l-1.62,1,1.22,7.49c.21,1.29,1.75-1.25,1.83-1.65A119.13,119.13,0,0,0,101.09,86l-1.84,1.65a57.23,57.23,0,0,0,1.26,7.81c.19.82,1.76-1.43,1.79-1.85a78.62,78.62,0,0,0-.06-12.56c-.1-1.15-1.84,1.21-1.85,1.91a31.65,31.65,0,0,0,1.11,8.93c.24.87,1.81-1.62,1.81-2.11a72.13,72.13,0,0,0-1.51-15.44L100,76.46l4,12.2c.26.81,1.89-1.51,1.81-2.11L104,72.73l-1.81,2.11,5.28,8.53c.57.91,1.83-1.66,1.81-2.12a44.82,44.82,0,0,0-1.5-10.43L106,73.13a24.16,24.16,0,0,0,6.78,8.14c.78.61,1.78-1.92,1.66-2.44a23.8,23.8,0,0,0-4.93-10.08l-1.65,2.44a19,19,0,0,0,6.31,4.47c.79.36,2.23-2,1.54-2.57q-7.22-5.57-13.89-11.76c-.54-.51-2.17,1.89-1.55,2.57a37.39,37.39,0,0,1,4.9,6.65l1.77-2.32a158.78,158.78,0,0,0-11-12.2c-.61-.61-1.85,1.89-1.65,2.44a36.65,36.65,0,0,1,1.56,5.61L97.65,62a7,7,0,0,1-1.17-3c-.22-.87-1.74,1.49-1.79,1.85a85.15,85.15,0,0,1-7.53,26.17c-.86,1.84.86,1.08,1.41-.09a89.57,89.57,0,0,0,7.94-27.46l-1.79,1.84a7.19,7.19,0,0,0,1.16,3.06c.44.84,1.92-1.56,1.81-2.11a39.13,39.13,0,0,0-1.65-6L94.39,58.6a156.18,156.18,0,0,1,10.76,11.95c.61.75,2.18-1.63,1.77-2.32a40.72,40.72,0,0,0-5.12-6.9l-1.55,2.57q6.69,6.2,13.9,11.76l1.54-2.57a19.1,19.1,0,0,1-6.31-4.47c-.47-.5-2.13,1.85-1.65,2.44a23.93,23.93,0,0,1,4.92,10.09l1.66-2.45a23.56,23.56,0,0,1-6.56-7.88c-.45-.85-2,1.63-1.77,2.31a43.11,43.11,0,0,1,1.42,10l1.81-2.11-5.28-8.53c-.54-.87-1.88,1.6-1.81,2.11l1.81,13.83,1.81-2.11-4-12.2c-.24-.76-1.94,1.44-1.81,2.11a72.79,72.79,0,0,1,1.52,15.44l1.81-2.11a29.68,29.68,0,0,1-1-8.53L100.39,83a75.5,75.5,0,0,1,.09,12l1.8-1.84a52.39,52.39,0,0,1-1.18-7.41c-.1-1.2-1.78,1.13-1.83,1.64a119.13,119.13,0,0,1-1.79,12.2L99.32,98,98.1,90.46c-.18-1.13-1.49.68-1.63,1A28.71,28.71,0,0,0,94,101.68c-.07,1.18,1.66-1,1.76-1.34a14.51,14.51,0,0,0,.83-6.17c-.09-1.16-1.51.74-1.63,1a15.08,15.08,0,0,0-1.53,6.32c0,.91,1.08-.13,1.22-.31l.82-1.08c.78-1,.66-2.91-.58-1.28Z"/><path class="cls-1" d="M118.54,75.18a1.74,1.74,0,0,0,1.34-.31l-.91-.55,0,1.34c0,.51.26.85.78.61a2.53,2.53,0,0,0,1.17-1.56,1.67,1.67,0,0,0-.44-1.85c-.37-.31-1,.36-1.18.57a4.73,4.73,0,0,0-1.1,2.13c-.09.45-.06,1.2.6,1a2.31,2.31,0,0,0,1.29-1.62c.07-.33-.2.19,0-.07l-1.18.57c.18.16,0,.26.09-.09l1.94-1,0-1.34c0-.58-.36-.9-.91-.55a.47.47,0,0,1-.37,0c-.23,0-.59.23-.74.36a3,3,0,0,0-.66,1c-.18.43-.38,1.24.25,1.37Z"/><path class="cls-1" d="M108.61,93.15a10.14,10.14,0,0,1-.28,4.45c-.15.49,0,1.13.59,1S110,97.53,110.2,97a12.84,12.84,0,0,0,.38-5.65c-.1-.68-.81-.35-1.14-.06a2.37,2.37,0,0,0-.83,1.9Z"/><path class="cls-2" d="M20.28,81.12c5.66-.29,9.7-3.94,13.27-8a159.61,159.61,0,0,0,12-15.9c4.2-6.22,7.54-14.42,13.2-19.38s15.16-6,22-3.21c16.08,6.64,10.15,30.15,6.1,42.4-4.41,13.31-9.89,27.14-5.35,41.18L83,115.72C65.16,105.54,38.09,103.07,30.1,81c-.13-.34-1.94,1.65-1.67,2.37,8,22.19,35.07,24.68,53.05,34.92.54.3,1.75-2,1.61-2.48-5.49-17,3.81-33,7.9-49.18C93.77,55.69,95.26,37.28,82.21,32c-11.07-4.45-22.06.8-28.22,10.13C49.64,48.76,45.82,55.63,41.15,62c-4.81,6.57-10.57,16-19.56,16.51-.72,0-1.75,2.61-1.31,2.59Z"/><path class="cls-2" d="M38.91,98.43c-.19,2.56-1.28,5.09-.59,7.67A7.58,7.58,0,0,0,42,110.79c3.83,2,8.31,0,10.34-3.56.92-1.61-.89-2.71-1.81-1.09a5.28,5.28,0,0,1-8.18,1.22c-2.93-2.67-1.34-5.93-1.08-9.29.15-1.95-2.24-1.13-2.35.36Z"/><path class="cls-2" d="M56,102.69l1.51,4.14c.58,1.58,2.46-.25,2.36-1.33L59.39,101l-2.2,1.59a32.35,32.35,0,0,0,5.62,6.67c1.18,1.07,3-1.25,2-2.17a32.61,32.61,0,0,1-5.62-6.67c-.79-1.24-2.3.74-2.21,1.59l.45,4.55,2.36-1.33L58.26,101c-.58-1.6-2.76.35-2.28,1.65Z"/><path class="cls-2" d="M63.68,100.44a50,50,0,0,0,5.85,10c.88,1.16,2.17-.83,2.15-1.63-.06-3.85-2-7.34-3.57-10.8C66.28,94,64.31,89.93,62.25,86c-.77-1.49-2.77.51-2.22,1.68a297.43,297.43,0,0,0,14.31,26.92c.3.5,1,.25,1.36,0,3.13-2.12,1.3-6,.41-8.88Q72.72,94.7,69,83.83l-2.23,1.68Q72.64,98,77.42,111c.6,1.63,2.49-.53,2.23-1.68A164,164,0,0,0,73.87,89.9c-.57-1.56-2.67.47-2.23,1.68A164,164,0,0,1,77.42,111l2.23-1.68q-4.8-13-10.68-25.49c-.73-1.54-2.64.49-2.23,1.68q2.34,6.8,4.55,13.63c.47,1.47,4.85,12.4,3.66,13.21H76.3a295,295,0,0,1-14-26.4L60,87.63c1.78,3.45,3.5,6.93,5.11,10.46s4.13,7.78,4.2,11.8l2.15-1.63a46.69,46.69,0,0,1-5.58-9.51c-.67-1.52-2.75.5-2.23,1.69Z"/><path class="cls-2" d="M72.69,89.29l4.79,7.89c.54.89,1.85-1.62,1.81-2.11a45,45,0,0,0-2.58-11.68c-.25-.69-2.07,1.46-1.76,2.31A43.63,43.63,0,0,1,77.44,97l1.8-2.11L74.45,87c-.45-.74-2.21,1.58-1.76,2.32Z"/><path class="cls-2" d="M74.47,83.05l1.42,2.51c.6,1.06,1.93-1.53,1.88-2.07l-.9-9.86L75,75.7a27.85,27.85,0,0,1,3.69,5.5c.53,1,1.83-1.39,1.88-1.79a55.15,55.15,0,0,0,.31-7.6L79,73.88l2.94,5.51c.53,1,1.87-1.34,1.88-1.8l.26-9.29-1.88,1.79a20.94,20.94,0,0,1,2.57,5.11c.37,1.08,1.82-1.47,1.88-1.79a30,30,0,0,0,.37-7.2l-1.75,2.21.58.19a.9.9,0,0,0,.9-.32c3.94-3.65,2.2-12.37,1.62-17.05-.15-1.23-2,.95-1.94,1.85.13,1.11.26,12.71.39,12.76-1-.33-1.8,1.46-1.75,2.21a25.86,25.86,0,0,1-.37,6.65l1.88-1.8A20.36,20.36,0,0,0,84,67.81c-.64-.93-1.87,1.28-1.88,1.79l-.25,9.3,1.88-1.8-3-5.5c-.58-1.1-1.89,1.58-1.88,2.07a48.54,48.54,0,0,1-.31,7l1.88-1.79a27.63,27.63,0,0,0-3.69-5.51c-.8-.94-1.93,1.46-1.88,2.07l.9,9.87,1.88-2.07-1.42-2.52c-.5-.88-2.29,1.44-1.81,2.29Z"/><path class="cls-2" d="M75.87,102.87a190.66,190.66,0,0,1,6.65-23.08l-1.69,1.1L76.05,104c-.3,1.45,1.36-.37,1.55-.77a61.87,61.87,0,0,0,4.27-14.47c.31-1.65,3.77-19.18,4.33-18.94.8.34,2.2-2.29,1.55-2.57l-.38-.16a.61.61,0,0,0-.57.17c-3,2.74-3.85,8.12-4.69,12-1.8,8.13-2.36,16.47-5.84,24.15l1.54-.78L82.6,79.48c.32-1.52-1.52.65-1.68,1.11a194.91,194.91,0,0,0-6.82,23.7c-.32,1.45,1.61-.71,1.77-1.42Z"/><path class="cls-2" d="M83.79,77.92,90,59.3c.61-1.82-1.29,0-1.56.83L82.23,78.74c-.61,1.83,1.29,0,1.56-.82Z"/><path class="cls-2" d="M54.34,46.65c4.73-6.15,11.82-12.09,19.92-8.29.6.28,2-2.35,1.55-2.57-9-4.2-16.64,3.14-21.74,9.77-.69.9-1,2.73.27,1.09Z"/><path class="cls-2" d="M92.5,50.55a82.55,82.55,0,0,0,27.61,24.68L120,73.41c-3.95,7.71-8.13,15-14.82,20.68C99.08,99.26,92,103.1,85,106.9l1.27.76a66,66,0,0,0-2.51-17.38c-.44-1.58-2.59.42-2.24,1.68a63.71,63.71,0,0,1,2.39,16.76.85.85,0,0,0,1.26.76c7.65-4.16,15.41-8.38,21.94-14.22s10.7-13.08,14.64-20.78c.26-.51.54-1.46-.12-1.82a81.51,81.51,0,0,1-27.2-24.3c-.86-1.22-2.74,1.1-2,2.19Z"/><path class="cls-2" d="M102.38,101.63a9.31,9.31,0,0,0,9.32-3.94c1.84-2.73,2.43-6.27.31-9-.25-.32-2.1,1.86-1.55,2.57,1.74,2.25,1.6,5.36-1,6.91a9,9,0,0,1-5.83.85c-.7-.11-2,2.5-1.27,2.61Z"/><path class="cls-2" d="M81.28,32.59a17.59,17.59,0,0,1,1.65-1.89c.78-.65,1.2-.48,2,0a5.12,5.12,0,0,1,1.49,1.12,2.38,2.38,0,0,1,.51.85l.07.39c0,.47,0,.47.07,0l-1,2.6c2.53-.77,3.6-4.55,1.86-6.5-.71-.8-2.58-2.22-3.74-2-1.5.33-2.32,3-2.91,4.19-.19.38-.43,1.16.13,1.3s1.16-1,1.33-1.36l.58-1.15.23-.46c.14-.3.16-.31.06,0s0,.37.32.38l.38.19a10,10,0,0,1,.91.5,3.9,3.9,0,0,1,1.46,1.42c.12.22.14.48.24.7-.07.4,0,.49.13.25s.13-.18-.19,0c-.55.17-1,1-1.19,1.47-.07.19-.35,1.27.19,1.13,2.53-.63,4-4.28,2.24-6.34-.73-.86-2.52-2.13-3.73-1.85A3.24,3.24,0,0,0,83,28.63l-2.3,2.65c-.88,1-.71,2.84.63,1.31Z"/><path class="cls-2" d="M82,31.06c.38-1.25.73-2.93,1.88-3.72,1.62-1.12,3.16.25,4.24,1.38s1.74,2.08,1.32,3.51a7.85,7.85,0,0,1-2.32,3C86,36.36,87,38.28,88.39,36.9s3.14-3.32,3.49-5.55-.92-4.08-2.53-5.56c-4.41-4.07-8.09.67-9.37,5-.57,1.89,1.58,1.88,2,.31Z"/><path class="cls-2" d="M80.69,29.45a2,2,0,0,1,.63-1.35l-.45-.62-1.23,3.43c-.11.31-.32,1,.25.78A3.24,3.24,0,0,0,81.08,30l1.23-3.43c.17-.46.2-1.23-.44-.62A9.47,9.47,0,0,0,79,31.44c-.09.66.66,0,.8-.15a3.62,3.62,0,0,0,.92-1.84Z"/><path class="cls-2" d="M97.61,97.79l1-8-2.09,1.32,2.61,4.31c.65,1.07,2-.66,2.09-1.31l.63-4.91-2.09,1.31,2,3c.69,1,2-.64,2.09-1.32q.66-4.69,1.13-9.42l-2.21,1.06a59.52,59.52,0,0,1,2.08,5.93c.41,1.42,2.15-.24,2.21-1.06a38.9,38.9,0,0,0-1.31-13.54l-2.19,1.71A46,46,0,0,0,109.19,88c.81,1.16,2.15-.91,2.12-1.66-.16-4.3-1.85-8-3.83-11.71l-1.94,2.21a31,31,0,0,0,8.16,6c.86.44,1.81-.73,1.89-1.5a8.93,8.93,0,0,0-1.16-5.87l-1.74,2.39,1.43.56c.93.36,1.75-.66,1.89-1.49.69-3.87-5.26-7.56-7.89-9.69l-1.55,2.57a52.64,52.64,0,0,0,6.63,4.21c1.18.64,2.71-1.94,1.55-2.57a52.64,52.64,0,0,1-6.63-4.21c-1.06-.79-2.59,1.73-1.55,2.57,1.6,1.3,7.62,5.22,7.21,7.54l1.89-1.5-1.44-.56c-1.22-.48-2.29,1.39-1.74,2.39l.86,4.08,1.89-1.49a29.44,29.44,0,0,1-7.76-5.68c-1.09-1.11-2.48,1.18-1.94,2.21,1.84,3.49,3.33,6.62,3.48,10.6l2.11-1.65a43.64,43.64,0,0,1-5.4-10.66c-.54-1.55-2.5.57-2.19,1.71A34.76,34.76,0,0,1,104.8,89.1L107,88a56.45,56.45,0,0,0-2.08-5.94c-.55-1.35-2.12.18-2.21,1.07q-.47,4.72-1.13,9.42l2.09-1.31-2-3c-.69-1-2,.63-2.09,1.32L99,94.54l2.09-1.32-2.61-4.31c-.64-1.07-2,.66-2.09,1.32l-1,8c-.25,1.94,2.06,1,2.24-.43Z"/><path class="cls-2" d="M116.4,78.88c-5.2,3.66-9.15,9.59-13.26,14.37-.56.66-1.22,3.27.1,1.83,5.42-5.87,11.51-12.52,13.45-20.48.35-1.46-1.64.65-1.82,1.38-1.6,6.56-7.27,12.44-11.73,17.27l.1,1.83c4-4.61,7.8-10.43,12.79-14,.62-.44,1.64-3.15.37-2.25Z"/><path class="cls-2" d="M85.76,90.68q1.67-5,3.77-9.89l-2-.28-2.41,7.94c-.57,1.89,1.49,1.8,2,.28l4.09-11.81-2.14.42-.43,3.37,2.12-.08,2.89-14.28-2.24.77a12.9,12.9,0,0,1-.58,5.06L93,71.75a92.46,92.46,0,0,0,2-19l-2.27,1.12a44.81,44.81,0,0,1-.35,10.79c-.3,1.94,2,.93,2.21-.43A47.94,47.94,0,0,0,95,52.7c-.15-1.85-2.26-.06-2.27,1.12a89.24,89.24,0,0,1-1.94,18.36c-.41,1.95,1.89.84,2.21-.43A23.72,23.72,0,0,0,93.68,66c0-1.79-2.06-.16-2.25.77L88.54,81.06c-.35,1.76,1.73,1.1,2.11-.07a12.1,12.1,0,0,0,.68-4.76c-.08-1.59-1.84-.45-2.14.41L85.11,88.45l2,.28,2.41-7.94c.59-1.93-1.39-1.73-2-.28q-2.11,4.86-3.77,9.89c-.62,1.87,1.5,1.8,2,.28Z"/></g></svg>