<svg xmlns="http://www.w3.org/2000/svg" viewBox="0 0 141.82 141.73"><defs><style>.cls-1{fill:#a7c6c6;}.cls-2{fill:#0b3142;}</style></defs><title>Icon</title><g id="Icons_to_export" data-name="Icons to export"><path class="cls-1" d="M45.36,118.05a63.68,63.68,0,0,0-5,8.13c-1,1.93-.23,4.08,1.73,1.82l9.08-10.46-1.73-1.82L40.9,128.78,43,130.06a43.4,43.4,0,0,1,11-12.15l-.9-2.61L47,126.72c-.67,1.25-.58,4.28,1.32,2.27a108.17,108.17,0,0,1,13.38-12.57l-.9-2.6-6.41,11.4c-1.08,1.93-.18,4.07,1.74,1.82a124,124,0,0,1,10.53-11l-1.63-1.67-5.21,10.93c-1,2,.74,3.06,2,1.23a41.52,41.52,0,0,1,9.24-9.47l-.89-2.6-5.66,10.28c-1.06,1.94-.2,4.07,1.74,1.82a62.15,62.15,0,0,1,10.52-9.72l-1.2-2A49.91,49.91,0,0,1,71,123.33c-1.3,1.92-.16,4,1.74,1.82a135.41,135.41,0,0,1,10.35-10.4l-1.83-1.1a74.17,74.17,0,0,1-4.22,9.93c-.73,1.43.14,3.13,1.62,1.68L89.11,115l-1.32-2.27-5.48,10.29c-1,1.9-.17,4.14,1.74,1.82A71.44,71.44,0,0,1,96.36,113l-1.2-2L90,121.8c-1,2.13.63,2.8,2,1.23l10.62-11.85-1.74-1.82-5.11,9.18c-1,1.88,0,4.27,1.74,1.82A43.58,43.58,0,0,1,107.65,110l-1.4-1.43a23.15,23.15,0,0,1-3.94,7.42c-1.42,1.83-.88,4.94,1.36,2.37a51.81,51.81,0,0,1,9.24-8.32l-1.4-1.44a23.39,23.39,0,0,1-3.38,6.64c-1.33,1.85-1,4.9,1.36,2.37l8.07-8.79-2-1.23-4.17,9.09c-.95,2.07.64,2.92,2,1.23a11.82,11.82,0,0,1,3.89-3.42l-1.2-2-2,4.72c-1.29,3.1,1.82,2.27,2.73.08l2-4.71c.41-1,.39-3-1.2-2a23.44,23.44,0,0,0-5.58,5l2,1.23,4.17-9.09c1-2.15-.6-2.79-2-1.22l-8.07,8.78,1.36,2.37a36.07,36.07,0,0,0,5.15-10.07c.34-1-.23-2.26-1.4-1.43A61.76,61.76,0,0,0,102.31,116l1.36,2.37a34.2,34.2,0,0,0,5.7-10.85c.32-1-.23-2.28-1.4-1.44A50.92,50.92,0,0,0,96.15,118l1.74,1.82,5.11-9.19c1.09-2,.22-4-1.74-1.82L90.64,120.66l2,1.23,5.21-10.77c.44-.91.31-3.14-1.2-2a80.69,80.69,0,0,0-14,13.39l1.74,1.82L89.91,114c.68-1.27.65-4.2-1.32-2.26L78.17,122l1.62,1.68a82.55,82.55,0,0,0,4.63-11.08c.53-1.56-.73-2.09-1.83-1.1a147,147,0,0,0-11.18,11.29l1.74,1.82A56.13,56.13,0,0,0,78.36,115c.39-.91.36-3.15-1.2-2A72.89,72.89,0,0,0,65,124.22L66.7,126l5.66-10.28c.45-.82,1-4-.9-2.6a49,49,0,0,0-10.92,11l2,1.23,5.21-10.93c.7-1.47-.1-3.09-1.63-1.68A134,134,0,0,0,54.8,124.67l1.74,1.82L63,115.09c.46-.82,1-4-.89-2.6a112.85,112.85,0,0,0-14.23,13.24L49.15,128l6.13-11.41c.43-.81,1-4-.9-2.6a53.19,53.19,0,0,0-13.48,14.8c-1.57,2.56.48,3.79,2.12,1.28L51.5,117c1.25-1.92.16-4-1.73-1.82l-9.08,10.46,1.73,1.82a55.47,55.47,0,0,1,4.29-7c1.35-1.87.63-5.11-1.35-2.37Z"/><path class="cls-1" d="M35.35,123.32l-1.43,2.46,2-1.3a40.28,40.28,0,0,1,.79-10.33c.5-2.38-2.41,1.7-2.68,2.51a20.48,20.48,0,0,1-2.35,5.12l2-1.3L36,104.91c.21-1.48-1.9,1.08-2,1.3-1.69,2.79-3.26,5.63-4.73,8.55l2.35-1.88a93.44,93.44,0,0,1,3.87-15.1c.86-2.5-1.15-.66-1.79.4a45.23,45.23,0,0,0-4,8.41l2.35-1.53A109.52,109.52,0,0,0,36.51,87.6c.24-1.45-1.89,1.06-2,1.3l-5,9,2-1.3L34,80c.22-1.49-1.9,1.1-2,1.3A40.29,40.29,0,0,0,27,92.37l2.77-2.92,2.85-15.16c.28-1.49-2.2,1.57-2.35,1.88l-4.52,9.46L28,84.15,31.37,68.8c.49-2.28-2,.91-2.27,1.47l-3.83,8,2.35-1.88L30.2,61.2c.23-1.34-1.55.58-1.66.74a43.3,43.3,0,0,0-4.82,9l2.52-2,3.2-14.58c.5-2.3-2,.94-2.27,1.47l-3.34,6.47,2.35-1.88,2.69-15.11c.24-1.34-1.56.59-1.67.75a66.93,66.93,0,0,0-5.54,9.43L24,53.59a47,47,0,0,1,3.51-11.33l-2.27,1.48L24,48.35c-.61,2.21,2.42-1.55,2.68-2.52l1.26-4.6c.61-2.23-2,.89-2.27,1.47a59,59,0,0,0-4.49,14.22c-.27,1.5,2.2-1.58,2.35-1.88a50.63,50.63,0,0,1,4.17-7.16L26,48.62,23.34,63.73c-.28,1.52,2.21-1.62,2.34-1.88L29,55.38l-2.27,1.47L23.55,71.43c-.52,2.37,2.28-1.42,2.52-2a20.72,20.72,0,0,1,3-5.62l-1.67.74L24.78,79.67c-.26,1.51,2.21-1.58,2.35-1.88l3.82-8-2.27,1.47L25.36,86.67c-.5,2.28,2-.91,2.27-1.48l4.52-9.45L29.8,77.62,27,92.78c-.25,1.29,2.55-2.16,2.76-2.92A27.87,27.87,0,0,1,33.18,82l-2,1.3L28.67,100c-.22,1.47,1.89-1,2-1.29l5-9-2,1.3a99.19,99.19,0,0,1-4,15.66c-1,3,1.94-.38,2.35-1.53a32.67,32.67,0,0,1,2.85-6.15l-1.79.4a106.94,106.94,0,0,0-4.35,16.9c-.26,1.52,2.21-1.6,2.35-1.88,1.27-2.52,2.62-5,4.08-7.39l-2,1.3L30.9,123.81c-.22,1.48,1.9-1.07,2-1.3a42.3,42.3,0,0,0,3.81-8.36l-2.68,2.51a43.47,43.47,0,0,0-1,11.15c.07,1.48,1.83-1,2-1.3l1.42-2.46c1.44-2.49.26-3.28-1.21-.73Z"/><path class="cls-1" d="M39.68,18.12c-1.34,7.51,2.36,13.74,6.5,19.69.89,1.27,3.77-2.68,3-3.85-3.75-5.4-7.62-11.22-6.4-18.12.45-2.54-2.83,1-3,2.28Z"/><path class="cls-1" d="M92,11.05c-2.75,5.93-.69,12.47,2.56,17.84.54.9,3.47-2.87,2.83-3.92C95.3,21.46,92.07,14.77,94,10.66c1.44-3.11-1.11-1.41-1.94.39Z"/><path class="cls-1" d="M60.57,80.28A21.39,21.39,0,0,0,62.75,90.5c.57,1.17,2.76-3.09,2.83-3.62A46,46,0,0,0,66,79.47L63.2,83.1a26.34,26.34,0,0,0,1.38,6.64c.43,1.12,2.77-3,2.83-3.63a44.57,44.57,0,0,0,.06-9.66c-.08-.84-1.58.92-1.66,1a4.69,4.69,0,0,0-1.15,2.89,36.73,36.73,0,0,0,2,8.9c.38,1.08,2.77-3,2.83-3.63A50.58,50.58,0,0,0,69.62,79l-2.84,3.63q1,3.8,2.11,7.58c.23.81,1.52-.85,1.66-1,.47-.65,1.41-2,1.15-2.89q-1.1-3.78-2.1-7.58c-.2-.76-1.38.67-1.48.8a5.26,5.26,0,0,0-1.36,2.82A48.9,48.9,0,0,1,66.61,89l2.83-3.63a36.65,36.65,0,0,1-2-8.89l-2.81,3.93a42.22,42.22,0,0,1-.1,9.06l2.83-3.63A26.86,26.86,0,0,1,66,79.16c-.08-.78-1.43.74-1.47.8a5.29,5.29,0,0,0-1.36,2.83,47,47,0,0,1-.45,7.41l2.83-3.63A20.27,20.27,0,0,1,63.42,77c0-1.07-1-.07-1.31.25a5.73,5.73,0,0,0-1.54,3.07Z"/><path class="cls-2" d="M27.56,35.88c5.51,27.05,5.83,54.76,11.34,81.81.1.48.91.55,1.27.49C67,113.61,94,110.13,120.82,105.56c.46-.08,1.88-.49,1.62-1.27-4.91-14.75-5.8-29.78-6.52-45.18a178.56,178.56,0,0,0-2.07-21.77,105.37,105.37,0,0,0-2.65-11.61c-.58-2.05-1.07-5.48-3.09-6.73-2.85-1.76-8.27.56-11.2,1.21Q88.69,22,80.44,23.78q-16.51,3.54-33.06,7-9.3,2-18.59,3.9c-1.79.37-1.33,2,.44,1.62q29.64-6.18,59.24-12.55l8.88-1.93c1.42-.32,2.87-.74,4.31-1,4.38-.66,4.88.15,6.09,3.78,2.9,8.66,4.12,17.94,4.8,27,1.34,18.14,1.17,35.91,7,53.39l1.62-1.27c-26.82,4.57-53.82,8-80.65,12.62l1.28.5c-5.51-27-5.84-54.76-11.34-81.8C30.23,34,27.33,34.73,27.56,35.88Z"/><path class="cls-2" d="M33.5,133.3c19.13-1.89,38.05-5.29,57-8.43,4.49-.74,9-1.47,13.49-2.16,3.84-.59,8.49-.55,12.15-1.85,2-.73,2.59-1.6,3.25-3.57,1.46-4.33,1.88-9.34,2.78-13.82.19-.93-2.71-.45-2.88.42-.79,3.94-1.22,8.27-2.43,12.09a5.12,5.12,0,0,1-1.86,3.81l-1.74.23c-2.09.73-4.85.7-7,1-7.83,1.18-15.65,2.49-23.46,3.8-16.22,2.72-32.44,5.44-48.8,7.07-1.33.13-2.48,1.59-.46,1.38Z"/><path class="cls-2" d="M37.56,129.16q3.33-6.28,7.08-12.31c.19-.3-2.4-.2-2.85.52q-3.76,6-7.08,12.31c-.2.36,2.46.21,2.85-.52Z"/><path class="cls-2" d="M27.85,35.7c-2.69,5.36-8,12.36-7.65,18.64.2,4,1.58,8,2.25,12,.78,4.61,1.39,9.25,1.93,13.89,2,17.71,3.05,35.57,7.9,52.81.31,1.11,2.1.44,2.64,0,3.26-2.84,5.69-10.72,6.22-15,.16-1.36-2.78-.91-2.93.27a31.29,31.29,0,0,1-2.33,7.31c-.79,2-1.64,5.18-3.34,6.67l2.64,0c-4.51-16-5.72-32.59-7.49-49.07-.86-8-1.91-16-3.51-23.86-.95-4.7-1.37-7.51.66-11.9,1.79-3.87,3.84-7.65,5.76-11.46.69-1.39-2.23-1.26-2.75-.23Z"/><path class="cls-2" d="M42.27,70l7.95,40.72c.12.61,1.28.5,1.65.37a290.49,290.49,0,0,1,61.93-13c.63-.06,1.67-.45,1.63-1.23a228.3,228.3,0,0,0-3-28.21c-.38-2.2-.21-5.13-2.52-6.2-2-.94-6,.55-7.78.88a327.25,327.25,0,0,1-58.7,5.2c-1.13,0-3.06,1.71-1.11,1.71A332.92,332.92,0,0,0,91.2,66.74c3.85-.57,7.7-1.21,11.52-1.92,2.46-.45,5-.84,6.32,1.81.85,1.73.81,4.62,1.11,6.53a230.54,230.54,0,0,1,2.39,24.47l1.63-1.23a294.56,294.56,0,0,0-62.71,13.16l1.66.38-8-40.71c-.2-1-3.11-.33-2.89.77Z"/><path class="cls-2" d="M47.06,80.53c21.58-.48,41.74-9.18,63.11-11.15,1.44-.14,2.38-1.86.37-1.67C89.43,69.65,69.47,78.36,48.18,78.83c-1.12,0-3.06,1.74-1.12,1.7Z"/><path class="cls-2" d="M51.27,94.24l31.5-6.79c9.58-2.07,19.28-3.82,28.27-7.87,1.85-.83.13-1.46-1.07-.92-9.32,4.19-19.5,5.88-29.42,8L51,93.07c-1.74.37-1.41,1.54.32,1.17Z"/><path class="cls-2" d="M92.15,67a130.57,130.57,0,0,1,3.32,15.76c.67,5.25,1.06,10.44,2.83,15.47.27.77,2.89,0,2.9-.77l0-2.31c0-.57-2.89-.14-2.9.78l0,2.3,2.9-.77C99.42,92.41,99,87.23,98.37,82A128.47,128.47,0,0,0,95,66.21c-.19-.73-3.09,0-2.89.78Z"/><path class="cls-2" d="M76.85,71c1.73,9.67,3.15,19.4,4.69,29.09.2,1.27,2.79.54,2.91-.51l.1-.75c.17-1.42-2.78-1-2.93.25l-.1.75,2.92-.51c-1.54-9.7-3-19.43-4.7-29.09-.23-1.28-3.13-.55-2.89.77Z"/><path class="cls-2" d="M67,69.36a209.74,209.74,0,0,1,5.75,34.4c0,.45,3-.06,2.89-.78a209.72,209.72,0,0,0-5.74-34.4c-.15-.56-3,.18-2.9.78Z"/><path class="cls-2" d="M55,70.05q4.08,17.88,6.4,36.06c.15,1.18,3.06.49,2.9-.77q-2.32-18.2-6.41-36.06c-.27-1.2-3.17-.45-2.89.77Z"/><path class="cls-2" d="M42.16,45.24q1.46,6.19,3.27,12.31c.12.41.56.5.92.56,4.18.68,8.95-2.17,8.81-6.76-.17-5.7-6.52-6.9-11.06-7.25-1.28-.1-3,1.74-1.05,1.9,3,.23,7.38.67,8.75,3.89s-.7,6.92-4.39,6.32l.92.56q-1.81-6.1-3.27-12.31c-.28-1.19-3.18-.44-2.9.78Z"/><path class="cls-2" d="M63.51,54.94a56.49,56.49,0,0,1,.87-15.19l-2.8.75a55.06,55.06,0,0,1,9.15,15.9c.36,1,3.23.13,2.89-.78a56.2,56.2,0,0,0-9.34-16.24c-.54-.66-2.64-.06-2.8.75a58.63,58.63,0,0,0-.87,15.59c.07.9,3,.3,2.9-.78Z"/><path class="cls-2" d="M62.53,48.3l4.77-.67c.63-.08,1.52-.42,1.59-1.16s-.76-1-1.33-.95l-4.78.66c-.62.09-1.51.43-1.59,1.17s.76,1,1.34.95Z"/><path class="cls-2" d="M75.88,40.45a68.14,68.14,0,0,0,9.57-2.92c1.84-.71.22-2.4-1.31-1.81a61.67,61.67,0,0,1-8.82,2.64c-1.82.41-1.25,2.49.56,2.09Z"/><path class="cls-2" d="M79.52,39.05q1.85,6.23,3.25,12.56c.21.92,3.12.19,2.9-.78q-1.41-6.33-3.25-12.55c-.28-.94-3.17-.15-2.9.77Z"/><path class="cls-2" d="M101.41,35c-2.28.33-4.93.33-7.08,1.24s-1.78,2.83-1.48,4.94l.78,5.56c.15,1.08,0,3.07.87,3.84.39.33,1,.24,1.5.25,1.91,0,3.93-.28,5.83-.42.73-.05,3.17-1.21,1.28-1.08-1.42.1-5.32,1-6.13-.3s-.64-4.35-.84-5.84a31.24,31.24,0,0,1-.7-5.15c.09-2.12,3-1.71,4.7-2,.7-.1,3.13-1.35,1.27-1.08Z"/><path class="cls-2" d="M94.54,43.82H100c1.68,0,2.21-2.18.24-2.18H94.78c-1.67,0-2.2,2.18-.24,2.18Z"/><path class="cls-2" d="M47.89,17.09a99.89,99.89,0,0,1,3,10.42c.27,1.2,1.66,5,1.16,6.09-2,4.42-3.48-.45-3.88-1.92-.93-3.36-2-6.64-3-10-.46-1.48-1.72-6.23,1-5.63A8,8,0,0,1,48,17.23c.76.49,3.3-.67,2.71-1.05C48,14.46,46,13.78,43,15.91c-2.36,1.71-1.51,4.12-.75,6.57,1.18,3.78,2,8.34,3.62,11.9,1.39,3,5.54,4.51,8.17,1.91,1.9-1.88.67-5,.22-7.28a97.68,97.68,0,0,0-3.5-12.69C50.5,15.48,47.62,16.33,47.89,17.09Z"/><path class="cls-2" d="M98.12,13l1.4,7.42c.19,1,1,3.42.8,4.46l-1.58,2.33c-.14-.47-.27-.95-.37-1.43-1.09-2.4-4.59-15.36-.27-15.81l-1.26-.43L98.12,13c.38,1,3.25.19,2.89-.78L99.74,8.77c-.18-.47-.85-.47-1.26-.43-3.7.39-5.86,1-5.64,5a55.3,55.3,0,0,0,1.71,9.19c.4,1.76.45,4.91,1.77,6.33,1.62,1.76,4.91.78,6.15-.95s.77-3.52.51-5.3c-.51-3.48-1.31-6.94-2-10.39C100.82,11.22,97.91,11.92,98.12,13Z"/><path class="cls-2" d="M48.76,36.84c-4.66.07-5.88-6.2-6.74-9.68s-4.35-11.22,1.86-11.75c1.56-.13,2.3-2.11.31-1.94-7.45.64-7.27,5.29-5.78,11.49,1.37,5.71,2.64,13.92,10,13.82,1.59,0,2.29-2,.31-1.94Z"/><path class="cls-2" d="M99.47,28.33c-3.62-.46-5.07-1.19-6.4-4.53a28.89,28.89,0,0,1-1.58-5.63c-.3-1.75-1.09-5-.34-6.54,1.24-2.63,2.87-2,5-2.13,1.53-.07,2.33-1.93.34-1.83-2.26.11-5-.42-6.86,1.32s-1.53,4.77-1.35,7c.28,3.77,1.18,8.05,3.2,11.31,1.48,2.4,4.34,2.5,7,2.83,1.26.16,3-1.61,1.07-1.85Z"/></g></svg>