<?xml version="1.0" encoding="UTF-8"?>
<svg width="667px" height="68px" viewBox="0 0 667 68" version="1.1" xmlns="http://www.w3.org/2000/svg" xmlns:xlink="http://www.w3.org/1999/xlink">
    <!-- Generator: Sketch 50.2 (55047) - http://www.bohemiancoding.com/sketch -->
    <title>Footer border Copy</title>
    <desc>Created with Sketch.</desc>
    <defs>
        <polygon id="path-1" points="0 0.0626811905 2.97510079 0.0626811905 2.97510079 3.63575069 0 3.63575069"></polygon>
        <polygon id="path-3" points="0.231447834 0.0931428571 129.669222 0.0931428571 129.669222 26.2856388 0.231447834 26.2856388"></polygon>
        <polygon id="path-5" points="0 0.0626811905 2.97510079 0.0626811905 2.97510079 3.63575069 0 3.63575069"></polygon>
        <polygon id="path-7" points="0.441714749 0.0931428571 129.879242 0.0931428571 129.879242 26.2856388 0.441714749 26.2856388"></polygon>
        <polygon id="path-9" points="0.0609012977 0.0931428571 129.498781 0.0931428571 129.498781 26.2856388 0.0609012977 26.2856388"></polygon>
        <polygon id="path-11" points="0.271168852 0.0931428571 129.708745 0.0931428571 129.708745 26.2856388 0.271168852 26.2856388"></polygon>
    </defs>
    <g id="Footer-border-Copy" stroke="none" stroke-width="1" fill="none" fill-rule="evenodd">
        <g id="Group" transform="translate(7.000000, 17.000000)">
            <g id="Group-10" transform="translate(650.500000, 19.000000) rotate(-107.000000) translate(-650.500000, -19.000000) translate(649.000000, 17.000000)">
                <mask id="mask-2" fill="white">
                    <use xlink:href="#path-1"></use>
                </mask>
                <g id="Clip-9"></g>
                <path d="M2.46744444,3.13872593 C2.02744444,3.69220741 1.30022222,3.79354074 0.663555556,3.39176296 C0.121333333,3.04983704 -0.147555556,2.05724444 0.0824444444,1.18139259 C0.233,0.606577778 0.551333333,0.205392593 0.995777778,0.0993185185 C1.30244444,0.025837037 1.64133333,0.0714666667 1.95022222,0.160355556 C2.38966667,0.285985185 2.718,0.66642963 2.90633333,1.20865185 C3.09355556,1.74791111 2.88244444,2.61724444 2.46744444,3.13872593" id="Fill-8" fill="#D2D6D8" mask="url(#mask-2)"></path>
            </g>
            <g id="Group-14-Copy-5">
                <g id="Group-3" transform="translate(79.000000, 16.500000) rotate(2.000000) translate(-79.000000, -16.500000) translate(14.000000, 3.000000)">
                    <mask id="mask-4" fill="white">
                        <use xlink:href="#path-3"></use>
                    </mask>
                    <g id="Clip-2"></g>
                    <path d="M29.9956464,5.95628571 C29.8609498,6.09114286 29.4078255,6.49914286 29.0084617,6.97285714 C28.8950329,7.10828571 28.8513156,7.49571429 28.931661,7.654 C29.0232311,7.83571429 29.3322063,8.03971429 29.47222,7.98028571 C31.7136196,7.03114286 33.8215042,5.73285714 35.8892161,4.34142857 C36.0812179,4.21228571 36.2354101,3.99571429 36.3919655,3.80257143 C36.4664031,3.71114286 36.5219359,3.58657143 36.5579732,3.46428571 C36.5934197,3.34371429 36.6194138,3.20428571 36.6052352,3.07971429 C36.5680164,2.754 36.3961009,2.57342857 36.1326153,2.61514286 C33.9449761,2.96028571 32.0781277,4.18657143 29.9956464,5.95628571 Z M107.519482,14.4122857 C107.107121,13.9865714 106.668766,14.1865714 106.264085,14.3814286 C104.154429,15.3968571 102.208416,16.786 100.29726,18.2408571 C100.049134,18.4294286 99.8890343,18.8345714 99.7567007,19.178 C99.637955,19.4865714 100.293715,19.882 100.859087,19.8442857 C102.360245,19.7431429 103.762745,19.2831429 104.939568,18.1111429 C105.372606,17.6802857 105.774333,17.1905714 106.134115,16.6722857 C106.63332,15.9545714 107.335751,15.4082857 107.519482,14.4122857 Z M24.4275937,16.5991429 C24.5829675,16.786 24.7212088,17.0014286 24.8966689,17.1562857 C27.4795365,19.4425714 30.4659032,20.8528571 33.2667666,22.6665714 C33.549157,22.8494286 33.9260713,22.8471429 34.262813,22.8785714 C34.7496115,22.9237143 35.1430675,22.6665714 35.4307748,22.2054286 C35.6363645,21.8745714 35.6168689,20.986 35.3781959,20.6511429 C35.0857623,20.2414286 34.8027812,19.7762857 34.4300023,19.5008571 C31.4613588,17.3111429 28.1967371,16.2517143 24.7395228,15.9785714 C24.6520882,15.9717143 24.5262531,16.106 24.4719018,16.2128571 C24.4205044,16.3151429 24.44,16.4682857 24.4275937,16.5991429 Z M6.59741877,17.8928571 C7.25081572,18.8957143 8.14347648,19.5271429 9.07867303,20.0368571 C11.3655624,21.2831429 13.670175,22.4842857 15.9842399,23.6574286 C16.3883299,23.8625714 16.8792638,23.9408571 17.3158464,23.8922857 C17.5970552,23.8614286 17.9042581,23.5414286 18.0968507,23.2534286 C18.1848762,23.1208571 18.0702658,22.7242857 17.9721972,22.494 C17.6454988,21.7311429 17.1161645,21.1911429 16.448589,20.9288571 C13.9531561,19.9471429 11.4547694,18.9705714 8.9386594,18.0688571 C8.18896614,17.8008571 7.38196773,17.5762857 6.58560327,17.9648571 L6.59741877,17.8928571 Z M104.725117,9.174 C103.792874,7.91114286 102.493761,7.40028571 101.255496,6.786 C100.532388,6.42771429 99.7679255,6.186 99.0140968,5.92314286 C98.8067348,5.85057143 98.5716065,5.89857143 98.3500659,5.87914286 C98.0345921,5.85171429 97.5418859,6.32771429 97.6446808,6.582 C97.7350693,6.80485714 97.8349102,7.10257143 97.9967825,7.19171429 C99.8405908,8.20485714 101.77656,8.87742857 103.769834,9.29685714 C104.074083,9.36028571 104.416142,9.16142857 104.740477,9.08542857 L104.86454,9.19514286 L104.725117,9.174 Z M9.43786412,10.0528571 C11.8547239,9.89685714 13.7646989,8.45342857 15.4980323,6.58657143 C15.598464,6.47857143 15.5636083,6.16828571 15.5529743,5.95457143 C15.551202,5.91742857 15.3426585,5.83914286 15.2522699,5.87171429 C13.0067348,6.68142857 11.1871484,8.33457143 9.43550102,10.122 C9.23050216,10.1202857 9.018414,10.0774286 8.82227676,10.1271429 C8.53456942,10.2002857 8.46426721,10.4025714 8.63795501,10.5802857 C8.6781277,10.622 8.8352738,10.5345714 8.92152693,10.4722857 C9.09935015,10.3448571 9.26653942,10.194 9.43786412,10.0528571 Z M10.7003499,16.2397143 C12.8484072,17.1757143 15.0047353,18.0945714 17.1480663,19.0562857 C18.3721518,19.6048571 19.3073483,20.5945714 19.9359327,21.9728571 C20.0983958,22.33 20.2189139,22.7231429 20.3146194,23.1145714 C20.601736,24.2882857 19.8987139,25.6802857 18.9073938,26.0048571 C17.7612906,26.3797143 16.5945103,26.454 15.5571097,25.758 C12.0555874,23.4088571 8.14465803,22.0871429 4.7429766,19.4865714 C3.97733242,18.9014286 3.07167462,18.5871429 2.26822086,18.0642857 C1.67094751,17.6757143 1.1221177,17.1711429 0.575650988,16.6802857 C0.185739605,16.33 0.0994864803,15.2151429 0.460449898,14.8014286 C1.28339923,13.8568571 2.06381277,12.8088571 3.01023404,12.0802857 C6.19037491,9.63342857 9.42014088,7.27685714 12.6646762,4.95342857 C13.6418178,4.254 14.7223449,3.75514286 15.7703795,3.206 C16.0775824,3.04485714 16.432638,3.00028571 16.7705612,2.94371429 C17.8422268,2.76314286 18.7803772,3.95 18.6380005,5.24371429 C18.5452488,6.09228571 18.2799909,6.84371429 17.8091434,7.46028571 C16.6358646,8.998 15.2800364,10.2351429 13.6353192,10.986 C12.0313656,11.718 10.4345012,12.4734286 8.8470893,13.2545714 C8.73602363,13.3094286 8.70766644,13.6614286 8.68580777,13.882 C8.6804908,13.9322857 8.86481254,14.07 8.95697342,14.0637143 C9.63990911,14.0157143 10.3269802,13.9814286 11.0034174,13.8688571 C12.9340695,13.5482857 14.8623586,13.25 16.8207771,13.398 C17.7748784,13.4705714 18.5511566,13.0094286 19.3327516,12.3197143 C22.4691752,9.55285714 25.646953,6.85342857 28.8365462,4.17571429 C30.5314792,2.75285714 32.3687889,1.61571429 34.3189366,0.780285714 C35.0662668,0.460285714 35.857905,0.239142857 36.6448171,0.112285714 C37.3750148,-0.00485714286 37.980559,0.421428571 38.3781504,1.17628571 C39.1408407,2.62085714 38.956519,4.17971429 37.9592911,5.26257143 C36.9236628,6.38828571 35.6753556,7.08142857 34.4524517,7.83 C31.799282,9.45628571 29.0515883,10.8237143 26.2708112,12.0985714 C26.0197319,12.2134286 25.9293433,12.4425714 26.0386367,12.7042857 C26.0817632,12.8071429 26.2046444,12.9117143 26.3009407,12.9254286 C26.754065,12.9917143 27.2107339,13.062 27.6662213,13.0637143 C28.5819223,13.0677143 29.498214,13.0208571 30.413915,13.0082857 C32.245317,12.9831429 34.0773097,12.9637143 35.9087117,12.9477143 C36.2519518,12.9448571 36.5975551,13.0105714 36.9384322,12.982 C41.1719246,12.6288571 45.4101431,13.0111429 49.6454079,12.8442857 C56.8564054,12.5608571 64.0679936,12.2894286 71.2795819,12.0282857 C72.882354,11.9694286 74.4863077,11.9785714 76.0890798,11.9471429 C81.1277982,11.8494286 86.1659259,11.7351429 91.2040536,11.6517143 C93.0360464,11.6208571 94.8692206,11.6511429 96.7018041,11.6677143 C97.9577914,11.6802857 99.2007816,11.5711429 100.471538,11.3094286 C100.328571,10.9774286 100.277173,10.63 100.133024,10.5614286 C99.2828993,10.1574286 98.4020541,9.84542857 97.549566,9.44885714 C96.7921927,9.09742857 96.1500204,8.52714286 95.610643,7.78942857 C94.9247535,6.85114286 95.0842627,5.27971429 95.9379323,4.50314286 C96.5068484,3.98542857 97.1395683,3.72828571 97.8443626,3.68942857 C99.2545421,3.61228571 100.577287,4.042 101.826185,4.77057143 C104.195192,6.15171429 106.551202,7.56314286 108.901895,8.98885714 C113.159609,11.5717143 112.072584,11.2671429 117.092988,10.99 C117.42973,10.9705714 117.764108,10.8448571 118.092579,10.7351429 C118.152838,10.7157143 118.216051,10.5328571 118.207189,10.434 C118.197146,10.318 118.13157,10.1528571 118.052406,10.11 C116.700123,9.374 115.313574,8.72085714 113.996146,7.90714286 C113.194465,7.41285714 112.456587,6.73457143 111.763608,6.034 C111.104894,5.36828571 111.244317,3.73742857 111.936705,3.09 C112.588921,2.48028571 113.323254,2.126 114.155656,2.13628571 C114.496533,2.14085714 114.848634,2.17571429 115.174151,2.28714286 C117.596919,3.11857143 120.058087,3.86714286 122.305985,5.24771429 C124.338841,6.49571429 126.273629,7.97628571 128.232638,9.39285714 C128.616051,9.67 128.922663,10.1088571 129.245226,10.4951429 C129.762154,11.114 129.811779,12.082 129.364563,12.7208571 C128.777332,13.5602857 128.211961,14.4271429 127.577469,15.2122857 C126.860859,16.0997143 126.104076,16.9837143 125.072584,17.3151429 C123.934751,17.6808571 123.018459,18.4837143 122.060813,19.2408571 C120.813097,20.2277143 119.478537,21.0237143 117.985649,21.3494286 C116.647544,21.6414286 115.493761,21.2282857 114.550293,20.0277143 C113.941204,19.2522857 113.862631,17.7917143 114.453406,16.9968571 C114.907121,16.3871429 115.430548,15.8488571 115.93566,15.2951429 C116.438409,14.7437143 116.961836,14.2185714 117.462222,13.6637143 C117.511847,13.6088571 117.487035,13.4145714 117.452179,13.3042857 C117.415551,13.1888571 117.336387,13.0214286 117.257814,13.0065714 C115.194238,12.598 113.164335,12.7545714 111.206508,13.6648571 C110.792965,13.8568571 110.40778,14.218 110.084626,14.594 C109.101577,15.7408571 108.116165,16.8917143 107.202236,18.1162857 C105.524435,20.3665714 103.460859,21.6711429 100.971925,22.078 C99.4684026,22.3237143 98.2903976,21.6511429 97.2831266,20.3928571 C96.7567462,19.7334286 96.793965,18.3157143 97.4178232,17.7945714 C98.3542013,17.0128571 99.3366599,16.3088571 100.307894,15.5882857 C100.889216,15.1568571 101.500668,14.7797143 102.06604,14.3214286 C102.18065,14.2282857 102.174742,13.8762857 102.171197,13.646 C102.169425,13.562 102.022322,13.4322857 101.926617,13.4077143 C101.59401,13.3214286 101.254906,13.2162857 100.918164,13.218 C98.5143013,13.23 96.1086662,13.1985714 93.7071666,13.3077143 C87.417187,13.5945714 81.1224813,13.5882857 74.8313202,13.7734286 C66.5911929,14.0151429 58.3540195,14.3614286 50.1144831,14.598 C45.3079391,14.7357143 40.4996228,14.738 35.6924881,14.8248571 C34.892579,14.8391429 34.0920791,14.9465714 33.2980777,15.0688571 C33.1480209,15.0922857 33.0068257,15.3728571 32.9052125,15.5671429 C32.8733106,15.6288571 32.9554283,15.8505714 33.0328198,15.9082857 C33.7080754,16.4134286 34.3916019,16.902 35.0780823,17.386 C36.8326835,18.6237143 37.5132561,20.5631429 37.5841491,22.8974286 C37.6042354,23.5602857 37.177696,24.3077143 36.6956237,24.518 C34.9965553,25.2602857 33.3016224,25.3231429 31.7272075,24.1728571 C28.7000773,21.9625714 25.3255715,20.4825714 22.5312065,17.7705714 C21.745476,17.0071429 20.7464758,16.5471429 19.8207317,16.0088571 C19.4178232,15.7745714 18.9599727,15.6185714 18.5139377,15.5557143 C15.8767189,15.1825714 13.2566326,15.186 10.7003499,16.2397143 Z M114.129071,5.42942857 C114.212961,5.51914286 114.286217,5.63057143 114.381332,5.69628571 C117.166244,7.622 120.191011,8.74085714 123.326253,9.47 C123.509984,9.51342857 123.803599,9.39057143 123.918209,9.22028571 C124.084808,8.974 123.954247,8.70828571 123.717346,8.53742857 C121.062995,6.61685714 118.121527,5.58257143 115.177696,4.56142857 C114.970334,4.48942857 114.709212,4.50028571 114.508348,4.58771429 C114.330525,4.66542857 114.184603,4.88885714 114.061132,5.08085714 C114.022731,5.14085714 114.103077,5.31 114.129071,5.42942857 Z M122.780377,16.3985714 C123.297305,15.8745714 123.838455,15.3808571 124.319936,14.814 C124.548566,14.5442857 124.713983,14.154 124.805553,13.7814286 C124.84868,13.6065714 124.690943,13.2185714 124.549748,13.1511429 C124.25436,13.01 123.874492,12.8808571 123.59092,12.986 C121.096078,13.9071429 118.756019,15.2065714 116.741477,17.2465714 C116.656405,17.3328571 116.538841,17.4322857 116.520527,17.5454286 C116.459677,17.9208571 116.373424,18.3197143 116.428366,18.6802857 C116.456133,18.858 116.767471,19.082 116.959473,19.0945714 C117.51362,19.1317143 118.086671,19.1625714 118.624867,19.0334286 C120.219368,18.6511429 121.517301,17.5597143 122.780377,16.3985714 Z" id="Fill-1" fill="#D2D6D8" mask="url(#mask-4)"></path>
                </g>
                <path d="M8.39550054,18.8599057 C7.68142398,17.7804971 7.9685387,16.0421295 8.98114606,15.3102925 C10.0177272,14.5611279 11.5349259,15.2363953 11.879121,16.6083348 C12.0920311,17.4578977 12.0229638,18.2824884 11.677627,19.0846551 C11.3996452,19.7303636 10.6907058,20.1176868 10.0365638,19.9678539 C9.36700997,19.8149632 8.80533825,19.4786036 8.39550054,18.8599057" id="Fill-4" fill="#D2D6D8" transform="translate(10.000000, 17.500000) rotate(2.000000) translate(-10.000000, -17.500000) "></path>
                <path d="M148.152104,13.750319 C148.11904,13.4478506 147.951315,12.8555429 148.013836,12.3074373 C148.197793,10.6953249 149.425374,9.67552013 150.557971,10.0941768 C151.579353,10.4724202 152.203363,11.860365 151.939451,13.2963006 C151.863103,13.7111686 151.668926,14.1500319 151.430864,14.442397 C150.664378,15.383901 149.01057,15.1199515 148.152104,13.750319" id="Fill-6" fill="#D2D6D8" transform="translate(150.000000, 12.500000) rotate(2.000000) translate(-150.000000, -12.500000) "></path>
                <g id="Group-10" transform="translate(2.500000, 19.000000) rotate(2.000000) translate(-2.500000, -19.000000) translate(1.000000, 17.000000)">
                    <mask id="mask-6" fill="white">
                        <use xlink:href="#path-5"></use>
                    </mask>
                    <g id="Clip-9"></g>
                    <path d="M2.46744444,3.13872593 C2.02744444,3.69220741 1.30022222,3.79354074 0.663555556,3.39176296 C0.121333333,3.04983704 -0.147555556,2.05724444 0.0824444444,1.18139259 C0.233,0.606577778 0.551333333,0.205392593 0.995777778,0.0993185185 C1.30244444,0.025837037 1.64133333,0.0714666667 1.95022222,0.160355556 C2.38966667,0.285985185 2.718,0.66642963 2.90633333,1.20865185 C3.09355556,1.74791111 2.88244444,2.61724444 2.46744444,3.13872593" id="Fill-8" fill="#D2D6D8" mask="url(#mask-6)"></path>
                </g>
                <path d="M157.627594,12.5035912 C158.180817,13.119326 158.108025,14.1459312 157.473406,14.6675082 C156.603865,15.3813954 155.307495,14.8877803 155.036839,13.7390554 C154.909782,13.2003588 155.120881,12.5783468 155.523887,12.3044332 C156.218726,11.8330737 157.099516,11.9163891 157.627594,12.5035912" id="Fill-11" fill="#D2D6D8" transform="translate(156.500000, 13.500000) rotate(2.000000) translate(-156.500000, -13.500000) "></path>
                <g id="Group-15" transform="translate(238.000000, 16.500000) rotate(2.000000) translate(-238.000000, -16.500000) translate(173.000000, 3.000000)">
                    <mask id="mask-8" fill="white">
                        <use xlink:href="#path-7"></use>
                    </mask>
                    <g id="Clip-14"></g>
                    <path d="M30.2056669,5.95628571 C30.0709702,6.09114286 29.6178459,6.49914286 29.2190729,6.97285714 C29.1050534,7.10828571 29.0613361,7.49571429 29.1416814,7.654 C29.2332515,7.83571429 29.5422268,8.03971429 29.6828312,7.98028571 C31.9236401,7.03114286 34.0315247,5.73285714 36.0992365,4.34142857 C36.2912384,4.21228571 36.4454306,3.99571429 36.6019859,3.80257143 C36.6764235,3.71114286 36.7319564,3.58657143 36.7679936,3.46428571 C36.8040309,3.34371429 36.8294342,3.20428571 36.8152556,3.07971429 C36.7780368,2.754 36.6067121,2.57342857 36.3432265,2.61514286 C34.1549966,2.96028571 32.2881481,4.18657143 30.2056669,5.95628571 Z M107.729502,14.4122857 C107.317142,13.9865714 106.878787,14.1865714 106.474106,14.3814286 C104.364449,15.3968571 102.419027,16.786 100.50728,18.2408571 C100.259155,18.4294286 100.099646,18.8345714 99.9667212,19.178 C99.8479755,19.4865714 100.503736,19.882 101.069107,19.8442857 C102.570266,19.7431429 103.972765,19.2831429 105.15018,18.1111429 C105.582627,17.6802857 105.984354,17.1905714 106.344135,16.6722857 C106.84334,15.9545714 107.546362,15.4082857 107.729502,14.4122857 Z M24.6376142,16.5991429 C24.792988,16.786 24.93182,17.0014286 25.1066894,17.1562857 C27.6895569,19.4425714 30.6759237,20.8528571 33.4767871,22.6665714 C33.7591775,22.8494286 34.1360918,22.8471429 34.4728334,22.8785714 C34.9596319,22.9237143 35.3530879,22.6665714 35.6407953,22.2054286 C35.8463849,21.8745714 35.8268893,20.986 35.5882163,20.6511429 C35.2957828,20.2414286 35.0128016,19.7762857 34.6400227,19.5008571 C31.6713792,17.3111429 28.4067576,16.2517143 24.9501341,15.9785714 C24.8621086,15.9717143 24.7362736,16.106 24.6819223,16.2128571 C24.6305249,16.3151429 24.6500204,16.4682857 24.6376142,16.5991429 Z M6.80743922,17.8928571 C7.46083617,18.8957143 8.35408771,19.5271429 9.28869348,20.0368571 C11.5755828,21.2831429 13.8801954,22.4842857 16.1942604,23.6574286 C16.5983504,23.8625714 17.0892843,23.9408571 17.5258668,23.8922857 C17.8070757,23.8614286 18.1142786,23.5414286 18.3068712,23.2534286 C18.3954874,23.1208571 18.2802863,22.7242857 18.1822177,22.494 C17.8555192,21.7311429 17.326185,21.1911429 16.6586094,20.9288571 C14.1631766,19.9471429 11.6653806,18.9705714 9.14867985,18.0688571 C8.39898659,17.8008571 7.59198818,17.5762857 6.7962145,17.9648571 L6.80743922,17.8928571 Z M104.935137,9.174 C104.003486,7.91114286 102.703781,7.40028571 101.465517,6.786 C100.742409,6.42771429 99.9779459,6.186 99.2241172,5.92314286 C99.0173461,5.85057143 98.7816269,5.89857143 98.5600863,5.87914286 C98.2446126,5.85171429 97.7524972,6.32771429 97.855292,6.582 C97.9450898,6.80485714 98.0449307,7.10257143 98.206803,7.19171429 C100.050611,8.20485714 101.98658,8.87742857 103.980445,9.29685714 C104.284104,9.36028571 104.626162,9.16142857 104.950498,9.08542857 L105.07456,9.19514286 L104.935137,9.174 Z M9.64847535,10.0528571 C12.0653352,9.89685714 13.9753102,8.45342857 15.7080527,6.58657143 C15.8084844,6.47857143 15.7736287,6.16828571 15.7629948,5.95457143 C15.7612224,5.91742857 15.5526789,5.83914286 15.4622904,5.87171429 C13.2167553,6.68142857 11.3971688,8.33457143 9.64552147,10.122 C9.44052261,10.1202857 9.22843445,10.0774286 9.03229721,10.1271429 C8.74458987,10.2002857 8.67428766,10.4025714 8.84797546,10.5802857 C8.88873892,10.622 9.04529425,10.5345714 9.13154738,10.4722857 C9.30996137,10.3448571 9.47655987,10.194 9.64847535,10.0528571 Z M10.9103704,16.2397143 C13.0590184,17.1757143 15.2153465,18.0945714 17.3586776,19.0562857 C18.5821722,19.6048571 19.5179596,20.5945714 20.1459532,21.9728571 C20.3084163,22.33 20.4289343,22.7231429 20.5246399,23.1145714 C20.8117564,24.2882857 20.1093252,25.6802857 19.118005,26.0048571 C17.9719018,26.3797143 16.8045308,26.454 15.767721,25.758 C12.2656078,23.4088571 8.35467848,22.0871429 4.95299705,19.4865714 C4.18735287,18.9014286 3.28169507,18.5871429 2.47824131,18.0642857 C1.88096796,17.6757143 1.33213815,17.1711429 0.785671438,16.6802857 C0.395760055,16.33 0.310097705,15.2151429 0.670470348,14.8014286 C1.49341968,13.8568571 2.27442399,12.8088571 3.22084526,12.0802857 C6.40039536,9.63342857 9.63016133,7.27685714 12.8746967,4.95342857 C13.8518382,4.254 14.9323654,3.75514286 15.9803999,3.206 C16.2876028,3.04485714 16.6426585,3.00028571 16.9805817,2.94371429 C18.0522472,2.76314286 18.9909884,3.95 18.8486117,5.24371429 C18.7552693,6.09228571 18.4900114,6.84371429 18.0197546,7.46028571 C16.845885,8.998 15.4900568,10.2351429 13.8453397,10.986 C12.241386,11.718 10.6445217,12.4734286 9.05770052,13.2545714 C8.94604408,13.3094286 8.91768689,13.6614286 8.89582822,13.882 C8.89051125,13.9322857 9.07483299,14.07 9.16758464,14.0637143 C9.85052034,14.0157143 10.5370007,13.9814286 11.2140286,13.8688571 C13.1446808,13.5482857 15.072379,13.25 17.0307975,13.398 C17.9854897,13.4705714 18.761177,13.0094286 19.5427721,12.3197143 C22.6791956,9.55285714 25.8569734,6.85342857 29.0465667,4.17571429 C30.7414997,2.75285714 32.5788094,1.61571429 34.5289571,0.780285714 C35.2762872,0.460285714 36.0679255,0.239142857 36.8554283,0.112285714 C37.585626,-0.00485714286 38.1905794,0.421428571 38.5887616,1.17628571 C39.3508612,2.62085714 39.1665394,4.17971429 38.1699023,5.26257143 C37.1336833,6.38828571 35.8859668,7.08142857 34.6630629,7.83 C32.0093024,9.45628571 29.2616087,10.8237143 26.4808316,12.0985714 C26.2297523,12.2134286 26.1393638,12.4425714 26.2486571,12.7042857 C26.2917837,12.8071429 26.4146648,12.9117143 26.5109611,12.9254286 C26.9640854,12.9917143 27.4207544,13.062 27.8762418,13.0637143 C28.7919427,13.0677143 29.7082345,13.0208571 30.6239355,13.0082857 C32.4559282,12.9831429 34.2873302,12.9637143 36.1187321,12.9477143 C36.4619723,12.9448571 36.8075756,13.0105714 37.1484526,12.982 C41.381945,12.6288571 45.6201636,13.0111429 49.8554283,12.8442857 C57.0664258,12.5608571 64.2780141,12.2894286 71.4896024,12.0282857 C73.0923745,11.9694286 74.6963281,11.9785714 76.2991002,11.9471429 C81.3378187,11.8494286 86.3759464,11.7351429 91.4140741,11.6517143 C93.2460668,11.6208571 95.0792411,11.6511429 96.9118246,11.6677143 C98.1678119,11.6802857 99.4108021,11.5711429 100.681559,11.3094286 C100.538591,10.9774286 100.487194,10.63 100.343636,10.5614286 C99.4929198,10.1574286 98.6126653,9.84542857 97.7595865,9.44885714 C97.0022131,9.09742857 96.3606317,8.52714286 95.8206635,7.78942857 C95.1347739,6.85114286 95.2948739,5.27971429 96.1485435,4.50314286 C96.7168689,3.98542857 97.3501795,3.72828571 98.0549739,3.68942857 C99.4645626,3.61228571 100.787307,4.042 102.036205,4.77057143 C104.405212,6.15171429 106.761813,7.56314286 109.111915,8.98885714 C113.36963,11.5717143 112.282604,11.2671429 117.303008,10.99 C117.63975,10.9705714 117.974719,10.8448571 118.30319,10.7351429 C118.363449,10.7157143 118.426662,10.5328571 118.41721,10.434 C118.407167,10.318 118.341591,10.1528571 118.262427,10.11 C116.910143,9.374 115.523595,8.72085714 114.206167,7.90714286 C113.404485,7.41285714 112.666608,6.73457143 111.973629,6.034 C111.314915,5.36828571 111.454928,3.73742857 112.147317,3.09 C112.798941,2.48028571 113.533274,2.126 114.365676,2.13628571 C114.706553,2.14085714 115.059246,2.17571429 115.384763,2.28714286 C117.806939,3.11857143 120.268107,3.86714286 122.516005,5.24771429 C124.548862,6.49571429 126.483649,7.97628571 128.442658,9.39285714 C128.826071,9.67 129.132683,10.1088571 129.455247,10.4951429 C129.972175,11.114 130.0218,12.082 129.574583,12.7208571 C128.987353,13.5602857 128.421981,14.4271429 127.787489,15.2122857 C127.070879,16.0997143 126.314097,16.9837143 125.282604,17.3151429 C124.144772,17.6808571 123.22848,18.4837143 122.270834,19.2408571 C121.023708,20.2277143 119.688557,21.0237143 118.195669,21.3494286 C116.858155,21.6414286 115.703781,21.2282857 114.760314,20.0277143 C114.151225,19.2522857 114.072652,17.7917143 114.663426,16.9968571 C115.117142,16.3871429 115.640568,15.8488571 116.145681,15.2951429 C116.64843,14.7437143 117.172447,14.2185714 117.672243,13.6637143 C117.721868,13.6088571 117.697055,13.4145714 117.6622,13.3042857 C117.625571,13.1888571 117.546408,13.0214286 117.467835,13.0065714 C115.404258,12.598 113.374356,12.7545714 111.416528,13.6648571 C111.002986,13.8568571 110.6178,14.218 110.295237,14.594 C109.311597,15.7408571 108.326185,16.8917143 107.412847,18.1162857 C105.734456,20.3665714 103.67147,21.6711429 101.181945,22.078 C99.6790139,22.3237143 98.5004181,21.6511429 97.4937378,20.3928571 C96.9667666,19.7334286 97.0039855,18.3157143 97.6284344,17.7945714 C98.5648125,17.0128571 99.5472711,16.3088571 100.517914,15.5882857 C101.099237,15.1568571 101.710688,14.7797143 102.27606,14.3214286 C102.39067,14.2282857 102.384763,13.8762857 102.381218,13.646 C102.379446,13.562 102.232343,13.4322857 102.136637,13.4077143 C101.804031,13.3214286 101.464926,13.2162857 101.128185,13.218 C98.7243217,13.23 96.3186867,13.1985714 93.9177778,13.3077143 C87.6272075,13.5945714 81.3325017,13.5882857 75.0413406,13.7734286 C66.8018041,14.0151429 58.56404,14.3614286 50.3245035,14.598 C45.5179596,14.7357143 40.7096433,14.738 35.9025085,14.8248571 C35.1031902,14.8391429 34.3020995,14.9465714 33.5080982,15.0688571 C33.3580414,15.0922857 33.2168462,15.3728571 33.1152329,15.5671429 C33.0833311,15.6288571 33.1654488,15.8505714 33.2428403,15.9082857 C33.9186867,16.4134286 34.6022131,16.902 35.2881027,17.386 C37.0432947,18.6237143 37.7232765,20.5631429 37.7941695,22.8974286 C37.8142559,23.5602857 37.3877164,24.3077143 36.9056442,24.518 C35.2065758,25.2602857 33.5116428,25.3231429 31.9372279,24.1728571 C28.9100977,21.9625714 25.5355919,20.4825714 22.7418178,17.7705714 C21.9554965,17.0071429 20.957087,16.5471429 20.0313429,16.0088571 C19.6278437,15.7745714 19.1699932,15.6185714 18.7239582,15.5557143 C16.0867394,15.1825714 13.466653,15.186 10.9103704,16.2397143 Z M114.339091,5.42942857 C114.422981,5.51914286 114.496237,5.63057143 114.591352,5.69628571 C117.376855,7.622 120.401032,8.74085714 123.536274,9.47 C123.720005,9.51342857 124.01362,9.39057143 124.12823,9.22028571 C124.294828,8.974 124.164267,8.70828571 123.927367,8.53742857 C121.273015,6.61685714 118.331547,5.58257143 115.387716,4.56142857 C115.180354,4.48942857 114.919823,4.50028571 114.718369,4.58771429 C114.540545,4.66542857 114.394624,4.88885714 114.271152,5.08085714 C114.232752,5.14085714 114.313097,5.31 114.339091,5.42942857 Z M122.990988,16.3985714 C123.507326,15.8745714 124.049066,15.3808571 124.529957,14.814 C124.758587,14.5442857 124.924594,14.154 125.015574,13.7814286 C125.0587,13.6065714 124.900963,13.2185714 124.759768,13.1511429 C124.464381,13.01 124.085103,12.8808571 123.800941,12.986 C121.306099,13.9071429 118.96604,15.2065714 116.951497,17.2465714 C116.866426,17.3328571 116.748862,17.4322857 116.730548,17.5454286 C116.669698,17.9208571 116.583445,18.3197143 116.638978,18.6802857 C116.666153,18.858 116.977491,19.082 117.169493,19.0945714 C117.72364,19.1317143 118.296692,19.1625714 118.834888,19.0334286 C120.429389,18.6511429 121.727321,17.5597143 122.990988,16.3985714 Z" id="Fill-13" fill="#D2D6D8" mask="url(#mask-8)"></path>
                </g>
                <path d="M159.395516,18.8599057 C158.681412,17.7804971 158.968537,16.0421295 159.981184,15.3102925 C161.017804,14.5611279 162.535061,15.2363953 162.879269,16.6083348 C163.092187,17.4578977 163.022546,18.2824884 162.677767,19.0846551 C162.399204,19.7303636 161.690809,20.1176868 161.036641,19.9678539 C160.367062,19.8149632 159.805369,19.4786036 159.395516,18.8599057" id="Fill-16" fill="#D2D6D8" transform="translate(161.000000, 17.500000) rotate(2.000000) translate(-161.000000, -17.500000) "></path>
                <path d="M314.152312,13.750319 C314.119246,13.4478506 313.950911,12.8555429 314.014037,12.3074373 C314.198003,10.6953249 315.425645,9.67552013 316.558298,10.0941768 C317.579129,10.4724202 318.203772,11.860365 317.939246,13.2963006 C317.862894,13.7111686 317.669309,14.1500319 317.431235,14.442397 C316.66471,15.383901 315.010219,15.1199515 314.152312,13.750319" id="Fill-18" fill="#D2D6D8" transform="translate(316.000000, 12.500000) rotate(2.000000) translate(-316.000000, -12.500000) "></path>
                <path d="M155.488177,20.4435879 C155.044497,21.0632025 154.311192,21.1766437 153.668641,20.7268592 C153.122444,20.3440781 152.851306,19.2328849 153.083229,18.2523814 C153.235044,17.6088844 153.55604,17.1597634 154.004202,17.041015 C154.313433,16.9587535 154.655156,17.0098352 154.966068,17.109345 C155.409748,17.2499856 155.740268,17.6758877 155.930736,18.2828977 C156.119524,18.8865907 155.906087,19.8597969 155.488177,20.4435879" id="Fill-20" fill="#D2D6D8" transform="translate(154.500000, 19.000000) rotate(2.000000) translate(-154.500000, -19.000000) "></path>
                <path d="M324.627594,12.5035912 C325.180817,13.119326 325.108025,14.1459312 324.473406,14.6675082 C323.604527,15.3813954 322.307495,14.8877803 322.036839,13.7390554 C321.909782,13.2003588 322.120881,12.5783468 322.523887,12.3044332 C323.218726,11.8330737 324.099516,11.9163891 324.627594,12.5035912" id="Fill-22" fill="#D2D6D8" transform="translate(323.500000, 13.500000) rotate(2.000000) translate(-323.500000, -13.500000) "></path>
                <g id="Group-26" transform="translate(405.000000, 16.500000) rotate(2.000000) translate(-405.000000, -16.500000) translate(340.000000, 3.000000)">
                    <mask id="mask-10" fill="white">
                        <use xlink:href="#path-9"></use>
                    </mask>
                    <g id="Clip-25"></g>
                    <path d="M29.8248534,5.95628571 C29.6901568,6.09114286 29.2370325,6.49914286 28.8382595,6.97285714 C28.7242399,7.10828571 28.6805226,7.49571429 28.760868,7.654 C28.8530289,7.83571429 29.1620041,8.03971429 29.3020177,7.98028571 C31.5434174,7.03114286 33.6507112,5.73285714 35.7190139,4.34142857 C35.9104249,4.21228571 36.0646171,3.99571429 36.2217632,3.80257143 C36.2962009,3.71114286 36.3511429,3.58657143 36.3871802,3.46428571 C36.4232175,3.34371429 36.4486208,3.20428571 36.4344422,3.07971429 C36.3972234,2.754 36.2258987,2.57342857 35.9624131,2.61514286 C33.7741831,2.96028571 31.9079255,4.18657143 29.8248534,5.95628571 Z M107.348689,14.4122857 C106.936919,13.9865714 106.498564,14.1865714 106.093292,14.3814286 C103.983636,15.3968571 102.038214,16.786 100.126467,18.2408571 C99.8783413,18.4294286 99.7188321,18.8345714 99.5859077,19.178 C99.467162,19.4865714 100.123513,19.882 100.688884,19.8442857 C102.190043,19.7431429 103.591952,19.2831429 104.769366,18.1111429 C105.201813,17.6802857 105.60354,17.1905714 105.963322,16.6722857 C106.462527,15.9545714 107.165549,15.4082857 107.348689,14.4122857 Z M24.2573915,16.5991429 C24.4127653,16.786 24.5510066,17.0014286 24.7258759,17.1562857 C27.3093342,19.4425714 30.2951102,20.8528571 33.0965644,22.6665714 C33.378364,22.8494286 33.7558691,22.8471429 34.09202,22.8785714 C34.5788185,22.9237143 34.9722745,22.6665714 35.2599818,22.2054286 C35.4655715,21.8745714 35.4460759,20.986 35.2074029,20.6511429 C34.9149693,20.2414286 34.6319882,19.7762857 34.2592093,19.5008571 C31.2905658,17.3111429 28.0265349,16.2517143 24.5693206,15.9785714 C24.4818859,15.9717143 24.3554601,16.106 24.3016996,16.2128571 C24.2497114,16.3151429 24.269207,16.4682857 24.2573915,16.5991429 Z M6.42721654,17.8928571 C7.08002272,18.8957143 7.97327426,19.5271429 8.9084708,20.0368571 C11.1947694,21.2831429 13.4999727,22.4842857 15.8134469,23.6574286 C16.2175369,23.8625714 16.7084708,23.9408571 17.1450534,23.8922857 C17.426853,23.8614286 17.7334651,23.5414286 17.9260577,23.2534286 C18.0146739,23.1208571 17.8994728,22.7242857 17.8014042,22.494 C17.4752965,21.7311429 16.9459623,21.1911429 16.2783867,20.9288571 C13.7823631,19.9471429 11.2845671,18.9705714 8.76786639,18.0688571 C8.01876392,17.8008571 7.21117473,17.5762857 6.41540105,17.9648571 L6.42721654,17.8928571 Z M104.554915,9.174 C103.622672,7.91114286 102.322968,7.40028571 101.084703,6.786 C100.361595,6.42771429 99.5971325,6.186 98.8438946,5.92314286 C98.6359418,5.85057143 98.4014042,5.89857143 98.1798637,5.87914286 C97.8637991,5.85171429 97.3716837,6.32771429 97.4738878,6.582 C97.5648671,6.80485714 97.6641172,7.10257143 97.8265803,7.19171429 C99.6697978,8.20485714 101.605767,8.87742857 103.599632,9.29685714 C103.90329,9.36028571 104.245349,9.16142857 104.569684,9.08542857 L104.693747,9.19514286 L104.554915,9.174 Z M9.2676619,10.0528571 C11.6845217,9.89685714 13.5944967,8.45342857 15.3272393,6.58657143 C15.427671,6.47857143 15.393406,6.16828571 15.3821813,5.95457143 C15.380409,5.91742857 15.1718655,5.83914286 15.0814769,5.87171429 C12.8359418,6.68142857 11.0169461,8.33457143 9.26470802,10.122 C9.05970916,10.1202857 8.847621,10.0774286 8.65207453,10.1271429 C8.36377641,10.2002857 8.29347421,10.4025714 8.46716201,10.5802857 C8.50792547,10.622 8.6644808,10.5345714 8.75073392,10.4722857 C8.92914792,10.3448571 9.0963372,10.194 9.2676619,10.0528571 Z M10.5301477,16.2397143 C12.678205,17.1757143 14.8345331,18.0945714 16.9778641,19.0562857 C18.2013588,19.6048571 19.1371461,20.5945714 19.7651397,21.9728571 C19.9276028,22.33 20.0481209,22.7231429 20.1438264,23.1145714 C20.4315337,24.2882857 19.7285117,25.6802857 18.7371915,26.0048571 C17.5910884,26.3797143 16.4237173,26.454 15.3869075,25.758 C11.8853851,23.4088571 7.97386503,22.0871429 4.57218359,19.4865714 C3.8071302,18.9014286 2.90088162,18.5871429 2.09742786,18.0642857 C1.50015451,17.6757143 0.951324699,17.1711429 0.404857987,16.6802857 C0.014946603,16.33 -0.0707157464,15.2151429 0.289656896,14.8014286 C1.11260623,13.8568571 1.89361054,12.8088571 2.84003181,12.0802857 C6.02017269,9.63342857 9.24934788,7.27685714 12.494474,4.95342857 C13.4716155,4.254 14.5515519,3.75514286 15.6001772,3.206 C15.9067894,3.04485714 16.261845,3.00028571 16.600359,2.94371429 C17.6720245,2.76314286 18.610175,3.95 18.4677982,5.24371429 C18.3744558,6.09228571 18.1091979,6.84371429 17.6389411,7.46028571 C16.4650716,8.998 15.1092434,10.2351429 13.4645262,10.986 C11.8605726,11.718 10.264299,12.4734286 8.67688707,13.2545714 C8.56523063,13.3094286 8.53687344,13.6614286 8.51501477,13.882 C8.51028857,13.9322857 8.69461032,14.07 8.78677119,14.0637143 C9.46970688,14.0157143 10.1561872,13.9814286 10.8332152,13.8688571 C12.7638673,13.5482857 14.6915656,13.25 16.6499841,13.398 C17.6046762,13.4705714 18.3803636,13.0094286 19.1625494,12.3197143 C22.2983822,9.55285714 25.47616,6.85342857 28.666344,4.17571429 C30.3606862,2.75285714 32.1979959,1.61571429 34.1481436,0.780285714 C34.8954738,0.460285714 35.687112,0.239142857 36.4746149,0.112285714 C37.2048125,-0.00485714286 37.809766,0.421428571 38.2079482,1.17628571 C38.9700477,2.62085714 38.785726,4.17971429 37.7890888,5.26257143 C36.7528698,6.38828571 35.5051534,7.08142857 34.2822495,7.83 C31.628489,9.45628571 28.881386,10.8237143 26.1000182,12.0985714 C25.8489389,12.2134286 25.7591411,12.4425714 25.8684344,12.7042857 C25.911561,12.8071429 26.0344422,12.9117143 26.1301477,12.9254286 C26.583272,12.9917143 27.0399409,13.062 27.4954283,13.0637143 C28.4111293,13.0677143 29.327421,13.0208571 30.243122,13.0082857 C32.0751147,12.9831429 33.9065167,12.9637143 35.7379187,12.9477143 C36.0811588,12.9448571 36.4267621,13.0105714 36.7676392,12.982 C41.0011316,12.6288571 45.2399409,13.0111429 49.4746149,12.8442857 C56.6856124,12.5608571 63.8972006,12.2894286 71.1087889,12.0282857 C72.711561,11.9694286 74.3155147,11.9785714 75.9188775,11.9471429 C80.9570052,11.8494286 85.9951329,11.7351429 91.0332606,11.6517143 C92.8652534,11.6208571 94.6984276,11.6511429 96.5310111,11.6677143 C97.7869984,11.6802857 99.0299886,11.5711429 100.300745,11.3094286 C100.157778,10.9774286 100.10638,10.63 99.9622313,10.5614286 C99.1126971,10.1574286 98.2318519,9.84542857 97.378773,9.44885714 C96.6219905,9.09742857 95.9798182,8.52714286 95.4404408,7.78942857 C94.7545512,6.85114286 94.9140604,5.27971429 95.7677301,4.50314286 C96.3360554,3.98542857 96.9693661,3.72828571 97.6741604,3.68942857 C99.0837491,3.61228571 100.406494,4.042 101.655392,4.77057143 C104.024399,6.15171429 106.381,7.56314286 108.731102,8.98885714 C112.988816,11.5717143 111.901791,11.2671429 116.922195,10.99 C117.258937,10.9705714 117.593906,10.8448571 117.922377,10.7351429 C117.982636,10.7157143 118.045849,10.5328571 118.036987,10.434 C118.026353,10.318 117.961368,10.1528571 117.881613,10.11 C116.52933,9.374 115.142781,8.72085714 113.825353,7.90714286 C113.024263,7.41285714 112.286385,6.73457143 111.593406,6.034 C110.934101,5.36828571 111.074115,3.73742857 111.766503,3.09 C112.418128,2.48028571 113.152461,2.126 113.985453,2.13628571 C114.32574,2.14085714 114.677841,2.17571429 115.003949,2.28714286 C117.426126,3.11857143 119.887885,3.86714286 122.135192,5.24771429 C124.168048,6.49571429 126.102836,7.97628571 128.061845,9.39285714 C128.445258,9.67 128.75187,10.1088571 129.075024,10.4951429 C129.591952,11.114 129.640986,12.082 129.19436,12.7208571 C128.60713,13.5602857 128.041168,14.4271429 127.406676,15.2122857 C126.690066,16.0997143 125.933283,16.9837143 124.901791,17.3151429 C123.763958,17.6808571 122.847666,18.4837143 121.89002,19.2408571 C120.642895,20.2277143 119.307744,21.0237143 117.815446,21.3494286 C116.477342,21.6414286 115.322968,21.2282857 114.3795,20.0277143 C113.770411,19.2522857 113.691838,17.7917143 114.282613,16.9968571 C114.736919,16.3871429 115.259755,15.8488571 115.764867,15.2951429 C116.268207,14.7437143 116.791634,14.2185714 117.291429,13.6637143 C117.341054,13.6088571 117.316242,13.4145714 117.281977,13.3042857 C117.244758,13.1888571 117.165594,13.0214286 117.087021,13.0065714 C115.023445,12.598 112.994133,12.7545714 111.035715,13.6648571 C110.622172,13.8568571 110.236987,14.218 109.914424,14.594 C108.930784,15.7408571 107.945962,16.8917143 107.032034,18.1162857 C105.353642,20.3665714 103.290657,21.6711429 100.801132,22.078 C99.2976096,22.3237143 98.1196046,21.6511429 97.1129243,20.3928571 C96.5859532,19.7334286 96.623172,18.3157143 97.247621,17.7945714 C98.1839991,17.0128571 99.1664576,16.3088571 100.137101,15.5882857 C100.718423,15.1568571 101.329875,14.7797143 101.895837,14.3214286 C102.009857,14.2282857 102.003949,13.8762857 102.000404,13.646 C101.998632,13.562 101.851529,13.4322857 101.755824,13.4077143 C101.423217,13.3214286 101.084113,13.2162857 100.747371,13.218 C98.3440991,13.23 95.938464,13.1985714 93.5369643,13.3077143 C87.246394,13.5945714 80.9516883,13.5882857 74.6605272,13.7734286 C66.4209907,14.0151429 58.1832265,14.3614286 49.9436901,14.598 C45.1377369,14.7357143 40.3288298,14.738 35.5216951,14.8248571 C34.7223767,14.8391429 33.9212861,14.9465714 33.1272847,15.0688571 C32.9772279,15.0922857 32.8360327,15.3728571 32.7350102,15.5671429 C32.7025176,15.6288571 32.7852261,15.8505714 32.8620268,15.9082857 C33.5378732,16.4134286 34.2213997,16.902 34.90788,17.386 C36.6624813,18.6237143 37.3424631,20.5631429 37.4139468,22.8974286 C37.4340332,23.5602857 37.006903,24.3077143 36.5248307,24.518 C34.8257623,25.2602857 33.1314201,25.3231429 31.5564145,24.1728571 C28.5292843,21.9625714 25.1547785,20.4825714 22.3610043,17.7705714 C21.574683,17.0071429 20.5762736,16.5471429 19.6505294,16.0088571 C19.2470302,15.7745714 18.7891797,15.6185714 18.3437355,15.5557143 C15.7059259,15.1825714 13.0858396,15.186 10.5301477,16.2397143 Z M113.958868,5.42942857 C114.042168,5.51914286 114.115424,5.63057143 114.210539,5.69628571 C116.996042,7.622 120.020218,8.74085714 123.15546,9.47 C123.339191,9.51342857 123.632806,9.39057143 123.748007,9.22028571 C123.914015,8.974 123.783454,8.70828571 123.546553,8.53742857 C120.892793,6.61685714 117.950734,5.58257143 115.006903,4.56142857 C114.799541,4.48942857 114.538419,4.50028571 114.337555,4.58771429 C114.159732,4.66542857 114.01381,4.88885714 113.890339,5.08085714 C113.852529,5.14085714 113.932874,5.31 113.958868,5.42942857 Z M122.609584,16.3985714 C123.126512,15.8745714 123.668253,15.3808571 124.149734,14.814 C124.377773,14.5442857 124.543781,14.154 124.63476,13.7814286 C124.677887,13.6065714 124.520741,13.2185714 124.378955,13.1511429 C124.083567,13.01 123.70429,12.8808571 123.420127,12.986 C120.925876,13.9071429 118.585817,15.2065714 116.570684,17.2465714 C116.485612,17.3328571 116.368048,17.4322857 116.349734,17.5454286 C116.289475,17.9208571 116.202631,18.3197143 116.258164,18.6802857 C116.28534,18.858 116.596678,19.082 116.789271,19.0945714 C117.342827,19.1317143 117.916469,19.1625714 118.454665,19.0334286 C120.048575,18.6511429 121.346508,17.5597143 122.609584,16.3985714 Z" id="Fill-24" fill="#D2D6D8" mask="url(#mask-10)"></path>
                </g>
                <path d="M326.395516,18.8599057 C325.681412,17.7804971 325.968537,16.0421295 326.981184,15.3102925 C328.017804,14.5611279 329.535061,15.2363953 329.879269,16.6083348 C330.092187,17.4578977 330.022546,18.2824884 329.677767,19.0846551 C329.399204,19.7303636 328.690809,20.1176868 328.036641,19.9678539 C327.367062,19.8149632 326.805369,19.4786036 326.395516,18.8599057" id="Fill-27" fill="#D2D6D8" transform="translate(328.000000, 17.500000) rotate(2.000000) translate(-328.000000, -17.500000) "></path>
                <path d="M481.152355,13.750319 C481.118687,13.4478506 480.950946,12.8555429 481.014074,12.3074373 C481.197446,10.6953249 482.42574,9.67552013 483.55844,10.0941768 C484.579312,10.4724202 485.203379,11.860365 484.939443,13.2963006 C484.863088,13.7111686 484.669495,14.1500319 484.430811,14.442397 C483.664856,15.383901 482.010297,15.1199515 481.152355,13.750319" id="Fill-29" fill="#D2D6D8" transform="translate(483.000000, 12.500000) rotate(2.000000) translate(-483.000000, -12.500000) "></path>
                <path d="M320.48811,20.4435879 C320.04444,21.0632025 319.311153,21.1766437 318.669177,20.7268592 C318.122433,20.3440781 317.851301,19.2328849 318.083219,18.2523814 C318.235031,17.6088844 318.556019,17.1597634 319.00417,17.041015 C319.313394,16.9587535 319.655109,17.0098352 319.966574,17.109345 C320.409683,17.2499856 320.740755,17.6758877 320.930659,18.2828977 C321.119443,18.8865907 320.906571,19.8597969 320.48811,20.4435879" id="Fill-31" fill="#D2D6D8" transform="translate(319.500000, 19.000000) rotate(2.000000) translate(-319.500000, -19.000000) "></path>
                <path d="M491.627594,12.5035912 C492.180817,13.119326 492.108025,14.1459312 491.473407,14.6675082 C490.603867,15.3813954 489.306837,14.8877803 489.036844,13.7390554 C488.909788,13.2003588 489.120886,12.5783468 489.52323,12.3044332 C490.218729,11.8330737 491.099518,11.9163891 491.627594,12.5035912" id="Fill-33" fill="#D2D6D8" transform="translate(490.500000, 13.500000) rotate(2.000000) translate(-490.500000, -13.500000) "></path>
                <g id="Group-37" transform="translate(572.000000, 16.500000) rotate(2.000000) translate(-572.000000, -16.500000) translate(507.000000, 3.000000)">
                    <mask id="mask-12" fill="white">
                        <use xlink:href="#path-11"></use>
                    </mask>
                    <g id="Clip-36"></g>
                    <path d="M30.0351693,5.95628571 C29.9004726,6.09114286 29.4473483,6.49914286 29.0479845,6.97285714 C28.9345558,7.10828571 28.8908384,7.49571429 28.970593,7.654 C29.0627539,7.83571429 29.3723199,8.03971429 29.5117428,7.98028571 C31.7531425,7.03114286 33.861027,5.73285714 35.9293297,4.34142857 C36.1207407,4.21228571 36.274933,3.99571429 36.4314883,3.80257143 C36.5059259,3.71114286 36.5614588,3.58657143 36.597496,3.46428571 C36.6335333,3.34371429 36.6589366,3.20428571 36.644758,3.07971429 C36.6075392,2.754 36.4362145,2.57342857 36.1727289,2.61514286 C33.984499,2.96028571 32.1176505,4.18657143 30.0351693,5.95628571 Z M107.559005,14.4122857 C107.146644,13.9865714 106.708289,14.1865714 106.303608,14.3814286 C104.193951,15.3968571 102.247939,16.786 100.336783,18.2408571 C100.088657,18.4294286 99.9291479,18.8345714 99.7968144,19.178 C99.6774778,19.4865714 100.333238,19.882 100.898609,19.8442857 C102.399768,19.7431429 103.801677,19.2831429 104.979091,18.1111429 C105.412129,17.6802857 105.813856,17.1905714 106.173638,16.6722857 C106.672843,15.9545714 107.375274,15.4082857 107.559005,14.4122857 Z M24.4671166,16.5991429 C24.6224903,16.786 24.7607317,17.0014286 24.9361918,17.1562857 C27.5190593,19.4425714 30.505426,20.8528571 33.3062895,22.6665714 C33.5886798,22.8494286 33.9655942,22.8471429 34.3023358,22.8785714 C34.7891343,22.9237143 35.1825903,22.6665714 35.4697069,22.2054286 C35.6758873,21.8745714 35.6563917,20.986 35.4171279,20.6511429 C35.1246944,20.2414286 34.842304,19.7762857 34.4695251,19.5008571 C31.5002908,17.3111429 28.2362599,16.2517143 24.7796364,15.9785714 C24.691611,15.9717143 24.565776,16.106 24.5114247,16.2128571 C24.4600273,16.3151429 24.4795228,16.4682857 24.4671166,16.5991429 Z M6.63753238,17.8928571 C7.29033856,18.8957143 8.18359009,19.5271429 9.11878664,20.0368571 C11.4050852,21.2831429 13.7096978,22.4842857 16.023172,23.6574286 C16.4278528,23.8625714 16.9187866,23.9408571 17.3553692,23.8922857 C17.6365781,23.8614286 17.9431902,23.5414286 18.1363736,23.2534286 C18.2249898,23.1208571 18.1097887,22.7242857 18.0111293,22.494 C17.6856124,21.7311429 17.1556873,21.1911429 16.4881118,20.9288571 C13.9926789,19.9471429 11.4942922,18.9705714 8.97818223,18.0688571 C8.22848898,17.8008571 7.42149057,17.5762857 6.62571688,17.9648571 L6.63753238,17.8928571 Z M104.76464,9.174 C103.832988,7.91114286 102.533283,7.40028571 101.294429,6.786 C100.57132,6.42771429 99.8074483,6.186 99.0536196,5.92314286 C98.8468484,5.85057143 98.6111293,5.89857143 98.3895887,5.87914286 C98.0747057,5.85171429 97.5819995,6.32771429 97.6847944,6.582 C97.7745921,6.80485714 97.8738423,7.10257143 98.0363054,7.19171429 C99.8807044,8.20485714 101.816083,8.87742857 103.809948,9.29685714 C104.113606,9.36028571 104.455665,9.16142857 104.78,9.08542857 L104.903472,9.19514286 L104.76464,9.174 Z M9.47738696,10.0528571 C11.8948375,9.89685714 13.8042218,8.45342857 15.5375551,6.58657143 C15.6379868,6.47857143 15.6031311,6.16828571 15.5924972,5.95457143 C15.5907248,5.91742857 15.3815905,5.83914286 15.2917928,5.87171429 C13.0462577,6.68142857 11.2266712,8.33457143 9.47443308,10.122 C9.27002499,10.1202857 9.05734606,10.0774286 8.86179959,10.1271429 C8.57409225,10.2002857 8.50379005,10.4025714 8.67747785,10.5802857 C8.71824131,10.622 8.87479664,10.5345714 8.96104976,10.4722857 C9.13946376,10.3448571 9.30606226,10.194 9.47738696,10.0528571 Z M10.7404635,16.2397143 C12.8885208,17.1757143 15.0448489,18.0945714 17.18818,19.0562857 C18.4116746,19.6048571 19.3468712,20.5945714 19.9754556,21.9728571 C20.1379187,22.33 20.2578459,22.7231429 20.3541422,23.1145714 C20.6418496,24.2882857 19.9382368,25.6802857 18.9469166,26.0048571 C17.8008135,26.3797143 16.6334424,26.454 15.5972234,25.758 C12.0951102,23.4088571 8.18418087,22.0871429 4.78249943,19.4865714 C4.01744603,18.9014286 3.11119746,18.5871429 2.30774369,18.0642857 C1.71047035,17.6757143 1.16164054,17.1711429 0.614583049,16.6802857 C0.22526244,16.33 0.139600091,15.2151429 0.499972733,14.8014286 C1.32292206,13.8568571 2.10392638,12.8088571 3.04975687,12.0802857 C6.22989775,9.63342857 9.45966371,7.27685714 12.704199,4.95342857 C13.6813406,4.254 14.7618678,3.75514286 15.8104931,3.206 C16.1171052,3.04485714 16.4721609,3.00028571 16.8100841,2.94371429 C17.8817496,2.76314286 18.8204908,3.95 18.6775233,5.24371429 C18.5841809,6.09228571 18.3195137,6.84371429 17.8486662,7.46028571 C16.6753874,8.998 15.3195592,10.2351429 13.6748421,10.986 C12.0708884,11.718 10.4746149,12.4734286 8.88661213,13.2545714 C8.77554647,13.3094286 8.74718928,13.6614286 8.72533061,13.882 C8.72060441,13.9322857 8.90433538,14.07 8.99708703,14.0637143 C9.68002272,14.0157143 10.3665031,13.9814286 11.043531,13.8688571 C12.9735924,13.5482857 14.9018814,13.25 16.8602999,13.398 C17.8144013,13.4705714 18.5906794,13.0094286 19.3722745,12.3197143 C22.508698,9.55285714 25.6864758,6.85342857 28.8760691,4.17571429 C30.571002,2.75285714 32.4083117,1.61571429 34.3578687,0.780285714 C35.1057896,0.460285714 35.8974279,0.239142857 36.6849307,0.112285714 C37.4145376,-0.00485714286 38.0200818,0.421428571 38.4176733,1.17628571 C39.1797728,2.62085714 38.9960418,4.17971429 37.9988139,5.26257143 C36.9631856,6.38828571 35.7148784,7.08142857 34.4925653,7.83 C31.8388048,9.45628571 29.0911111,10.8237143 26.310334,12.0985714 C26.0592547,12.2134286 25.9688662,12.4425714 26.0787503,12.7042857 C26.1212861,12.8071429 26.244758,12.9117143 26.3398728,12.9254286 C26.7935878,12.9917143 27.249666,13.062 27.7057441,13.0637143 C28.6214451,13.0677143 29.5371461,13.0208571 30.4534379,13.0082857 C32.2854306,12.9831429 34.1168325,12.9637143 35.9482345,12.9477143 C36.2914747,12.9448571 36.6370779,13.0105714 36.977955,12.982 C41.2114474,12.6288571 45.4502568,13.0111429 49.6849307,12.8442857 C56.8959282,12.5608571 64.1075165,12.2894286 71.3191047,12.0282857 C72.9218768,11.9694286 74.5258305,11.9785714 76.1286026,11.9471429 C81.1673211,11.8494286 86.204858,11.7351429 91.2429857,11.6517143 C93.0755692,11.6208571 94.9087435,11.6511429 96.741327,11.6677143 C97.9973142,11.6802857 99.2403045,11.5711429 100.511061,11.3094286 C100.368094,10.9774286 100.316696,10.63 100.173138,10.5614286 C99.3224222,10.1574286 98.4421677,9.84542857 97.5890888,9.44885714 C96.8317155,9.09742857 96.1895433,8.52714286 95.6501659,7.78942857 C94.9642763,6.85114286 95.1243763,5.27971429 95.9774551,4.50314286 C96.5463713,3.98542857 97.1790911,3.72828571 97.8844763,3.68942857 C99.2934742,3.61228571 100.61681,4.042 101.865708,4.77057143 C104.234715,6.15171429 106.591316,7.56314286 108.940827,8.98885714 C113.199132,11.5717143 112.112106,11.2671429 117.132511,10.99 C117.468662,10.9705714 117.803631,10.8448571 118.132102,10.7351429 C118.192952,10.7157143 118.255574,10.5328571 118.246712,10.434 C118.236669,10.318 118.171093,10.1528571 118.091929,10.11 C116.739646,9.374 115.353097,8.72085714 114.035669,7.90714286 C113.233988,7.41285714 112.49611,6.73457143 111.803131,6.034 C111.145008,5.36828571 111.28384,3.73742857 111.976228,3.09 C112.628444,2.48028571 113.362777,2.126 114.195178,2.13628571 C114.535465,2.14085714 114.888748,2.17571429 115.214265,2.28714286 C117.636442,3.11857143 120.09761,3.86714286 122.345508,5.24771429 C124.378364,6.49571429 126.313152,7.97628571 128.27157,9.39285714 C128.655574,9.67 128.961595,10.1088571 129.284749,10.4951429 C129.801677,11.114 129.851302,12.082 129.404085,12.7208571 C128.816855,13.5602857 128.252075,14.4271429 127.617582,15.2122857 C126.900382,16.0997143 126.143599,16.9837143 125.112106,17.3151429 C123.974274,17.6808571 123.057982,18.4837143 122.100336,19.2408571 C120.853211,20.2277143 119.51806,21.0237143 118.025172,21.3494286 C116.687657,21.6414286 115.533283,21.2282857 114.589816,20.0277143 C113.980727,19.2522857 113.902154,17.7917143 114.492929,16.9968571 C114.946644,16.3871429 115.47007,15.8488571 115.975183,15.2951429 C116.477932,14.7437143 117.001359,14.2185714 117.502336,13.6637143 C117.55137,13.6088571 117.526558,13.4145714 117.491702,13.3042857 C117.455665,13.1888571 117.37591,13.0214286 117.297337,13.0065714 C115.234351,12.598 113.203858,12.7545714 111.24603,13.6648571 C110.832488,13.8568571 110.447303,14.218 110.124149,14.594 C109.1411,15.7408571 108.155687,16.8917143 107.241759,18.1162857 C105.563958,20.3665714 103.500382,21.6711429 101.011447,22.078 C99.5085162,22.3237143 98.3299205,21.6511429 97.3226494,20.3928571 C96.796269,19.7334286 96.8334878,18.3157143 97.4579368,17.7945714 C98.3943149,17.0128571 99.3761827,16.3088571 100.347416,15.5882857 C100.928739,15.1568571 101.540191,14.7797143 102.105562,14.3214286 C102.220173,14.2282857 102.214265,13.8762857 102.21072,13.646 C102.209539,13.562 102.061845,13.4322857 101.96614,13.4077143 C101.633533,13.3214286 101.293838,13.2162857 100.957687,13.218 C98.5538241,13.23 96.148189,13.1985714 93.7472802,13.3077143 C87.4567098,13.5945714 81.1620041,13.5882857 74.870843,13.7734286 C66.6307157,14.0151429 58.3935424,14.3614286 50.1540059,14.598 C45.3480527,14.7357143 40.5391456,14.738 35.7320109,14.8248571 C34.9321018,14.8391429 34.1316019,14.9465714 33.3376005,15.0688571 C33.1875437,15.0922857 33.0463486,15.3728571 32.9453261,15.5671429 C32.9128334,15.6288571 32.9955419,15.8505714 33.0723426,15.9082857 C33.7475983,16.4134286 34.4311247,16.902 35.1176051,17.386 C36.8722063,18.6237143 37.5527789,20.5631429 37.6242627,22.8974286 C37.644349,23.5602857 37.216628,24.3077143 36.7351466,24.518 C35.0360782,25.2602857 33.341736,25.3231429 31.7667303,24.1728571 C28.7396001,21.9625714 25.3650943,20.4825714 22.5707294,17.7705714 C21.7849989,17.0071429 20.7865894,16.5471429 19.8602545,16.0088571 C19.4573461,15.7745714 18.9994956,15.6185714 18.5534606,15.5557143 C15.9162418,15.1825714 13.2961554,15.186 10.7404635,16.2397143 Z M114.168594,5.42942857 C114.252484,5.51914286 114.32574,5.63057143 114.421445,5.69628571 C117.206358,7.622 120.230534,8.74085714 123.365185,9.47 C123.549507,9.51342857 123.842531,9.39057143 123.957732,9.22028571 C124.124922,8.974 123.99436,8.70828571 123.756869,8.53742857 C121.102518,6.61685714 118.161641,5.58257143 115.217219,4.56142857 C115.009857,4.48942857 114.749325,4.50028571 114.547871,4.58771429 C114.370048,4.66542857 114.224717,4.88885714 114.101245,5.08085714 C114.062254,5.14085714 114.142599,5.31 114.168594,5.42942857 Z M122.820491,16.3985714 C123.336828,15.8745714 123.878569,15.3808571 124.359459,14.814 C124.588089,14.5442857 124.753506,14.154 124.845076,13.7814286 C124.888203,13.6065714 124.730466,13.2185714 124.589271,13.1511429 C124.293883,13.01 123.914015,12.8808571 123.630443,12.986 C121.135601,13.9071429 118.795542,15.2065714 116.781,17.2465714 C116.695337,17.3328571 116.578364,17.4322857 116.56005,17.5454286 C116.4992,17.9208571 116.412947,18.3197143 116.46848,18.6802857 C116.495656,18.858 116.806994,19.082 116.998996,19.0945714 C117.553142,19.1317143 118.126194,19.1625714 118.66439,19.0334286 C120.258891,18.6511429 121.556823,17.5597143 122.820491,16.3985714 Z" id="Fill-35" fill="#D2D6D8" mask="url(#mask-12)"></path>
                </g>
                <path d="M493.395519,18.8599057 C492.681409,17.7804971 492.968537,16.0421295 493.981191,15.3102925 C495.01782,14.5611279 496.535088,15.2363953 496.879299,16.6083348 C497.092219,17.4578977 497.022578,18.2824884 496.677225,19.0846551 C496.39923,19.7303636 495.690829,20.1176868 495.036657,19.9678539 C494.367073,19.8149632 493.805375,19.4786036 493.395519,18.8599057" id="Fill-38" fill="#D2D6D8" transform="translate(495.000000, 17.500000) rotate(2.000000) translate(-495.000000, -17.500000) "></path>
                <path d="M642.152355,16.750319 C642.118687,16.4478506 641.950946,15.8555429 642.014074,15.3074373 C642.198048,13.6953249 643.42574,12.6755201 644.55844,13.0941768 C645.579312,13.4724202 646.203379,14.860365 645.939443,16.2963006 C645.863689,16.7111686 645.669495,17.1500319 645.430811,17.442397 C644.664856,18.383901 643.010898,18.1199515 642.152355,16.750319" id="Fill-40" fill="#D2D6D8" transform="translate(644.000000, 15.500000) rotate(-55.000000) translate(-644.000000, -15.500000) "></path>
                <path d="M488.487939,20.4435879 C488.044258,21.0632025 487.310952,21.1766437 486.66896,20.7268592 C486.122201,20.3440781 485.851623,19.2328849 486.082987,18.2523814 C486.235362,17.6088844 486.556359,17.1597634 487.004521,17.041015 C487.313193,16.9587535 487.654917,17.0098352 487.96639,17.109345 C488.409511,17.2499856 488.740591,17.6758877 488.9305,18.2828977 C489.119848,18.8865907 488.905851,19.8597969 488.487939,20.4435879" id="Fill-42" fill="#D2D6D8" transform="translate(487.500000, 19.000000) rotate(2.000000) translate(-487.500000, -19.000000) "></path>
            </g>
        </g>
    </g>
</svg>