<svg xmlns="http://www.w3.org/2000/svg" viewBox="0 0 141.82 141.73"><defs><style>.cls-1{fill:#a7c6c6;}.cls-2{fill:#0b3142;}</style></defs><title>Icon</title><g id="Icons_to_export" data-name="Icons to export"><path class="cls-1" d="M36.39,119.93l3.33,1.91c1.6.91,3.57-2.38,2.06-3.43a14.26,14.26,0,0,1-6.26-10l-2.87,2.18L39.52,119l2.34-3.17A17.13,17.13,0,0,1,35.15,105c-.17-.9-.74-1.34-1.66-1-5.65,2.12-7.9,9.12-3.19,13.43l2.34-3.18c-1.56-1.2-5.81-4.32-3.73-6.92,1-1.24.68-4.11-1.35-2.61-2.87,2.12-6,5-5.54,9,.57,4.91,5.55,4.33,9.05,6l1.33-3.55-2.49.08c-1.51,0-2.77,3.15-1,3.67a127.22,127.22,0,0,0,17,3.72c1.7.25,3.35-3.26,1.37-3.68l-7.55-1.6c-1.7-.36-3.31,3.12-1.37,3.68a62.64,62.64,0,0,0,17.37,2.47c1.33,0,3.41-2.65,1.71-3.56L54.08,119c-1.63-.87-3.64,2.46-2.07,3.42,9.38,5.73,20.18,1.3,30.36,2.47l1-3.68a95.87,95.87,0,0,1-31.72-2,19.32,19.32,0,0,1-6-2.21c-2.65-1.7-2.84-3.54-3.82-6.33S40.11,106,37,105.57c-1.69-.23-3.32,3.11-1.36,3.68a42.29,42.29,0,0,1,7.51,3l2.07-3.42-5.2-2.17c-1.67-.7-3.71,2.53-2.06,3.42a93.91,93.91,0,0,0,19.75,8c1.67.46,3.31-3.14,1.37-3.68a91.61,91.61,0,0,1-19.06-7.78L38,110.07l5.19,2.17c1.68.7,3.72-2.58,2.07-3.42A46.55,46.55,0,0,0,37,105.57l-1.36,3.68c3.3.44,3.1,4.64,4.06,6.85a9.21,9.21,0,0,0,2.67,3.47c2.69,2.22,6.38,3.05,9.71,3.75a101.6,101.6,0,0,0,30.63,1.6c1.39-.13,2.9-3.46,1-3.67-9.84-1.13-20.65,3.29-29.65-2.21L52,122.46l3.41,1.82,1.71-3.55a62.2,62.2,0,0,1-17.36-2.47l-1.37,3.68,7.55,1.6,1.37-3.68a127,127,0,0,1-17-3.72l-1,3.68,2.5-.08c1.24,0,2.78-2.87,1.33-3.55-1.11-.52-2.21-.71-3.33-1.14l-1.88-.4c-2-3.36-1.79-5.69.62-7L27.2,105c-3.9,4.88-.91,9.3,3.38,12.62,1.32,1,3.47-2.14,2.33-3.18q-3.51-2.43.78-7.08l-1.66-1a20,20,0,0,0,7.76,12.86c1.38,1.06,3.28-2,2.34-3.18l-6.86-8.43c-1.15-1.4-3,1-2.87,2.18a16.88,16.88,0,0,0,7.32,12l2.06-3.43-3.33-1.9c-1.6-.92-3.66,2.51-2.06,3.42Z"/><path class="cls-1" d="M103.49,110.15c2.43-.35,5.62-.66,6.89,2,.42.88,2.81-2.07,2.32-3.1-1.4-2.94-4.8-2.78-7.56-2.38-1.14.16-2.53,3.63-1.65,3.5Z"/><path class="cls-1" d="M110.21,81.31c1.41.46,2.82.93,4.23,1.43,1.16.41,2.08.4,2.32,1.59.52,2.56,0,5.81,0,8.43,0,2.35,2.92,0,2.92-1.54v-6c0-1.29.37-3.1-.24-4.29s-1.87-1.29-2.94-1.67q-2.41-.86-4.86-1.63c-1.43-.47-3.21,3.06-1.43,3.63Z"/><path class="cls-1" d="M53.78,109.44l6.63,1.13L62,107l-6.15-.63c-1-.1-2.84,3.19-1.83,3.49a55.92,55.92,0,0,0,16.21,2.3c1.12,0,2.44-2.33,2-3.31L71,106.27l-2.22,3.24A57.23,57.23,0,0,1,77,112.28c1.22.51,2.61-2.32,2.22-3.25l-1.48-3.56-2.22,3.25a35.92,35.92,0,0,0,7.92,3.69c1.16.38,2.48-2,2.29-3a12.2,12.2,0,0,0-2.3-5.31l-2.22,3.25a17.11,17.11,0,0,0,6.81,2.6c1,.17,2.22-2.18,2.06-3a6.64,6.64,0,0,0-2-3.93L86,106.44l5.43,3.25c1.21.72,2.47-2.43,2.22-3.25a11.88,11.88,0,0,0-2.55-4.64l-2.22,3.25a26.34,26.34,0,0,0,4.68,3.3c1.06.6,2.5-2.17,2.3-3a16.64,16.64,0,0,0-3.19-6.64L90.48,102l6,6.11c.82.84,2.46-2.3,2.3-3A22.92,22.92,0,0,0,93.59,95l-2.22,3.25,7.37,7.53c.84.86,2.57-2.44,2.22-3.25a80.92,80.92,0,0,0-6.32-11.74L92.42,94,99.57,102c.78.88,2.41-2.33,2.29-3a37.61,37.61,0,0,0-2.58-8.42l-2.22,3.24L99,95.51c.89.77,2.23-2.05,2.29-2.61a18.71,18.71,0,0,0-.29-6.06l-2.06,3,2.52.55c1.16.26,2-2.22,2.07-3a13,13,0,0,1,2-7.35c1.16-2-.31-3-1.49-.9a22,22,0,0,0-3,10.76l2.07-3-2.53-.56c-1-.22-2.23,2.22-2.06,3a15.14,15.14,0,0,1,.3,5.34L101,92.08l-1.92-1.65c-1-.83-2.57,2.45-2.22,3.24a36.69,36.69,0,0,1,2.43,7.86l2.3-3-7.15-8c-.69-.77-2.8,2.37-2.23,3.25a80.46,80.46,0,0,1,6.33,11.74l2.22-3.25-7.37-7.53c-.71-.73-2.93,2.43-2.22,3.25a21.7,21.7,0,0,1,5,9.58l2.3-3-6-6.11c-.72-.74-2.88,2.41-2.22,3.25a15,15,0,0,1,3,6.07l2.3-3a26.34,26.34,0,0,1-4.68-3.3c-.82-.72-2.9,2.47-2.23,3.25a11.83,11.83,0,0,1,2.56,4.64l2.22-3.25L88.1,103c-1.1-.66-2.9,2.56-2.07,3.42l1.55,3,2.06-3A15.61,15.61,0,0,1,83.3,104c-1-.65-2.82,2.44-2.22,3.25A10.19,10.19,0,0,1,83.23,112l2.3-3a35.92,35.92,0,0,1-7.92-3.69c-1.13-.71-2.57,2.42-2.22,3.25l1.48,3.56,2.22-3.25a56,56,0,0,0-8.26-2.76c-1.22-.31-2.71,2.21-2.22,3.24l1.22,2.61,2-3.3a54.11,54.11,0,0,1-15.74-2.19l-1.82,3.49,6.15.63c1.14.11,3-3.31,1.59-3.55l-6.63-1.12c-1.14-.2-2.94,3.31-1.59,3.54Z"/><path class="cls-1" d="M104.67,72.7a11.49,11.49,0,0,0-12.26-4.78c-1.3.3-2.71,3.94-.86,3.52a10.12,10.12,0,0,1,10.65,4.27c.88,1.32,3.26-1.84,2.47-3Z"/><path class="cls-1" d="M55.78,59.55c-6.52-2.91-1.69-11.44,1.14-15.4,1.43-2-.76-3.27-2.17-1.3-3.58,5-9.26,16.45-1,20.13,1.59.71,3.58-2.75,2.06-3.43Z"/><path class="cls-1" d="M74.08,55.87c-3.86-7.33,3-14,3-21.65a21.61,21.61,0,0,0-6.44-15.55c-1.24-1.23-3.49,2-2.5,3C73.73,27.24,76,35.55,72.71,43c-2.56,5.85-4.37,9.75-1.12,15.9.73,1.39,3.18-1.69,2.49-3Z"/><path class="cls-1" d="M90.34,56.17c-3.21-.71-5.76-3.91-4.41-7.24.22-.54.32-1.27-.42-1.09s-1.37,1.62-1.62,2.22c-1.6,4-.08,8.56,4.39,9.54,1.16.25,2.69-3.3,2.06-3.43Z"/><path class="cls-1" d="M32,82A20.4,20.4,0,0,0,34.64,92.3c.61,1.07,3-2,2.38-3.07a18.91,18.91,0,0,1-2.53-9.71c0-.94-1.05-.27-1.37,0A3.62,3.62,0,0,0,32,82Z"/><path class="cls-2" d="M102.42,65.74c-19.66-1.61-40.89-2.26-60.35,1.74-4.15.85-10.37,2-12.7,6.16s2.9,5.67,6,6.65c17.92,5.58,38.5,4.73,57,3.36,6.36-.47,17.06-3.19,17.34-11.44.18-5.24-10.44-7.46-14.46-6.76-.81.15-1.78,2.71-1.27,2.62,2.38-.42,5,.34,7.23,1.05a27,27,0,0,1,3.59,1.4c2.79,1.36,2.73,1.17.95,4.76-1.56,3.17-1.54,3.44-4.54,4.44a25.21,25.21,0,0,1-3.3.81,40.25,40.25,0,0,1-5.13.57c-4.52.27-9.06.22-13.57.4-14.06.58-29.44.53-43-4a13.63,13.63,0,0,1-5.53-3.06c-.68-.67-.19-.73-.44-.37,2.58-3.74,12-4.33,15.78-4.88,18.07-2.57,37-2.33,55.1-.84.73.06,2-2.56,1.27-2.61Z"/><path class="cls-2" d="M27.79,76.06q2,10.22,4.6,20.3c1.71,6.55,2.59,9.93,9,12.68,11.43,4.86,24.6,4.65,36.79,4.51,7.9-.09,20.12.44,24.22-8.09,4.83-10.07,5-22.08,7.33-32.82.32-1.45-1.6.72-1.75,1.42-2.11,9.63-2.2,20.51-6.17,29.63-2.65,6.07-9,6.47-14.88,6.93-5.61.43-11.25.33-16.87.23-10-.17-21.16-.69-30.08-5.8-4.79-2.75-5.35-8.8-6.6-13.77C32,85.47,30.68,79.61,29.53,73.73c-.1-.5-1.91,1.45-1.74,2.33Z"/><path class="cls-2" d="M34.39,101.53C24.07,99.83,15.8,113.3,24.17,121c5.09,4.65,14.75,4.66,21.14,5.65a204.91,204.91,0,0,0,25.44,2.58c13.44.38,29.53-.54,40-10,2.68-2.41,6.5-6.57,5.34-10.6-1.52-5.23-9.68-4.49-13.68-3.88-.94.14-2,2.79-1.18,2.66,3.15-.48,9.09-1.3,11.6,1.32,3.35,3.49-1.37,8-4.2,10.15a28.13,28.13,0,0,1-5.7,3.35c-9.54,4.09-20.78,4.63-31,4.34a223.86,223.86,0,0,1-30.34-3.37c-5-.83-11.22-1-15.3-4.32-1.83-1.48-3.9-4.45-3.55-7,.27-2,3.64-6.8,5.58-7.52a9.4,9.4,0,0,1,4.88-.16c.88.15,2.22-2.49,1.18-2.66Z"/><path class="cls-2" d="M30,120.22l1,1.44,1.68-2.43-6.65-6.76L24.54,115c3.28,1.72,6.31,3.78,9.94,4.7,4.11,1,8.39.87,12.58.73l1.17-2.68a47.19,47.19,0,0,1-10.81-.57c-.82-.13-1.64-.29-2.45-.49-1.89.16-2.95-.62-3.17-2.32-1.79-3.16,1.36-6.26,3.32-8.63l-.76-1.39c-1.29,1.57-3.41,3.58-3,5.81a.44.44,0,0,0,.2.36A19.81,19.81,0,0,0,37,111l.94-2.63-2,.19c-.81-.08-1.52,1.35-1.56,2-.25,4,6.31,6,9.41,6.8.95.26,2.38-1.89,1.55-2.57a6.6,6.6,0,0,0-2.8-1.39c-.86-.24-2.27,2.37-1.16,2.67a4.59,4.59,0,0,1,2.41,1.29l1.55-2.57c-1.94-.53-9.18-2.69-9-5.53l-1.56,2a3.76,3.76,0,0,0,2.45-.27c.62-.19,2.08-2.61.95-2.63s-2.86.35-3.71-.34-.32-.93.71-2.18c.88-1.07.53-3-.76-1.39-2.34,2.83-6.8,8.3-5,12.44.92,2.08,3.2,2.31,5.22,2.75a47.75,47.75,0,0,0,12.45.89c1,0,2.18-2.71,1.17-2.68a49.8,49.8,0,0,1-11-.4c-4.15-.78-7.42-3-11.09-4.92-.93-.48-2.23,1.88-1.55,2.57l6.66,6.76c.61.62,2.16-1.76,1.68-2.43l-1-1.44c-.63-.88-2.37,1.51-1.81,2.29Z"/><path class="cls-2" d="M30.63,110.06a10.42,10.42,0,0,1-2.55-2.36c-.25-.38-.75-2.87-1.27-2.84-.73,0-1.92,2.3-2.19,2.85-1,2.05-1.08,4.82,1.45,5.7.88.3,1.88-1.79,1.66-2.45a1.59,1.59,0,0,0-1.43-1.32c-.8-.17-2,1.75-1.65,2.45a18.62,18.62,0,0,0,13.53,9.5c.72.12,2-2.08,1.39-2.6l-7.17-6.27c-.53-.47-2.24,2-1.55,2.57L38,121.56l1.39-2.6a18,18,0,0,1-13-9.19l-1.66,2.44A1.15,1.15,0,0,1,26,113.28l1.65-2.45c-5.34-1.85,2.6-5.16.9-8-.17-.28-.48-.12-.68,0-3.8,3.19-2.23,7,1.24,9.72.59.46,2.25-2,1.55-2.57Z"/><path class="cls-2" d="M30.29,106.28c-1.2,2.12-2.9,7,1.39,6.59.85-.07,2.4-2,1.33-2.64-1.34-.85-1.08-.75-2.64-.48A2.1,2.1,0,0,0,29,112c2.48,9.5,11.84,12.62,20.65,13.62.91.1,2.35-2.15,1.33-2.64a36,36,0,0,0-10.83-3.29c-1-.15-2.12,1.91-1.33,2.64,3.13,2.85,8.31,2.24,12.25,2.4,5.54.23,11.07.23,16.6.08,1.11,0,2.29-2.74,1.11-2.71-4.89.13-9.77.15-14.65,0-4.16-.13-10.51.63-13.76-2.33l-1.33,2.64a34.8,34.8,0,0,1,10.39,3.15l1.33-2.64c-8.26-.93-17.33-3.65-19.69-12.69l-1.33,2.22,1.69.39,1.33-2.64-1.05-3c.89-1.57-.54-2.47-1.45-.88Z"/><path class="cls-2" d="M90.76,104.46a7,7,0,0,0,2.62,2.3c.81.44,1.64-1,1.77-1.56a8.8,8.8,0,0,0-.9-6.84l-1.87,2.25a23.54,23.54,0,0,0,4.82,4.2c.75.5,1.7-1,1.78-1.56a32.19,32.19,0,0,0,.33-5.64L97.49,99.5l2.55,1.69c.91.6,2-1.48,1.8-2.18A50.54,50.54,0,0,0,97.5,88.82L96,91.3l2.17,1.15c.84.75,2.13-1.68,1.71-2.41l-2-3.47L96.14,89a24.74,24.74,0,0,0,5.18,3.54c1,.49,1.73-1.22,1.82-1.9l1.07-8.54c.21-1.68-2,.2-2.09,1.21-.77,6-2.44,14.22-10.25,13.81-.87,0-1.61,1.21-1.6,2L90,101.33l1.56-1.63-2.63-.64c-.82-.2-1.63,1.32-1.6,2l.19,4.42,2-1.73c-1.71-2.28-4.23-2.88-7-2.3-2.36.5-4.41,1.93-6.73,2.56a20.2,20.2,0,0,1-8.34.19c-4.67-.69-15.19-4.62-17.18,1.94-.13.43,0,1,.44,1.07a57.59,57.59,0,0,0,32.1-1.4c1-.32,2-3.09.62-2.65a56.66,56.66,0,0,1-31.6,1.34l.44,1.07c.53-1.74,16.81,1.75,18.79,1.69,5-.15,12.79-6.29,16.57-1.26.75,1,2-1.08,2-1.73l-.19-4.43-1.6,2,2.62.64c.75.18,1.44-1.12,1.56-1.63a8.25,8.25,0,0,0,.35-2.92l-1.6,2c9.74.51,12.48-10.1,13.45-17.73l-2.09,1.21L101,91.84,102.86,90a24.67,24.67,0,0,1-5.17-3.54c-.84-.75-2.13,1.68-1.71,2.41l2,3.47,1.71-2.41c-1.35-1.2-.84-.9-2.61-1.29-1-.21-1.9,1.74-1.49,2.48a48.33,48.33,0,0,1,4.16,9.73l1.8-2.18L99,96.93c-.84-.55-1.84,1.26-1.82,1.9a20.29,20.29,0,0,1-.25,5l1.78-1.57a20.66,20.66,0,0,1-4.5-3.88c-.88-1-2.34,1.37-1.87,2.25l.77,5.15,1.78-1.57a4.55,4.55,0,0,1-2.3-2c-.74-1-2.51,1.38-1.87,2.26Z"/><path class="cls-2" d="M41.28,80.34c8.25-4.78,19.25-3,28.37-2.85,5.19.08,10.38.15,15.56.24s11.33-.13,13.46,5.59c.22.58,2-1.53,1.73-2.33-1.53-4.11-5.22-5.43-9.33-5.75-6-.47-12.18-.25-18.22-.34-9.82-.15-21.8-2.2-30.69,2.94-.63.37-1.68,3-.88,2.5Z"/><path class="cls-2" d="M46,79.19l1.79,2.42,2-2.17-1.17-1.35-1.49,2.48c2,.47,3.22.11,3.89-1.82l-2.12.88a18.3,18.3,0,0,0,2.54,2.74c.86.77,2.16-.21,2.2-1.25l.09-2.07-2,1.44,2.68,1.73c.87.56,1.93-.64,2-1.44A6.6,6.6,0,0,0,56,77l-2.14,1.91a18.23,18.23,0,0,0,4.09,4c1,.71,2.1-1,2-1.79a8.36,8.36,0,0,0-.9-3.43l-2.14,1.91a12.09,12.09,0,0,0,5.06,2.86c.92.27,1.87-1.09,1.71-1.9L63,77.35,60.79,79a15,15,0,0,0,3.48,2.86c.9.55,1.88-.64,2-1.44a6.37,6.37,0,0,0-.61-4L63.5,78.25a15.56,15.56,0,0,0,4,3.14c1,.53,1.79-.64,2-1.45a9.84,9.84,0,0,0,.35-3.24l-2,1.79a22.36,22.36,0,0,1,3.48,2.82c.95.88,2-.31,2.2-1.25a11,11,0,0,0,.36-3.24l-2,1.79,2.9,2.46c.86.72,1.85-.8,2-1.45a7.54,7.54,0,0,0-.27-4.36l-2.14,1.91a13.42,13.42,0,0,0,3.32,3.36c.73.53,1.7-.46,1.89-1.08a8.85,8.85,0,0,0,.52-3.34L77.93,77.7l2.65,3.59c.77,1,2.1-.43,2.2-1.24L83.19,77,81,78.23a10.19,10.19,0,0,0,2.08,2.63c.86.92,2.09-.32,2.2-1.24,0,0,7.53,1.26,8.18,1.36l.68-2.78L72.38,79l-.07,2.71C80,79.57,88,84.21,95.13,79.37c.64-.43,1.29-1.93.35-2.43-8.19-4.31-17.3-4.44-26.35-4.29-8.76.15-17.44.66-25.07,5.37-.74.46-1.3,2.32-.07,2.53,9.66,1.66,19.29-2.06,28.9,0,1.38.3,2.54-2.44,1-2.78-9.63-2.07-19.25,1.66-28.9,0l-.07,2.53c7.2-4.44,15.63-4.72,23.84-4.86,8.65-.14,17.34-.06,25.18,4.07l.35-2.42c-6.45,4.37-15,0-22.22,2-1.16.32-1.66,2.77-.06,2.71L93.74,81c1.17,0,2.16-2.54.68-2.79-3-.5-10.92-3.48-11.57,1.73l2.2-1.24A9.84,9.84,0,0,1,83,76.05c-.73-1.09-2.11.48-2.21,1.25l-.4,3.06,2.2-1.24-2.65-3.6c-.92-1.24-2.2.76-2.21,1.6L77.39,79,79.28,78a8.58,8.58,0,0,1-2.88-3c-.9-1.3-2.47.9-2.14,1.91l.15,3,2-1.44L73.49,76c-1-.84-2,1.06-2,1.79l-.34,2.54,2.2-1.24a37.58,37.58,0,0,0-3.92-3.21c-1-.74-2,1-2,1.79l-.34,2.55,2-1.45a9.83,9.83,0,0,1-3.6-2.74c-1-1.06-2.67.82-2.14,1.91l.48,2.71,2-1.45a9.14,9.14,0,0,1-3-2.47c-.91-1-2.41.56-2.21,1.59l.65,3.26,1.71-1.9a7.94,7.94,0,0,1-4-2.26c-1.09-1-2.62.76-2.15,1.91l.76,2.8,2-1.79a15.24,15.24,0,0,1-3.65-3.65c-.94-1.27-2.48.89-2.14,1.91L54,81.09l2-1.44-2.69-1.73c-.85-.55-1.94.64-2,1.44l-.08,2.08,2.2-1.25a18.77,18.77,0,0,1-2.53-2.74c-.69-.89-1.87.16-2.12.88l-.24.7,1.31-1.19-1.74,0c-1.12-.28-2.24,1.61-1.49,2.47l1.18,1.35c1.05,1.21,2.81-1.06,2-2.17L48,77c-.93-1.26-2.83,1-2,2.18Z"/><path class="cls-2" d="M56.49,59.21c-3.42,1.47-2.57-4.64-2.45-5.65a14.15,14.15,0,0,1,3.14-7.83c1.3-1.62,2.75-2.9,3.63-4.83,1.43-3.14,1.46-6.78-.91-9.43-.84-.95-2.56,1.47-1.86,2.25,3.9,4.37-.39,8.33-2.93,11.89A17.8,17.8,0,0,0,52.22,53c-.46,2.56-1.55,11.11,3.65,8.88.91-.39,1.86-3.18.62-2.65Z"/><path class="cls-2" d="M74.93,55.36c-1.65-3.62-2.46-6.63-.37-10.47,1-1.82,2.35-3.44,3.35-5.26A16.22,16.22,0,0,0,80,31.58c.06-9.18-6-13.85-13.49-17.81-.61-.33-2.1,2.27-1.55,2.57,9.72,5.17,17.7,13.71,10.66,25.22-1.42,2.31-3.33,4.52-4.19,7.13-1.1,3.34.39,6,1.77,9,.23.5,2-1.63,1.7-2.35Z"/><path class="cls-2" d="M91.48,56.13c-4.36-1.22-6.36-6.78-2.27-9.67,1.14-.8.93-3.3-.67-2.17-5.55,3.91-5,12.64,1.9,14.59,1.19.33,2.46-2.36,1-2.75Z"/><path class="cls-2" d="M109.13,77.79c2.83.85,7.26,1.27,9.62,3.06s1.66,7.27,1,9.77c-.92,3.38-3.51,3.67-6.59,4.48-2.44.64-4.91,1.13-7.39,1.6-1.08.21-2.06,3-.57,2.68,4.14-.8,8.65-1.47,12.51-3.25,2.91-1.35,3.53-2.95,4.12-6,.56-2.91,1.56-7.37,0-10.14-1.84-3.36-8.4-3.92-11.64-4.89-1.06-.31-2.4,2.33-1.09,2.72Z"/><path class="cls-2" d="M104.86,95c4.44-.82,10.8-.93,12.1-6.15a7.74,7.74,0,0,0-1.19-6.63c-1.7-2-4.23-1.2-6.45-2.07-.86-.34-2.23,2.3-1.54,2.57a14.32,14.32,0,0,0,3.52.59c2.21.3,3.34,1.59,3.86,3.73.25,1.06.52,2.55-.38,3.3-.62.51-2.07.59-2.89.78-1.92.48-3.86.88-5.81,1.24-.88.16-1.91,2.77-1.22,2.64Z"/></g></svg>