<svg xmlns="http://www.w3.org/2000/svg" viewBox="0 0 141.82 141.73"><defs><style>.cls-1{fill:#a7c6c6;}.cls-2{fill:#0b3142;}</style></defs><title>Icon</title><g id="Icons_to_export" data-name="Icons to export"><path class="cls-1" d="M33.1,110.47c3.24-4.15,9.5-9.56,8.59-15.47-.46-3-2.68-5.56-4.28-8-2.53-3.86-5.22-8.06-5.65-12.8C31,66,36.61,58.12,41.5,52.08c5-6.25,11.19-11.19,18.87-13.77,2.07-.69,2.69-5.22-.21-4.25-13.29,4.45-24,16.57-29.66,29.11-2.91,6.42-3.6,13.15-.76,19.72a66.85,66.85,0,0,0,5.36,9.18c2.43,3.82,3,5.58.5,9.7A70,70,0,0,1,31,107.66c-1.64,2.1,0,5.43,2.09,2.81Z"/><path class="cls-1" d="M36,60.73a52.84,52.84,0,0,0-.89,19.21c0,.39,2.91-2.63,2.79-4-.52-5.83-.88-11.5,1-17.16.71-2.18-2,1-2.22,1.51-5.42,10.36-3,24.26,4.44,33.15.33.39,3.43-3.26,2.58-4.29-6.48-7.77-8.38-19-3.62-28.11,1.6-3.06-.92-1.21-1.8.47C32.85,72,33.46,84.3,41.12,93.49L43.7,89.2C37.62,82,33.93,68.56,38.48,59.87l-2.22,1.5c-2,6.12-1.69,12.24-1.12,18.57l2.79-4a49.33,49.33,0,0,1,.73-17.8c.51-2.24-2.42,1.59-2.63,2.54Z"/><path class="cls-1" d="M53.87,56a30.49,30.49,0,0,0,.49,10.08c.23,1.08,3.1-2.42,3-3.54A34.35,34.35,0,0,0,56,56.22c-.38-1.24-3.09,2.55-3,3.54A31,31,0,0,0,58.7,74.55c.86,1.2,3.56-2.73,2.91-3.88L60.15,68.1,57.24,72a44.2,44.2,0,0,1,5.07,9.09l2.92-3.87A33.28,33.28,0,0,1,58.29,60l-2.81,3.75a11.35,11.35,0,0,1,3.13,3.62c.72,1.3,3.27-2.72,2.92-3.87a37.26,37.26,0,0,0-4.68-9.77c-.84-1.26-3.39,2.72-2.91,3.87l3.38,8.14c.48,1.18,3.33-2.58,2.91-3.87l-1.08-3.35c-.41-1.29-2.45,1.75-2.58,2-2.73,5.85-.78,10.66,2.53,15.88l2.75-4.08a17.73,17.73,0,0,1-4.51-4.67c-.81-1.22-3.52,2.7-2.92,3.87A80.1,80.1,0,0,0,61.56,83c.89,1.19,3.61-2.76,2.92-3.87l-2.51-4-2.75,4.07Q64.36,84.58,70,89.53c.89.79,3.43-3.16,2.74-4.08a35.71,35.71,0,0,0-3.66-4.22c-.78-.78-3.56,3.15-2.57,4.28a35.73,35.73,0,0,0,8.42,7.08c1.18.72,3.5-3.3,2.58-4.28l-2.34-2.5-2.58,4.28a28.34,28.34,0,0,0,4,3.34c1.21.85,3.07-3.17,2.75-4.08a18.24,18.24,0,0,0-2-4.11l-2.75,4.08,3.38,2.86c1,.85,3.2-3.16,2.74-4.08l-2-4.08-2.74,4.07a39.5,39.5,0,0,0,5,4c1.26.87,3-3.19,2.75-4.08a28,28,0,0,0-1.92-5l-2.92,3.87a32.2,32.2,0,0,0,4.81,5.48c1,.91,2.92-3,2.81-3.74a22.39,22.39,0,0,0-1.61-5.78L81.9,86.76a25.31,25.31,0,0,0,4.46,5.48c1,.92,2.9-3,2.81-3.75a18.83,18.83,0,0,0-2-6.59L84.45,86l4,4.64c.88,1,2.85-3.11,2.81-3.75l-.13-2.63L88.34,88l1.42,1.6,2.58-4.29a23.89,23.89,0,0,0-13-3c-1.42.07-3.33,4.46-2.06,4.39a22.84,22.84,0,0,1,12.51,2.86c1.26.68,3.47-3.3,2.58-4.29L90.92,83.7c-.9-1-2.84,3.1-2.81,3.74l.13,2.64,2.81-3.75-4-4.64c-.75-.85-3.26,3.08-2.75,4.08a16,16,0,0,1,1.85,5.93L88.94,88a23.6,23.6,0,0,1-4.12-5.06c-.76-1.24-3.43,2.69-2.92,3.87a19.29,19.29,0,0,1,1.49,5.11l2.81-3.74a30.35,30.35,0,0,1-4.47-5.07c-.86-1.22-3.5,2.72-2.92,3.87a26.6,26.6,0,0,1,1.92,5l2.75-4.07a42.23,42.23,0,0,1-5-4c-.92-.88-3.21,3.14-2.74,4.08l2,4.08,2.75-4.08L77.13,85c-.95-.81-3.35,3.15-2.75,4.08a17.44,17.44,0,0,1,2,4.11l2.75-4.08a29.76,29.76,0,0,1-4-3.34c-.78-.76-3.63,3.17-2.58,4.28l2.34,2.5,2.58-4.28a36.23,36.23,0,0,1-8.43-7.08l-2.57,4.28a23.28,23.28,0,0,1,3.32,3.82l2.74-4.08q-5.61-5-10.75-10.41c-.77-.82-3.36,3.09-2.74,4.08l2.5,4,2.92-3.87a79.77,79.77,0,0,1-7.14-11.46l-2.92,3.87a18.76,18.76,0,0,0,4.85,5.08c1.06.77,3.33-3.16,2.75-4.08-2.21-3.48-5.2-7.93-3.2-12.2l-2.58,2,1.08,3.35,2.91-3.87-3.38-8.14-2.91,3.87a37.23,37.23,0,0,1,4.67,9.77l2.92-3.87a12.3,12.3,0,0,0-3.48-4c-1.11-.85-2.89,3-2.81,3.75a34.64,34.64,0,0,0,7.07,17.89c1,1.25,3.38-2.75,2.92-3.87a44.24,44.24,0,0,0-5.08-9.09c-.86-1.2-3.56,2.73-2.91,3.87l1.46,2.58,2.91-3.88a29.57,29.57,0,0,1-5.52-14.12l-3,3.54a31.32,31.32,0,0,1,1.18,5.68l3-3.54a24.6,24.6,0,0,1-.43-8.55c.28-2.55-2.83,1.1-3,2.34Z"/><path class="cls-1" d="M78,82.35c1-2.54,7.61,1,9,1.93a10,10,0,0,1,4.61,6.22c.57,2.44,4-1.09,3.53-2.92-1.83-7.86-16.3-15.8-20.36-5.59-1.22,3.1,2.22,2.75,3.17.36Z"/><path class="cls-1" d="M85.75,90.8C80.17,94,71.54,89.49,67.1,86.23c-7.7-5.66-13.93-15-14.62-24.75-.21-3.06-4.12-.51-4,1.74.76,10.83,7.42,21,16,27.29,5.3,3.88,15,8.39,21.53,4.61,1.9-1.11,2.3-5.83-.31-4.32Z"/><path class="cls-2" d="M51,58.64c.7,0,1.79-2.59,1.31-2.59-.69,0-1.79,2.59-1.31,2.59Z"/><path class="cls-2" d="M36.3,105.56c.86-4.81,3-10,1-14.73-2.09-5.08-3.71-9.93-4-15.5A40.62,40.62,0,0,1,46,43.9c1.22-1.15.1-3.08-1.32-1.73a44.28,44.28,0,0,0-12.31,43c.73,2.8,2.1,5.2,3,7.9,1.23,3.66-.71,9.16-1.37,12.87-.35,1.93,2.07,1.07,2.33-.36Z"/><path class="cls-2" d="M52.15,58a20,20,0,0,0,3,13.82c.62,1,2.41-1.38,1.85-2.26a18.42,18.42,0,0,1-2.76-12.81c.23-1.64-1.9.29-2,1.25Z"/><path class="cls-2" d="M29.08,114.25c2.17-5.09,4.56-10.13,6.52-15.3,1.29-3.42,1.08-5.79-.72-9-5.57-10-7.93-19.82-3.85-31,7.81-21.44,39.55-32.92,59.62-22,13.46,7.31,20.74,25.17,20.51,40.05-.26,16.15-13.43,30-28.92,33.45-8.62,1.93-20.1,2.1-28.1-1.86-3-1.5-5.57-3.64-9-2.74C39.62,107.2,34,110.59,29,113.3c-.63.34-1.7,2.91-.9,2.48,3.1-1.69,6.24-3.28,9.45-4.74,2.39-1.08,6.34-3.48,9-3,3.39.68,6.27,3.64,9.64,4.56A52.17,52.17,0,0,0,85,111.84c12.82-4.39,24.22-16.17,27.08-29.48,3.2-14.94-2.75-34-14.28-44.13-16.5-14.46-45-7.81-59.16,6.88A40.85,40.85,0,0,0,27.11,72.73a33.08,33.08,0,0,0,4.53,17.12c2.56,4.36,3.83,6.66,1.57,12-1.78,4.2-3.58,8.38-5.36,12.57-.81,1.88.75.95,1.23-.18Z"/><path class="cls-2" d="M60.58,68.71c1.29-1.53,3.47-3.36,3.84-5.44.42-2.32-2.17-6.9-3.24-8.91-2.45-4.61-6.7-4.4-9.34-.42-7.6,11.44,3.91,26.44,12.49,33.74,5.2,4.42,12.16,7.87,19.15,7.49,4.65-.25,10.31-2.66,12.2-7.3,2-4.83-5.24-6.58-8.71-7.78C82,78.36,77.5,79,76,84.42l1.61-1.6c-7.75-1.63-12.25-8.76-15.76-15.2-.63-1.15-2.5,1.17-1.92,2.23,3.71,6.78,8.48,14,16.61,15.71.84.17,1.44-1,1.61-1.6,1.19-4.17,10.72-.9,12.81.94q2.22.54,1.11,2.79.6,2.66-2.12,3.34a14.69,14.69,0,0,1-7.5,1.4C75,92,68.13,87.73,63.1,82.49,58.34,77.54,52,69.3,51.47,62.24c-.31-4.37,3.35-12.74,7.33-6,1,1.68,2.57,4.11,2.84,6.09.3,2.14-.81,3.12-2.18,4.76-1,1.19-.16,3.15,1.12,1.61Z"/></g></svg>