<svg xmlns="http://www.w3.org/2000/svg" viewBox="0 0 141.82 141.73"><defs><style>.cls-1{fill:#a7c6c6;}.cls-2{fill:#0b3142;}</style></defs><title>Icon</title><g id="Icons_to_export" data-name="Icons to export"><path class="cls-1" d="M35.23,78.25A33.67,33.67,0,0,1,32.35,66L29.49,68l1.91,9.41L34.22,75a67.46,67.46,0,0,1-1.86-15.32c-.09-2.39-2.93,0-2.92,1.55a59.24,59.24,0,0,0,4.1,21.24c.74,1.89,3-.75,2.86-1.94l-.48-4.31L33.2,78.52c2.27,4.08,4.63,7.84,8.75,10.24,1.5.87,2.85-2.1,2.3-3.2a9.81,9.81,0,0,0-3.74-4.15l-2.06,3.43a15.73,15.73,0,0,0,8,2.43c1.21.06,3.28-3,1.75-3.53C44.47,82.42,41,81,38.12,78.26L36.37,81.8a33.21,33.21,0,0,1,10,4.81l1.75-3.53c-8,0-11.45-7.39-13.78-13.92-.69-1.94-3.33.92-2.82,2.34C34,78.63,37.9,86.76,46.63,86.72c1.29,0,3.14-2.56,1.75-3.53a35.33,35.33,0,0,0-10.57-5c-1.5-.44-2.75,2.58-1.75,3.53,2.89,2.76,6.35,4.16,10.07,5.48l1.75-3.53a14.81,14.81,0,0,1-7.37-2.23c-1.4-.85-3.45,2.53-2.06,3.43a8.91,8.91,0,0,1,3.26,3.7L44,85.33c-3.93-2.28-6.12-5.92-8.27-9.79C34.9,74.05,32.91,76.9,33,77.8l.48,4.32,2.87-2a56.82,56.82,0,0,1-4-20.45l-2.92,1.55a71.58,71.58,0,0,0,2,16.11c.55,2,3.11-.95,2.82-2.34l-1.91-9.4c-.41-2-2.92.81-2.87,1.94a35.78,35.78,0,0,0,3,13c.83,1.91,3.42-1,2.82-2.33Z"/><path class="cls-1" d="M32.56,60.09a37.73,37.73,0,0,1-.15-8.43c.08-.89-.88,0-1.09.18A4.53,4.53,0,0,0,30.1,54.3a39.71,39.71,0,0,0,.19,8.92c.09.7,1.29-.7,1.37-.8a3.58,3.58,0,0,0,.9-2.33Z"/><path class="cls-1" d="M39.25,59.38a4.46,4.46,0,0,1-.4-1.05c0-.15,0-.31-.07-.46.07-.52-.1-.3-.5.67a3,3,0,0,1-.55.91c.5-.05.78-.25,1.21.2S41.72,57,41,56.22c-1-1-2.46.25-3.08,1.06-1.2,1.56-1.85,3.41-.91,5.25.29.57,1.16-.62,1.31-.84a7.14,7.14,0,0,0,.75-1.35c.09-.24.31-.72.18-1Z"/><path class="cls-1" d="M48.44,72.66a1.1,1.1,0,0,1-.83-.44s-.19-.39-.2-.39-.55,1.38-.71,1.29a6.62,6.62,0,0,1,.71.11,5.35,5.35,0,0,1,1.05.79c.59.51,1.6-.84,1.83-1.23.33-.55.85-1.67.23-2.2a3,3,0,0,0-2.31-1,4,4,0,0,0-2.65,2A3.85,3.85,0,0,0,45,74.77a2.18,2.18,0,0,0,1.93,1.46c1.26.09,3-3.46,1.56-3.57Z"/><path class="cls-1" d="M37,60.57c-.1.17-.09.14,0,0,.33-.46-.12.11.09-.13a3.88,3.88,0,0,1,.41-.41,6.73,6.73,0,0,1,1.24-.8A4,4,0,0,0,40.35,57c.14-.41.34-1.51-.45-1.11a10.48,10.48,0,0,0-4.12,3.94c-.24.37-1,1.7-.43,2.08s1.46-1.08,1.63-1.35Z"/><path class="cls-1" d="M49.6,51.83a2.51,2.51,0,0,1-1.29-1.37,7.06,7.06,0,0,1-.19-.89.45.45,0,0,0,0-.2c.22.14-1,1-.58.93.23,0,.5-.23.75-.27a3.16,3.16,0,0,1,1,0,2.71,2.71,0,0,1,1.68,1c.35.45,2.81-2.46,2.06-3.43a3.16,3.16,0,0,0-2.81-1.13,4.53,4.53,0,0,0-3.09,2.07c-1.38,1.92-2.23,5.38.44,6.67.93.45,2.86-3,2.06-3.42Z"/><path class="cls-1" d="M37.4,79.37a6.24,6.24,0,0,0,.94,2.42c.84,1.56,2.69-.9,2.85-1.71l.33-1.73-2.57,2a28.93,28.93,0,0,0,10.59,4.1l.58-3.55c-2.12,1-6.1.34-8.11-.8-2.36-1.34-3-3.88-3.52-6.35l-3,2.24,1.12,4.2,3-2.24L37.34,72.2c-.85-2.16-3.34.7-3,2.24l1.94,8.06,2.52-2.84c-2-1.62-4-3.28-6.09-4.88C31.8,74,31.23,73.34,30,73.49a2.43,2.43,0,0,0-1.7,1.61c-.84,2.24,1,5,1.84,7l2.79-2.59-1.31-2.27c-1-1.66-3.5,1.41-2.62,2.93l1.32,2.27c1,1.64,3.3-1.29,2.79-2.59L31.88,76.8c-.29-.73-.38-2.29-.77-1.25L29.4,77.16c1.15-.14,6.47,5.2,7.37,5.93,1.42,1.14,2.77-1.81,2.52-2.83L37.34,72.2l-3,2.24,2.26,5.72c.85,2.14,3.39-.68,3-2.24l-1.12-4.2c-.58-2.16-3.29.67-3,2.24.71,3.51,2,6.55,5.47,8,2.75,1.16,6.59,1.57,9.33.32,1-.47,2.44-3.22.58-3.55A26.68,26.68,0,0,1,41,76.89c-1.2-.75-2.39,1-2.57,2l-.34,1.72L41,78.86l-.59-1.73c-.44-2.09-3.32.59-3,2.24Z"/><path class="cls-1" d="M85.6,76.13c5.72-.91,11.57-3.53,15.29-8.14,3.52-4.37.07-6.3-4.39-8.08l-1.86,3.46,4.16-.11c1,0,2.54-2.67,1.87-3.46a46.63,46.63,0,0,0-3.42-3.61l-1.86,3.46c2.77-.25,5,.18,6.23-2.76,1.52-3.54-3.25-5.82-5.8-7.25L94,53.11c1.57-.08,1.17,0,2.49-.82.74-.47,2.37-2.46,1.62-3.37-1.25-1.53-1.84-1.63-2.12-4.16-.14-1.27.27-1.73-.51-2.81l-2,3.3,2.4,0c1,0,2-2.2,2-3,0-2.53-1.2-4-2.52-6.09a47.41,47.41,0,0,1-4-9.3c-1.84-5-3.07-8.19-8.67-6-.89.36-2.42,3.81-1.18,3.32,6.21-2.47,7,4.59,8.68,9,1.37,3.61,5.4,7.79,5.35,11.66l2-3.05-2.41,0c-.84,0-2.51,2.57-2,3.3,1.07,1.51-.23,3,.33,4.53.49,1.34,1.68,1.7,2.54,2.76L97.63,49l-2,.64c-.78,0-2.76,3-1.87,3.46s6.27,3.42,5.89,4.71l1.62-2.22c-1.27.88-2.77.47-4.21.6-.88.08-2.65,2.72-1.87,3.46a46.5,46.5,0,0,1,3.41,3.61l1.87-3.46-4.16.11c-.79,0-2.74,3.11-1.87,3.46a13.68,13.68,0,0,1,3.88,1.88c1.66,1.54.79,2.1-1,3.53-2.82,2.26-6.57,3.33-10.07,3.89-1.11.17-2.46,3.62-1.67,3.49Z"/><path class="cls-1" d="M102.83,61c2.78-7.25-.66-17-4.14-23.47-1.17-2.15-3.47.52-3.06,2.19,2.06,8.6,4,17.46,1.49,26.18-.73,2.51,2.36,2.75,3,.56,2.84-9.72.89-19.31-1.42-28.93l-3.06,2.19c3,5.5,6.62,14.44,4.21,20.72-.94,2.45,2.18,2.66,3,.56Z"/><path class="cls-1" d="M71.93,30c0,.41.15-.57,0-.06,0-.12.26-.55,0-.15.06-.1.35-.45.06-.13a2.75,2.75,0,0,1,.22-.26c-.16.15-.15.15,0,0a2.59,2.59,0,0,0,1-2.59c-.3-.9-1.3-.83-1.92-.32a6.53,6.53,0,0,0-2.47,5,1.07,1.07,0,0,0,1.6,1A2.78,2.78,0,0,0,71.93,30Z"/><path class="cls-1" d="M87.05,39.34c-3.51-.82-6.74,3-5.7,6.34,1.12,3.61,5.68,3,7.26.09.39-.71.68-1.9-.17-2.43s-1.85.31-2.23,1c-.18.29-.15.29.08,0a.22.22,0,0,1-.24.14,2.09,2.09,0,0,1-.66,0,1.32,1.32,0,0,1-1-.82c-.36-.89.53-.83,1.28-.65,1.73.4,3.34-3.23,1.35-3.69Z"/><path class="cls-1" d="M82.85,52a2,2,0,0,0-1.39.89,6.09,6.09,0,0,0-1.34,2.58,1.86,1.86,0,0,0,1.42,2.16c1.41.49,2.47-1.45,2.93-2.49a3,3,0,0,0,.29-1.87A3.08,3.08,0,0,0,83.92,52c-.41-.44-2.82,2.6-2.06,3.43a3,3,0,0,1,.61.88c.06.15.07.2,0,.15-.51-.74,0-1.48,1.45-2.25a1,1,0,0,1-.42,0,2.62,2.62,0,0,1-.83-.47,1.13,1.13,0,0,1-.25-.29,1.25,1.25,0,0,1-.09-.25c0,.25,0,.28,0,.09l-.31.84c-1,2.11-1.77,1.34-.94,1.38.26,0,.67-.46.8-.6a5.31,5.31,0,0,0,.84-1.29c.15-.3.75-1.56.07-1.59Z"/><path class="cls-1" d="M90,59.52c-3.51-1.5-7,3.06-6.47,6.3.22,1.47,1.48,3,3.12,2.76,1.86-.32,3.11-2.59,3.81-4.13.17-.35.73-1.54,0-1.62S89,64.28,88.82,64.69s-.5.54-1.18.36a2.52,2.52,0,0,1-1.59-1.53c-.13-.33-.09-.7-.2-1,.08-.53-.07-.33-.45.59a2.4,2.4,0,0,1,.39-.2A3.74,3.74,0,0,1,88,63c1,.42,2.84-3.09,2.06-3.43Z"/><path class="cls-1" d="M87,62.33a3,3,0,0,0,2.37,3c1.55.28,3.24-3.31,1.43-3.65-.15,0-.18,0-.08,0l-.24-.12-.22-.15c.07.08.06.06,0,0s-.28-.47-.19-.26A2,2,0,0,1,90,60.8c0,.18,0,.18,0,0a1,1,0,0,0-1.49-.9A3,3,0,0,0,87,62.33Z"/><path class="cls-1" d="M85.83,66.29a6.27,6.27,0,0,0,2.32.28c.81,0,1.48-1.14,1.76-1.8.14-.33.66-1.79-.16-1.73a4.88,4.88,0,0,1-1.86-.18c-1.26-.38-3,3.15-2.06,3.43Z"/><path class="cls-1" d="M85.29,44.36a1.28,1.28,0,0,0,.53.86c.18.13.56-.23.64-.3a5,5,0,0,0,.87-1.13,5.36,5.36,0,0,0,.59-1.29c0-.2.16-.56,0-.71a.79.79,0,0,1-.35-.58c-.1-.65-1.23.73-1.31.84a3.8,3.8,0,0,0-.93,2.31Z"/><path class="cls-1" d="M85.58,42.14l-.23.23A2.23,2.23,0,0,0,84.87,45c.6.8,1.6.16,2.12-.36l.23-.23a2.21,2.21,0,0,0,.47-2.58c-.6-.8-1.6-.16-2.11.36Z"/><path class="cls-1" d="M33.26,134.61c7.77-.15,15.24-2.33,23-2.81,1.49-.09,3-3.71,1.48-3.62-7.73.48-15.2,2.66-23,2.82-1.49,0-3.07,3.64-1.48,3.61Z"/><path class="cls-1" d="M118.71,110.22q-8.49,4.5-16.54,9.75c-1.06.68-2.11,4.36-.25,3.15q8.06-5.24,16.55-9.74c1.13-.61,2.23-4.22.24-3.16Z"/><path class="cls-1" d="M51.1,20.61A11.06,11.06,0,0,1,47.18,18l-2,3.31a11.88,11.88,0,0,1,5.41,1.36c1.27.67,3.28-2.78,2.06-3.42a13.28,13.28,0,0,0-6-1.53c-1,0-2.85,2.4-2,3.31A12.18,12.18,0,0,0,49,24c1.37.54,3.27-2.95,2.06-3.43Z"/><path class="cls-1" d="M51.07,7.73l-.15,0A3.06,3.06,0,0,0,49.2,9.92c-.34,1.5.69,2.68,1.39,3.94L53.42,19c.71,1.28,3.13-1.82,2.45-3l-2.08-3.74-.89-1.61c-.08-.14-1-2-1.15-1.47L50,11.25l.14,0c1.25-.3,2.7-3.92.9-3.49Z"/><path class="cls-1" d="M58.55,10.64a72.13,72.13,0,0,0-.1,10.29c.14,2.35,3-.08,2.87-1.57a72.27,72.27,0,0,1,.1-10.3c.07-.9-.71-1.16-1.41-.84a3,3,0,0,0-1.46,2.42Z"/><path class="cls-2" d="M29.47,31.71l-1.1,25.85c-.3,6.87-2.35,16.07.78,22.51C31.33,84.58,37,89.53,42,90.17c4.91.62,9.12-2.81,11.64-6.68,7.36-11.29,5.14-27.89,5-40.63,0-4,.25-8.26-.27-12.19-.28-2.08-.54-2.85-2.64-3.47-3.51-1-8.45-.47-12.1-.3a97.25,97.25,0,0,0-12.83,1.55c-1.06.2-2.31,3.58-1.71,3.47a93.65,93.65,0,0,1,17.44-1.64c2.14,0,6.45-.62,8.28.66,2.35,1.66,1.42,8,1.47,10.59q.16,9.45.09,18.9c-.07,7.28.7,20.17-6.3,24.78-4.8,3.16-9.77.74-13.71-2.5-5.49-4.51-6.48-9.47-6.2-16.31q.77-18.68,1.59-37.33c.05-1.08-2.26,1.7-2.3,2.64Z"/><path class="cls-2" d="M61.74,31a168.41,168.41,0,0,1,7.59,19c1.9,5.8,3,11.87,5,17.63,1.46,4.1,3.72,8.24,7.89,10.08s10.3,1.75,14.17-.87c7.34-5,9.3-15.73,8.54-23.91-1.22-13.21-9.09-25.43-14.92-37-.15-.29-.47-.27-.73-.21A80.91,80.91,0,0,0,64.68,27c-1,.67-2.11,4.34-.31,3.12a76.25,76.25,0,0,1,16-8.4c2.28-.86,6.07-3.12,8.12-1,1.88,1.9,3,5.92,4.2,8.35,5.68,11.3,13.06,24.84,8.57,37.8-1.63,4.7-4.46,8.05-9.7,8.44a14.64,14.64,0,0,1-8.9-1.87c-4.28-2.73-5.9-8.44-7.11-13A188.6,188.6,0,0,0,64.16,28c-.55-1.17-3,1.85-2.42,3.05Z"/><path class="cls-2" d="M55.19,22.81a38.09,38.09,0,0,1-5-3.94,1.46,1.46,0,0,0-2.16.34c-.46.52-1.14,1.95-.45,2.59a43,43,0,0,0,5.55,4.44c1.51,1,3.6-2.4,2.07-3.43Z"/><path class="cls-2" d="M57.19,24.79l.7-.77c.54-.59,1.45-1.87,1.11-2.76A63.2,63.2,0,0,0,53.14,9.65L50.8,12.74l.7.91c.77,1,3-2.24,2.35-3.09l-.71-.91c-.76-1-2.92,2.18-2.34,3.09a62.84,62.84,0,0,1,5.85,11.61l1.11-2.76-.7.77c-.43.47-1.46,1.77-1.16,2.49s.79.49,1.29-.06Z"/><path class="cls-2" d="M62.65,20.12a36.08,36.08,0,0,1,.75-9c.17-.79-.18-1.6-1.08-1.49s-1.62,1.31-1.79,2.12a39.9,39.9,0,0,0-.84,9.93c.1,2.38,3,.07,3-1.52Z"/><path class="cls-2" d="M31,47.81a17,17,0,0,1,6.11,0,17.21,17.21,0,0,0,4,1.2c1.64-.16,1.8-1.1,3-1.95,1.53-1.1.12-.72,2-.57,1.48.13,2.93.77,4.48.83A18,18,0,0,0,58,45.83c1.61-.64,2.09-4.31-.18-3.41a15.55,15.55,0,0,1-10.38.36c-1.92-.51-2.14-.61-3.8.23s-.57,1.83-3.58,1.48-5.34-.85-8.46-.34c-1.65.27-2.77,4-.61,3.66Z"/><path class="cls-2" d="M68.24,38.72a15.12,15.12,0,0,1,8.05,1c1,.39,1.91-1.58,2.14-2.22-.16.46,1.72,1.69,2.14,1.77a12.5,12.5,0,0,0,2.65-.81c4.47-1.1,9.53-.33,14.18-1.12,1.19-.2,2.58-3.69,1.62-3.52a69,69,0,0,1-11.12.77c-2.17,0-4.51.86-6.36.62-1.51-.19-1.77-.93-3.27.1a6,6,0,0,0-2.07,3.2l2.15-2.22a15.64,15.64,0,0,0-8.48-1c-1.19.16-2.62,3.66-1.63,3.52Z"/><path class="cls-2" d="M37.63,38.58l0-4.36-2,3.05,3.63-.09c.86,0,2.61-3.28,1.88-3.45a13.43,13.43,0,0,0-4.81-.27c-1.08.14-1.93,2.12-2,3a16.66,16.66,0,0,0,.34,5.27c.16.72,1.32-.62,1.43-.77A3.4,3.4,0,0,0,37,38.66a14.93,14.93,0,0,1-.28-4.76l-2,3.05a12.39,12.39,0,0,1,4.42.2L41,33.69l-3.64.09c-1,0-2,2.2-2,3l0,4.36c0,.88.89.15,1.15-.14a4.26,4.26,0,0,0,1.21-2.47Z"/><path class="cls-2" d="M72.69,29.76a3,3,0,0,1-.61-1.15c0-.77-.2-.53-.69.73a4.59,4.59,0,0,1,.79-.42c1.08-.47,2.21-.85,3.31-1.28l1.72-3.47-5.92,2.55a3.72,3.72,0,0,0-1.62,1.89c-.07.13-.68,1.83-.1,1.57l5.92-2.54a3.8,3.8,0,0,0,1.62-1.89c.07-.14.7-1.81.1-1.58-2.25.87-4.7,1.45-6.16,3.51-1.13,1.6-2,3.92-.42,5.51.4.42,2.81-2.65,2.06-3.43Z"/><path class="cls-2" d="M42.24,55.66c-3-4.79-13.16,6.23-5.57,8.85,3,1,5.46-.86,6.88-3.41,1.29-2.31,1.47-6.11-2-6.46-1.13-.11-2.36,3.4-2.06,3.43a3.1,3.1,0,0,1,2.74,2.38c-.07.77,0,.88.15.32a3.21,3.21,0,0,1-1.07.47,4.35,4.35,0,0,1-2.09,0c-.76-.18-3.43-1.32-3-2.48.49-1.52,3.17-1,3.83.06.4.63,2.73-2.38,2.24-3.15Z"/><path class="cls-2" d="M49.83,49.24a5.54,5.54,0,0,0-2.67,4.95,2.57,2.57,0,0,0,2.69,2.42c1.87-.1,3.32-1.85,3.73-3.58.32-1.31,0-3.14-1.5-3.58-.8-.25-1.49.59-1.86,1.21-.2.33-1,2-.2,2.21a1.38,1.38,0,0,1,1,1.06s.06.21,0,.24a1.39,1.39,0,0,1,.28-.7,1.44,1.44,0,0,1,.48-.56c0,.1-.41.13-.57.13a1.47,1.47,0,0,1-1.39-.87,1.35,1.35,0,0,1-.06-.35c0,.11.11-.18,0-.08s-.19.42-.3.56c-.29.34-.25.24,0,.08A3.28,3.28,0,0,0,51,50c.07-.85-.48-1.08-1.18-.71Z"/><path class="cls-2" d="M45.8,68.18c-2.18,1.83-4.1,4.71-3.62,7.69.44,2.72,2.91,4.57,5.6,3.55a7.89,7.89,0,0,0,4.74-6.67,4.72,4.72,0,0,0-4.46-5.24c-1.48,0-3.09,3.59-1.47,3.62,2.51,0,4.79,4.05,1.51,4.91a2.53,2.53,0,0,1-2.91-1.63c-.64-1.46.14-2.57,1.24-3.5.62-.52,1.37-1.71,1.07-2.55s-1.11-.68-1.7-.18Z"/><path class="cls-2" d="M87.75,60a5.17,5.17,0,0,0-4.39,5.47c.27,2.71,3.06,3.94,5.49,3.25a7.19,7.19,0,0,0,5-5.61,4.19,4.19,0,0,0-4-4.88c-1.43,0-3,3.61-1.5,3.6,1.2,0,4,1.81,2.33,2.94a3.32,3.32,0,0,1-3,.35,2.82,2.82,0,0,1-.9-.63,1.84,1.84,0,0,1-.41-.55c-.25-.48-.27-.59,0-.34a2.56,2.56,0,0,0,1.91-1.72c.17-.41.5-2-.41-1.88Z"/><path class="cls-2" d="M81.37,50.77a6.66,6.66,0,0,0-4,5.72,3.35,3.35,0,0,0,4.23,3.28c2.32-.61,4-3.47,4.29-5.69A4.1,4.1,0,0,0,82,49.43c-1-.09-2.68,3.4-1.68,3.49a3.79,3.79,0,0,1,2.76,1.59,5.68,5.68,0,0,1,.5,1.47c-.07.49,0,.52.1.11a1.38,1.38,0,0,1-.57.22,2.94,2.94,0,0,1-2.53-.62,2.39,2.39,0,0,1-.81-1.23,1.9,1.9,0,0,1,0-.75c-.6.72-.62.91,0,.55a3.45,3.45,0,0,0,1.68-1.86c.07-.16.68-1.86,0-1.63Z"/><path class="cls-2" d="M86.83,39.22c-3.53.21-7,7.31-2.49,8.6,3.77,1.08,7.26-5.33,4.4-8-.62-.56-2.94,2.63-2.07,3.43a2.13,2.13,0,0,1,.63,1c0,.11,0,.79.08.83-.28-.2,1-.81.48-.82-.09,0-.38.13-.51.16a2.45,2.45,0,0,1-1.17-.11,2.32,2.32,0,0,1-1.54-1.49c0-.11,0-.49,0-.53a3.75,3.75,0,0,0-.44.72c-.08-.1.94-.31,1-.31,1.11-.07,2.6-3.56,1.66-3.5Z"/><path class="cls-2" d="M39.12,86.53C41,89.33,46.83,88,49.64,88l1.27-3.5a11.5,11.5,0,0,1-15-5.91c-.55-1.16-3,1.87-2.41,3a12.59,12.59,0,0,0,16.47,6.3c.71-.29,2.81-3.52,1.27-3.5-2.21,0-8.25,1.18-9.67-1-.78-1.16-3.12,2-2.42,3Z"/><path class="cls-2" d="M41,88.24a77.22,77.22,0,0,1,1.71,23c-.19,3.2.08,7.75-1,10.78s-5.43,5.57-7.84,7.66c-.66.56-1.95,3.15-.22,3.29,7.52.63,15.59-1.39,23-2.36,1.09-.14,2.61-2.33,1.61-3.3-2.07-2-4.51-3.77-6.5-5.84-2.91-3-2.41-7.51-2.72-11.56L47.23,86.33c-.19-2.42-3.22-.28-3.09,1.45l2.12,27.55c.19,2.58,0,5.67,1.56,7.88,2,2.71,5.46,4.76,7.84,7.08l1.61-3.3c-7.17.94-15.05,3-22.28,2.35l-.22,3.3c2.82-2.43,7-4.91,8.95-8.12,1.73-2.84,1.49-7.13,1.77-10.32.83-9.48.7-18.93-1.55-28.22-.5-2.07-3.33.64-2.94,2.26Z"/><path class="cls-2" d="M91.87,76.71A220.93,220.93,0,0,1,99.36,100c1.12,4.33,3.14,9.47,2,13.92-.79,3-2.64,5.13-3,8.27-.11.89.48,2.07,1.57,1.41q9.19-5.55,18-11.71c.93-.65,1.55-2.32.57-3.16-1.84-1.59-3.7-1.63-5.94-2.28-4.12-1.21-5.19-6.54-6.57-10.17a205,205,0,0,1-6.84-21.68c-.53-2-3.34.69-2.93,2.28a204.84,204.84,0,0,0,8.23,25.2c1,2.41,1.78,5.56,4.1,7.08s5.57,1,7.89,3l.58-3.16q-8.43,5.9-17.23,11.23l1.57,1.41c.48-3.84,3.21-6.84,3.46-10.77.21-3.16-.81-6.44-1.54-9.47a221,221,0,0,0-8.41-27c-.77-2-3.51.73-2.92,2.28Z"/></g></svg>