<svg xmlns="http://www.w3.org/2000/svg" viewBox="0 0 141.82 141.73"><defs><style>.cls-1{fill:#a7c6c6;}.cls-2{fill:#0b3142;}</style></defs><title>Icon</title><g id="Icons_to_export" data-name="Icons to export"><path class="cls-1" d="M65.74,102.78C55,95.43,60.29,81,64.61,71.38c.77-1.72-1.08.33-1.36,1-4.46,10-10.34,25.33.94,33,.43.3,2.06-2.22,1.55-2.57Z"/><path class="cls-1" d="M59.6,90.74c1.53-7.6,5.48-13.27,8.7-20.08,1.68-3.54,2.34-7.23.46-10.82-.26-.5-2,1.69-1.69,2.36,3.25,6.21-2.34,12.21-5,17.71A50.93,50.93,0,0,0,58,92.23c-.28,1.39,1.52-.88,1.64-1.49Z"/><path class="cls-1" d="M82.69,91.4l.84-12-2.14,1.19a65.35,65.35,0,0,1-1.82,14.06l2-1.39c-1.82-2.31-1.41-5.36-1.73-8.13-.16-1.4-2.18.74-2.07,1.77A60.43,60.43,0,0,1,77.55,101c-.26,1.94,1.88.71,2-.54a65.48,65.48,0,0,0,.21-15.39l-2.07,1.77c.35,3-.08,6.07,1.91,8.61.73.92,1.82-.79,2-1.39a69,69,0,0,0,1.91-14.72c0-1.78-2.06.16-2.14,1.19l-.83,12c-.12,1.72,2.06-.12,2.13-1.19Z"/><path class="cls-1" d="M76.22,87.16a25.83,25.83,0,0,1-1,7.42,11.24,11.24,0,0,0-.74,5c.15,1.16,2-1,1.89-1.88-.29-2.28.9-4.36,1.32-6.55a35.57,35.57,0,0,0,.46-5.84c0-1.07-1.87,1-1.89,1.89Z"/><path class="cls-1" d="M74.41,93.26A16,16,0,0,0,67,87.73c-1.06-.39-2.19,1.54-1.71,2.41L70,98.65l1.86-2.25a80.18,80.18,0,0,1-5.65-7.8c-.67-1.06-2.35,1.33-1.86,2.25a103.9,103.9,0,0,0,8,12.8c.73,1,2.5-1.38,1.86-2.25a105.88,105.88,0,0,1-8-12.8l-1.86,2.25A77,77,0,0,0,70,98.65c.84,1,2.35-1.37,1.86-2.25l-4.67-8.51L65.45,90.3a15.11,15.11,0,0,1,7.09,5.21c.75,1,2.52-1.39,1.87-2.25Z"/><path class="cls-1" d="M74.74,82.9a69.73,69.73,0,0,1-2.56-12l-2,1.85a92.05,92.05,0,0,0,6.12,18.57c.4.89,2.23-1.37,1.82-2.28a90.34,90.34,0,0,1-6-18.14c-.28-1.33-2.05,1-2,1.85a68.49,68.49,0,0,0,2.55,12c.4,1.28,2.23-1,2-1.84Z"/><path class="cls-1" d="M77.81,83,75.43,72.51l-2.15,1.73a86.59,86.59,0,0,1,5.44,16.54c.33,1.5,2.41-.58,2.16-1.73a86.15,86.15,0,0,0-5.45-16.54c-.68-1.54-2.4.66-2.15,1.73l2.37,10.44c.34,1.5,2.42-.57,2.16-1.73Z"/><path class="cls-1" d="M86.75,98.75a44.41,44.41,0,0,0,5-13.06c.41-1.93-1.59-.37-1.85.66a20.75,20.75,0,0,1-3.78,7.82l1.32.37C89.07,86.7,90,78.88,85.48,71.8c-4.31-6.78-11.1-11.59-14-19.28-.33-.88-2.17,1.34-1.82,2.28C72.05,61.15,77,65.52,81.17,70.69c6.1,7.58,6.36,15.16,4.39,24.51-.25,1.18.69,1.17,1.31.37a25.87,25.87,0,0,0,4.85-9.88l-1.85.66A39.35,39.35,0,0,1,85.51,98c-.87,1.55.35,2.33,1.24.75Z"/><path class="cls-1" d="M68.25,52.52c5.36,5.59,12.47,11.22,16.39,18,4.79,8.28,1.89,18.13-.68,26.62-.57,1.86,1.72.64,2.07-.52,2.45-8.07,5-17,1.94-25.26s-11.87-14.84-17.84-21c-.93-1-2.65,1.44-1.88,2.24Z"/><path class="cls-1" d="M66.72,52.67c.23,10.26-5.81,19.25-8.16,29-.46,1.9,2,1,2.35-.35,2.44-10.09,8.42-19,8.19-29.69,0-1.83-2.41-.31-2.38,1Z"/><path class="cls-1" d="M60.62,102.07c-8.83-7.7-7.16-19.73-.42-28.37.72-.92.95-2.76-.32-1.13-7.29,9.34-11,23.22-.8,32.08.38.33,2.12-2.07,1.54-2.58Z"/><path class="cls-1" d="M45.4,96.11C40.6,89.27,35.51,81.8,36.92,73c1.37-8.59,6-17.16,11.94-23.39,8.8-9.31,16.52-20.48,15.31-33.89-.17-1.83-2.5-.31-2.38,1.05.88,9.66-3.37,18.25-9.32,25.61C47.94,48,42.77,52.37,39.65,59c-3,6.35-6.11,13.48-5.22,20.66.88,7,5,13,9,18.63.87,1.24,2.76-1.07,2-2.18Z"/><path class="cls-1" d="M32.74,103.46c10.72,0,22.38,3.89,32.59,6.86,1,.29,2.32-2.35,1.55-2.57-10.38-3-22.1-7-33-7-1,0-2.16,2.66-1.18,2.66Z"/><path class="cls-1" d="M85.55,116.8c4.41,2,9.1,2.54,13.8,3.57a63.52,63.52,0,0,1,16.84,6.41c1,.56,2.54-2,1.55-2.57a65.94,65.94,0,0,0-13.89-5.71c-5.57-1.55-11.45-1.84-16.75-4.27-1.07-.49-2.55,2.11-1.55,2.57Z"/><path class="cls-1" d="M32.51,103.91l-1-.34L30,106.14l31.26,6.75c.81.18,1.92-2.49,1.54-2.57l-31.25-6.75c-.73-.16-2,2.4-1.55,2.57l1,.34c.72.26,2-2.41,1.54-2.57Z"/><path class="cls-1" d="M28.44,126.86a597.8,597.8,0,0,1,86.24-27.53c1.15-.27,2-3.08.51-2.71a600.41,600.41,0,0,0-86.81,27.73c-1.14.46-1.61,3.19.06,2.51Z"/><path class="cls-1" d="M111.66,98.31l3,6.42c.74,1.56,2.37-.65,2.17-1.72a17.45,17.45,0,0,0-3.52-7.69c-.89-1.12-2.71,1.23-1.93,2.21a16.16,16.16,0,0,1,3.28,7.2l2.17-1.72-3-6.41c-.7-1.47-2.7.62-2.18,1.71Z"/><path class="cls-1" d="M107.68,97.6a29.36,29.36,0,0,1,6.91-1.14l.92-2.64-7.26,2.35c-.63.2-2.15,2.5-.93,2.64l6.74.77c1,.11,2.29-2.53,1.15-2.68a19.65,19.65,0,0,0-5.83.07A2,2,0,0,0,108,98.28c-.11.25-.42,1.48.24,1.37a20,20,0,0,1,5.83-.07l1.15-2.68-6.73-.77-.93,2.64,7.27-2.34c.63-.21,2.07-2.7.92-2.65A31.79,31.79,0,0,0,108.37,95c-.89.26-2,3-.69,2.61Z"/><path class="cls-1" d="M28.34,128.24A2.38,2.38,0,0,1,29.45,126a3.18,3.18,0,0,0,1.23-1.65c.08-.26.21-1.24-.38-.86a8.12,8.12,0,0,0-3.78,6.7c0,.67.72.16.94-.06a3,3,0,0,0,.88-1.87Z"/><path class="cls-1" d="M26.94,105.52l3.22-1a2.07,2.07,0,0,0,1.35-1.58c.09-.5-.14-1.36-.84-1.13l-3.21,1a2.06,2.06,0,0,0-1.35,1.58c-.09.5.14,1.36.83,1.13Z"/><path class="cls-1" d="M70,22.31A165.42,165.42,0,0,1,81,35.82c.63.86,2.36-1.53,1.81-2.29a165.27,165.27,0,0,0-11-13.5c-.75-.83-2.41,1.62-1.81,2.28Z"/><path class="cls-2" d="M50.7,100.54C45.33,93.88,37.63,84,39.6,74.85c1.13-5.27,3.37-11,6.82-15.21,2.9-3.51,6.91-5.7,10.23-8.73,10.43-9.5,11.27-24,10.74-37.15L65.77,16A74,74,0,0,1,95.21,98.26c-.39,1.31,1.44-.94,1.61-1.51A74.83,74.83,0,0,0,67.31,13.47c-.53-.37-1.64,1.9-1.62,2.29.47,11.73.54,25.15-9.07,33.58-5.39,4.73-10.49,8-14,14.54C40,68.88,37,75.77,37.45,81.55c.66,7.65,7,15.77,11.71,21.56.2.25,2.06-1.92,1.54-2.57Z"/><path class="cls-2" d="M69.47,100.64c-4.87-.25-6.49-6.37-7-10.39-.58-4.73.42-9.59,1.87-14.07,2.37-7.34,5.83-14.16,7.17-21.81l-1.61,2.29c9.38,9,23.2,23.19,15,37.34-.86,1.49-.2,1.94.68.41,9-15.6-3.18-29.85-14.15-40.32-.45-.43-1.56,2-1.61,2.29-1.7,9.69-7.12,18.24-8.74,27.95-.94,5.64-.9,18.49,7,18.89.68,0,1.84-2.56,1.31-2.58Z"/><path class="cls-2" d="M81.09,87.8l.15-.16-.79.39c1,.35.78,3.38.8,4.19a33.32,33.32,0,0,1-.27,5l1.75-1.87-.84-2.83c-.17-.58-2,1.48-1.74,2.33L81,97.67c.24.81,1.71-1.54,1.75-1.87a36,36,0,0,0,.3-6.22c-.05-1.07.25-3.65-1-4.12-.31-.11-.61.2-.8.39l-.15.16c-.61.63-1.3,3.17,0,1.79Z"/><path class="cls-2" d="M92.53,101.2c5.56-10.68,10.54-22.27,10.23-34.55a38.61,38.61,0,0,0-3.05-14.42c-2.41-5.53-7.45-8.9-10-14.11-.49-1-2.32,1.31-1.85,2.27,1.9,3.87,5.67,6.45,7.94,10.13a34.07,34.07,0,0,1,4.73,14.64c1.17,12.49-3.69,24.36-9.35,35.23-.82,1.58.51,2.43,1.35.81Z"/><path class="cls-2" d="M42.65,78.17c-2-15.6,9.23-28.43,17.68-40.3,1.08-1.53-.74-2.58-1.8-1.08-8.91,12.52-20.37,26-18.25,42.43.24,1.83,2.54.29,2.37-1Z"/><path class="cls-2" d="M61.56,23.77a51.3,51.3,0,0,1-13,34.86c-.62.7-1.12,3.29.16,1.86A56.82,56.82,0,0,0,63.44,21.88c0-1.09-1.89,1.05-1.88,1.89Z"/><path class="cls-2" d="M71.63,98.49l-3.41-9.23c-.54-1.47-2.41.71-2.11,1.76a26.43,26.43,0,0,0,5.69,10.46c1,1.09,2.16-1.18,2-2L69.9,79.07l-1.6,2.24c2.55-.12,5.83,13.46,6.5,15.9.41,1.51,2.31-.72,2.11-1.75a152.7,152.7,0,0,1-2.7-22.55l-2.14,1.46c2.63,7.25,2.65,15,5,22.38.47,1.47,1.94-.52,2.11-1.12S80.43,90.1,80.87,90s1,4.95,1.16,5.59c.19,1.18,1.54,0,1.82-.41l2-2.29-1.33-.17.31,4.4c-.26,1.94,1.93.79,2.11-.5A13.35,13.35,0,0,0,86.63,91c-.17-.66-.92-.54-1.32-.17a18.65,18.65,0,0,0-3,3.46l1.83-.41c-.42-2.54-.91-5-1.48-7.55-.12-.56-.64-.52-1-.36-3.37,1.32-3.71,7.25-4.55,10.15L79.17,95c-2.33-7.33-2.36-15.13-5-22.38-.54-1.47-2.19.61-2.15,1.46A156.36,156.36,0,0,0,74.8,97.21l2.11-1.75c-.75-2.72-3.83-17-7.53-16.88a2,2,0,0,0-1.59,2.24l3.9,20.42,2-2a25,25,0,0,1-5.48-10L66.11,91l3.41,9.22c.54,1.45,2.5-.7,2.11-1.75Z"/><path class="cls-2" d="M70.87,107.9a242.11,242.11,0,0,0-30.63-8.05c-3-.58-8.36-2.77-11.21-1.26-2.11,1.11-3.35,5.59-4.52,7.38-2.24,3.43.07,4.23,3.75,5.24,9.67,2.67,20.61,2.37,30.55,2.43,1,0,2.26-2.69,1.14-2.7a198.07,198.07,0,0,1-25.54-1.4A30.06,30.06,0,0,1,27.65,108c-.2-.07-3.28-1.68-2.77,0,0-.11,1.06-1.09,1.18-1.3.37-.65,1-1.92,1.4-2.52A5.53,5.53,0,0,1,30,101l1.83.29c3.82-.24,9,1.58,12.74,2.39a241.39,241.39,0,0,1,24.77,6.82c1.08.36,2.46-2.27,1.55-2.57Z"/><path class="cls-2" d="M56.22,115Q81.95,106.73,107,96.6c1.84-.75,4.25-2.32,6.21-2.56,2.56-.31,2.35,1.33,3,3.66,1.17,4,1.45,4.65-3.09,6.18-1.83.61-3.67,1.18-5.51,1.74-9,2.77-18,5.53-26.95,8.47q-12.66,4.17-25.2,8.66-6.43,2.31-12.83,4.69c-3.35,1.25-11.63,6.16-14.31,3-5.87-6.94,10.51-9.85,14.19-10.88,7.5-2.1,15.05-4,22.11-7.33,1.1-.53,1.55-3.3-.07-2.52-7.38,3.54-15.32,5.35-23.14,7.58-3.95,1.13-12.74,2.62-15,6.28-1.74,2.76-1.77,7.61.68,10,1.41,1.36,2.64,1.23,4.42.71,3.79-1.11,7.53-2.88,11.23-4.26Q69.1,120.12,96,111.75c4.32-1.34,8.67-2.62,13-4,2.65-.83,6.69-1.45,8.91-3.2,4.06-3.2.11-10-1-13.76-.16-.54-.68-.59-1.12-.4q-29,12.23-59.08,21.82c-1.12.36-2,3.19-.5,2.72Z"/><path class="cls-2" d="M68.26,119.71c11.4,2.66,22.77,5.42,34.15,8.13,2.84.67,8.83,3.37,11.73,2.17,2.69-1.13,5-6.68,5.54-9.28a1,1,0,0,0-.38-1.09c-3.58-2.26-9.16-2.86-13.22-3.85-5.37-1.31-10.77-2.42-16.2-3.4-1.29-.24-2.49,2.49-1,2.76,7.67,1.39,15.27,3.06,22.79,5.09,1.29.35,4.73.67,5,2.53a14.54,14.54,0,0,1-2.43,4.26c-2,1-6.69-1-8.64-1.44C93.5,122.72,81.4,119.78,69.28,117c-1.27-.3-2.49,2.42-1,2.76Z"/><path class="cls-2" d="M95.1,38.1c5.51,8.5,11.3,20.61,9.15,31-.4,1.92,1.92.87,2.19-.45C108.75,57.51,103,45,97,35.88c-.74-1.15-2.59,1.19-1.92,2.22Z"/><path class="cls-2" d="M56.61,25a32.7,32.7,0,0,0,0-12.47c-.34-1.81-2.62-.29-2.36,1a30.92,30.92,0,0,1,0,11.78c-.37,1.93,2.06,1.07,2.34-.36Z"/></g></svg>