<svg xmlns="http://www.w3.org/2000/svg" viewBox="0 0 141.82 141.73"><defs><style>.cls-1{fill:#a7c6c6;}.cls-2{fill:#0b3142;}</style></defs><title>Icon</title><g id="Icons_to_export" data-name="Icons to export"><path class="cls-1" d="M102.93,100.65l-.3-1.08-2.87,3.25,3.31,1.57c1.39.66,2.74-2.28,2.87-3.25a13.46,13.46,0,0,0-.07-4.65l-2.88,3.7a21.52,21.52,0,0,1,4.36,2.94c1.1,1,2.86-2.5,2.88-3.25l.1-3.84-2.87,3.25a41,41,0,0,0,8.5,3.65c1.7.52,3.15-2.77,2.78-4a17.68,17.68,0,0,0-3.13-6.23l-2.79,4.06,7.44,4.68c1.42.89,3.27-3,2.79-4.06a37.71,37.71,0,0,0-5.56-8.82l-2.78,4.06a56.37,56.37,0,0,0,6.79,6c1.21.91,3.5-3,2.79-4.05A124.48,124.48,0,0,0,112,80.09c-.89-1-3.63,3-2.78,4l6.52,8.32c1.09,1.4,3.74-2.58,3-3.83l-7.89-13.17-2.78,4.06a32.67,32.67,0,0,1,6.09,3.38c1.32.92,3.32-3,2.78-4.06A24.85,24.85,0,0,0,113.71,74l-2.78,4a38.34,38.34,0,0,1,8.9,13.9c1.41,3.8,2.51,7.39,5.72,10.07,1.22,1,3-2.86,2.88-3.71a15.73,15.73,0,0,0-2.15-6c-.93-1.53-3.48,2.56-3,3.82A26.21,26.21,0,0,0,127,103c1,1.38,3.89-2.63,3-3.82a26.38,26.38,0,0,1-3.73-6.75l-3,3.82a12.6,12.6,0,0,1,2,5.25l2.88-3.7c-3.8-3.18-4.51-8.19-6.47-12.5a39.42,39.42,0,0,0-8.14-11.46c-.94-.94-3.67,3-2.79,4.06A24.26,24.26,0,0,1,114,82.67l2.78-4.06a33.52,33.52,0,0,0-6.09-3.38c-1.44-.61-3.47,2.91-2.78,4.06l7.89,13.17,3-3.83-6.52-8.31-2.79,4.05a120,120,0,0,1,11.85,14l2.78-4a56.56,56.56,0,0,1-6.8-6c-.9-.94-3.67,3-2.78,4a38,38,0,0,1,5.56,8.82l2.78-4.06-7.44-4.68c-1.27-.8-3.57,3-2.78,4.06a17.63,17.63,0,0,1,3.13,6.22l2.78-4A42,42,0,0,1,110,95c-1.27-.72-2.85,2.33-2.87,3.26l-.1,3.84,2.87-3.26a21.34,21.34,0,0,0-4.36-2.93c-1.42-.73-3.07,2.66-2.88,3.7a7.55,7.55,0,0,1,.08,3.75l2.88-3.25-3.32-1.57c-1.35-.65-2.78,2.27-2.87,3.25a3.56,3.56,0,0,0,.47,2.69c.74,1.39,3.73-2.44,3-3.83Z"/><path class="cls-1" d="M80.34,117.75H76.82c-.74,0-2.58.3-3.1-.23s-.15-2.11,0-2.84a24.9,24.9,0,0,1,.76-3.4c.28-.93-.29-1.09-1-.57a6.18,6.18,0,0,0-1.82,3,29.18,29.18,0,0,0-.89,4.23c-.13,1-.51,2.55,0,3.46s1.83.67,2.73.67l4.71,0c1.26,0,3.17-4.35,2.12-4.34Z"/><path class="cls-1" d="M92.26,117.71a16,16,0,0,1-2.58.27l.24.89c-.18-2.16,0-4.39,0-6.56a1.18,1.18,0,0,0-1.83-1.1,3.63,3.63,0,0,0-1.82,3v3.6a17.19,17.19,0,0,0,.06,3.21c.47,2.3,3.37,1.31,5,1.14,1.86-.2,3.51-4.76.92-4.48Z"/><path class="cls-1" d="M108.54,117.77a3.43,3.43,0,0,0-1.54-.57,8.69,8.69,0,0,1-.88-.07c-.48-.15-.12.21-.08-.32.18-1.87,0-3.84,0-5.72a1.55,1.55,0,0,0-2.21-1.33,3.2,3.2,0,0,0-1.82,3v3.61a10.87,10.87,0,0,0,.21,3.65,2.41,2.41,0,0,0,1.75,1.61c.64.17,1.44,0,2,.39,1.92,1.42,4.55-2.82,2.58-4.28Z"/><path class="cls-1" d="M32.5,129.23l3,2.74c1.39,1.3,3.3-2.57,3-3.62a56.69,56.69,0,0,0-3.54-9.63l-3.14,3.74a105.12,105.12,0,0,0,9.41,9c1.05.89,2.52-1.39,2.81-2,2.41-5.19-4.61-13-7.85-16.41l-2.86,4c5.6,4.11,9.39,10,14.68,14.51,1.45,1.22,3.32-2.54,3-3.63-2.06-7.28-7.94-12.22-11.56-18.66l-2.86,4a68.33,68.33,0,0,1,12.62,13.14c1.33,1.81,3.64-2.07,3.3-3.35-1.63-6.06-5.77-10.81-8.06-16.58l-3,3.62c1.93,1.86,3.92,3.62,6,5.31,1.47,1.19,3.33-2.52,3-3.62a44,44,0,0,0-2.61-6.86l-2.49,4.13a10.13,10.13,0,0,1,3.1,1.31c1.73,1,4.28-3.34,2.58-4.28a17.45,17.45,0,0,0-3.84-1.55c-1.75-.5-3.07,2.91-2.49,4.13a38.65,38.65,0,0,1,2.3,6.07l3-3.62c-2.07-1.69-4.06-3.45-6-5.3-1.29-1.24-3.46,2.52-3,3.62C43.25,115.19,47.42,120,49,126l3.3-3.35A71.79,71.79,0,0,0,39.15,109c-1.57-1.25-3.56,2.77-2.86,4,3.46,6.15,9.28,10.94,11.24,17.88l3-3.62c-5.29-4.46-9.07-10.38-14.68-14.5-1.46-1.08-4,2.84-2.86,4a39.41,39.41,0,0,1,4.71,5.91c.71,1.13,3.73,5.42,3.24,6.48l2.8-2a100.76,100.76,0,0,1-8.84-8.45c-1.61-1.73-3.85,2.24-3.14,3.74A52.1,52.1,0,0,1,35,131.31l3-3.62-2.94-2.75c-1.31-1.22-4.08,2.9-2.58,4.29Z"/><path class="cls-1" d="M27.93,43.84A140.5,140.5,0,0,1,41.58,27.47c1.12-1.15,2-5.42-.28-3.11A149.22,149.22,0,0,0,26.84,41.64c-1.26,1.77-.89,5,1.09,2.2Z"/><path class="cls-1" d="M43.09,27.54c3.72,6.85,7.55,13.63,13.33,19,.8.73,3.69-3.27,2.58-4.29C53.35,37,49.63,30.36,46,23.66c-.61-1.12-3.57,2.65-2.91,3.88Z"/><path class="cls-1" d="M54.35,52q0,13.84.47,27.68c.06,1.83,3.18-1.76,3.14-3.15q-.47-13.85-.48-27.68c0-1.8-3.14,1.76-3.13,3.15Z"/><path class="cls-1" d="M20.17,103.75c3.94-3.14,6.69-7.1,9.62-11.15,3.84-5.3,8.57-9.85,13.11-14.54,1-1.08,2.1-5.33-.13-3C39,78.91,35.13,82.7,31.68,86.85,28,91.25,25.34,96.41,20.81,100c-1,.77-2.63,5.32-.64,3.74Z"/><path class="cls-1" d="M15.88,109.37q6.76-9.08,13.88-17.87c1.29-1.6,1.4-4.67-.76-2q-7.11,8.81-13.87,17.87c-1.22,1.64-1.3,4.76.75,2Z"/><path class="cls-1" d="M66.26,106.88c10-1.59,20.52-.25,30.59.19L128,108.41c1.4.06,3.46-4.33,2-4.39l-31.18-1.35c-10.07-.44-20.57-1.77-30.58-.19-1.47.24-3.21,4.59-2,4.4Z"/><path class="cls-1" d="M69.62,101.55c-2.41-4.86-6.4-8.15-10.35-11.74-4.8-4.36-8.68-9.61-12.78-14.62-.49-.6-3.54,3.11-2.58,4.28,3.77,4.61,7.35,9.52,11.68,13.61,4.12,3.88,8.59,7.18,11.16,12.36.49,1,3.47-2.68,2.87-3.89Z"/><path class="cls-1" d="M62,74.94c15,4.16,30.83-3.46,45.59,2,2.08.76,4.51-3.58,2.58-4.29-15.17-5.6-31.07,2-46.41-2.28-1.94-.54-4.08,3.92-1.76,4.57Z"/><path class="cls-2" d="M41.47,8a15.51,15.51,0,0,1-4.9,6.68c-.31.25-.43.77,0,1A12.49,12.49,0,0,1,43,21.6c.5,1,2.63.33,2.9-.57a16.58,16.58,0,0,1,4.06-7c.19-.19.47-.58.18-.83a16.74,16.74,0,0,1-4.41-5.7c-.49-1-3.32-.1-2.9.78a18,18,0,0,0,4.62,6.07l.18-.83A18.8,18.8,0,0,0,43,21.38l2.9-.56a13.7,13.7,0,0,0-7-6.57v1a17.4,17.4,0,0,0,5.47-7.53c.37-1-2.52-.63-2.9.35Z"/><path class="cls-2" d="M40.54,18.55A121.17,121.17,0,0,1,19.1,46.49c-.65.63-.05,1.12.63,1.19,1.74.18,3.68.06,5.39.4,2.78.56,2.47.45,2.86,3.43.51,3.88.43,7.9.75,11.81.63,7.86,1.57,15.7,2.74,23.5.16,1.08,3.07.4,2.9-.78a348.68,348.68,0,0,1-3.64-39.25c0-.36-.65-.51-.91-.5a73.08,73.08,0,0,1-9-.4l.63,1.19A123.41,123.41,0,0,0,43.26,18.69c.71-1.26-2.21-1.06-2.72-.14Z"/><path class="cls-2" d="M44.32,19.11A314.06,314.06,0,0,0,63.93,49L66,48l-6.41.67c-.4.05-2.18.32-2.08,1a264.5,264.5,0,0,1,2.86,42.17c0,.48,2.88.08,2.89-.78a263.21,263.21,0,0,0-2.85-42.16l-2.07,1,6.42-.67c.18,0,2.42-.52,2.07-1A312.14,312.14,0,0,1,47.22,18.33c-.42-.73-3.15.34-2.9.78Z"/><path class="cls-2" d="M16,107.49C19.05,101,25.46,95.88,30.49,91,36,85.6,39.55,77.35,46.3,73.58l-2,.29c3,1,4.59,6.14,6.14,8.64A49.08,49.08,0,0,0,56,90c4.45,4.78,9.59,9,14.44,13.33.71.65,3.42-.45,2.7-1.1C64.58,94.57,56.88,87.68,50.9,77.73c-1.21-2-2.43-5.53-5.27-5.28-2.66.24-5.06,3.5-6.73,5.26-2.78,2.91-4.75,6.34-7.3,9.4-2,2.34-4.37,4.37-6.54,6.51-4.31,4.25-9.34,8.72-12,14.26-.37.77,2.47.5,2.89-.39Z"/><path class="cls-2" d="M71.86,104c19.94-3.26,40,4.73,59.8-.55.48-.12,1.45-.68,1.19-1.34a107.73,107.73,0,0,0-5-11.31c-2.15-4-5-7-7.79-10.45-1.74-2.13-2.29-5.44-4.42-7.16-1.93-1.55-4.75-1.18-7-1.11-15.21.45-29.79,1.22-44.94-1.06-1.38-.21-3,1.74-1,2A184.16,184.16,0,0,0,100,74.47c3-.15,6.15-.63,9.12-.39,5.26.43,5.63,4.24,8.31,7.5,2.44,3,5,5.57,6.94,9A92.69,92.69,0,0,1,130,102.87l1.2-1.34c-19.44,5.18-39.36-2.81-59,.4-1.55.26-2.25,2.37-.28,2Z"/><path class="cls-2" d="M116.21,105.31l-3.87,29,1.6-1.18c-20.59,3.2-41.2-.19-61.85-.74-4.28-.12-8.56-.11-12.84.1-2.55.12-5.1.36-7.65.44-4.23.14-5.69.83-6.63-3.37-1.11-4.93-.86-10.61-1.27-15.66L22.43,98.21c-.11-1.35-3-.65-2.9.77l2.86,35.23c0,.41.62.66.95.68,7.15.57,14.26-.38,21.41-.45,8.22-.09,16.42.49,24.61,1.06,14.79,1.05,29.6,2,44.33-.25.65-.1,1.49-.42,1.59-1.19l3.87-29c.2-1.49-2.76-1.13-2.94.21Z"/><path class="cls-2" d="M65.75,132.86,65.65,114c0-2.83,0-5.67,0-8.5-.09-3.37-1.14-6.71-.36-10,.24-1-2.67-.56-2.89.38-.6,2.57-.23,4.46.11,7a81.36,81.36,0,0,1,.27,10l.11,20.78c0,.83,2.9.31,2.9-.78Z"/><path class="cls-2" d="M29.61,134.53c4.92-2,4.29-6.77,4.06-11.32a69.21,69.21,0,0,1,.28-12.3c.86-6.42,7.77-9.19,13.5-7,7.22,2.73,5.63,12.33,6.34,18.58.5,4.32.63,10.62,5.75,11.86,1,.26,3.42-1.3,1.74-1.71-4.56-1.1-4.42-9.05-4.77-12.63s-.13-7.15-.89-10.56c-1.36-6.05-6.36-8-12.08-8.12-4.55-.06-9.28,1-11.38,5.52-1.6,3.42-1.46,7.75-1.5,11.41-.05,4,2.35,13-2.25,14.92-1.85.75-.18,1.94,1.2,1.37Z"/><path class="cls-2" d="M47.23,97.67c-.08-2,.66-3.34,1.26-5.15A2.47,2.47,0,0,0,48.12,90c-1.3-1.62-3.88-1.74-5.7-1.2S39,90.61,39.16,92.55A5.82,5.82,0,0,0,41,95.68c1.18,1.35,2.37,2.69,3.56,4,.75.85,3.52-.24,2.68-1.2-1.27-1.43-2.57-2.84-3.8-4.3-.88-1-2.4-3.52,0-3.79a2.34,2.34,0,0,1,2,.8c.66,1,0,1.85-.43,2.76a10.44,10.44,0,0,0-.68,4.46c.05,1.08,3,.46,2.9-.78Z"/><path class="cls-2" d="M39.4,66c-.43-5.11-1.32-10.58-.1-15.65,1.47-6.1,9.57-13.45,12-3.34,1.1,4.54,1.84,10.49.88,15.14-.79,3.82-2,4-5.66,4.24-2.56.17-5.12.23-7.69.25l1.33.74-.13-1.12c-.18-1.42-3.08-.69-2.9.77l.14,1.12c.07.59.88.74,1.33.74,4.32,0,9.67.38,13.84-.85,2.41-.7,2.4-1.9,2.58-4.25A69,69,0,0,0,55,50.74c-.37-3.24-.81-8.28-3.7-10.39C47.13,37.29,41.47,41,39,44.49,34.42,51,35.88,59.44,36.5,66.82c.12,1.4,3,.69,2.9-.78Z"/><path class="cls-2" d="M43.25,58a14.17,14.17,0,0,1,.4-5.5c.14-.5,1.57-4.85,2.53-4.86s1.45,3.87,1.56,4.68c.31,2.11.61,4.66-.09,6.69l.87-.78c-1.41.54-3.7.19-5.16,0-.93-.13-3.41,1.36-1.77,1.59,2.21.31,7.5,1.2,9-1.15.87-1.41.38-4.64.21-6.21-.2-1.8-.39-4.4-1.6-5.87-2-2.42-4.78-.27-6.15,1.61A14.89,14.89,0,0,0,40.35,58.8c.11,1,3,.33,2.9-.77Z"/><path class="cls-2" d="M44.44,49.12a26.62,26.62,0,0,1-2,4.72l2.86-.47a9.72,9.72,0,0,1,2.18-3.48l-2.75.31a40.31,40.31,0,0,1-1.66,5.38c-.3.77,2.44.06,2.75-.32l2.32-2.83-2.76.32a17.43,17.43,0,0,1-1.74,4.91c-.3.58,2.44.15,2.87-.47a3.23,3.23,0,0,1,1.34-1.25l-2.56.15-.91,2.46c-.32.87,2.48,0,2.76-.31L48.5,57c.5-.47-.44-.57-.71-.57a3.05,3.05,0,0,0-1.93.72l-1.38,1.28,2.75-.31.91-2.47c.32-.86-2.33,0-2.56.15a6.46,6.46,0,0,0-2,1.9l2.87-.47a17.6,17.6,0,0,0,1.74-4.92c.18-.91-2.46,0-2.76.32l-2.31,2.82,2.75-.31a41.87,41.87,0,0,0,1.67-5.38c.22-.92-2.47,0-2.76.32a10.67,10.67,0,0,0-2.4,3.8c-.26.7,2.51.17,2.86-.47a26.51,26.51,0,0,0,2-4.72c.22-.67-2.61-.32-2.86.47Z"/><path class="cls-2" d="M76.82,119.37a16.36,16.36,0,0,1,0-5.54,10.86,10.86,0,0,1,.58-2.17c.45-1.06.71-1.24,1-.07a17,17,0,0,1,0,4.93,12.47,12.47,0,0,1-.23,3c.72,0,.66,0-.18,0l-1.35.13c-.48,0-1.7.18-1.93.72s.18.65.72.6a16,16,0,0,0,4.2-.54c1.16-.45,1.34-1,1.49-2.21a43.87,43.87,0,0,0,.25-5.73c0-1.11.09-2.39-1-3-1.6-1-4.24.13-5.26,1.47-1.8,2.37-1.67,6.38-1.25,9.16.11.71,3,.07,2.9-.78Z"/><path class="cls-2" d="M91.85,119.12a17.71,17.71,0,0,1-.31-4.82,11.92,11.92,0,0,1,.32-2.13,2.35,2.35,0,0,1,.28-.78c.31-.55.18-.47-.39.23a6.45,6.45,0,0,0,.19,1.34c0,.73,0,1.48,0,2.21,0,.49.17,4.4.17,4.4l1.45-.21-.2-.23c-.19-.91-3.1-.19-2.9.77.4,1.92,3.76.76,4.28-.58.46-1.15.12-3,.1-4.19s.37-3.44-.41-4.66c-1-1.55-3.5-.9-4.55.24-2,2.16-1.45,6.58-1,9.18.17.9,3.08.21,2.9-.77Z"/><path class="cls-2" d="M105.75,118.28a23.21,23.21,0,0,1,.5-4.85,7.71,7.71,0,0,1,.79-2.56c.46-.7.48-.8.81.32a12.85,12.85,0,0,1,.24,4.46,19.58,19.58,0,0,1-.26,2.16c-.25,1.27-.18,1.47-1.42,1-1.09-.39-3.4,1.2-1.71,1.79,2.1.74,4.74.68,5.71-1.68s1.28-6.93.08-9.16c-1.09-2-3.67-1.83-5.21-.42-2.27,2.09-2.43,6.35-2.45,9.19,0,1.39,2.91.87,2.92-.28Z"/><path class="cls-2" d="M69.43,81.41h4.72c.65,0,3-1.32,1.51-1.39a17.38,17.38,0,0,0-4.38.3c-.76.15-2.72,1.37-.83,1.37H83.19c.93,0,3.12-1.4,1.19-1.4H71.64l-.83,1.37a9.28,9.28,0,0,1,3-.26L75.34,80H70.62c-.93,0-3.12,1.4-1.19,1.4Z"/><path class="cls-2" d="M41.68,14,42,15.27c.23,1.05,2.8.34,2.9-.56.16-1.39-1.24-2-2.44-1.89a4.75,4.75,0,0,0-3.49,2.28l2.72.12,1-1.89c.6-1.15-1.43-.9-1.94-.71A9.19,9.19,0,0,0,38,14.24l2.53.33a10.69,10.69,0,0,1,2.44-2.71l-2.36-.09a29.73,29.73,0,0,0,.62,3.39,1.33,1.33,0,0,0,1.1,1.08c2.07.38,3.24-1.85,4.34-3.19l-2.81.33a2.22,2.22,0,0,1-.48,1.77c-.42.57.37.9.81.93a2.28,2.28,0,0,0,1.91-.81,3.43,3.43,0,0,0,.66-2.66c-.16-1.18-2.44-.12-2.81.33L43,14c-.07.09-.82.94-.45.74L44,14.59s-.5-3.13-.58-3.59c-.16-.88-2-.41-2.36-.09a13.85,13.85,0,0,0-3.33,3.54c-.34.53.19.83.64.91a2.42,2.42,0,0,0,1.89-.57,5.13,5.13,0,0,1,1.57-.87l-1.94-.71-1,1.89c-.7,1.36,2.19.85,2.72.12a8.21,8.21,0,0,0,.54-.66c.18-.17.15-.16-.09,0s-.29.23-.15.47l2.9-.56-.28-1.31c-.24-1.07-3.14-.33-2.9.78Z"/><path class="cls-2" d="M41.91,10.73a5.14,5.14,0,0,0,1.29,3.9c.56.63,2.36.2,2.7-.53a2.53,2.53,0,0,0,.27-1.5c-.1-1-2.86-.34-2.9.56a17.39,17.39,0,0,0,.33,4.38c.22,1,3.12.31,2.9-.78a15.79,15.79,0,0,1-.33-3.94l-2.9.56-.08.62,2.7-.52a4.2,4.2,0,0,1-1.08-3.09c.08-1.23-2.84-.68-2.9.34Z"/><path class="cls-2" d="M46.51,16.89A13.47,13.47,0,0,1,45.38,14c-.32-1.14-3.22-.37-2.9.78a15.79,15.79,0,0,0,1.35,3.3c.31.57,1.5.3,1.94.1s1.06-.7.74-1.3Z"/><path class="cls-2" d="M42.45,90.81a6,6,0,0,0,.94,3.84c.46.74,2.86-.06,2.8-.94a8.7,8.7,0,0,0-1.42-4.16c-.44-.7-3,0-2.8.94a19.77,19.77,0,0,0,1.8,4.94c.49.93,3.29,0,2.9-.78a19.77,19.77,0,0,1-1.8-4.94l-2.8.94a8.16,8.16,0,0,1,1.22,3.83l2.8-.94a5,5,0,0,1-.75-3.12c.09-1.09-2.82-.52-2.89.39Z"/><path class="cls-2" d="M78.63,118v-6.33c0-.67-2.9-.2-2.9.78v6.33c0,.67,2.9.19,2.9-.78Z"/><path class="cls-2" d="M75.68,112.74l.64,6c.08.71,3,.13,2.9-.78l-.64-6c-.08-.71-3-.13-2.9.78Z"/><path class="cls-2" d="M110,116.63l-1.65-3.85c-.29-.67-3.11.28-2.9.78l1.65,3.85c.29.67,3.11-.28,2.9-.78Z"/><path class="cls-2" d="M93.55,115.51,93,113.87a1.36,1.36,0,0,0-1.72-.63c-.53.16-1.41.7-1.17,1.4l.56,1.65c.23.68,1.11.81,1.72.63s1.41-.71,1.18-1.41Z"/><path class="cls-2" d="M104.41,103.36a3.39,3.39,0,0,0,3.3-.48c1.26-1,1.07-2.27.52-3.61l-2.79,1a7,7,0,0,0,3.06,2.06c.77.27,2.66,0,2.6-1.1l-.16-3.32-2.79,1,4.14,4c.75.73,3.49-.37,2.69-1.14l-4.15-4c-.68-.67-2.84-.12-2.79,1l.17,3.32,2.59-1.1a6.2,6.2,0,0,1-2.67-1.78c-.55-.62-3.19,0-2.8,1,.22.53.29,1.92.74,1.9l1,.11-.32-.12a2.35,2.35,0,0,0-2.06.26c-.33.23-.93.91-.24,1.16Z"/><path class="cls-2" d="M114.26,101c2,1.57,5.17,1.9,7.59,1.4A3,3,0,0,0,124,101c.67-1.34-.37-2.6-.73-3.85l-2.78,1c1.65,1.41,3.23,2.54,5.46,2.69.73,0,2.43-.52,1.87-1.51a30.45,30.45,0,0,0-5.48-7.13c-.74-.72-3.39,0-2.68,1.19a15.14,15.14,0,0,0,5.16,5.24c.73.46,3.19-.22,2.48-1.35a29.14,29.14,0,0,0-6.18-7c-.87-.71-3.58.45-2.67,1.19a29.1,29.1,0,0,1,6.17,7l2.48-1.35a14,14,0,0,1-4.76-4.92l-2.68,1.19a30.49,30.49,0,0,1,5.49,7.13L127.06,99a6.8,6.8,0,0,1-3.87-2c-.65-.55-3.13-.24-2.79,1,.21.7.54,1.26.79,2,.41,1.09.41.83-.57.82a6.08,6.08,0,0,1-4.08-1.2c-.84-.67-3.47.56-2.28,1.51Z"/><path class="cls-2" d="M114.55,86.86a31.71,31.71,0,0,0,5.32,6.07c.5.45,3.11-.56,2.74-1a81.6,81.6,0,0,1-9.16-11.64l-2.82.86c1.87,1.82,3.77,3.59,5.72,5.32.43.39,2.77-.23,2.82-.86.15-1.8-1.58-3.7-2.5-5.18l-3.62-5.86-2.89.78a33.3,33.3,0,0,0,7.6,6.95c.64.43,3-.75,2.74-.95a32.47,32.47,0,0,1-7.45-6.78c-.45-.57-3.1.45-2.89.78l3.61,5.86c1,1.54,2.65,3.31,2.5,5.17l2.82-.86c-2-1.73-3.85-3.51-5.72-5.32-.43-.42-3,.54-2.82.86a82.42,82.42,0,0,0,9.32,11.82l2.74-1a30.53,30.53,0,0,1-5.16-5.9c-.45-.66-3.08.52-2.9.78Z"/><path class="cls-2" d="M118.38,90.17a58.73,58.73,0,0,0,4.51,8.47c.61,1,3.41-.06,2.67-1.2a56.32,56.32,0,0,1-4.28-8c-.5-1.15-3.36-.29-2.9.77Z"/><path class="cls-2" d="M123.14,97.69a8.22,8.22,0,0,0,4.24,2.6l1.08-1a18.44,18.44,0,0,1-6.31.8c-.32,0-2.83.81-2.31,1.06a17.77,17.77,0,0,0,5,1.56l2.14-1.12a31.76,31.76,0,0,0-6.08.39c-.32,0-1.68.34-1.71.77s.88.29,1.15.24a26.1,26.1,0,0,1,4.75-.26,3.77,3.77,0,0,0,1.92-.47c.19-.12.83-.55.22-.64a16.52,16.52,0,0,1-4.7-1.44l-2.31,1a24.84,24.84,0,0,0,8.43-1.11c.18,0,2-.72,1.08-1a7.72,7.72,0,0,1-3.89-2.48c-.45-.52-3.14.5-2.74,1Z"/><path class="cls-2" d="M122.37,90.22l-.27-.82c-.26-.78-3.14,0-2.9.77l.27.83c.26.78,3.14-.06,2.9-.78Z"/><path class="cls-2" d="M117.4,85.68l5.74,6.63c.72.83,3.49-.24,2.68-1.17l-5.74-6.64c-.71-.83-3.49.24-2.68,1.18Z"/><path class="cls-2" d="M113.29,73.92c-4.86-1.19-9.61,1-14.46.09-1.33-.25-3,1.6-1,2,4.62.86,9.24-1.33,13.8-.21,1.14.28,3.42-1.41,1.7-1.84Z"/></g></svg>