<svg xmlns="http://www.w3.org/2000/svg" viewBox="0 0 141.82 141.73"><defs><style>.cls-1{fill:#a7c6c6;}.cls-2{fill:#0b3142;}</style></defs><title>Icon</title><g id="Icons_to_export" data-name="Icons to export"><path class="cls-1" d="M50.15,88.58,51.66,90c.59.55,1.69-1.86,1.68-2.25A44.94,44.94,0,0,0,51.82,78l-1.74,2.32a32.79,32.79,0,0,0,6.3,9.23c.57.59,1.76-2,1.64-2.45a38.07,38.07,0,0,0-5.56-12.54c-.51-.75-2,1.68-1.74,2.33a28.73,28.73,0,0,0,7,11.41c.61.61,1.74-2,1.65-2.45a77.1,77.1,0,0,0-4-13.66l-1.74,2.33,8,14.79c.42.79,1.85-1.62,1.77-2.13a49.34,49.34,0,0,0-4.87-15.46l-1.74,2.33,8,14.84c.43.8,1.86-1.71,1.74-2.33a77.11,77.11,0,0,0-4.76-15.28l-1.74,2.33,4.36,8c.45.82,1.85-1.73,1.74-2.33-.55-3.18-1.24-6.31-2.07-9.43l-1.74,2.33,3.69,5c.58.78,1.82-1.65,1.78-2.13l-.56-6.58L65.61,70.7,69,73.82c.6.54,1.71-1.85,1.68-2.25a45.81,45.81,0,0,0-.76-6L68.3,68.06l3.43,3.69c.5.54,1.74-1.83,1.68-2.25A33.44,33.44,0,0,0,70.1,59.22c-.34-.66-2.1,1.59-1.74,2.33a92.9,92.9,0,0,0,5.09,9.16c.5.8,1.83-1.64,1.78-2.13a26.91,26.91,0,0,0-2.48-8.71L71,62.2l4.89,7.41c.56.86,1.75-1.72,1.77-2.13a23.26,23.26,0,0,0-.57-6.66l-1.74,2.33a74.36,74.36,0,0,1,4,6.76c.43.81,1.85-1.73,1.74-2.33a46.81,46.81,0,0,0-2.55-9.14l-1.74,2.33,3,5.47c.44.81,1.81-1.67,1.77-2.14a23.84,23.84,0,0,0-1.09-5.59l-1.74,2.33a46.63,46.63,0,0,1,2.9,11.23l1.67-2.26-2-1.52c-.72-.55-1.74,2-1.64,2.45a24.57,24.57,0,0,0,2.6,7.09c.4.73,2-1.64,1.74-2.33l-.74-2.14c-.24-.71-1.86,1.54-1.77,2.13l1.07,6.7,1.67-2.25-.94-1.55c-.29-.75-1.85,1.59-1.77,2.13l.93,6.67,1.68-2.25-1.26-.45c-.86-.31-1.81,1.81-1.64,2.45l1.58,6,1.64-2.45-2.23-2.05c-.65-.6-1.72,2-1.64,2.45L81.65,97l1.65-2.45-3.19-3.19c-.53-.53-1.75,1.82-1.68,2.25a4.74,4.74,0,0,0,.84,2.52L81,93.81c-2.38-4.31-11.66-7.93-14.49-2.54L68,89.91l-3.28-1.84c-.82-.46-1.74,1.91-1.64,2.45l.9,5L65.43,93c-6.91,1.79.32,15.83,1.57,19.21l1.64-2.45-1.92-2.2c-.54-.61-1.66,1.93-1.68,2.25l-.17,2.42L66.54,110a13.83,13.83,0,0,0-2.57-2.5c-.72-.56-1.74,2-1.64,2.45l.61,3.17,1.74-2.33-3.34-4.7c-.57-.81-1.86,1.74-1.74,2.33L61,115.35,62.72,113l-3.85-5.18c-.54-.73-2,1.68-1.74,2.33l4.29,11.47,1.74-2.33-3-3.89c-.53-.68-2.11,1.68-1.74,2.33,1.21,2.12,2.48,4.19,3.83,6.22.46.7,2.09-1.64,1.74-2.33l-.56-1.09c-.34-.66-2.13,1.58-1.74,2.33l.56,1.09L64,121.64c-1.35-2-2.62-4.09-3.83-6.22l-1.74,2.33,3,3.89c.57.73,2-1.68,1.74-2.33l-4.29-11.47-1.74,2.33L61,115.35c.6.8,1.86-1.74,1.74-2.33l-1.38-6.92-1.74,2.33,3.34,4.7c.58.81,1.86-1.74,1.74-2.33l-.61-3.17-1.65,2.45a14.2,14.2,0,0,1,2.58,2.5c.5.63,1.65-1.93,1.67-2.25l.18-2.41-1.68,2.25,1.92,2.2c.48.54,1.85-1.9,1.65-2.45-.43-1.17-4.73-14.2-4.55-14.25a2.58,2.58,0,0,0,1.49-2.48l-.9-5-1.65,2.45,3.28,1.84c.54.31,1.28-1.08,1.43-1.35.3-.58,6.26,1,6.68,1.18a7.91,7.91,0,0,1,4.75,3.83c.36.66,2.13-1.6,1.74-2.33l-.77-2.12-1.68,2.25,3.19,3.2c.61.61,1.72-2,1.64-2.45l-1.07-6.08-1.65,2.45,2.24,2c.62.57,1.77-2,1.64-2.45l-1.58-6-1.65,2.45,1.26.45c.78.27,1.76-1.66,1.68-2.26l-.93-6.66-1.78,2.13a3.36,3.36,0,0,0,1.14,1.79c.49.54,1.74-1.83,1.67-2.26L83.3,73.56l-1.78,2.13.74,2.14L84,75.5a24.39,24.39,0,0,1-2.6-7.09l-1.64,2.45,2,1.52c.64.49,1.73-1.8,1.67-2.25a48.62,48.62,0,0,0-3-11.62c-.26-.66-2,1.55-1.74,2.33a15.32,15.32,0,0,1,1,5.2l1.78-2.13-3-5.47c-.38-.71-2,1.61-1.74,2.33a47.32,47.32,0,0,1,2.55,9.14l1.74-2.33a74.36,74.36,0,0,0-4-6.76c-.54-.8-1.88,1.73-1.74,2.33a21.18,21.18,0,0,1,.51,6.27l1.77-2.14-4.89-7.41c-.46-.7-2.06,1.65-1.74,2.33a25.47,25.47,0,0,1,2.41,8.32l1.77-2.14a92.9,92.9,0,0,1-5.09-9.16l-1.74,2.33a31.87,31.87,0,0,1,3.24,9.88l1.68-2.25-3.43-3.69c-.57-.62-1.73,2-1.65,2.45a28.2,28.2,0,0,1,.7,5.56l1.68-2.25-3.43-3.12c-.59-.54-1.71,1.84-1.67,2.25L66,77l1.78-2.13-3.7-5c-.57-.78-1.9,1.71-1.74,2.33.83,3.12,1.52,6.25,2.07,9.43l1.74-2.33-4.36-8c-.38-.69-2,1.61-1.74,2.33a77.11,77.11,0,0,1,4.76,15.28l1.74-2.33-8-14.84c-.36-.67-2.11,1.6-1.74,2.33a47.92,47.92,0,0,1,4.8,15.07L63.41,87l-8-14.8c-.38-.7-2,1.62-1.74,2.33a78,78,0,0,1,4,13.66l1.64-2.45a27.79,27.79,0,0,1-6.83-11.17l-1.74,2.33a38.11,38.11,0,0,1,5.56,12.53L57.93,87a31.7,31.7,0,0,1-6.11-9c-.33-.73-1.93,1.62-1.74,2.32a43.37,43.37,0,0,1,1.45,9.33L53.2,87.4,51.7,86c-.47-.43-2.21,2-1.55,2.57Z"/><path class="cls-1" d="M51.6,101.93l3.45,5.44c.77,1.22,2.39-1.22,1.92-2.22A46.6,46.6,0,0,0,52,97c-.87-1.16-2.28,1.12-2,2l1.62,5.64,1.85-2.15c-3.32-1.15-7.36-.13-6.3,4.16l2.15-1.73L46.21,95l-2.15,1.72a13.22,13.22,0,0,0,4.6,6.2c.9.69,1.92-1.17,1.89-1.85a115.28,115.28,0,0,0-1.1-12.72L47.37,90l5,7.26c.84,1.21,2.24-1.16,2-2L52,85.25l-2,2,4.21,4.31c1,1,2.22-1.07,2-2A36.67,36.67,0,0,0,52.34,79c-.64-1.16-2.16,1-2.08,1.68l.58,5.35,2.08-1.68a69,69,0,0,1-9-11.92c-.76-1.28-2.2,1.2-2,2a116.25,116.25,0,0,0,5.94,18.74l2-2a57.87,57.87,0,0,1-5.61-16.77l-2,2a62.25,62.25,0,0,0,6.34,7.42c.92.93,2.12-.8,2.08-1.67A46,46,0,0,0,49,71.77l-2,2,2.88,3.44c.85,1,2.13-.87,2.08-1.68l-.41-6.1-1.89,1.85,4.07,3.66c.79.69,1.73-1,1.87-1.52a13.25,13.25,0,0,0,.27-6.1l-2,2,2.75,3.1c1,1.09,2.26-1.09,2-2L55.4,57.62l-2,2,1.21,1.27c.8.84,2-.54,2-1.34a11.15,11.15,0,0,0,.07-4l-2.08,1.67a12.33,12.33,0,0,0,2.85,3.63c.83.76,1.92-1.23,1.89-1.85a37.42,37.42,0,0,0-1.58-9.14l-2,2a36.27,36.27,0,0,0,3.11,4.21c.91,1.05,2.38-1.07,2-2a11.43,11.43,0,0,0-4.4-5.73c-.82-.58-1.76.89-1.87,1.51A38.82,38.82,0,0,0,54.09,56L56,54.12l-4-3.53c-.76-.67-1.77,1-1.86,1.51a9.74,9.74,0,0,0,.17,4.46l1.85-2.15L50,53c-.72-.49-1.54.65-1.76,1.16a11.13,11.13,0,0,0-1.07,3.52L49,56.13l-3.16-2.19c-1-.67-1.85,1.16-1.89,1.85a28.61,28.61,0,0,0,.12,4.72L46,58.66,44.84,58c-.74-.45-1.54.61-1.76,1.15-.66,1.64-.09,3.4,2,3,3.46-.59,4.22-7.56,4.51-10l-2.05,1.33L50.1,56c.92.91,2.14-.79,2.08-1.68A21.28,21.28,0,0,0,51,48.29l-2,2a27.74,27.74,0,0,0,6.71,6.66c1,.69,1.84-1.17,1.89-1.84A13.74,13.74,0,0,0,55.74,47L54,49.35a30.3,30.3,0,0,0,4.16,3.12c1,.61,1.86-1.13,1.89-1.85a17.14,17.14,0,0,0-.88-6.36l-2,2,3,3.8c.88,1.13,2-1,2.08-1.67a13.57,13.57,0,0,0-.9-6.49l-2,2,1.89,2.3c.89,1.08,2-.93,2.08-1.68a16,16,0,0,0-1.13-6.85c-.57-1.49-2.54.63-2.15,1.73a19.22,19.22,0,0,0,3.67,6.42c.85,1,2.17-.85,2.08-1.67a33.2,33.2,0,0,0-2.14-8.88C63,33.72,61,35.85,61.4,37a23.47,23.47,0,0,0,5.07,8.78c.86,1,2.2-.82,2.08-1.67a42.75,42.75,0,0,0-2.53-10l-2,2a48.94,48.94,0,0,0,6.4,9.89c1,1.17,2.17-1.15,2-2a32.25,32.25,0,0,0-4-11c-.7-1.22-2.42,1.19-1.92,2.22a39.22,39.22,0,0,0,6,9.1c.88,1,2.12-.86,2.08-1.67a33.11,33.11,0,0,0-1.77-9.44l-2,2,4.3,6.4c.78,1.16,2.07-1,2.08-1.67a43.94,43.94,0,0,0-.53-7.07l-1.85,2.14,3.11,2.58c.64.54,1.61-.69,1.76-1.15a22.56,22.56,0,0,0,.85-3.52l-2,1.34c1.38,1.37,1.85,1.33,3.63,1.69.28.06.49-.3.7-.29a5.5,5.5,0,0,1,3.51,1.74c.94.79,2.56-1.72,1.55-2.57a12.92,12.92,0,0,0-3.76-2.28,1,1,0,0,0-1.08.22l-2.62-.73c-.84-.84-1.92.54-2.06,1.33l-.65,2.81,1.76-1.16-3.1-2.58c-1-.84-2,1.49-1.85,2.15a39.17,39.17,0,0,1,.44,6.47L77,39.27l-4.29-6.4c-.79-1.17-2.33,1.11-2,2a31.65,31.65,0,0,1,1.68,8.84L74.41,42a39.54,39.54,0,0,1-6-9.1l-1.92,2.22a30.81,30.81,0,0,1,3.8,10.54l2-2a48.94,48.94,0,0,1-6.4-9.89c-.56-1.16-2.39,1-2,2a39.67,39.67,0,0,1,2.44,9.4l2.08-1.67a22.56,22.56,0,0,1-4.84-8.29L61.4,37a30.48,30.48,0,0,1,2.05,8.27l2.08-1.67a18.25,18.25,0,0,1-3.44-5.93l-2.15,1.73a15.35,15.35,0,0,1,1,6.25l2.08-1.67-1.89-2.3c-.88-1.08-2.38,1.07-2,2A12.86,12.86,0,0,1,60,49.49L62,47.81l-3-3.8c-.88-1.12-2.32,1.1-2,2a15.85,15.85,0,0,1,.79,5.76l1.89-1.85a31.57,31.57,0,0,1-4.16-3.12c-1-.88-2.16,1.6-1.73,2.39a11.81,11.81,0,0,1,1.46,7l1.9-1.85A26.57,26.57,0,0,1,50.84,48c-.82-1.14-2.35,1.1-2,2a18.38,18.38,0,0,1,1.14,5.45L52,53.8l-2.56-2.54c-.82-.8-2,.52-2.05,1.34a13.52,13.52,0,0,1-.57,3.21,5.64,5.64,0,0,1-1.79,3.56l-1.76,1.16,1.15.7c.92.56,2-1.08,1.89-1.85a28.61,28.61,0,0,1-.11-4.72l-1.89,1.85,3.15,2.19c.83.57,1.75-.9,1.86-1.51l.87-2.82-1.76,1.16L50.59,57c1,.7,2-1.37,1.85-2.15l-.15-3.18-1.86,1.51,4,3.53c.87.77,1.89-1.23,1.9-1.85a23,23,0,0,1,.47-5.42l-1.86,1.52a9.06,9.06,0,0,1,3.8,4.89l2-2a36.36,36.36,0,0,1-3.12-4.21c-.76-1.2-2.29,1.12-2,2a35.32,35.32,0,0,1,1.49,8.54L59,58.31A8.37,8.37,0,0,1,56.53,55c-.62-1.18-2.15,1-2.08,1.68V60l2.05-1.34-1.21-1.27c-1-1.05-2.26,1.06-2,2l3.15,12.76,2-2L55.69,67c-1-1.13-2.18,1.13-2,2a8.64,8.64,0,0,1-.3,4.84l1.86-1.52-4.08-3.65c-.83-.74-1.93,1.22-1.89,1.85l.41,6.1L51.73,75l-2.88-3.44c-.93-1.11-2.28,1.1-2,2a44.49,44.49,0,0,1,1.6,9.78l2.08-1.68a62.25,62.25,0,0,1-6.34-7.42c-.89-1.23-2.17,1.19-2,2A59.57,59.57,0,0,0,48,93.41c.59,1.16,2.38-1.06,2-2A116.88,116.88,0,0,1,44.06,72.7l-2,2a69,69,0,0,0,9,11.92c.88.94,2.17-.8,2.08-1.67l-.58-5.35-2.08,1.67a34.67,34.67,0,0,1,3.65,10l2-2L51.89,85c-1-1-2.26,1.06-2,2l2.43,10,2-2-5-7.26c-.75-1.08-2.19.91-2.08,1.67a118.19,118.19,0,0,1,1.11,12.73l1.89-1.85a10.73,10.73,0,0,1-4-5.35c-.57-1.51-2.49.63-2.15,1.72l3.09,9.89c.48,1.54,2.42-.63,2.15-1.73l2.6.14c1.09.38,2.14-1.16,1.85-2.15l-1.62-5.64-2,2a46.6,46.6,0,0,1,5,8.17L57,105.15l-3.45-5.44c-.73-1.15-2.58,1.19-1.92,2.22Z"/><path class="cls-1" d="M75.59,44.6a59.07,59.07,0,0,1,4.09,18.31l1.8-2.12c-1.8-6.4-1.43-13.26-4.59-19.25-.38-.71-2.16,1.55-1.76,2.32,3.16,6,2.8,12.86,4.6,19.25.22.78,1.83-1.56,1.79-2.12a60.15,60.15,0,0,0-4.18-18.71c-.27-.67-2.08,1.49-1.75,2.32Z"/><path class="cls-1" d="M83,50l.2-2.59L81.3,48.9l1.1.58c.75.39,1.57-.52,1.78-1.14,1.2-3.48-1.67-7.76-4.66-4-.52.66-.86,2.81.64,2.09a9.11,9.11,0,0,1,6.33-.73c1.05.22,1.8-1.4,1.61-2.23a16.64,16.64,0,0,0-1.72-4.46c-.67-1.23-2.47,1.12-1.94,2.21l2.78,5.61,1.93-2.21a67.82,67.82,0,0,1-5.18-11l-2.06,2q5.52,10.13,10,20.74c.61,1.45,2.35-.42,2.23-1.41l-.65-5-2.22,1.41a43.55,43.55,0,0,1,2.14,9.09L95.63,59l-1.37-6.08-2.18,1.71,1.62,5.73c.42,1.5,2.34-.44,2.22-1.41A54.3,54.3,0,0,0,93.37,47.8l-2.18,1.71,4,9.18c.67,1.56,2.43-.62,2.18-1.72L95,46.82l-2.06,2,4.28,8.74c.6,1.23,2.16-1,2.11-1.65a39.82,39.82,0,0,0-2.34-10.77l-2.18,1.71L99.06,58c.6,1.56,2.45-.61,2.17-1.72L98,43.44l-2.18,1.71L101,56.78c.68,1.53,2.5-.6,2.18-1.71L99.69,43l-2,2L101.11,49c.92,1.1,2.39-1,2-2A19.61,19.61,0,0,0,95.25,37c-1.12-.74-2.26,1.53-1.75,2.39a7.82,7.82,0,0,0,2.65,2.74c1,.67,2.55-1.64,1.74-2.39A54.18,54.18,0,0,0,90,33.56c-1.1-.71-2.65,1.83-1.54,2.57a95,95,0,0,1,13.12,10.44c1,.94,2.49-1,2-2l-.5-1.17-2.06,2a16.33,16.33,0,0,0,3.08,3.08c.93.71,1.92-1.16,1.91-1.84a2.43,2.43,0,0,0-.64-2l-1.94,2.21a9.86,9.86,0,0,0,5.24,3.72c1,.33,1.87-1.47,1.62-2.23a5.94,5.94,0,0,0-1.27-2.53L107.13,48,114,57.5c.83,1.15,2.66-1.19,1.93-2.21L115,54c-.85-1.21-2.3,1.09-2.05,2a78.33,78.33,0,0,1,2.8,16.3l1.91-1.84A20.77,20.77,0,0,1,110.36,62c-.74-1.52-2.47.61-2.18,1.72l1.45,5.64,2.06-2-8.92-15c-.72-1.2-2.39,1-2.06,2,1.47,4,3.11,8,5,11.84l2.06-2a42.25,42.25,0,0,0-6.29-9.26c-.71-.81-1.71.29-2,1l-.77,1.93,1.53-1.23L98.78,56c-.94-.76-2.49,1.6-1.75,2.39,2,2.14,4.4,1.7,6.68,3.27,3.35,2.3,4.06,10,4.75,13.55l2.18-1.71-.44-3.83L108.12,71a17.85,17.85,0,0,1,3,4.76c.64,1.47,2.3-.43,2.22-1.41l-.57-7.41-2.22,1.41,2.77,6.54c.61,1.46,2.33-.42,2.22-1.41l-.64-5.76-2.23,1.41,2.1,8c.43,1.64,2.19-.6,2.23-1.41a37.47,37.47,0,0,1,1.15-7.89L116,68.86a13.15,13.15,0,0,1,1.31,5.48c.08,1.81,2,.16,2.25-.77,1.36-6.27-.64-11.88-3.08-17.64-.66-1.56-2.45.61-2.18,1.71a66.18,66.18,0,0,1,1,26.66l2.25-.77-.17-5.88c0-.88-.87-1-1.47-.53-2.18,1.7-4.16-.34-5.51-1.55l-1.55,2.57,4.44,2c1,.45,1.94-1,1.91-1.84l.17-1.24-2,1a10.18,10.18,0,0,1,2.52,4.92c.32,1.46,2.12-.32,2.2-1.07a42.71,42.71,0,0,1,1.41-7.12l-2.15.41a49.49,49.49,0,0,1-.91,17.66c-.45,1.91,1.91.9,2.22-.42a51.44,51.44,0,0,0,1-18.34c-.19-1.51-1.87-.57-2.15.41a48.35,48.35,0,0,0-1.61,7.83l2.2-1.07a10.93,10.93,0,0,0-2.76-5.43c-.7-.77-1.75.27-2,1a6.07,6.07,0,0,0-.42,2.63l1.91-1.84-4.44-2c-1.25-.55-2.53,1.7-1.55,2.57,2.49,2.23,4.91,3.34,7.72,1.15l-1.47-.53.18,5.88c0,1.76,2.09.22,2.25-.77a69.77,69.77,0,0,0-1.09-27.94l-2.18,1.71c2.23,5.28,4.3,10.53,3,16.36l2.25-.77a16,16,0,0,0-1.41-6.08c-.63-1.4-2,.27-2.2,1.07a41.37,41.37,0,0,0-1.21,8.57L117,75.38l-2.1-8c-.4-1.51-2.34.44-2.23,1.41l.65,5.76,2.23-1.41-2.78-6.55c-.62-1.47-2.3.45-2.22,1.41l.57,7.42L113.3,74a20.93,20.93,0,0,0-3.25-5.27c-.76-.9-2,.55-2.08,1.33a12.1,12.1,0,0,0,.49,5.11c.5,1.6,2.4-.62,2.18-1.71-.74-3.81-1.34-9-3.45-12.3s-5.76-2.4-8.22-5l-1.74,2.39c1,.8.72.68,2,.8.71.06,1.29-.64,1.53-1.23l.77-1.93-2,1a42.21,42.21,0,0,1,6.28,9.26c.58,1.14,2.52-1,2.06-2a127.68,127.68,0,0,1-5-11.84l-2.06,2,8.92,15c.75,1.27,2.27-1.12,2.06-2L110.36,62l-2.18,1.72a22.94,22.94,0,0,0,7.94,9.3c.93.64,2-1.09,1.91-1.84a80.14,80.14,0,0,0-2.9-16.9l-2,2L114,57.5l1.93-2.21-6.87-9.49c-.84-1.15-2.66,1.19-1.94,2.21l1,2,1.61-2.23a7,7,0,0,1-4.35-3.19c-.86-1.14-2.67,1.2-1.94,2.21l.31.9,1.91-1.83a10,10,0,0,1-2.7-2.72c-.85-1.1-2.46,1-2,2l.51,1.17,2.05-2A97.53,97.53,0,0,0,90,33.56l-1.54,2.57A52.06,52.06,0,0,1,96,42l1.75-2.39a5,5,0,0,1-2.26-2.39l-1.74,2.4a17.78,17.78,0,0,1,7.28,9.2l2.06-2L99.57,42.7c-.95-1.13-2.31,1.06-2,2L101,56.78l2.18-1.71L98,43.44c-.68-1.55-2.45.61-2.18,1.71L99.06,58l2.17-1.72L96.94,45.11c-.58-1.51-2.6.57-2.18,1.71A37.64,37.64,0,0,1,97,57l2.11-1.66-4.29-8.75c-.63-1.29-2.25,1.12-2,2l2.4,10.15L97.35,57l-4-9.17c-.65-1.51-2.56.58-2.18,1.71a51,51,0,0,1,2.46,10.57l2.23-1.41-1.62-5.73c-.44-1.57-2.44.58-2.18,1.71l1.37,6.08c.34,1.49,2.35-.42,2.23-1.41a46.31,46.31,0,0,0-2.25-9.7c-.51-1.48-2.35.44-2.22,1.41l.64,5,2.23-1.41Q89.49,43.77,83.85,33.4c-.66-1.2-2.39,1.05-2.06,2a69.81,69.81,0,0,0,5.43,11.5c.72,1.24,2.46-1.16,1.93-2.21l-2.77-5.61-1.94,2.21a10.41,10.41,0,0,1,1.48,4L87.53,43a10.85,10.85,0,0,0-7.46.95L80.72,46l1.44,2,1.78-1.14-1.09-.58c-.84-.45-1.83.74-1.88,1.5l-.2,2.59c-.15,1.95,2.12,1,2.22-.43Z"/><path class="cls-1" d="M105.76,94.05a94.58,94.58,0,0,1,4.48-16.28l-1.7,1.37a178.08,178.08,0,0,1-.77,19.33c-.09,1,1.71-1.06,1.78-1.67.86-7.17,1.52-14.21.25-21.37-.15-.81-1.69,1.6-1.75,1.87a114.54,114.54,0,0,0-2.85,17.94L107,93.3c.12-6,0-11.94-.31-17.92-.06-1.19-1.7,1.32-1.79,1.68a68.43,68.43,0,0,0-1.76,12.58L105,87.71a52.48,52.48,0,0,0-2.21-13.23c-.26-.85-1.7,1.6-1.75,1.87L98.28,89.68,100.06,88l-1-13.84C99,73,97.34,75.41,97.27,75.83A93.4,93.4,0,0,0,96,89.69l1.78-2.13a31.4,31.4,0,0,1-2.27-9.51c-.09-1.13-1.74,1.18-1.79,1.67l-.38,1.7L95,80.05l-1.24-18.7L92,63.28l1.62,23.27c.09,1.15,1.62-1,1.71-1.37a3.28,3.28,0,0,0,0-2.64c-.27-.87-1.74,1.76-1.77,2.13l-.92,4.19,1.7-1.37L95.18,83l-1.37.68a36.34,36.34,0,0,1-1.2,12.15l1.31-2c-3.1,1.67-5.63.39-6-2.87-.16-1.18-1.73,1.25-1.79,1.67a12,12,0,0,1-1.58,5L86,96.35a14.73,14.73,0,0,1-.53-5.19c0-1.14-1.6,1.06-1.7,1.37L81.45,100l1.71-1.37a16.66,16.66,0,0,1,.16-4.78c.21-1.57-1.61.81-1.76,1.41a105.76,105.76,0,0,1-3.49,11.32l1.68-1.11a48.44,48.44,0,0,1,2.48-7.22L80.69,99l-2.08,9.06c-.33,1.44,1.35-.37,1.54-.78a65.26,65.26,0,0,1,5.16-9.24l-1.37.68a23.36,23.36,0,0,1-2.18,8.2l1.45-.47a73.09,73.09,0,0,1,6.12-12.54L88,94.36l-3,13.17c-.33,1.43,1.36-.36,1.54-.78A127.9,127.9,0,0,1,92.9,94.12l-1.27.12-3,10.89c-.48,1.76,1.13.25,1.46-.47l5.83-12.58-1.54.77-2.87,14,1.76-1.42,4.39-24.35-1.78,1.68q-.27,14.67-1.08,29.33l1.81-1.93.51-21.67-1.81,1.93a162.27,162.27,0,0,1,1.3,22.36l1.78-2.13q-2.3-5.84-4.81-11.58c-.09-.19-.28-.16-.44-.09-5.71,2.47-3.23,8.31.61,11.16.63.46,2-2,1.55-2.57-2.46-3-8.85-8.91-13-5.73-.37.29-1.52,1.73-1.08,2.27a17.81,17.81,0,0,0,6.81,5.34l1.55-2.57L78.47,103.3l-1.39,2.61c3.48.57,7,1,10.47,1.32,1.79.15,4.18.73,5.86-.15,2.7-1.41,2.59-5,3.4-7.46L95.11,101l-.19,15.91L96.73,115a81.49,81.49,0,0,1,1.2-26l-1.78,1.68a148.19,148.19,0,0,1,.09,23.08c-.08,1.07,1.68-1.23,1.79-1.68l4.85-21.22-1.76,1.41q-1.19,9.09-2.8,18.1l1.78-1.67.68-26.15L99,84.47a225.37,225.37,0,0,0,3.46,25.61c.12.61,1.83-1.47,1.77-2.13q-.87-9.81-.77-19.64l-1.81,1.93c.59,4.66-.38,9-1.63,13.43-.33,1.18.49,1,1,.21l4.6-6.06-1.13.1a43.71,43.71,0,0,1-1.94,7.54c-.09.23-.27.92.17.91l2.72-.06c.8,0,1.71-1.8,1.49-2.48a22.64,22.64,0,0,0-2.69-5.69l-1.64,2.45a19.79,19.79,0,0,1,5.92,4.92l1.55-2.57A12.57,12.57,0,0,1,105,90.77c.22-1.57-1.6.83-1.76,1.42a9.85,9.85,0,0,0,2.18,9.3c1.06,1.29,4.23,4.89,6,4.63,3.6-.54,4.56-8,4.64-10.58,0-1.12-1.69,1.25-1.79,1.67a17.23,17.23,0,0,1-1.29,4.11l1.68-1.11q.65-3.75,1.26-7.52c0-.21.07-.64-.26-.61-1.67.15-1.15,0-2.55.87-.31.19-2,2.28-1.2,2.54l1.72.55.52-1.9-2,.46-1,2.57a8.63,8.63,0,0,0,5.24-5.92l-1.68,1.11a29.71,29.71,0,0,1-8.76,18.52l.27,1.51,1.37-2c.42-.6,1-2.88-.27-1.5s-3.46,4.57-5.45,5.06c-2.7.66-2.25-3.47-2.12-5.44L98,110.69a26.23,26.23,0,0,1,2.53,4.84c.33.83,1.71-1.54,1.75-1.87l.57-4.77-1.76,1.87a14.44,14.44,0,0,1,1.6,3.93l1.65-2.45-1.89-1.17c-.62-.38-1.45,1.34-1.57,1.69a36.77,36.77,0,0,0-1.41,4.81c-.13.57.22.73.67.4l5.13-3.81,0-1.73c-2.19,2.7-4.8,6.54-8.41,6.21-3.2-.28-2-1.31-2-4a11.12,11.12,0,0,0,0-2.33c-.1-1.22-1.7,1.32-1.79,1.67l-1.47,4.18,1.57-1a43,43,0,0,1,.63-6.79c.23-1.32-1.11.06-1.35.42a54.25,54.25,0,0,0-3.94,7.07l1.57-1A19.22,19.22,0,0,1,91.13,110c.59-1.7-1.14-.27-1.46.48-1.45,3.38-2.76,6.8-3.94,10.29,0,.13-.26,1,.18.91l7.24-2.25L94,117l-4.82,3.67c-.28.22-1.77,2.4-.83,2.42a11.1,11.1,0,0,0,5.59-1.24c.61-.3,1.88-2.91.86-2.51a42.48,42.48,0,0,1-16.56,3c-.71,0-2,2.49-1.39,2.6l4.58.92c.88.18,2.12-2.43,1.54-2.57a19.83,19.83,0,0,0-5.95-.57l-1.24,2.63a45.87,45.87,0,0,0,6.14-1.4c.6-.18,2.11-2,1.39-2.6A5.25,5.25,0,0,0,80.08,120l-1.24,2.63,5.93.69L86,120.64a21,21,0,0,0-6.25.89c-1,.31-1.88.81-2.84,1.14,2.22-.77-3.38,2-2.35.56l-1.13.09,0,.21,1.5-2c.63,0,2.39-4.71,2.69-5.32l-1.46.47-.85,2.75,1.59-.81a50.86,50.86,0,0,0,1.9-11.55c0-1.11-1.6,1.07-1.7,1.37a40.91,40.91,0,0,0-2,10.84c0,1,1.75-1.23,1.82-1.93l.89-9.3c.09-.9-1.74,1.17-1.81,1.93l-.9,9.3,1.82-1.93a35.63,35.63,0,0,1,1.77-9.71L77,109a46.06,46.06,0,0,1-1.68,10.42c-.53,1.86,1.34,0,1.59-.81l.85-2.74c.55-1.76-1.12-.22-1.45.47-1.13,2.32-3,4.84-3.17,7.46a.3.3,0,0,0,.29.35h.27c.73,0,1.42-1.44,1.5-2l0-.21c.16-1.08-.8-.36-1.13.09-1.13,1.56-1.71,2.8-1.07,4.7.12.33.51,0,.66-.06a19.48,19.48,0,0,1,11.11-3.37c.75,0,2.1-2.53,1.24-2.63L80.08,120c-.77-.09-2.09,2.51-1.24,2.63A3.94,3.94,0,0,1,81.76,124l1.39-2.6a45.87,45.87,0,0,1-6.14,1.4c-.76.12-2,2.68-1.24,2.63a17.82,17.82,0,0,1,5.65.51L83,123.32l-4.57-.92L77,125a43.6,43.6,0,0,0,16.94-3.11l.86-2.51a9.42,9.42,0,0,1-5.21,1.12l-.84,2.43,4.82-3.67c.29-.22,1.57-2.66.83-2.43-1.08.34-5.55,2.5-6.5,1.48-.57-.62,2.79-7.21,3.1-7.94l-1.45.47a22.43,22.43,0,0,0-1.28,7.91c0,1.11,1.46-.81,1.57-1a49.41,49.41,0,0,1,3.55-6.36l-1.35.43a44.65,44.65,0,0,0-.68,7.3c0,1.11,1.47-.82,1.57-1a29.43,29.43,0,0,0,1.9-5.46L93,114.27c.2,2.48-1.84,8.62,2.77,8.23,3.67-.32,7.82-6.28,9.89-8.84.29-.36,1.15-2.61,0-1.72-.83.62-2.27,2.27-3.21,2.38q-.95,1.08-.6-.21a3.91,3.91,0,0,1,.58-2.16l-1.57,1.69,1.89,1.17c.77.48,1.79-1.91,1.65-2.45a15.11,15.11,0,0,0-1.6-3.93c-.47-.81-1.71,1.52-1.76,1.88l-.56,4.76,1.75-1.87a26.81,26.81,0,0,0-2.52-4.84c-.57-.86-1.75,1.73-1.78,2.13a21,21,0,0,0,.74,7.29c.09.33.53,0,.66-.06a47.27,47.27,0,0,0,8-7l-.26-1.51-1.37,1.94c-.43.61-1.06,2.83.27,1.51A35.41,35.41,0,0,0,116.46,91c.16-1.57-1.53.63-1.68,1.11L112,94.67c-.49.19-2,2.44-1,2.56,1.92.26,2.61-.45,3.7-1.86.11-.14,1.09-1.72.52-1.9l-1.72-.55-1.2,2.54c2.6-1.67.74,5.61.65,6.17-.28,1.58,1.51-.72,1.67-1.11A28.29,28.29,0,0,0,116,95.8l-1.78,1.67c-.26,8.63-3.27,5.51-6.1,2.72-2.67-2.63-4.16-5.52-3.16-9.42l-1.76,1.42a13.73,13.73,0,0,0,5.3,13.32c.6.47,2-2,1.55-2.57A19.8,19.8,0,0,0,104.15,98c-.68-.38-2,1.9-1.64,2.45a23,23,0,0,1,2.69,5.69l1.49-2.48c-2.5.06-1.64-.27-1.48-2.26.13-1.59.79-3.33,1.05-4.92.18-1.09-.81-.32-1.13.09l-4.6,6.06,1,.21c1.34-4.83,2.48-9.51,1.84-14.55-.14-1.11-1.8,1.28-1.81,1.93-.07,6.57.19,13.1.77,19.64l1.78-2.13a218.33,218.33,0,0,1-3.38-25.21c-.09-1.08-1.8,1.26-1.82,1.93l-.67,26.15c0,1.09,1.7-1.2,1.79-1.67q1.62-9,2.8-18.1c.21-1.56-1.62.79-1.76,1.41l-4.86,21.23,1.79-1.68A148.2,148.2,0,0,0,98,88.73c-.1-1.19-1.71,1.29-1.79,1.68a83,83,0,0,0-1.25,26.49c.13,1.1,1.81-1.28,1.81-1.94l.19-15.9c0-1.14-1.61,1.08-1.7,1.37-1.12,3.38-.57,4.54-4.67,4.3a116.87,116.87,0,0,1-12.23-1.45c-.7-.12-2,2.4-1.39,2.6l11.14,3.57c.8.25,2.22-2.27,1.55-2.57a17.15,17.15,0,0,1-6.62-5.1l-1.08,2.28c3.39-2.62,9.87,3.68,11.83,6.08l1.55-2.57c-1-.78-2.51-1.59-3-2.87-.7-2-.23-1.92.94,0,1.5,2.45,2.33,5.62,3.39,8.29.34.85,1.77-1.71,1.78-2.14a163.81,163.81,0,0,0-1.31-22.35c-.15-1.12-1.8,1.29-1.81,1.93l-.51,21.67c0,1,1.77-1.2,1.81-1.93q.83-14.65,1.08-29.34c0-1.09-1.7,1.22-1.79,1.68l-4.39,24.35c-.27,1.49,1.62-.74,1.76-1.42l2.87-14c.29-1.46-1.36.38-1.54.77L88.77,104.8l1.46-.47,3-10.89c.42-1.52-.84-.62-1.27.12a132.4,132.4,0,0,0-6.78,13.33l1.54-.78,3-13.16c.3-1.3-1.13.06-1.35.42a80.59,80.59,0,0,0-6.76,13.92c-.64,1.69,1.13.23,1.46-.48a28.71,28.71,0,0,0,2.67-10c.08-1-1.28.54-1.38.68a70.65,70.65,0,0,0-5.54,10l1.54-.78,2.08-9.06c.33-1.43-1.36.35-1.54.78a57.61,57.61,0,0,0-2.92,8.5c-.39,1.47,1.5-.65,1.68-1.12a112.29,112.29,0,0,0,3.65-11.92l-1.76,1.41a26.85,26.85,0,0,0-.21,5.3c.07,1.17,1.6-1.06,1.7-1.37l2.34-7.47-1.7,1.37a22.28,22.28,0,0,0,.6,5.59c.18.77,1.47-1.11,1.53-1.23a19.77,19.77,0,0,0,2-6.24l-1.79,1.67c.46,3.54,4.5,6.19,7.46,3.09S95.88,85.5,95.62,81.7c-.07-1-1.23.46-1.38.68a9.37,9.37,0,0,0-1.71,7c.17,1.18,1.59-1.07,1.7-1.37a21.07,21.07,0,0,0,1.14-5.31l-1.78,2.13.1,1.12,1.71-1.37L93.77,61.35c-.07-1-1.86,1.16-1.81,1.93L93.2,82c.08,1.19,1.61-1.1,1.71-1.37a6.34,6.34,0,0,0,.54-2.3L93.67,80A32.36,32.36,0,0,0,96,89.89c.35.86,1.77-1.72,1.77-2.13A90.42,90.42,0,0,1,99,74.42l-1.78,1.67,1,13.85c.09,1.18,1.71-1.29,1.79-1.68l2.72-13.32L101,76.81a50.82,50.82,0,0,1,2.15,12.83c0,1.06,1.78-1.26,1.81-1.93a65.51,65.51,0,0,1,1.72-12.07l-1.79,1.68q.49,9,.31,17.92c0,1,1.75-1.24,1.81-1.94a111.68,111.68,0,0,1,2.8-17.42l-1.75,1.88c1.22,6.84.55,13.61-.27,20.45l1.79-1.67a178.28,178.28,0,0,0,.77-19.33c0-1.18-1.61,1.11-1.71,1.37A97.8,97.8,0,0,0,104,95.47c-.26,1.48,1.64-.71,1.77-1.42Z"/><path class="cls-1" d="M62.76,117.73l.12,6.22c0,1.88,2.2,0,2.28-1.1l.64-9.21-2.28,1.11a86.74,86.74,0,0,0,1.63,10.74l1.62-2.23a29.63,29.63,0,0,1-5.87-.55c-1.09-.21-2.36,2-1.3,2.66l1.51.92,1.3-2.66c-2-.34-4.19-.37-5.64-1.83-1.3-1.29-2.12-2.73-3.6-3.91-.85-.69-2,1.11-1.91,1.83l.2,1.3,2.23-1.41-3.58-12.46c-.32-1.09-1.6-.23-1.93.35a4.52,4.52,0,0,0-.79,3.15l2.23-1.41-1.91-8.59c-.34-1.53-2.44.52-2.18,1.71L47.44,111c.35,1.57,2.26-.5,2.23-1.4l.19-1-1.94.35,3.59,12.46c.43,1.49,2.39-.41,2.23-1.4l-.2-1.3-1.92,1.84c1.68,1.34,2.54,3.48,4.2,4.69,1.33,1,4,1,5.54,1.23,1.08.19,2.38-2,1.3-2.66l-1.51-.92-1.3,2.66a29.7,29.7,0,0,0,5.87.55,1.87,1.87,0,0,0,1.62-2.23,80.85,80.85,0,0,1-1.54-10.14c-.16-1.92-2.2,0-2.28,1.11l-.64,9.2,2.28-1.1L65,116.62c0-1.8-2.31-.14-2.28,1.11Z"/><path class="cls-1" d="M50.81,121.52l-.67,0L51.35,119c-2.57.57-7.25-3.56-9-5l-1.55,2.57,3.33,2.26c1.07.73,2.59-1.78,1.55-2.57a42.19,42.19,0,0,1-9-9.32c-.82-1.16-2.61,1.19-1.93,2.21l1.38,2.09c.81,1.22,2.45-1.2,1.93-2.22L31.69,96.6c-.63-1.24-2.12,1-2.09,1.66.25,7.45,7.95,7.8,13.7,7.07.81-.11,2.13-2.17,1-2.65l-4.79-2.07L38,103.18c7,2.57,10.25-6.13,6.17-11-.7-.84-1.68.35-2,1l-.44,1L43.52,93a25.08,25.08,0,0,0-14.58-3.26c-.92.06-1.53,1.44-1.33,2.22a31.55,31.55,0,0,0,2.92,7.5c.68,1.26,2.27-1.12,2-2a102.39,102.39,0,0,1-2.89-15.32c-.2-1.82-2.34-.1-2.26,1.11l.51,8.15,2.26-1.11a109.72,109.72,0,0,1-.83-20.89l-1.91,1.84,6.62,4.79,1-2.65-1.61.08c-1,0-1.87,2-1,2.64,1.68,1.35,5,1.5,6.14,2.7,1.59,1.66,1.17,9.38,1.37,11.64.17,1.88,2.22,0,2.26-1.12a49,49,0,0,0-.62-9.67c-.24-1.5-2.26.48-2.21,1.42a42.38,42.38,0,0,0,1.64,9.8c.44,1.55,2.25-.53,2.21-1.42L43,83.83l-2.21,1.41,3.55,10.11c.57,1.61,2.34-.68,2.17-1.72a107.85,107.85,0,0,0-3.92-15.82l-2.17,1.72L42.07,84l2-2a48.64,48.64,0,0,0-11.59-8.92c-1.14-.63-2.62,1.82-1.54,2.57a36.26,36.26,0,0,0,5,3L37.31,76a17.24,17.24,0,0,1-3.79-.94c-2.75-1.51-3.08-5-2.25-7.75L29.19,68a10.47,10.47,0,0,1,.53,5.5L32,72.75c-.43-2.9-.72-5.78-.87-8.7-.08-1.73-2.1-.24-2.23.78L28.21,70l2.23-.78a6.9,6.9,0,0,1,.87-5L29.22,65l4,10.25c.53,1.37,2.07-.26,2.18-1.08a37.12,37.12,0,0,1,2-8l-2.09.73a15.47,15.47,0,0,1,.76,4.74c.1,1.85,2.24,0,2.26-1.12a20.27,20.27,0,0,1,.8-5.57L37,66a35.93,35.93,0,0,1,1.76,9.19c.11,1.8,2.32.11,2.26-1.12l-.18-3.65-2.1,1.67a17.52,17.52,0,0,0,6.81,6.34c1.15.62,2.67-1.89,1.55-2.57a30.69,30.69,0,0,0-5.59-2.64l-1.3,2.66a40.86,40.86,0,0,0,14.8-2c1.07-.35,2-3.15.5-2.72-3.7,1-10.25,2.71-10.93,7.38-.92,6.29,6.9,4.85,10.25,3.22L53.92,80C53,81.42,50,84.47,51.23,86.4c1.51,2.35,8.18,1.29,10.44,1l.51-2.72a41.47,41.47,0,0,0-9.12,2.73c-.85.36-1.71,2.23-.49,2.63a24.07,24.07,0,0,0,7,1.21l.78-2.73-4.14.65c-.83.13-2.12,2.11-1,2.65a8.82,8.82,0,0,0,4.11,1L60,90.12c-10.25,1-8.8,9.22-7.44,17.45.25,1.48,2.09-.37,2.19-1.08l1.85-13.14c.27-1.95-2-.92-2.21.44l-1.85,13.14,2.19-1.08A34.88,34.88,0,0,1,54,98.08c.29-4.33,1.82-4.88,5.59-5.24,1-.1,2.11-2.7.78-2.73a5.87,5.87,0,0,1-3.61-.86l-1,2.64,4.15-.65c.94-.15,2.15-2.69.77-2.73a24.29,24.29,0,0,1-7-1.21l-.49,2.63a39.26,39.26,0,0,1,8.53-2.53c1.16-.21,2.12-2.93.51-2.72s-5.52,1-6.85.07c-2-1.37-.92-1.94.24-3.73.47-.73.35-2.35-.86-1.76C53,80.08,44,83,49.53,75.8c.95-1.24,4-1.5,5.43-1.9l.5-2.72a38.88,38.88,0,0,1-14.25,2c-1,0-2.52,2.23-1.3,2.66a30.38,30.38,0,0,1,5.59,2.64l1.55-2.57a16.83,16.83,0,0,1-6.43-6c-.74-1.17-2.13,1-2.09,1.67l.18,3.65L41,74.11a38.07,38.07,0,0,0-1.85-9.79c-.5-1.5-2,.41-2.19,1.08a23.62,23.62,0,0,0-.86,6.25l2.26-1.12a26.18,26.18,0,0,0-.85-5.34c-.35-1.31-1.85.09-2.09.72a40.36,40.36,0,0,0-2.18,8.67L35.4,73.5l-4-10.25c-.49-1.26-1.77.06-2.08.73a11.57,11.57,0,0,0-1.13,6.37c.17,1.72,2.11.25,2.24-.78l.65-5.18-2.24.77c.15,2.93.44,5.81.87,8.7.25,1.69,2.11.3,2.23-.78a15.92,15.92,0,0,0-.57-6.78c-.38-1.24-1.88,0-2.09.73-.68,2.28-2.29,7-.65,9.21,1.33,1.82,5.59,2,7.63,2.49,1,.26,2.39-2.12,1.3-2.66a36.85,36.85,0,0,1-5-3L31,75.66a47.11,47.11,0,0,1,11.2,8.56c1,1,2.4-1,2.05-2l-1.63-4.45c-.56-1.51-2.54.59-2.17,1.72a107.85,107.85,0,0,1,3.92,15.82l2.17-1.72L43,83.52c-.54-1.53-2.25.52-2.21,1.42L41,90.62l2.22-1.42A39.89,39.89,0,0,1,41.67,80l-2.21,1.41A46.68,46.68,0,0,1,40,90.49l2.26-1.12-1.17-13c0-.54-.34-.85-.88-.81a7.89,7.89,0,0,1-6.17-2l-1,2.65,1.61-.08c1,0,1.92-2,1-2.64L29,68.72c-1-.7-1.87,1.16-1.9,1.84a109.68,109.68,0,0,0,.83,20.89c.25,1.83,2.34.1,2.26-1.11l-.51-8.15L27.43,83.3a105.18,105.18,0,0,0,3,15.93l2.05-2a29,29,0,0,1-2.69-7l-1.33,2.22A23.15,23.15,0,0,1,42,95.59c.77.44,1.52-.58,1.78-1.15l.44-1-2,1q3.35,2.88-2.69,6.17c-1.21-.45-2.73,2.06-1.55,2.57l4.79,2.07,1-2.65c-4.41.57-11.73,1-11.94-5.45l-2.1,1.66,6.36,12.46,1.93-2.22L36.67,107l-1.93,2.21a44,44,0,0,0,9.4,9.68l1.55-2.57L42.36,114c-1.09-.73-2.56,1.76-1.55,2.57,2.36,1.92,6.78,5.85,10,5.13.89-.2,1.8-1.62,1.22-2.47l-.16-.22a.77.77,0,0,0-1-.15l-.17.11c-1,.62-1.44,3.44.07,2.52Z"/><path class="cls-1" d="M68,93.55c-2.55-6.07-2.38-12.35-2-18.8.07-1.24-1-1.54-1.87-.7l-.25.27,1.45-.41-.4-.21.32,1.48c.68-2.13,2.84-4.21,4.15-6,.4-.53.92-2.65-.48-2.26-2,.55-6.61,2.77-8.67,1.74l-.67,2.58a10.17,10.17,0,0,1,6.19-.85l1-2.77-8.34-1.36c-1.35-.22-2.52,2.52-1,2.77l8.33,1.36c1.35.22,2.53-2.51,1-2.77a11.22,11.22,0,0,0-7.4,1c-.72.35-1.76,2-.67,2.59,2.92,1.47,6.86-.72,9.8-1.53L68,67.45c-1.68,2.27-4.1,4.61-5,7.34-.14.46-.2,1.21.32,1.48l.39.21a1.28,1.28,0,0,0,1.46-.41l.25-.27-1.86-.7c-.4,6.87-.61,13.65,2.1,20.11.66,1.57,2.79-.42,2.27-1.66Z"/><path class="cls-1" d="M58.05,57.26c7.18.27,13.91.1,21,1.84,1,.25,2.37-2.4,1.11-2.71-7-1.74-13.79-1.57-21-1.83-1.1-.05-2.33,2.66-1.11,2.7Z"/><path class="cls-1" d="M71.94,58.21c-.45.5-5.52,0-6.48,0-1.46,0-6,.55-7-.87-.86-1.26-2.77,1-2,2.18,1.52,2.22,6,1.44,8.3,1.47s6.8.93,8.55-1c1.11-1.24-.06-3.23-1.37-1.76Z"/><path class="cls-1" d="M68.49,56.3A113.87,113.87,0,0,1,70.6,42.69c.42-1.91-1.67-.48-1.91.62a120.25,120.25,0,0,0-2.22,14.25c-.15,1.66,1.93-.3,2-1.26Z"/><path class="cls-1" d="M73.38,31.48a34.73,34.73,0,0,0-5.86-.17c-1,.05-2.54,2.34-1.07,2.73a7.31,7.31,0,0,0,5.87-.68c.75-.38,1.79-3,.25-2.59a179.6,179.6,0,0,0-24.83,7.9l0,2.5,8.61-4.3c.77-.39,1.75-3,.25-2.6a31.55,31.55,0,0,0-11.8,6.22l.86,1.87.89-.68-.58-2a82.12,82.12,0,0,0-7.37,10.75l1.59.95a32.81,32.81,0,0,0,3-8.17c.27-1.19-1-1.44-1.64-.57L33.23,54.17l1.54.93a43.49,43.49,0,0,1,4.35-8.2l-1.59-1-6.4,11.7,1.88.25a20,20,0,0,1,2.28-7l-1.77-.6A72.43,72.43,0,0,0,28,65.48L30.2,65a29.52,29.52,0,0,1,2.08-6.61l-2.08.45a21.76,21.76,0,0,0,1.68,9.85c.5,1.21,1.75-.07,2-.75l1.8-4.14-1.51,1.25,5.33,1.39c1.13.3,2.42-2.34,1.07-2.73a14.53,14.53,0,0,0-5.2-.61l-.8,2.72c2.65-.91,5.23-1.91,7.8-3,.83-.35,1.79-2.87.25-2.6L32.52,62c-.89.16-2.18,2.58-.8,2.72,3.29.35,6.83.59,9.61-1.53,3.09-2.36,3.2-6.48,5.78-9.23L45.57,53l-2.63,6.07c-.21.48-.19,1.76.71,1.47l7.7-2.47.25-2.59-5,2c-.72.28-1.8,2.42-.51,2.61a19.47,19.47,0,0,0,7.49-.22c.83-.18,2.05-2,1-2.64-1.35-.83-1.85-.51-2.78-2-1.33-2.16.65-4,1.89-5.93.26-.39.6-1.49,0-1.77-4-1.77-7.67-3-11.85-1.27-.66.28-1.83,2.5-.51,2.62a17.49,17.49,0,0,0,7.08-.75c1-.3,2.21-2.87.53-2.7l-4.85.48c-1,.09-2.11,2.68-.8,2.72A24,24,0,0,0,56,45.55c.74-.41,1.7-3.13.25-2.6l-4.17,1.53-.25,2.6c2.37-1.06,4.75-2,7.19-2.87l0-2.41a28.41,28.41,0,0,0-6.36,8.55c-.48,1,.34,2,1.27,1.18A24,24,0,0,0,62,39.08c.53-1.87-1.8-.76-2.15.47a19.36,19.36,0,0,1-6.49,9.86l1.27,1.18a22.12,22.12,0,0,1,5-6.67c.41-.38,1.44-2.93,0-2.41-2.64.92-5.21,1.93-7.76,3.07-.87.39-1.62,3.1-.25,2.6l4.17-1.53.25-2.6a21.58,21.58,0,0,1-11.68,2.84l-.8,2.72,4.86-.48.53-2.7a16.69,16.69,0,0,1-6.55.71l-.51,2.62c3.7-1.55,6.91-.15,10.26,1.34l0-1.76c-1.38,2.1-3.71,5.21-3.58,7.89.15,3.13,2.38,2.27,4.51,3.59l1-2.63a18.94,18.94,0,0,1-7,.19L46.6,60l5-2c.9-.35,1.65-3,.25-2.6l-7.7,2.47.71,1.47,2.63-6.07c.57-1.32-.64-1.88-1.54-.92a16.1,16.1,0,0,0-2.7,4.32C40.89,61.52,37.67,62.5,32.79,62L32,64.71l10.14-1.8.25-2.6c-2.38,1-4.78,2-7.24,2.82-.71.24-2.23,2.79-.8,2.72a14.31,14.31,0,0,1,5.2.6l1.07-2.73-5.33-1.4c-.67-.17-1.3.78-1.51,1.25L32,67.71,34,67a20.83,20.83,0,0,1-1.6-9.25c.08-1.67-1.78-.23-2.08.45A32.43,32.43,0,0,0,28,65.48c-.37,2,1.86.77,2.16-.47A69.16,69.16,0,0,1,35.46,50.5c.75-1.51-1.06-1.91-1.77-.6a24.61,24.61,0,0,0-2.84,8.46c-.22,1.5,1.32,1.26,1.88.24l6.39-11.7c.88-1.61-.57-2.48-1.59-1a47.24,47.24,0,0,0-4.71,8.92c-.49,1.22.7,2.07,1.53.92L42.74,44.2l-1.64-.57a26.3,26.3,0,0,1-2.47,6.75c-.84,1.59.67,2.57,1.59.95a77.93,77.93,0,0,1,6.91-10.09c.51-.63.89-2.78-.58-2.05a4.87,4.87,0,0,0-2,1.56c-.74.86-.57,3,.85,1.87A28.36,28.36,0,0,1,56.1,37l.25-2.6-8.61,4.3c-1,.51-1.68,3.18,0,2.5A175,175,0,0,1,72,33.47l.24-2.6a5.11,5.11,0,0,1-4.76.44L66.45,34a35.81,35.81,0,0,1,5.86.17c1.2.13,2.43-2.58,1.07-2.73Z"/><path class="cls-1" d="M63,34.21a4.17,4.17,0,0,0-4.62-1.06c-1.1.34-1.69,2.9-.08,2.7a86.66,86.66,0,0,0,14.33-3.07c1.35-.41,1.55-3.15-.23-2.62a81.36,81.36,0,0,1-13.71,2.9l-.08,2.7,2.4.63c1.13,1.11,3-1.21,2-2.18Z"/><path class="cls-1" d="M98.36,86.89,96,84.43l-1.7,2.41a42.37,42.37,0,0,0,10.26,2.24c.87.08,2.11-1.75,1.49-2.48a38.71,38.71,0,0,0-5.49-5.37c-.86-.69-2.18,1.69-1.7,2.41A23.36,23.36,0,0,0,106.57,91c.9.54,1.77-1.25,1.81-1.9.2-2.65-2.52-4.9-4.18-6.72a74.84,74.84,0,0,0-6.91-6.65l-1.54,2.57a20.28,20.28,0,0,0,8.62,2.58c.91.07,2.27-2,1.33-2.63a23.92,23.92,0,0,0-6.21-2.95L98.4,77.9l7.37-1.15c.8-.13,2.11-2.51.87-2.67a71.23,71.23,0,0,0-10.32-.63c-1,0-2.41,2.31-1.12,2.7,3.86,1.16,7.89.29,11.82,1,1,.19,2.36-2.48,1.12-2.71-3.93-.73-8,.14-11.82-1l-1.12,2.7a71.23,71.23,0,0,1,10.32.63l.87-2.67L99,75.26c-.67.1-2.09,2.3-1.09,2.61a23.42,23.42,0,0,1,6.21,2.94l1.33-2.64a19.29,19.29,0,0,1-8.19-2.45c-1-.56-2.39,1.85-1.54,2.57A71.45,71.45,0,0,1,102,84.24c1.29,1.4,4.47,4,4.32,6.07l1.81-1.89a22.58,22.58,0,0,1-7.36-7l-1.7,2.41a36.36,36.36,0,0,1,5.17,5.06l1.49-2.48a40.94,40.94,0,0,1-9.84-2.11c-.93-.32-2.42,1.65-1.7,2.42l2.32,2.46c.88.93,2.58-1.5,1.87-2.26Z"/><path class="cls-1" d="M91.89,88.33a70.67,70.67,0,0,1-2.54,7.06l1.79-.27a20.23,20.23,0,0,1,2.43-6l-1.66.24c0,1.77-2.92,1.36-3.87,1.06a14.3,14.3,0,0,1-3.46-1.87L83,91.14a32.41,32.41,0,0,0,5.77,2.41l1.34-2.63-3.23-.85c-.94-.25-2.32,2.38-1.15,2.69L89,93.6c.89.24,2.2-2.36,1.34-2.63a31.85,31.85,0,0,1-5.76-2.4c-.93-.51-2.44,2-1.55,2.57,2.15,1.42,4.7,3,7.34,1.93a5.59,5.59,0,0,0,3.56-4.95c0-1.35-1.31-.35-1.67.24a25.48,25.48,0,0,0-3,7.38c-.43,1.78,1.41.64,1.79-.28a81.26,81.26,0,0,0,2.79-7.75c.17-.57,0-1-.62-1s-1.15,1.12-1.3,1.62Z"/><path class="cls-1" d="M76.89,92.92l.49.24c.73.37,2.2-2.24,1.54-2.57l-.48-.24c-.73-.37-2.2,2.24-1.55,2.57Z"/><path class="cls-1" d="M66.06,87.47c1.58-4.94,4.06-10.23,4-15.48,0-1.74-2.11.15-2.1,1.21.07,5-2.4,10.16-3.9,14.83-.59,1.85,1.65.54,2-.56Z"/><path class="cls-1" d="M48,81.88c-2,1.76-3.36,5-.72,7,3.22,2.47,7.22-1,8.8-3.66.39-.67.4-2.14-.75-2a18.12,18.12,0,0,0-8,3.25l.84,2.28c5.13-3.84,10-7.77,13.51-13.17.41-.63.43-1.74-.44-2-3.5-.87-8.21,2.62-11.17,4.21-2.76,1.47-5,2.58-5.7,5.75-.09.43.16,1.22.71,1.23,5.22.12,10.75-1.73,14-6.11s0-7.06-4.62-7.55c-2.84-.3-9.36.39-8.94,4.69C46,81.25,58,78.3,60.72,77.42c.86-.27,1.78-2.62.37-2.7-7.23-.39-17,3.5-22.27-3.23l-2,2.17,5.27,6.6,1.77-2.38-9.95-4.83c-1.31-.64-2.79,1.76-1.54,2.57A56.93,56.93,0,0,1,46.85,89.31c.93,1.25,2.83-1,2-2.18A58.61,58.61,0,0,0,33.92,73.05l-1.54,2.57,9.94,4.84c1.21.58,2.57-1.38,1.77-2.38l-5.27-6.59c-1-1.23-2.86,1.07-2,2.17C42.61,81,52.28,77.07,60.1,77.5l.38-2.7A23.12,23.12,0,0,1,53.76,76c-6.59.13-2.33-3.28.46-1.91,3.65,1.78,1.67,5-.79,6.3a14.28,14.28,0,0,1-7.36,1.67l.71,1.23c.53-2.39,11.11-7.45,13.46-6.86l-.44-2C56.55,79.45,52,83,47.33,86.54c-1.2.9-.77,3.42.84,2.28A13.94,13.94,0,0,1,55,86.08l-.75-2-5.34,0c1.11-1,.62-3.56-.85-2.27Z"/><path class="cls-1" d="M42.41,86.16,39.62,90l1.26-.46a20,20,0,0,1-2.13-10.81c.13-1.62-1.85.44-1.93,1.31a21.87,21.87,0,0,0,2.26,11.79c.29.56,1.09-.23,1.26-.47l2.79-3.79c.79-1.08.48-3-.72-1.36Z"/><path class="cls-1" d="M44.38,73a18.87,18.87,0,0,0,7.53.92c1.28-.09,2.11-2.88.44-2.76a17.47,17.47,0,0,1-7-.92c-1.22-.42-2.47,2.27-1,2.76Z"/><path class="cls-1" d="M70.52,69c-1.79,4.27,3.28,5.49,6.56,6.18l.84-2.69A21.7,21.7,0,0,1,69.81,72L69,74.72a26,26,0,0,1,10.45-1c1.06.11,2.19-1.9,1.32-2.64s-3.48-2.73-3.29-4.46l-1.09,1.81c2.14-1.44,4.51.08,6.25-1.72,1.47-1.53,1-4.63.77-6.48-.15-1.36-1.78.36-2,.79l-.76,1.76,1.7-1.19c2.31,1.58,6.74-.41,9.2-1.54.77-.35,1.82-2.78.31-2.56-2.61.37-5.21.64-7.83.8L83.19,61l6.42-1.74c1-.27,2.15-2.89.58-2.68a41.72,41.72,0,0,1-10.93.41l-1.09,2.72,1.42.5,1.06-2.63a21.61,21.61,0,0,1-7,1.43c-1,0-2.5,2.44-1.09,2.72a35.65,35.65,0,0,0,3.59.51c1.13.1,2.37-2.6,1.09-2.72A33,33,0,0,1,73.66,59l-1.09,2.72a23.85,23.85,0,0,0,7.5-1.47c.86-.32,1.94-1.82,1.07-2.62s-.63-.74-1.88-.65c-1,.07-2.5,2.54-1.09,2.72a43.45,43.45,0,0,0,11.44-.45l.58-2.68-6.42,1.74c-.78.21-2.12,2.78-.83,2.7,2.8-.17,5.56-.45,8.34-.85l.3-2.56c-3.12,1.43-5.59,1-8.78,1.87a4.08,4.08,0,0,0-2,1c-1,1.09-1.27,2.82,0,3.71.69.47,1.51-.74,1.7-1.19l.76-1.76-2,.79-.18,3.81,1.29-.91c-2.23.1-5.59-.4-6.86,2-1.42,2.72,1.88,5.19,3.66,6.72L80.52,71a27.17,27.17,0,0,0-11,1.09c-.78.24-2.2,2.37-.83,2.7a22.75,22.75,0,0,0,8.62.37c.89-.12,2.12-2.42.84-2.69-.9-.19-6.61-1.36-5.8-3.28s-1.27-1.59-1.86-.19Z"/><path class="cls-1" d="M90,59.45a21.59,21.59,0,0,0,1.66,3.42c.51.85,1.61-.07,1.93-.53s.78-1.19,1.15-1.81l-2.13,0a22.86,22.86,0,0,1-.32,7.1l2.38-.33a20.32,20.32,0,0,1,1.41-6.71l-2.31.32a19.56,19.56,0,0,1-.62,8.4c-.56,1.88,1.72,2,2.21.39a23,23,0,0,0,.82-9.82c-.22-1.59-1.93-.65-2.31.32a22.81,22.81,0,0,0-1.58,7.43c-.09,2,2.1,1.1,2.38-.33a24.61,24.61,0,0,0,.34-7.8c-.14-1.33-1.63-.89-2.13,0-.37.62-.74,1.21-1.15,1.8l1.92-.53a17.5,17.5,0,0,1-1.38-2.9c-.59-1.59-2.75.38-2.27,1.66Z"/><path class="cls-1" d="M92.68,120.64a22.08,22.08,0,0,0,8.42-8c.37-.61.48-2.12-.64-1.9l-7.81,1.5-.16,2.65,4.84-1.78c.9-.33,1.53-1.88.7-2.56s-4.29-2.84-4.32-4l-1.39,1.91a17.63,17.63,0,0,0,7.62-3.26c1.15-.84.87-3.36-.72-2.2a14.87,14.87,0,0,1-6.44,2.72,1.93,1.93,0,0,0-1.39,1.91c.06,2.44,3.4,4.08,5.09,5.47l.71-2.56-4.84,1.77c-1,.36-1.72,3-.16,2.66l7.81-1.5-.64-1.9a18,18,0,0,1-6.81,6.46c-1.12.61-1.45,3.43.13,2.56Z"/><path class="cls-1" d="M86.14,121.7a10.26,10.26,0,0,1-10.33,0c-.93-.52-2.44,2-1.55,2.57a6,6,0,0,0,5.25.73c.92-.27,2-3,.67-2.62a5,5,0,0,1-4.37-.68l-1.55,2.57A11.64,11.64,0,0,0,86,124.08c.83-.49,1.62-3.22.16-2.38Z"/><path class="cls-1" d="M18.36,104.8c-.41,2.22-.81,4.68.27,6.78a4.35,4.35,0,0,0,4.4,2.49c1.18-.12,2.11-2.88.51-2.72-3.81.39-3.41-4.74-3-7,.35-1.93-1.95-.88-2.19.45Z"/><path class="cls-1" d="M30.4,130.22A17.43,17.43,0,0,1,32.61,135c.42,1.43,2.39-.72,2.09-1.77A19.66,19.66,0,0,0,32.29,128c-.7-1.07-2.51,1.28-1.89,2.24Z"/><path class="cls-1" d="M37.87,122.86c-1.63,1.49-4.95-.16-4.08-2.46.18-.48.28-1.34-.4-1.46s-1.29.75-1.49,1.26a4.51,4.51,0,0,0,1.22,5.3,4.26,4.26,0,0,0,5.29-.54A2.09,2.09,0,0,0,39.2,123c-.2-.64-.9-.55-1.33-.17Z"/><path class="cls-1" d="M28.25,127.67a25.52,25.52,0,0,0,5.33-2.53,2.18,2.18,0,0,0,1.09-1.82c0-.59-.56-1.06-1.15-.69A22,22,0,0,1,28.77,125a2.09,2.09,0,0,0-1.35,1.59c-.08.48.13,1.36.83,1.13Z"/><path class="cls-1" d="M108.6,16.76c-.17,3.56.22,8.2,4.45,9.1,1.24.27,2.48-2.44,1-2.75-3.37-.72-3.32-4.73-3.19-7.44,0-.71-.65-.95-1.21-.73a2.06,2.06,0,0,0-1.09,1.82Z"/><path class="cls-1" d="M104.54,27.48l1.29,1.95L107.48,27a.51.51,0,0,1-.25-.38c-.14-.57-1,.41-1.14.54a2.4,2.4,0,0,0-.61,1.79,1,1,0,0,0,.45.62c.4.25,1-.61,1.15-.83s.78-1.21.5-1.62l-1.29-2c-.32-.47-1,.29-1.14.54s-.92,1.33-.61,1.79Z"/><path class="cls-1" d="M104.33,27.74a20,20,0,0,1,4.18,8.33c.37,1.55,2.49-.49,2.2-1.7a21.25,21.25,0,0,0-4.43-8.83c-1-1.13-2.77,1.22-2,2.2Z"/><path class="cls-1" d="M102.14,28.8a12.07,12.07,0,0,1,4.44.88c1,.39,2.36-2.24,1.54-2.57a13.2,13.2,0,0,0-4.81-1c-.94,0-2.17,2.65-1.17,2.67Z"/><path class="cls-1" d="M14.21,115.62a33.72,33.72,0,0,1,5.53,2c1,.47,2.48-2.14,1.55-2.57a35.83,35.83,0,0,0-5.94-2.1c-.95-.24-2.33,2.39-1.14,2.69Z"/><path class="cls-2" d="M68.41,31.3c12.41-1.23,24.68,4.35,34.77,11.14,9.42,6.33,14.61,15.2,16.54,26.3,2.73,15.7-1.17,34-12.58,45.58-8.39,8.53-19.78,12.41-31.59,12.11-9.89-.26-22.74-1.88-31.21-7.36-7.79-5-12.93-14.33-15.93-22.87C24.47,85,26.14,71.68,29.87,60.65A41.42,41.42,0,0,1,48.29,38.14c6-3.44,13.45-5.11,20.12-6.84,1.08-.28,2-3.07.55-2.69-6.87,1.78-14.46,3.53-20.68,7A46,46,0,0,0,31.47,52.51c-6.13,10.77-9,26.54-7,38.79a52.1,52.1,0,0,0,12.59,25.39c7.58,8.24,19.49,10.6,30.2,11.91,12.37,1.51,24.19-.08,34.6-7.31,15-10.43,20.91-28.58,20.68-46.14-.16-11.43-3.71-23.16-12.33-31C99.68,34.46,83.41,27.18,69,28.61,67.84,28.72,66.85,31.46,68.41,31.3Z"/><path class="cls-2" d="M103.9,27.22c4.75.42,4.9-7.4,5.5-10.46l-2.07.88c0,1.93-.78,5.61.27,7.34s5.33,1.7,7.21,2l.86-2.68c-2,.48-5.69.53-7,2.47-1.48,2.11-.61,6.23-.6,8.6l2.08-1.5c-.69-2.33-1.14-6.26-2.91-8.05-1.52-1.53-3.81-1-5.63-.44L101,28.05l4.48-1.52c1-.33,1.95-3.11.61-2.66l-4.48,1.52c-.94.32-2,3.07-.61,2.66,2.72-.81,4.17-.74,5.42,2.22a53.49,53.49,0,0,1,1.67,5.4c.43,1.46,2.09-.76,2.08-1.5,0-1.32-.59-4.51-.09-5.6s3.71-1.3,5-1.6c.77-.19,2.16-2.47.86-2.69-1.67-.27-5.69-.22-6.5-2.12-.58-1.39,0-4.22,0-5.73,0-1.72-1.9.06-2.06.88-.22,1.1-.82,7.34-2.37,7.2-1.09-.1-2.35,2.6-1.11,2.71Z"/><path class="cls-2" d="M13.65,112.14c6.32,2.35,6.93-6,8.38-9.85l-2.05.47c0,2.61-.7,6.66,1.14,8.86s4.72,1.78,7.11,1.51l.54-2.69c-2.05.56-5.46.72-6.88,2.6-1.58,2.08-.79,5.94-.81,8.34l2.05-1.69c-1.85-1.92-1.87-4.83-3.91-6.65a7,7,0,0,0-6-1.53c-1.12.17-2.08,2.93-.54,2.7,5.89-.9,5.53,4.63,8.51,7.71.91,1,2-.88,2.05-1.69,0-1.14-.57-4.93.21-5.81.63-.71,3.78-1,4.74-1.29s2.17-2.88.54-2.69c-3.44.39-5.78.35-6.52-3.84a32.07,32.07,0,0,1-.07-5c0-1.61-1.77-.3-2.06.47-.74,1.92-1.53,8.76-4.93,7.5-1.19-.45-2.64,2.16-1.54,2.57Z"/><path class="cls-2" d="M32.29,127.24a6.62,6.62,0,0,0,3-7.48c-.43-1.6-2.12.3-2.3,1-.85,3.37,1.94,7.24,5.37,4.65.91-.69,1.21-3-.49-2.42-4.25,1.47-4.64,6.15-4.26,10,.18,1.85,2.49.3,2.38-1-.14-1.67-.32-3.46-1.44-4.78-1.3-1.53-2.54-1.14-4.29-1.42-1.33-.22-2.51,2.52-1,2.77,1.11.18,2.28-.13,3.16.72s1.1,2.43,1.2,3.75L36,132c-.23-2.28-.67-5.42,2.07-6.36l-.48-2.42c-2.09,1.58-2.51-1.71-2.24-2.76l-2.3,1A3,3,0,0,1,31.5,125c-1.28.77-.89,3.24.79,2.24Z"/><path class="cls-2" d="M64.59,30.39a21,21,0,0,1-.47-2.82,3.08,3.08,0,0,1,3-3.21c1.67.07,2.88,1.78,4.65,1.36,1.56-.37,2.34-1.77,4-.79,1.92,1.1,2.61,3.91,2.61,5.91,0,1.14,1.93-1,1.93-1.87,0-2.64-1.17-5.85-3.72-7.12-1.2-.59-1.48-.22-2.58.21-.88.34-1.83,1-2.9.74-.62-.13-1.3-.69-2-.88A5.41,5.41,0,0,0,63,24.15c-1.66,2.46-.82,5.39-.37,8.11.2,1.22,2.07-1,1.93-1.87Z"/><path class="cls-2" d="M74.48,22.19a8,8,0,0,1-2-4.8c-.06-1.9,1-3.48,1.41-5.29S74,7.83,71.79,7.65c-1.72-.14-3,1.58-3.25,3.1-.72,4,3.62,7.09.39,11-.85,1-.7,2.86.61,1.3A10.16,10.16,0,0,0,72,17.39c.11-1.16-1.38-7.26-1.73-7.12.56-.22,1.42.58,1.66,1,.69,1.18-.12,2.85-.53,4a12.43,12.43,0,0,0-.7,2.61,8.66,8.66,0,0,0,2,6.66c.62.76,2.3-1.66,1.77-2.31Z"/><path class="cls-2" d="M70.47,24.33c.79,0,2-2.62,1.26-2.62s-2,2.62-1.26,2.62Z"/><path class="cls-2" d="M71.29,11.05,71,14c-.06.66.65,0,.81-.14a3.7,3.7,0,0,0,.92-1.84,7.12,7.12,0,0,0-.29-3.14c-.13-.4-.71.23-.8.33a3.88,3.88,0,0,0-.87,1.59,11.94,11.94,0,0,0-.34,3.86c0,.61.6.11.82-.14a3.19,3.19,0,0,0,.91-1.84,10.27,10.27,0,0,1,.26-3.36l-1.68,1.92A6.15,6.15,0,0,1,71,14l1.73-2,.27-3c.06-.66-.66-.05-.82.13a3.52,3.52,0,0,0-.91,1.85Z"/><path class="cls-2" d="M70.14,10.84A12.19,12.19,0,0,0,69.93,14a.86.86,0,0,0,1.26.75A2,2,0,0,0,72.28,13a9.55,9.55,0,0,1,.18-2.5.92.92,0,0,0-.95-1.19,1.89,1.89,0,0,0-1.37,1.56Z"/><path class="cls-2" d="M70.08,20.94a2.65,2.65,0,0,1,0,2l1.21-.5s-.26-.33-.25-.34c.12-.41.14-1.1-.47-.91s-1.09,1.09-1.26,1.64a2,2,0,0,0,.2,1.92c.37.45,1-.18,1.21-.5A6.37,6.37,0,0,0,72,19.06c-.29-1.19-2.09,1.07-1.89,1.88Z"/><path class="cls-2" d="M49.59,108.15a27,27,0,0,0,5.16,12c1.15,1.39,4.36,4,5.8,1.5a3,3,0,0,0-.06-2.66c-.85-2.35-2.13-4.46-2.87-6.88-.39-1.3-.38-3.55-1.29-4.61-1.12-1.3-4.15-1-5.71-1.11-.65-.07-1.51,1.71-.77,1.78,1.7.18,3.83-.06,5,1.18s1.13,3,1.58,4.44c.31,1,.65,1.93,1,2.86.48,1.17,2.3,3.78,2,5.07l.86-1.08c-5.07,2.25-8.82-10.78-9.39-13.71-.17-.86-1.45.6-1.32,1.22Z"/><path class="cls-2" d="M51.4,117.55c-1.68-3.52-3.22-7.18-5.08-10.61-1.44-2.67-6.16-1.81-8.77-1.65-.43,0-1.26,1.25-1,1.65a57.14,57.14,0,0,0,5.85,7.31c1.82,1.93,3.78,4.31,6.6,4.48.53,0,1.36-1.72.82-1.75-2.68-.17-4.67-2.63-6.39-4.44a56.19,56.19,0,0,1-5.72-7.15l-1,1.65a37.48,37.48,0,0,1,4.62,0,6.17,6.17,0,0,1,3.6,1,8,8,0,0,1,1.11,2.3l4.19,8.77c.21.43,1.41-1,1.16-1.55Z"/><path class="cls-2" d="M35.77,103.17a59.33,59.33,0,0,0,6.86-2.41c.53-.22,1-1.07.59-1.59a21.18,21.18,0,0,1-2.17-3.36c-.35-.7-.57-1.83-1.22-2.35A4.65,4.65,0,0,0,37.4,93l-4.64-.47A1.18,1.18,0,0,0,31.67,94l2.1,5.16c.32.78.61,2.59,1.49,3a1,1,0,0,0,1.24-.73l0-.13c.13-.42.08-.92-.4-1.06l-.1,0c-.87-.25-1.67,1.56-.66,1.85l.09,0L35.09,101l-.05.13,1.25-.73c-.6-.24-1.32-3.1-1.57-3.71l-1.54-3.78-1.09,1.47c1.77.18,5.92-.14,6.91,1.4s1.69,3.33,2.9,4.88L42.49,99A61,61,0,0,1,36,101.32c-.85.24-1.32,2.15-.27,1.85Z"/><path class="cls-2" d="M31.5,89.88c1.69.84,5.85,2.9,6.9.27.52-1.33,0-3.16-.12-4.52-.23-2.4-.55-4.79-.92-7.17,0-.15,0-.21-.2-.24-2.15-.38-6.53-2.07-7.52.83-.46,1.34,0,3.17.19,4.53a39,39,0,0,0,1.49,6.3c.13.42,1.35-1,1.17-1.55a36.57,36.57,0,0,1-1.56-6.93c-.07-.6-.12-1.21-.16-1.81,0-1.1,0-1.21-.11-.33.88-.24,2.42.22,3.32.34,1.57.22,2,.44,2.43,1.93a16.36,16.36,0,0,1,.41,3.13c.12,1,.23,2.1.32,3.15a10.16,10.16,0,0,1,.22,2.67l.86-.91c-1.85.37-4.06-.59-5.69-1.4-.5-.26-1.49,1.48-1,1.71Z"/><path class="cls-2" d="M34.66,60.2a23.4,23.4,0,0,1,4.82-7.89,6.63,6.63,0,0,1,3.74-2.12,25.74,25.74,0,0,1,4.47.11L48,49c-1.62,2.1-3.16,4.26-4.6,6.49-1.15,1.8-2.28,3.57-4.5,4.17a17.5,17.5,0,0,1-5.06.09c-.5,0-1.31,1.72-.84,1.74,2.87.15,6.44.53,8.51-1.87,2.55-3,4.34-6.72,6.76-9.84.1-.13.77-1.25.29-1.26-1.88,0-4.54-.62-6.32.16-1.3.57-2.45,2.13-3.31,3.15a33,33,0,0,0-5.25,8.92c-.48,1.18.8-.09,1-.58Z"/><path class="cls-2" d="M47.67,45.74c5,.5,9-2.19,12.08-6.07.33-.41.63-1.25-.06-1.47-4.93-1.58-9.62,3-13.39,5.51-.35.23-.9,1.31-.29,1.58a5.42,5.42,0,0,0,2.25.52c.85,0,1.62-1.82.69-1.83a3.48,3.48,0,0,1-1.91-.4l-.28,1.58C50.23,42.81,54.51,38.6,59,40l-.06-1.47c-2.63,3.34-6.25,5.78-10.57,5.35-.84-.08-1.64,1.74-.69,1.83Z"/><path class="cls-2" d="M85.62,39.26c.89,1.63,1.72,3.29,2.66,4.9.66,1.14.79,1.41,2,1.46a20.24,20.24,0,0,0,5.46-.44,1.77,1.77,0,0,0,1.29-.89c.88-1.78-1.88-3.77-3.06-4.71-2.39-1.9-5.15-4-8.36-3.44a1.24,1.24,0,0,0-.89,1.48,6.64,6.64,0,0,0,.71,1.72c.46.83,1.73-.7,1.3-1.46a4.08,4.08,0,0,1-.53-1.38L85.34,38c2.51-.44,4.56,1.07,6.49,2.47a18,18,0,0,1,2.57,2.12,9.9,9.9,0,0,1,.89,1.07q1.38-.41.39-.27c-1.71-.31-4.24,1.16-5.72,0-.62-.48-1.14-2.11-1.51-2.81l-1.52-2.8c-.45-.83-1.73.69-1.31,1.47Z"/><path class="cls-2" d="M102.79,52.29a68.08,68.08,0,0,1,5.13,9.08c.58,1.25.71,1.84,2,2.41,1.48.68,3.69.84,5.26,1.2.74.16,1.23-1.13,1-1.65-1.61-3.6-3.11-7.33-5.35-10.58a11.79,11.79,0,0,0-3.35-3.64c-1.49-.84-3.16-.32-4.78-.44-.73,0-1.28,1.07-1,1.66l1.43,3c.35.73,1.59-.79,1.26-1.49l-1.42-3-1,1.65c1.67.11,3.37-.43,4.87.57s2.84,3.24,3.78,4.83a90.51,90.51,0,0,1,4.3,8.93l1-1.66a36.6,36.6,0,0,1-4.15-.93c-2.17-.77-2.45-2.25-3.39-4.14a66.44,66.44,0,0,0-4.27-7.29c-.48-.72-1.69.85-1.26,1.49Z"/><path class="cls-2" d="M111.13,80.73a28.67,28.67,0,0,1-.1,7.46c-.26,1.73-1.08,3.45-1.08,5.2a.62.62,0,0,0,.27.5c1,.52,2.55,1,3.6.42,1.62-.92,2.72-4.34,3.36-6s1.42-4,1.1-6c-.42-2.51-3.86-3-5.91-3.78-.87-.35-1.86,1.38-1,1.71,1,.39,3.55.9,4.23,1.68,1.38,1.59,1,3.93.38,5.68-.39,1.1-2.49,6.77-4,4.47-.61-1,.65-4.46.77-5.68A32.48,32.48,0,0,0,112.7,80c-.13-1.22-1.66-.18-1.57.71Z"/><path class="cls-2" d="M109,97.85c-.22,1-.45,2-.66,3a3.12,3.12,0,0,0,0,2.11c.71,1.22,2.18.39,2.86-.39a8.79,8.79,0,0,0,1.19-2,11.58,11.58,0,0,0,1-2.22c.42-1.66-1.88-2.16-3.07-2.57-.59-.2-1.48,1.56-1,1.71A7.39,7.39,0,0,1,112,98.71c.4.44.07.76-.14,1.19a6.9,6.9,0,0,1-.74,1.52c-.41.45-1.17.7-1.58,0a1.88,1.88,0,0,1,0-1.28c.18-1.09.47-2.17.71-3.25.09-.44-.19-.41-.48-.28a1.92,1.92,0,0,0-.73,1.21Z"/><path class="cls-2" d="M106.24,106.21c-.37.69-.76,1.37-1.12,2.06a3,3,0,0,0-.47,1.48c.06,1.12,1.3.82,1.88.35a7.13,7.13,0,0,0,2.12-2.89c.28-.81.26-2-.78-2.21-.52-.1-1.22,1.68-1,1.72,1.28.24.89,1.92-.25,2.09-.7.1-.83-.42-.62-1a14.89,14.89,0,0,1,1-1.8c.1-.17.38-.7.09-.77s-.72.82-.8,1Z"/><path class="cls-2" d="M95.75,62a31.28,31.28,0,0,1,.17,7c-.07,1-1,4.34-.17,5.15.35.36,1.23.18,1.62.18h3.86c1.5,0,4.36.62,5.65-.26,2.21-1.53-.12-5.49-.75-7.18s-1-4.47-2.54-5.4c-1.69-1-4.66-1-6.55-1.1-.52,0-1.35,1.72-.83,1.75a36.37,36.37,0,0,1,4.53.55c1.85.37,2.47,1,3.13,2.78.43,1.13.84,2.27,1.26,3.4s1.69,3.49,1.38,4.89l.88-1.31c-1.21.66-4,.14-5.33.13H99.17c-1.41,0-2.12.47-2.34-1.33s.33-3.64.39-5.31A27.28,27.28,0,0,0,97,60.68c-.1-.69-1.27.79-1.2,1.29Z"/><path class="cls-2" d="M84.25,62.35v7.58c0,1-.46,3.17.56,3.78.84.5,4.12-.26,5.13-.34s2.19.09,2.93-.82a2.86,2.86,0,0,0,.32-2.44c-.3-2.14-.73-4.26-1.15-6.38-.2-1-.21-3.09-1-3.93-1.12-1.17-4.2-.13-5.55.18-.6.13-1.27,1.87-.81,1.76a11.78,11.78,0,0,1,3.89-.59c1.85.26,1.83,1.82,2.15,3.39.27,1.36.54,2.73.78,4.09.11.61.21,1.22.31,1.83l.14.92c.25,1,.23,1.2-.06.53-.06-.4-.28-.51-.67-.34l-.93.07-1.87.15a9.15,9.15,0,0,1-2.33.18c-.6-.35-.54-1.76-.58-2.35-.21-2.81,0-5.72,0-8.54,0-.7-1.25.72-1.25,1.27Z"/><path class="cls-2" d="M84.68,58.82c2.72-.46,6.21-.7,6-4.15a17,17,0,0,0-1.86-6.36c-.92-1.88-1.64-3.69-3.93-3.18-1.23.27-3,.52-3.79,1.63s-.31,2.05.14,3.25c.86,2.3.22,4.73,1,7a2.19,2.19,0,0,0,3.21,1.46c.44-.25,1.14-2,.57-1.68-3,1.73-2.68-3.55-2.8-5C83,50,81.75,48.19,81.89,46.53l-.74,1.39a7,7,0,0,1,2.92-1,2.09,2.09,0,0,1,2.19.64,11.56,11.56,0,0,1,2.07,3.83c.39,1,1.41,3.18,1.1,4.19-.39,1.32-2.83,1.34-3.93,1.52-.57.1-1.26,1.83-.82,1.76Z"/><path class="cls-2" d="M81.09,44.21c1.52-.37,5.6-1.6,3.87-3.94a30.26,30.26,0,0,0-3.68-3.47c-.83-.77-1.71-2-3-1.42-2.57,1.19-.84,5-.17,6.86a2.94,2.94,0,0,0,2.1,2.18,2.22,2.22,0,0,0,2.32-1.2c.6-1.08-.65-1.84-1.25-.75s-1.89-2.11-2-2.41c-.2-.65-.41-1.3-.6-2-.35-1.31.57-.46,1,0l2.85,2.67.76.71c.36.27.35.34,0,.2a5.51,5.51,0,0,1-2,.69c-.88.21-1.35,2.12-.26,1.86Z"/><path class="cls-2" d="M70.69,46.35c-.24,2.23-.5,4.47-.72,6.71-.12,1.31-.46,3.16.09,4.43.88,2.09,6.19,1.15,7.53-.16a2.47,2.47,0,0,0,.75-1.69c.15-1.94-.61-4.31-1-6.2-.28-1.25-.41-3.13-1.48-4s-2.65-.69-3.91-.48c-.67.11-1.39,1.89-.77,1.79a7.19,7.19,0,0,1,2.31-.15c1.73.28,2,1.76,2.33,3.21.28,1.18.52,2.36.73,3.55.1.6.2,1.19.29,1.79.05.3.09.6.13.9.2.51.06.61-.43.3a7.49,7.49,0,0,1-3.67.44C71,56.41,71.1,54.64,71.21,53c.18-2.52.53-5,.8-7.54.12-1.09-1.26.24-1.32.86Z"/><path class="cls-2" d="M67.62,45.82c-1.53.16-2.78-.33-4,.9a13.07,13.07,0,0,0-2.41,4c-.83,2.08-2.11,6.55,1.37,6.56,1.27,0,3,.46,4.16-.17s1.52-2,1.76-3.21a46.69,46.69,0,0,0,.64-5.41c.12-1.36-.5-1.5-1.32-2.49l-.31,1.24,0,0-.81.37a1,1,0,0,0,.41.15c0,1.14,1.39-.15,1.37-.83a1.12,1.12,0,0,0-.75-1c-.3-.15-.64.16-.81.37l0,0c-.21.24-.59.91-.32,1.24s.9.68,1.09,1.1a5.74,5.74,0,0,1-.06,2.5c-.08,1-.19,1.92-.36,2.87-.28,1.53-.93,1.65-2.28,1.52-.84-.08-2.5.27-3.11-.48s0-2.71.26-3.57a9.81,9.81,0,0,1,1.25-2.56c.92-1.4,2-1.09,3.45-1.24.7-.07,1.46-1.87.75-1.79Z"/><path class="cls-2" d="M67.55,59.31a24.82,24.82,0,0,0-4.94-.53c-1.28,0-2.71-.11-3.68.84-1.77,1.76-1.37,5.29-1.56,7.54a.17.17,0,0,0,.16.22,55.66,55.66,0,0,0,6.19.31c1.2,0,2.7.26,3.58-.69,1.65-1.79,1-5.54.62-7.66,0-.27-1.25,1-1.14,1.56a16.17,16.17,0,0,1,.31,3.18c0,.44,0,.89-.07,1.33-.31,1.23-.31,1.5,0,.81l.56-.48a17.88,17.88,0,0,1-4.85.2,14.83,14.83,0,0,1-2.91-.16c-1.15-.3-1.25-.38-1.15-1.6a12.94,12.94,0,0,1,.21-2.33c.33-1.11.65-1.24,1.84-1.3a24,24,0,0,1,5.79.47c.57.12,1.32-1.65,1-1.71Z"/><path class="cls-2" d="M43.33,62.79c-.72,1.44-3.47,7.44-1,8.22.86.28,2.2-.23,3.06-.37l3.74-.6c1.39-.23,3.59-.14,4.66-1.22.89-.9.91-2.52,1.11-3.67s1.42-4.46.76-5.49-2.87-.25-3.92-.07c-2.7.48-5.38,1.07-8,1.74-.6.16-1.33,2-.46,1.74,2.79-.71,5.6-1.32,8.43-1.81,1.71-.29,2.67-.84,2.56,1a15.51,15.51,0,0,1-.73,4.17c-1,2.23-5.62,2.11-7.8,2.46-1.32.21-2.65.9-2.87-.92-.2-1.61.9-3.79,1.6-5.19.6-1.2-.67-.86-1.09,0Z"/><path class="cls-2" d="M69.43,75.08a78.92,78.92,0,0,1-1.21,13.55c0,.18,0,.41.21.43l6.8.62c1.12.1,2.54.51,3.53-.14,1.71-1.12,2-4.69,2.21-6.43a31.73,31.73,0,0,0,.16-5c0-1.24.26-3.8-.39-4.84-1.3-2.08-8.13-.47-10-.09-.6.12-1.29,1.87-.8,1.77a31.58,31.58,0,0,1,5.65-.67,5.56,5.56,0,0,1,3.15.43c1.19.73.93,1.05,1,2.52.18,2.55,1.06,10.23-2,10.81-1.5.28-3.55-.33-5.1-.47-.84-.08-2,.08-2.62-.61s-.14-1.75,0-2.68a80,80,0,0,0,.68-10.49c0-.72-1.25.7-1.25,1.26Z"/><path class="cls-2" d="M84.65,76.47c0,3.54.72,8.22-.54,11.58-.08.21-.24.76.06.9,1.74.77,4.94,2.42,6.68,1.09s1.64-4.4,2-6.15c.41-2.09,1.64-6.5.36-8.49-1-1.59-5.25-1.14-7-1.31-.7-.06-1.54,1.73-.75,1.8a28.33,28.33,0,0,1,4.61.43c3.07.88,2.12,4.46,1.69,6.89-.19,1.11-.27,4.23-1,5-1.33,1.35-4.06-.27-5.53-.93l.06.9c1.44-3.82.75-8.48.77-12.48,0-1.15-1.38.14-1.38.82Z"/><path class="cls-2" d="M69.77,94l4.12.49,2,.24,1,.13c1.47-.29,2,.26,1.63,1.65.11,2.08-.63,3.89-1.27,5.85a32.77,32.77,0,0,1-1.56,4.7l.81-1a10.48,10.48,0,0,1-3.49,0c-2.3-.23-3.13-.17-3.88-2.34-.43-1.25-1.36-9.44.88-9.84.54-.09,1.17-1.79.86-1.74-3.28.59-3.29,4.78-3.29,7.35,0,1.43-.26,6.53.9,7.57,1,.88,5.73,1.22,6.88.81a2.48,2.48,0,0,0,1.38-1.59A58.85,58.85,0,0,0,79.5,98c.41-1.49,1.41-3.85-.25-4.67-.91-.45-2.48-.33-3.48-.44l-5.15-.61c-.46-.06-1.31,1.68-.85,1.73Z"/><path class="cls-2" d="M58.51,104.63c-1.24-1.92-1.35-4-1.44-6.2a33.86,33.86,0,0,1-.24-5.86l-.71,1c1.1-.43,2.88-.21,4.06-.26a8.19,8.19,0,0,1,2.5-.11c1,.34.86,1,1,2s.17,2.06.22,3.07c.05,1.21.63,4.51-.44,5.39s-4,.65-5.14.75c-.79.06-1.41,1.89-.34,1.81,1.92-.16,5.51,0,6.85-1.71s.66-5,.57-7c-.06-1.33.35-5.24-1-6-1.06-.65-3.84,0-5.06,0a10.05,10.05,0,0,0-3.29.35,1.38,1.38,0,0,0-.71,1c-.34,2.28.12,5,.24,7.28a11.31,11.31,0,0,0,1.61,6c.5.77,1.74-.78,1.29-1.48Z"/><path class="cls-2" d="M68.82,123.76c-.32-2.62-.61-5.25-.84-7.88-.12-1.31-.22-2.63-.31-3.94,0-.57-.08-1.13-.12-1.7a2.26,2.26,0,0,0,2,.28c1,.07,2.4-.29,3.37.08,3,1.15,1.62,3.76,1,5.93-.66,2.35-2,8.79-5.54,6.3-.45-.31-1.53,1.37-1,1.71,3.44,2.4,5.19-1.59,6.32-4.4.77-1.92,3.84-8.91,1.9-10.89-1.13-1.16-6.1-.73-7.46-.27a2.23,2.23,0,0,0-1.66,1.52c-.61,1.58,0,3.89.17,5.53.25,3,.58,6,1,9,.09.74,1.3-.74,1.23-1.27Z"/><path class="cls-2" d="M78.91,117.27c-.31-.31.87-3.35,1-3.68a22.34,22.34,0,0,1,1.24-4l-.86.91a17.77,17.77,0,0,1,4.78-.29,8.87,8.87,0,0,1,2.36,0c.85-.24,1.3.1,1.34,1a2.28,2.28,0,0,1-.5,3.13c-1,1.91-2.76,4.11-5,4.47-1.8.28-3.39-.58-4.88-1.48-.46-.28-1.49,1.43-1,1.72,3.6,2.18,6.79,1.86,9.57-1.39A18.44,18.44,0,0,0,89.77,113c.39-.94,1.24-3.24.37-4.17s-4.34-.46-5.7-.44-3.17-.29-4.09,1c-1.07,1.46-1.3,3.87-1.8,5.59-.24.83-1.47,3.19-.67,4,.28.29,1.46-1.27,1-1.72Z"/></g></svg>