<svg xmlns="http://www.w3.org/2000/svg" viewBox="0 0 141.82 141.73"><defs><style>.cls-1{fill:#a7c6c6;}.cls-2{fill:#0b3142;}</style></defs><title>Icon</title><g id="Icons_to_export" data-name="Icons to export"><path class="cls-1" d="M66.62,75.28Q57.55,61.69,48.08,48.34c-5.62-7.92-11-16.33-18.27-22.83-.44-.39-2.18,2-1.55,2.57C36,34.93,41.56,43.9,47.47,52.25S59.2,69.09,64.9,77.62c.42.62,2.15-1.71,1.72-2.34Z"/><path class="cls-1" d="M70.25,85.15c5.25,5.3,9.89,10.55,12.83,17.52,2.52,6,5.93,11.43,8.46,17.36l1.69-2.36-.61-1.4c-.19-.44-2,1.65-1.69,2.36l.61,1.4c.19.44,2-1.66,1.69-2.36C90.46,111.21,86.94,105,84,98.61s-7.43-11.17-12.25-16c-.29-.3-2.09,2-1.54,2.57Z"/><path class="cls-1" d="M76.5,92.89c5.69,5.65,7.52,13.78,12.43,20,.57.71,2.25-1.7,1.76-2.32-5-6.3-6.87-14.51-12.65-20.24-.46-.46-2.21,1.91-1.54,2.57Z"/><path class="cls-1" d="M77.49,103.27l-.18-.65c0-.16-.14-.45-.39-.41-.65.11-2.58-2.94-2.93-3.41-.66-.9-2.24,1.5-1.81,2.29a28.94,28.94,0,0,0,4.06,5.7c.68.75,1.7-.92,1.82-1.48a26.2,26.2,0,0,0,.57-4l-1.88,1.79a156.91,156.91,0,0,1,7.46,15.59c.35.86,2.19-1.37,1.81-2.29a155.6,155.6,0,0,0-7.46-15.58c-.55-1-1.85,1.35-1.88,1.79a15.87,15.87,0,0,1-.44,3.42l1.82-1.48A28.65,28.65,0,0,1,74,98.8l-1.81,2.29c.83,1.12,1.61,2.36,2.53,3.4.12.14.79.44.84.64.36,1.26,2.19-1,1.94-1.86Z"/><path class="cls-1" d="M45.75,76a33.11,33.11,0,0,0,7.68-1c.68-.17,1.92-2.68,1-2.61L50,72.77c-2.12.16-3.38.73-4.14-1.6s-.77-4-2.55-6.2c-.72-.87-1.75,1.35-1.84,1.82l-.28,1.43L43,66.4c-2.7-4-3.46-9.11-6.1-13.28-.52-.82-2.27,1.52-1.79,2.3,2.64,4.16,3.4,9.3,6.1,13.28.64.93,1.76-1.42,1.84-1.82l.28-1.43L41.5,67.27a10,10,0,0,1,2.41,5.17c.12.88-.22,2.15.5,2.87,1.38,1.39,7.07-.08,8.81-.21l1-2.61a31.27,31.27,0,0,1-7.26.87C46,73.37,44.82,76,45.75,76Z"/><path class="cls-1" d="M47.39,75.6l-1.17,0-1.28,2.6a10.33,10.33,0,0,0,5-2,3.63,3.63,0,0,0,1.2-1.68c.07-.21.29-1.18-.26-.78a9.47,9.47,0,0,1-4.65,1.82c-.72.08-1.89,2.62-1.28,2.6l1.17,0c.76,0,1.86-2.62,1.28-2.61Z"/><path class="cls-1" d="M89.89,36.41A161.85,161.85,0,0,0,98.8,22.29l-1.63-1A170,170,0,0,0,89.39,38c-.63,1.56,1.1,1.95,1.81.62l6.72-12.5c.86-1.6-.76-2.61-1.63-1l-6.72,12.5,1.8.62A160.93,160.93,0,0,1,98.8,22.29c.86-1.6-.74-2.61-1.63-1a161.85,161.85,0,0,1-8.91,14.12c-1,1.52.6,2.48,1.63,1Z"/><path class="cls-1" d="M96.94,24.68c-2,7.52-11,14.84-9.62,23.18L89,45.5a13,13,0,0,1-1.48-5.79l-1.72,2.17,3.85,7.6c.27.53,2-1.66,1.7-2.35l-2-4.4c-.23-.51-2,1.63-1.7,2.35l2,4.4,1.7-2.35-3.85-7.6c-.34-.68-1.73,1.73-1.72,2.16a14.93,14.93,0,0,0,1.52,6.17c.31.63,1.8-1.77,1.7-2.36-.8-4.9,4.21-11.57,6.62-15.62a26.29,26.29,0,0,0,3-6.68c.36-1.36-1.49.88-1.66,1.48Z"/><path class="cls-1" d="M100.85,23l0-.1c.13-.33.42-1,.06-1.25l-.1-.08a.39.39,0,0,0-.38,0A4,4,0,0,0,99,23.36L97.4,25.87l1.46-.36a9.34,9.34,0,0,1,.55-1.87,7.77,7.77,0,0,1,.4-.82l.17-.29c.27-.36.23-.37-.12,0h-.37l.1.11L99.83,21l-.06.11c-.18.32-.73,1.32-.24,1.61s1.15-.68,1.3-1l.07-.1c.23-.42.64-1.19.24-1.61l-.11-.11a.4.4,0,0,0-.37,0c-1.11.39-1.85,2-2.34,3A14.65,14.65,0,0,0,97,26.87c-.07.36,0,.65.43.62s.84-.68,1-1c.59-1,1.12-2,1.79-2.92l-.7.62.11-.06-.37,0,.1.08,0-1.26,0,.1c-.13.34-.48,1.22.12,1.29s1.18-1,1.32-1.35Z"/><path class="cls-1" d="M104.61,29a35.64,35.64,0,0,1-4.37,8.25l1,1.09c1.36-2.45,2.8-4.84,4.34-7.19l-1.61.54c.33,2.58-2.74,7.2-3.88,9.55A34.9,34.9,0,0,0,97,49.09c-.41,1.91,1.64.43,1.86-.64.87-4.07,3.25-7.79,4.91-11.58.94-2.14,2.5-4.6,2.19-7-.15-1.11-1.4.21-1.62.54q-2.3,3.51-4.34,7.18c-.63,1.13,0,2.55,1,1.09a42,42,0,0,0,5.19-9.62c.72-1.88-1.11-1.38-1.62-.05Z"/><path class="cls-1" d="M111.19,35.16a48.93,48.93,0,0,1-2.94,6.77l1.36-.53a31.48,31.48,0,0,1,3.73-6.71l-1-.16a50,50,0,0,1-4.3,8.82c-1.63,2.69-3.39,6.09-5.83,8.1-.5.41-1.61,3.1-.5,2.17,2.77-2.27,4.59-5.63,6.47-8.63a59.9,59.9,0,0,0,5.67-11.32c.42-1.17-.45-.85-1-.16a41.3,41.3,0,0,0-4.84,8.75c-.68,1.7,1,.09,1.37-.52a54.47,54.47,0,0,0,3.23-7.44c.63-1.8-1.24.11-1.51.86Z"/><path class="cls-1" d="M100.74,45.22c-.73.18-1.78.63-2.33-.11-.31-.43.09-1.82.18-2.34A28.65,28.65,0,0,1,99.9,38.3c.52-1.5-1-.69-1.36.06a16,16,0,0,0-2,8.94c.08,1.09,1.91-1.09,1.85-1.9A11.56,11.56,0,0,1,99.58,39l-1.36.07a25.59,25.59,0,0,0-1.65,6.66c0,.57-.22,1.72.29,2.2s2,.11,2.66-.06a2.23,2.23,0,0,0,1.31-1.36c.08-.17.49-1.43-.09-1.28Z"/><path class="cls-1" d="M109.68,39.16l3.61-6.22-1.4-.38a19.13,19.13,0,0,1-3.18,5.5l1.3.37a8.06,8.06,0,0,1,1.08-2.75c.22-.35.67-1.34.16-1.65s-1.18.59-1.38.92a12.5,12.5,0,0,0-1.7,4.14c-.25,1.2.67,1.13,1.3.36a24,24,0,0,0,4-6.86c.59-1.57-.7-1.6-1.41-.38l-3.62,6.21c-.2.36-.68,1.34-.16,1.66s1.19-.59,1.39-.92Z"/><path class="cls-1" d="M95.39,54.07l-3.52-1.34L90.58,55.4l4.6.31c1.06.07,2.18-1.55,1.49-2.48a3.51,3.51,0,0,0-4.2-1,8.29,8.29,0,0,0-3.76,4c-.28.51-.53,1.43.1,1.81s1.36-.27,1.64-.77A5.27,5.27,0,0,1,92.32,55a1.88,1.88,0,0,1,2.39.47L96.21,53l-4.6-.32c-1-.07-2.55,2.18-1.28,2.66l3.51,1.34c1.29.49,2.77-2.11,1.55-2.57Z"/><path class="cls-1" d="M38.7,118.69a48.82,48.82,0,0,1,3.13-8.78l-1.68.34-2.33,4.18.9,1c2.37-5.87,6.87-11,10.5-16.16.77-1.09.44-3-.73-1.37-3.94,5.59-8.75,11.13-11.33,17.53-.32.81,0,1.9.9,1A15.08,15.08,0,0,0,42,109.57c.49-1.79-1.3-.47-1.68.34a52.72,52.72,0,0,0-3.37,9.46c-.48,1.89,1.54.32,1.8-.68Z"/><path class="cls-1" d="M39.42,118.18l2.6,1.64c.67.42,2.24-2.1,1.54-2.58l-1.29-.87-1.19,2.55,3.73-1.25c.65-.22,1.74-2.73,1-2.58l-.38.08c-.8.16-1.38,1.3-1.51,2s.22,2.45-.17,2.79l-.16,2a75.53,75.53,0,0,0,8.68-12.39A176.75,176.75,0,0,1,62.91,94c2.78-3.74,4.86-7.91,7.63-11.65,2.3-3.1,4.8-6.1,6.82-9.41.92-1.5-.06-2.11-1-.59-2.08,3.41-4.72,6.47-7.07,9.7-2.5,3.44-4.39,7.27-6.93,10.69-3,4-6,7.83-8.61,12.14-3.18,5.3-6.06,10.71-10.21,15.34-.36.4-1.31,3-.17,2,2.5-2.23,1.8-3.41,2.36-6.43l-1.51,2,.39-.08,1-2.57-3.73,1.25c-.53.17-1.89,2.07-1.2,2.54l1.3.88,1.54-2.58L41,115.61c-.68-.43-2.26,2.13-1.55,2.57Z"/><path class="cls-2" d="M62.41,81.49c-1.33-1.8-3.37-6.24-5.36-7.15-1.75-.81-3.58.83-5.23,1.45a16.29,16.29,0,0,1-5.07,1.36c-2.87,0-3.27-.55-4.56-3.05-1.51-2.91-2.31-6.6-3.33-9.71C34.52,51.17,28.33,35.75,30,21.67l-1.64,2.27c6.44,3.15,8.77,10.67,12.84,16.16,2.94,4,5.69,8.06,8.49,12.13,5.61,8.14,10.85,17.38,17.69,24.58.31.33,2.12-2,1.55-2.57-7.28-7.65-12.8-17.48-18.77-26.15-2.4-3.48-4.8-7-7.29-10.39-4-5.53-6.48-13.16-13-16.33-.71-.34-1.59,1.83-1.64,2.28C27.12,33.19,30,42.46,32.52,51.56Q36.6,65.94,41.77,80a.16.16,0,0,0,.21.12c3.78-.23,6.82-1.32,10.35-2.44s3-1.07,4.74,1.28c1.28,1.7,2.53,3.43,3.79,5.14.21.27,2.08-1.86,1.55-2.58Z"/><path class="cls-2" d="M66.26,92c4.16,7.48,6.34,15.82,10.28,23.4,1.54,3,3.52,6.26,6.17,8.4,3,2.38,5.1,0,7.69-2,6-4.56,4.16-7.34.71-13.74A238.58,238.58,0,0,0,73.67,80.41c-.48-.66-2.18,1.71-1.73,2.33q6.9,9.42,12.84,19.48c2,3.48,4,7,5.9,10.6.66,1.26,2.59,3.76,2.14,5.17-.31,1-4.88,3.74-5.2,3.82-5.77,1.5-10.12-10.13-11.78-14.1-2.55-6.08-4.63-12.32-7.85-18.1-.36-.64-2.13,1.62-1.73,2.34Z"/><path class="cls-2" d="M87.69,50.13c-1-1.11-4.7-4.26-4.85-5.65-.24-2.09,3.91-6.44,5.09-8.17,3.08-4.47,5.93-9.73,9.9-13.48,1-1,3.39-3.49,4.11-1.84s-3.27,7.78-4,9c-1.19,2.24-4.81,6.24-4.23,9.08.53,2.59,2.52,1.41,3.83,0,3.7-3.87,6.54-9.28,9.6-13.67l-1.1.62c5.58,2.16-13,18.61-6.69,20.56,1.57.49,3.23-1.85,4-2.85,1.94-2.58,3.56-5.54,5.31-8.26a27.75,27.75,0,0,1,2.12-3.3q2.36-4.09,3.42-.89c1.1,1,1,1.93-.3,2.84-2.11,4.91-6.53,9.65-9.53,14.09-2.35,3.47-4.69,6.23-9.36,6.27-1.67,0-2.23-.36-3.71.46-2.67,1.47-4.46,5-6.32,7.29Q79.23,69.44,74,77c-6.3,9-12.11,18.43-17.9,27.81-3.17,5.14-6.31,11.65-11,15.59-2.75,2.32-5.36,2.39-7.41-.76-2.76-4.25,1-7.48,3.47-10.54,7.75-9.53,16.05-18.43,23.58-28.17s15-19.27,22.39-29c.8-1,.57-3-.66-1.33C78.58,61,70.54,71.23,62.57,81.54,58.24,87.15,54,92.61,49.16,97.8c-2.35,2.52-4.79,5-6.92,7.7-2.55,3.24-6,6.45-7.27,10.53-1,3.29.42,5.76,2.91,8,3.54,3.15,5.91-.06,8.56-3,8.31-9.2,14-21,20.67-31.38C70.89,83.77,74.79,78,78.94,72.33q2.73-3.69,5.59-7.27c2.68-3.33,5.43-8.59,10.19-7.56,2.93.63,4.7-.09,6.63-2.43,4.3-5.23,7.79-11.47,11.59-17.08,1.22-1.8,6.48-7.36,3.79-9.89-3.26-3.08-6.83,3.18-8.09,5.12-.84,1.28-6.27,11.37-8.34,9.23-.22-.23,5.44-8.52,5.76-9,1.44-2.25,6.16-8.13,1.58-9.91-.42-.16-.9.31-1.11.62l-6.24,8.93c-.52.74-2.78,5.15-3.6,2-.17-.65,1.75-3.11,2-3.68a53.54,53.54,0,0,0,4.59-9.75c.66-2.14,1.07-4.69-1.82-3.62-3.73,1.38-6.91,6.35-8.91,9.22C89,32.38,84.74,37.57,81.72,43.07c-2.26,4.09,1.52,6.31,4.18,9.36C86.59,53.21,88.25,50.77,87.69,50.13Z"/><path class="cls-2" d="M45.17,75.68a27.28,27.28,0,0,1-.77-6l-1.84,2.1a10.48,10.48,0,0,1,.1,5.77l1.82-1.3c-.2-1.43-.81-9.68-2.77-9.79-1.64-.1-2.44,2.23-2.5,3.52l1.88-1.62L39.6,58.72c-.18-1.19-2,1.06-1.89,1.88A79.66,79.66,0,0,0,40,71.53c.2.73,2-1.38,1.78-2.3A78.3,78.3,0,0,1,39.6,58.72L37.71,60.6l1.49,9.67c.19,1.27,1.86-1,1.89-1.61-.14,3,1.06,6.43,1.5,9.51.18,1.26,1.71-.91,1.81-1.31a13.44,13.44,0,0,0-.06-7.36c-.26-.94-1.85,1.58-1.84,2.1a26.69,26.69,0,0,0,.78,6c.29,1.2,2.09-1.06,1.89-1.88Z"/><path class="cls-2" d="M43.73,75.67a2.07,2.07,0,0,0,.7,2.21c.65.6,1.61-.71,1.78-1.14.3-.75,2.38-.55,3-.55a7,7,0,0,0,3.18-.63c1.12-.54,1.54-3.31-.08-2.52s-3.5.14-5.19.69a4.56,4.56,0,0,0-2.89,2.73L46,75.31l0-.07c.13-.61-.19-1.22-.87-1.15s-1.22,1-1.35,1.58Z"/><path class="cls-2" d="M89.72,117.46c-1,.47-2.78,2.11-4,1.58s-2.19-3.22-2.74-4.19q-2.23-3.94-4.24-8L77,109.17a38.87,38.87,0,0,1,3.88,7c.23.53,1.94-1.64,1.7-2.35A52.87,52.87,0,0,0,78.77,105c-.3-.54-2.07,1.68-1.71,2.35a52.91,52.91,0,0,1,3.85,8.84l1.7-2.35a38.87,38.87,0,0,0-3.88-7c-.4-.57-2,1.73-1.7,2.35,1.81,3.67,3.71,7.32,5.85,10.81,1.89,3.07,3.36,1.08,5.91-.06.63-.28,1.76-2.82.93-2.46Z"/><path class="cls-2" d="M72.55,104.3q3.8,7.76,6.81,15.83c.32.88,2.17-1.33,1.82-2.28q-3-8.09-6.81-15.83c-.44-.9-2.26,1.38-1.82,2.28Z"/><path class="cls-2" d="M37.38,116l-.52.69-1,0a9.57,9.57,0,0,0,.39,2.6,5,5,0,0,0,1.1,2.18c1.34,1.18,2.57-1.14,2.62-2.23,0-.7-.77-.18-1,0a2.94,2.94,0,0,0-.87,1.87v.14l.64-1.59-.06.09.69-.63c-.5.22-1.06-1.33-1.16-1.6a7.66,7.66,0,0,1-.5-2.76c0-.68-.77-.21-1,0a3.72,3.72,0,0,0-1.13,3.47c.17.58,1.05-.36,1.17-.52a2.21,2.21,0,0,0,.59-1.8Z"/><path class="cls-2" d="M38.35,119.09a7.42,7.42,0,0,0,4.83,1.83l.7-2.78-3.81,1c-.93.23-2.3,2.66-.71,2.78,2.61.19,4.32-1.5,5.83-3.45,2.27-2.91,4.49-5.82,6.87-8.64,1.06-1.27-.09-3.27-1.36-1.75-1.58,1.88-3.13,3.78-4.64,5.72-1.27,1.64-3.23,5.53-5.7,5.34l-.7,2.78,3.81-1c.92-.23,2.29-2.74.71-2.78a6.42,6.42,0,0,1-4.28-1.62c-1-.9-2.65,1.63-1.55,2.57Z"/><path class="cls-2" d="M83.89,45.53a15.52,15.52,0,0,1,1.56-5.66c.17-.33.49-1.14,0-1.25S84.26,39.69,84.11,40a20.43,20.43,0,0,0-2,7.46c-.06.69.75.12.94-.07a3.06,3.06,0,0,0,.88-1.86Z"/><path class="cls-2" d="M84.23,43.79l8.24-9.94c1-1.18.19-3.12-1.09-1.58l-8.24,9.94c-1,1.18-.19,3.12,1.09,1.58Z"/><path class="cls-2" d="M95.36,27.25a8.34,8.34,0,0,1,2.08-2.46L96.72,23a101.33,101.33,0,0,0-9.14,12.28c-1,1.53.46,2.4,1.43.86a96.46,96.46,0,0,1,8.68-11.62c.7-.81.71-3-.71-1.78a12.58,12.58,0,0,0-3,3.64c-.89,1.57.54,2.46,1.43.86Z"/><path class="cls-2" d="M85.53,41c-1.8,2.39-2.37,5.83-.29,8.26.78.91,2.48-1.52,1.84-2.27-1-1.15-1.73-3.18-.7-4.55.31-.41.88-1.33.49-1.86s-1.08.07-1.34.42Z"/><path class="cls-2" d="M85.39,49.68c.32.69.85,1.28,1.67,1a2.61,2.61,0,0,0,1.61-2.76c-.44-1.34-2.32.88-2,1.82l0-.32.3-.7-.06.09.48-.6c.24-.23.33,0,.11-.27a2,2,0,0,1-.29-.52c-.28-.61-1.14.13-1.37.4a1.93,1.93,0,0,0-.48,1.86Z"/><path class="cls-2" d="M93.46,55.64a14,14,0,0,0,5.31.56c1-.08,2.42-2.63,1.12-2.7a28.9,28.9,0,0,1-5.61-.9c-1-.27-2.36,2.37-1.11,2.7a28,28,0,0,0,5.6.9l1.12-2.7a14.26,14.26,0,0,1-5.32-.56c-1-.3-2.36,2.33-1.11,2.7Z"/><path class="cls-2" d="M86.12,51.41c-2.28,2.79-4.61,5.55-7,8.25-.34.38-1.09,1.3-.86,1.88s.66.42,1,0q3.84-4.32,7.5-8.79c.84-1,.62-2.91-.67-1.33Z"/></g></svg>