<svg xmlns="http://www.w3.org/2000/svg" viewBox="0 0 141.82 141.73"><defs><style>.cls-1{fill:#a7c6c6;}.cls-2{fill:#0b3142;}</style></defs><title>Icon</title><g id="Icons_to_export" data-name="Icons to export"><path class="cls-1" d="M33.5,92.52a50.75,50.75,0,0,1,.41-15.94l-1.86,1.63.83,18.84c0,1.13,1.87-1.14,1.88-1.9q.15-14.88-.15-29.76c0-1.1-1.87,1.1-1.87,1.9A176.31,176.31,0,0,0,34.6,93.66c.18,1.24,1.87-1.22,1.88-1.89l.13-10.72L34.74,83c.86,4,1,10.18,3.66,13.51,2.1,2.67,5.89,2.84,9,2.94.84,0,2.16-2.57,1.21-2.65l-10-.9c-.83-.08-2.19,2.47-1.21,2.64l7.72,1.37c2.22.39,6.46.22,7.8,2.28l1.5-2.48A26.56,26.56,0,0,1,41.9,97.81l-1.37,2.61A69,69,0,0,0,53.62,100c.75-.1,2.25-2.54,1.21-2.65-3.15-.33-7-.15-10-1.19C41.49,95,41.24,92.26,41.34,89l-1.88,1.9a34.57,34.57,0,0,1-.66,6.69c-.17.88.6.64,1,.25a11.05,11.05,0,0,1,4.29-3c.69-.32,1.89-3,.8-2.54L39.5,94.49l.13,1.59A51.76,51.76,0,0,1,49,84.37l-.37-1.58L40,94.87c-.46.65-1,2.87.38,1.57,5.84-5.52,8.7-13.64,15.33-18.34.64-.46,1.62-3.18.34-2.27-6.9,4.89-9.79,13.06-15.81,18.76l.38,1.58L49.21,84.1c.47-.66,1-2.87-.38-1.58A56.71,56.71,0,0,0,38.57,95.44c-.17.29-.84,2,.13,1.59l5.38-2.15.8-2.54A17.37,17.37,0,0,0,39.66,96l1,.25A39,39,0,0,0,41.34,89c0-1.08-1.85,1.11-1.88,1.9-.07,2.47-.07,5.61,2.14,7.23,2.88,2.11,8.64,1.54,12,1.89l1.21-2.65a69,69,0,0,1-13.09.41c-.71,0-2.15,2.31-1.38,2.61a27.41,27.41,0,0,0,12.85,1.93c.73-.06,1.94-1.79,1.49-2.48-1.05-1.61-2.73-1.62-4.52-1.94-3.85-.69-7.71-1.36-11.57-2L37.4,98.49l10,.91,1.21-2.65c-3.39-.1-7.23-.32-9.11-3.61s-2.13-8.52-2.9-12.09c-.28-1.28-1.86,1.25-1.87,1.9L34.6,93.66l1.88-1.89a175.14,175.14,0,0,1-1.87-26.38l-1.87,1.9q.3,14.88.14,29.76l1.88-1.9-.84-18.84c-.05-1.26-1.77,1.19-1.86,1.63a52.31,52.31,0,0,0-.43,16.47c.15,1.14,2-1.07,1.87-1.89Z"/><path class="cls-1" d="M64.28,55.92a12.85,12.85,0,0,0,1,5.08l1.78-2.3q-1.89-2.33-4-4.48c-.6-.62-1.82,1.75-1.71,2.23a7.09,7.09,0,0,0,3.19,4.78c.73.49,1.65-1.48,1.71-2a16.6,16.6,0,0,0-.17-5.4L64.3,56a34.74,34.74,0,0,0,3.83,7.9c.63,1,1.85-1.62,1.84-2.1a21.47,21.47,0,0,0-1.22-6.64L67,57.44l2.73,6.73c.41,1,1.82-1.67,1.83-2.1a17.41,17.41,0,0,0-.8-5.5L69,58.88l2.26,4.58c.47,1,1.78-1.46,1.82-1.83a18.25,18.25,0,0,0-.12-5.37l-1.84,2.1L73.26,62c.54.91,1.79-1.41,1.83-1.83A19,19,0,0,0,75,55.87L73.14,58a8.29,8.29,0,0,0,2.06,3c.62.59,1.66-1.58,1.71-2a31.24,31.24,0,0,0,.15-5.47l-1.83,2.1A12.32,12.32,0,0,0,76.87,59c.62.89,1.78-1.39,1.83-1.82a27.07,27.07,0,0,0,.15-4.76L77,54.48a5.66,5.66,0,0,0,1.6,2.3c.72.67,1.71-1.82,1.72-2.23a2.9,2.9,0,0,0-.7-2.44c-.32-.29-1,.45-1.1.62l-.11.14c-.24.31-.93,1.4-.57,1.82l.1.1c.68.78,2.34-1.67,1.78-2.3l-.09-.11-.57,1.81.11-.14-1.1.63.36,1.76,1.72-2.23a3.75,3.75,0,0,1-1.36-2c-.39-1-1.87,1.59-1.84,2.1a23.83,23.83,0,0,1-.13,4.22l1.83-1.83A12.12,12.12,0,0,1,77,53.35c-.3-.92-1.87,1.56-1.83,2.1A29,29,0,0,1,75,60.38l1.71-2a7,7,0,0,1-1.83-2.76c-.36-.9-1.91,1.52-1.83,2.1a16,16,0,0,1,.13,3.79L75,59.72l-2.18-3.66c-.55-.92-1.94,1.53-1.84,2.09A15,15,0,0,1,71.16,63L73,61.16l-2.26-4.59c-.43-.88-2,1.55-1.78,2.31A15.67,15.67,0,0,1,69.64,64l1.84-2.1-2.73-6.73c-.32-.8-2.07,1.47-1.78,2.31a20.31,20.31,0,0,1,1.11,6.22l1.84-2.1a33.74,33.74,0,0,1-3.83-7.9c-.28-.83-2,1.43-1.84,2.1a14.11,14.11,0,0,1,.19,4.86l1.71-2a6.1,6.1,0,0,1-2.85-4.1l-1.72,2.23q2,2,3.73,4.21c.69.85,2.08-1.58,1.78-2.3A11.88,11.88,0,0,1,66.17,54c0-1.09-1.89,1-1.89,1.88Z"/><path class="cls-1" d="M85.78,70.53a34,34,0,0,1-10.59,7.33c-.69.31-1.8,2.93-.86,2.51a37.17,37.17,0,0,0,11.49-8.05c.61-.62,1.31-3.16,0-1.79Z"/><path class="cls-1" d="M89.06,68q9.18-8.13,18.51-16.08c.5-.42,1.6-3.11.51-2.18q-9.33,8-18.52,16.09c-.48.43-1.58,3.12-.5,2.17Z"/><path class="cls-1" d="M97.49,82.16q5.94,8.76,12.67,16.92c.63.76,2.3-1.67,1.77-2.31q-6.74-8.16-12.66-16.91c-.53-.79-2.27,1.58-1.78,2.3Z"/><path class="cls-1" d="M33.58,52a8,8,0,0,1,1.19-4c.12-.19.81-2.07-.06-1.55A16.27,16.27,0,0,0,28,54.21c-.15.36-.49,1.12.06,1.26s1.17-1.09,1.29-1.38a10.72,10.72,0,0,1,4.51-5.15l-.06-1.55a13.34,13.34,0,0,0-2,6.48c0,.69.74.14.94-.06A3,3,0,0,0,33.58,52Z"/><path class="cls-1" d="M45.42,95.3l-.52,1.36,1.65-.72a5.62,5.62,0,0,1,2.11-4.26l-1-.25a5.73,5.73,0,0,1-1.1,3.26l.85,1L49.08,94l-.56-1.1L47,96.65c-.15.37-.5,1.51.32,1.25,1.08-.35,4.19-1.75,4.78-1,.33.4-.06,1.21.57,1.76,1.81,1.6,7.1.59,9.29.59.89,0,2.1-2.65,1.21-2.65-2,0-4,.09-6,0-1.09-.06-2.31.28-2.9-.82-.23-.42,0-1-.18-1.32-1-1.66-4.57.48-6,.92l.32,1.24L50,92.79c.22-.55.38-1.73-.55-1.11A9.52,9.52,0,0,0,46.33,95c-.63,1.08-.16,2.45.85,1a12.73,12.73,0,0,0,2.33-5.92c.11-.86-.55-.67-1-.25a11.93,11.93,0,0,0-3.83,7.49c-.18,1.55,1.44-.3,1.65-.72a7.38,7.38,0,0,0,.79-2c.49-1.88-1.46-.19-1.71.74Z"/><path class="cls-1" d="M37.48,89.2l-.9.92,1.31.43a6.19,6.19,0,0,1,.59-2.61c.22-.49.28-1.29-.36-1.44s-1.24.82-1.46,1.27l-.87,1.76,2-.8c-.41-1.28.41-2.47.81-3.66a5.87,5.87,0,0,0,.27-3.21c-.22-.91-1.19-.25-1.54.12L34.5,85l1.44-.36-.16-.89c.3-1.94-1.85-.7-2.05.54a4.09,4.09,0,0,0,.33,2.6c.3.65,1.21-.11,1.44-.36l2.78-3-1.54.12c.29,1.27-.55,2.5-.93,3.68a5.1,5.1,0,0,0-.14,3.18c.4,1.27,1.68-.26,1.95-.8l.86-1.76-1.82-.17a9.59,9.59,0,0,0-.9,4c0,.82.78,1,1.3.44l.91-.92c.42-.42,1.07-1.27.8-1.92s-.85-.59-1.29-.14Z"/><path class="cls-1" d="M39.09,88.19l-.6,4.36c-.09.64.36.76.84.51a2.66,2.66,0,0,0,1.09-1.82l-.23.61L40,90a6.64,6.64,0,0,0-.85,1.24c-.14.26-.28.86-.49,1-1,.75-1.45-.94-1.57-1.53-.27-1.25-2.13,1-1.94,1.86.25,1.2.84,2.83,2.39,2.47,1.89-.43,2.12-2.47,3.2-3.7.41-.47,1.07-2.63-.25-1.85a4.32,4.32,0,0,0-1.95,3l1.93-1.31L41,86.88c.09-.64-.36-.76-.84-.51a2.65,2.65,0,0,0-1.1,1.82Z"/><path class="cls-2" d="M29.81,50.33c-.26,11.59-.22,23.18.18,34.77.25,7.28-1.21,16.06,7.59,18.09,9.72,2.25,20.84.9,30.71.6,11-.34,22.11-.33,33.12-1,6.45-.41,11.79-2.8,12.84-9.7,1.52-9.91.39-21-.26-30.94-.32-4.94-.21-10.55-1.44-15.36-.8-3.1-2.34-4.57-5.46-5.37-9.94-2.55-21.79-.41-31.93,0-11.49.46-23.1.47-34.56,1.4-8.11.65-12,4.77-11.5,12.9.12,1.8,2.33.1,2.25-1.12-.16-2.62.33-5.86,2.53-7.67,1.12-.92,3.43-1.11,4.85-1.28,4.68-.57,9.54-.46,14.25-.65l24-1c7.68-.3,15.51-1.08,23.2-.65a23.31,23.31,0,0,1,6.33.94c3.08,1.07,3.57,3,4.1,6.14a127.26,127.26,0,0,1,1.12,12.8q.8,12.33.56,24.69c-.08,3.76-.16,8.24-3.62,10.76-1.27.92-3.65,1.07-5.19,1.24-4.43.46-9,.35-13.43.48-16,.5-32.72,2.3-48.7.45-5.15-.6-8.26-2.44-8.75-8-.4-4.6-.4-9.28-.52-13.9-.26-9.93-.25-19.87,0-29.8,0-1.78-2.22-.09-2.25,1.12Z"/><path class="cls-2" d="M71.9,66.8c3.76-2.79,11.2-9.15,9.86-14.68a3.05,3.05,0,0,0-4.71-2.07c-2.68,1.39-4.14,5.42-5.44,7.87l1.53-1.23c-2.1-4.53-9-6.59-11.92-1.61-3.34,5.74,6.76,11,10.55,13.18.68.39,2.22-2.19,1.54-2.57-3.13-1.8-6.39-3.66-8.84-6.38l-1.38-1.77,1.07-2.68c.67-.36,2.28,0,2.91.21a7,7,0,0,1,4.33,4c.33.72,1.42-1,1.52-1.24A7.9,7.9,0,0,1,76.44,54c1.14-1.85,2.08-2.16,2.79-.94q2.3,2.17-.81,5.59C77,61,74.54,63,72.33,64.58c-.57.43-1.64,3.12-.43,2.22Z"/><path class="cls-2" d="M34.62,47.23C37.71,54.93,43.94,60,50,65.37A83.48,83.48,0,0,1,60,76.54c2.07,2.64,4.6,5.09,8.16,5.16S75,79.47,77.51,77C81.61,73,85.18,69.2,90,65.9c8.53-5.9,14.49-13.83,20.33-22.28,1-1.51-.5-2.41-1.53-.92-5.37,7.78-10.84,15.14-18.65,20.64a61,61,0,0,0-9.33,7.38c-3.89,4-8.25,10.54-14.8,7.42-3.29-1.56-5.14-5.49-7.36-8.2A62.78,62.78,0,0,0,52,63.27C46.15,58,39.76,53,36.72,45.48c-.57-1.43-2.52.72-2.1,1.75Z"/><path class="cls-2" d="M55.57,71.36A260.7,260.7,0,0,1,32.6,99c-1.15,1.2,0,3.16,1.34,1.73A266.84,266.84,0,0,0,57.39,72.45c1.09-1.52-.75-2.58-1.82-1.09Z"/><path class="cls-2" d="M87.23,67.84c1.83,5.67,6.11,10.83,9.27,15.83l10.86,17.16c.53.83,2.29-1.52,1.8-2.3L98.29,81.37c-3.16-5-7.43-10.15-9.27-15.83-.25-.76-2.09,1.39-1.79,2.3Z"/></g></svg>