<svg xmlns="http://www.w3.org/2000/svg" viewBox="0 0 141.82 141.73"><defs><style>.cls-1{fill:#a7c6c6;}.cls-2{fill:#0b3142;}</style></defs><title>Icon</title><g id="Icons_to_export" data-name="Icons to export"><path class="cls-1" d="M67.33,77.19a7,7,0,0,0-1.18,4.33l2.12-1.65a2.7,2.7,0,0,1-.61-2c.22-2-2.09-1-2.26.41-.25,2.14,1.11,3.23,3,3.92l.43-2.38a13.79,13.79,0,0,1-.44-1.36c0-.54-.09-.25.22-.06a3.31,3.31,0,0,1,.83.66,3.72,3.72,0,0,1,.83,1.49c.07.26.06,1.12.29.34.15-.53,0-.34-.49-.43l-1,2.75c1.92.31,3.57-.11,4.48-2s.83-3.63-1.1-4.59c-1.22-.61-2.27,1.44-1.74,2.38.38.68.91,1,.88,1.84,0,.63-.21,1.24-.21,1.88,0,1.1,1.27,1,1.76.29a4.84,4.84,0,0,0,1.11-3.32c-.1-1.81-2.37-.18-2.3,1.1l0,.55,1.76.29A13.92,13.92,0,0,0,73.8,79c-.15-.9-.79-1.42-1.22-2.18l-1.74,2.39c.45.22,1.26,1,.75,1.35A5.12,5.12,0,0,1,70,80.48c-1.25-.2-2.47,2.52-1,2.75a2.93,2.93,0,0,0,3.67-2.9c0-1.88-1.29-4.42-3.34-4.73-4.87-.72-3.85,9,.16,6.42.5-.32,1.37-2,.43-2.37-.66-.25-2.38-.77-2.26-1.76l-2.26.41a5,5,0,0,0,.93,3.77c.83,1.12,2.16-.85,2.12-1.65A3.39,3.39,0,0,1,69,78.21c.32-.47.52-1.44-.08-1.79s-1.31.3-1.62.77Z"/><path class="cls-1" d="M66.59,84.2c-.51,1.15-1.54,2.91-.26,3.93,1,.79,2.79.57,4,.58a1.71,1.71,0,0,0,1.56-1.21c.17-.45.21-1.54-.53-1.55a19.83,19.83,0,0,1-2.78-.12,2.26,2.26,0,0,0-.42-.09c-.12-.11-.15-.08-.1.1s0,.23,0,.06a5.39,5.39,0,0,0,.61-1.36c.25-.55.14-1.41-.54-1.55s-1.31.66-1.56,1.21Z"/><path class="cls-1" d="M51.89,114.19A32.57,32.57,0,0,0,47.56,90c-.75-1.19-2.61,1.13-1.94,2.2a30.17,30.17,0,0,1,4,22.42c-.39,1.93,2,.92,2.23-.42Z"/><path class="cls-1" d="M44,55.47a38.46,38.46,0,0,1,7.07-9.13l0-1.71a49,49,0,0,0-7.27,15.49l1.74-1.43A28.92,28.92,0,0,1,58.68,40.05c.62-.4,1.64-3,.87-2.5A35.35,35.35,0,0,0,43.77,60.12c-.32,1.48,1.58-.81,1.74-1.43a40.91,40.91,0,0,1,6-12.85c.22-.31,1.07-2.73,0-1.71a45.69,45.69,0,0,0-8.42,10.79c-.85,1.52,0,2.11.91.55Z"/><path class="cls-1" d="M92.69,53.8a28.75,28.75,0,0,1,4.78,12.07l2-1.81a24.21,24.21,0,0,1-.8-2.92c-.28-1.35-2.22.84-2,1.81a24.21,24.21,0,0,0,.8,2.92c.48,1.43,2.15-.93,2-1.81a30.09,30.09,0,0,0-4.95-12.52c-.67-1-2.44,1.39-1.85,2.26Z"/><path class="cls-1" d="M96.41,61.66A75.73,75.73,0,0,1,96.86,81c-.17,1.59,1.78-.52,1.87-1.34a77.75,77.75,0,0,0-.43-19.87c-.17-1.17-2,1-1.89,1.89Z"/><path class="cls-1" d="M96.6,110l.8.32c.85.35,1.64-.87,1.78-1.56A30.5,30.5,0,0,0,97.1,89.84c-.49-1.11-2,1.18-2,1.74l.67,16.67,2.07-1.5A189.86,189.86,0,0,1,96.15,83.9l-2.08,1.51,2,21,2-1.79L96.67,94.16c-.2-1.42-2.13.84-2.06,1.79.24,2.81.08,6.07.74,8.79.32,1.33,1,1.7.07,1.39-1-.38-3.16-3-3.58-3.43-.85-.94-2.24,1.21-2,2a27.07,27.07,0,0,0,2.27,4.92c.63,1.07,2-1.13,2-1.73a36.65,36.65,0,0,0-1.58-8.74c-.47-1.5-2.16.9-2,1.79a17.69,17.69,0,0,0,2.25,6.85c.64,1.15,1.94-1.23,2-1.73a27.6,27.6,0,0,0-1.65-12c-.53-1.44-2.26.85-2,1.79l3.44,15.7c.32,1.42,2.23-.8,2.06-1.79-.36-2-.91-6.31-3.22-7-.38-.11-.81.37-1,.6-2.11,2.22-3.41,5.93-4.84,8.6-.31.58-.53,2.38.67,1.64a21.06,21.06,0,0,0,4.49-3.77c.49-.54.93-2.76-.43-2A58.43,58.43,0,0,0,86,112.05c-.37.28-1.42,2-.56,2.3,3.18,1.13,6.39-1.84,8.67-3.77.91-.78,1-3.3-.44-2-1.64,1.39-4.29,4.09-6.68,3.24l-.55,2.3a52.74,52.74,0,0,1,5.64-3.77l-.44-2a12.14,12.14,0,0,1-3.44,2.86l.66,1.63c.64-1.19,2.19-5.7,3.34-6.26.56-1.66,1.09-1,1.57,1.88a16.17,16.17,0,0,1,.7,3.08l2.06-1.79L93.08,94l-2,1.79a26.6,26.6,0,0,1,1.61,11.46l2-1.73a17,17,0,0,1-2.07-6.39l-2,1.79A33.71,33.71,0,0,1,92,109.13l2-1.74a16.84,16.84,0,0,1-2.09-4.46l-2,2c1.5,1.65,3.17,3.68,5.26,4.52a.93.93,0,0,0,1-.27,3.88,3.88,0,0,0,1.45-3c.35-3.82-.69-8.19-1-12L94.61,96,96,106.37c.19,1.41,2.14-.82,2-1.79l-2-21c-.12-1.36-2.09.67-2.07,1.5a197.32,197.32,0,0,0,1.76,23.42c.21,1.39,2.11-.7,2.08-1.5l-.67-16.68-2,1.74a28,28,0,0,1,1.93,17.18L99,107.71l-.8-.32c-1.09-.45-2.54,2.17-1.55,2.57Z"/><path class="cls-2" d="M69.91,45.9c-11.53.75-20.06,9.87-20.78,21.28l1.53-2c-2.86.33-5.83,3.07-5.33,6.27.47,3,2.2,2.14,3.9,3.35s2.4,6.65,3.41,8.75c2.89,6,7.09,8.44,13.54,9.51,6.09,1,12.09,1.33,16.8-3.2,3.57-3.44,5.08-7.94,6.7-12.47,1.37-3.83,6.14-6.57,5.09-11.2-.7-3-3.63-3.86-4.92-6.68s-2-5.09-4-7.41a19.45,19.45,0,0,0-15-6.64c-.91,0-2.11,2.66-1.2,2.66a18.89,18.89,0,0,1,18,12.17c.12.31.77,3.53,1.33,4.1C91.44,67,95,66,91.25,71.76c-.86,1.31-1.86,2-2.5,3.62-1.58,3.9-2.09,8.07-4.86,11.45C79.68,92,73.24,91.41,67.38,90.41c-4.31-.74-7.91-1.66-10.68-5.31A25.9,25.9,0,0,1,52,72.31c0-.16-.12-.42-.34-.38a2.12,2.12,0,0,1-2.64-.6q-3.3-1,.45-3.5c.78-.09,1.49-1.29,1.54-2,.63-9.95,8-16.65,17.71-17.27.92-.06,2.07-2.71,1.2-2.66Z"/><path class="cls-2" d="M73.19,49.72c-2-1.52-5.3-4.12-5.27-7q3.08-5,1.9-2.37c-.16.94-.83,1.24-2,.92-1.08-.17-4.4-3.69-2.71-5,.71-.55,1.5-3.33.22-2.35-2.77,2.13-3.47,6.65-.57,9.17,2.54,2.2,8-.42,8-3.83,0-4.33-4.93-1.72-6.06.47-2.59,5,1,9.67,4.89,12.59.77.57,2.4-1.94,1.55-2.57Z"/><path class="cls-2" d="M68.6,83a4.53,4.53,0,0,1-2.55-3.46c-.32-2.88,2-3.44,4.25-2.85A4.59,4.59,0,0,1,73.8,80c.67,3.19-3.15,3-5,2.52-.64-.18-1.56,1.57-.75,1.8,2.86.78,6.07,0,7-3.14A5,5,0,0,0,71.56,75c-2.74-.9-5.16-.26-6.36,2.47a5.49,5.49,0,0,0,2.36,7.21c.66.35,1.67-1.37,1-1.72Z"/><path class="cls-2" d="M72.14,78.27a2.34,2.34,0,0,0-3.17-.2c-1.08.84-1.65,2.49-.5,3.51a2.72,2.72,0,0,0,3.61,0c.88-.84,1.38-2.79-.2-3.15-.69-.15-1.58,1.62-.75,1.81a.44.44,0,0,1,.36.27c.1-.11.08-.14,0-.08a1.59,1.59,0,0,1-.75,0,2.1,2.1,0,0,1-1.3-.68c-.18-.24-.07-.41-.28-.21a1,1,0,0,1,.49-.19,1.53,1.53,0,0,1,1.3.43c.59.62,1.72-1,1.24-1.51Z"/><path class="cls-2" d="M68.05,81.59a21.42,21.42,0,0,0-1.22,3,6.14,6.14,0,0,0-.51,2.32c.07.6.31.77.87.84a20.5,20.5,0,0,0,3.5-.09c1.37-.06,2.92,0,3.06-1.76a4.45,4.45,0,0,0-.7-2.14c-.52-1.07-1-2.13-1.57-3.19-.31-.63-1.53.9-1.23,1.51l1.19,2.4c.25.5,1.11,1.71.94,2.31l.69-1a7.77,7.77,0,0,1-2.08.1,13,13,0,0,1-2.57.07c-.53-.1-.67-.06-.62-.76a4.65,4.65,0,0,1,.29-1,17.92,17.92,0,0,1,1.06-2.52c.14-.28.24-.83-.16-.92s-.8.61-.94.88Z"/><path class="cls-2" d="M61.25,62.12c-2.4-.4-4.3,1.82-4.69,4-.54,3,2.36,5.88,5.32,5.92,2.22,0,4-2.33,4.38-4.34.7-3.7-2.82-5.93-6-6.24-.56,0-1.17,1.7-1,1.72a7.42,7.42,0,0,1,4.39,1.68c1.54,1.39,2.68,4.93-.28,5.43a5.64,5.64,0,0,1-4.2-1.65,4.5,4.5,0,0,1-1.39-2.3c-.39-1.9.9-2.82,2.5-2.55.54.09,1.21-1.68,1-1.71Z"/><path class="cls-2" d="M80.6,62c-2.83-.74-5.07.06-6.29,2.81a5.43,5.43,0,0,0,2.7,7,4.4,4.4,0,0,0,6.12-2.54c1.23-3.05-.91-5.54-3.09-7.43-.29-.25-1.44,1.36-1,1.72a9.32,9.32,0,0,1,3,3.74c.45,1.3.28,2.8-1.26,3.18a4,4,0,0,1-2.52-.27A5.54,5.54,0,0,1,75.2,66.9c-1-3.35,2-3.78,4.37-3.17.56.14,1.35-1.63,1-1.72Z"/><path class="cls-2" d="M61.55,64.14c.35-.33.66-1.07.3-1.51s-1.31-.35-1.8-.19a2,2,0,0,0-1.21,2.91A6.2,6.2,0,0,0,61,66.92c.36.21.72.41,1.07.64a4.35,4.35,0,0,1,1,1c1.15,1.28,2.4-.53,2.5-1.67.13-1.31-1.42-.68-1.51.27-.05.53.29.09.25-.18s-.27-.37-.38-.49a6.68,6.68,0,0,0-1.36-.93c-.54-.32-1.09-.61-1.61-1a6.14,6.14,0,0,0-.59-.45c-.39.08-.44.11-.16.07a.4.4,0,0,0,.33-.11l.32-1.13-.09.08c-.79.76-.12,2,.83,1.12Z"/><path class="cls-2" d="M80,62c-1.34-.15-2.64-.06-3.5,1.11a2.14,2.14,0,0,0,.24,3A8.26,8.26,0,0,0,78.6,67a8.34,8.34,0,0,1,2.15,1.53A1.36,1.36,0,0,0,83.18,68c.46-1.24-1-1.23-1.38-.21l-.08.2.65-.74c-.17.1-1.05-.87-1.24-1a7.8,7.8,0,0,0-1.66-1,5.24,5.24,0,0,1-1.62-.81c-.88-.88,1-.67,1.46-.62.86.1,1.65-1.72.69-1.83Z"/><path class="cls-2" d="M80.85,69.51l0,.2,1.18-1a6.13,6.13,0,0,1-2.74-2.11c-.54-.73-1.5.93-1.25,1.5s.53,1.17.82,1.74L80,68.18l-2.32-2.07c-.52-.47-1.5,1.12-1.14,1.61l1.27,1.68L79,67.79l-1.79-1.35c-.65-.5-1.33,1.14-1.13,1.6a3.85,3.85,0,0,0,.79,1.2c.6.61,1.68-.95,1.25-1.5a8.57,8.57,0,0,1-1.67-3.62c-.1-.45-.59-.3-.83-.08-1.38,1.22-1.16,3.13-.3,4.62a5.27,5.27,0,0,0,5.08,2.52c.72-.07,1.48-1.88.74-1.81a4.76,4.76,0,0,1-3.44-.9,4.52,4.52,0,0,1-1.14-1.32,7.8,7.8,0,0,1-.65-1.76l-.83-.08a9.51,9.51,0,0,0,1.79,3.93l1.25-1.5a3.71,3.71,0,0,1-.8-1.2l-1.14,1.61L78,69.5c.58.44,1.5-1.13,1.14-1.61l-1.27-1.68-1.14,1.61L79,69.89c.58.52,1.37-1.13,1.14-1.6s-.56-1.15-.81-1.74l-1.25,1.5a6.74,6.74,0,0,0,3,2.32c.57.24,1.08-.59,1.18-1a1.52,1.52,0,0,0,0-1c-.31-.93-1.59.54-1.36,1.19Z"/><path class="cls-2" d="M59.57,66.08A6,6,0,0,1,59.2,64c0-1.13-1.3.25-1.32.86l0,1.15,1.31-1v-.6c.37-1.14-.91-.39-1.15.21-.63,1.59-1,4.23,1.29,4.56.55.07,1.17-1,1-1.51a9.75,9.75,0,0,0-.7-1.89c-.33-.66-1.37.93-1.26,1.37.19.78.79,3.08,2,2.52A1.83,1.83,0,0,0,61,66.79c-.53-.6-1.48,1-1.21,1.52A4.82,4.82,0,0,0,61.2,70c.38.29,1-.62,1-.85.35-1,.35-2-.66-2.6-.56-.33-1.3,1-1.17,1.47a5,5,0,0,0,1.68,2.5c.57.45,1.18-1.14,1.17-1.47a3.64,3.64,0,0,0-.58-1.93l-1.22,1.52c.41.51.82,1,1.25,1.52s1.12-.64,1.22-1l-.08.11-.61.21c.42-.18.49-.26.21-.25a1,1,0,0,1-.6-.21,3.28,3.28,0,0,1-.76-.68,14.09,14.09,0,0,1-1.48-2c-.39-.6-1.57,1-1.21,1.52.78,1.21,2.31,3.79,4.11,2.94,1-.48,1.93-2.33.76-3.08-.19-.13-.48.08-.61.21a3.53,3.53,0,0,0-1,1.62l1.22-1c-.42-.5-.84-1-1.24-1.52s-1.54,1-1.22,1.52A2.9,2.9,0,0,1,62,70.31l1.17-1.48a4,4,0,0,1-1.4-2l-1.17,1.47c.23.13.74.53.62.87l1-.85A4.15,4.15,0,0,1,61,66.79l-1.21,1.52a2,2,0,0,1,.37.5l.52-.87-.2.21.48-.24c-.69.07-1.12-1.6-1.23-2l-1.26,1.37a8.16,8.16,0,0,1,.62,1.6l1-1.51c-1.42-.19-1.42-1.7-1-2.75l-1.15.21a2.53,2.53,0,0,0-.09,1.39c.18.91,1.29-.64,1.31-1l0-1.15-1.32.86a8.08,8.08,0,0,0,.48,2.75c.21.58,1.44-.89,1.21-1.52Z"/><path class="cls-2" d="M61.58,91.09l13.1,13.44c3.93,4,7.77,8,9.21,13.65.24,1,1.58-.45,1.4-1.17-1.3-5.12-4.5-8.93-8.1-12.68-4.75-5-9.57-9.82-14.35-14.73-.63-.65-1.79,1-1.26,1.49Z"/><path class="cls-2" d="M69.1,99.06l4.62-5.54c.2-.24.74-.89.6-1.24s-.35-.2-.58.07L69.12,97.9c-.19.23-.73.89-.6,1.23s.35.21.58-.07Z"/><path class="cls-2" d="M101.06,108.28c-1.29-8.45-2.94-16.6-1.53-25.14a85.64,85.64,0,0,0,1.25-20.84c-.53-6.86-2.17-12.44-7.53-17s-11.64-8.16-18.42-9.56C64,33.54,52.46,38.47,46.05,47.43s-7.23,22.88-5.32,33.35c1.06,5.79,3.21,11.35,4.82,17a61.39,61.39,0,0,1,2.38,11,19.51,19.51,0,0,1,0,5.81c-.41,1.8.13,1.07-1.42,2.48-2.38,2.16,0-3,1,.85.07.26,1.27-1,1.13-1.57-.74-2.82-3.6-2.72-4.78-.31-1.31,2.7,1.23,5.24,3.63,2.91s1.84-8.54,1.55-11.56c-.55-5.77-2.48-11.41-4.17-16.92-5.15-16.77-7.49-39.77,10.33-49.92C62.88,36.17,71.33,36,79.42,39.2,86.17,41.9,94.56,47,97.65,53.83c4,9,2.31,21,.77,30.39-1.45,8.76.18,16.93,1.5,25.63,0,.21,1.22-1,1.14-1.57Z"/><path class="cls-2" d="M53.4,120.57c11.45,1.85,24,1.75,34.86-2.69,9.88-4,17.38-12.22,22.46-21.41,5.17-9.35,8.49-19.85,7.13-30.58-1.6-12.65-7.25-25-17.11-33.32-4.68-3.93-10.7-6.2-16.35-8.36s-10.92-3.42-17-2.77c-7.24.78-15.53,2.49-22.1,5.8-5.81,2.92-12,9.3-15.78,14.63-4.66,6.66-6,16-7,23.84a74.22,74.22,0,0,0,.16,21.92c1.76,10.11,8.28,24.48,18.86,28.1.74.25,1.67-1.5,1-1.72C34,111.07,27.86,100,25.38,91.84A56.64,56.64,0,0,1,23.24,73.2a85.23,85.23,0,0,1,4.08-24C29.79,42,35.09,36.86,40.81,32c4.87-4.13,11-5.68,17.15-7.16A56.2,56.2,0,0,1,70.33,23c5.78-.08,11.2,2.14,16.47,4.31,10.57,4.35,19.51,11.18,24.46,21.81,5.61,12.05,7.25,25.13,2.63,37.73C109.4,99.09,101.13,111,88.68,116.12c-10.8,4.41-23.17,4.49-34.53,2.65-.7-.11-1.57,1.67-.75,1.8Z"/></g></svg>