<svg xmlns="http://www.w3.org/2000/svg" viewBox="0 0 141.82 141.73"><defs><style>.cls-1{fill:#a7c6c6;}.cls-2{fill:#0b3142;}</style></defs><title>Icon</title><g id="Icons_to_export" data-name="Icons to export"><path class="cls-1" d="M85.43,130.16l-1-.39-1.41,2.6,4.31.56c.65.08,1.93-2.43,1.4-2.59a6,6,0,0,1-1.89-.78l-1.54,2.57L94,133.48c.73.11,2.11-2,1.55-2.57l-1.66-2.33L92.27,131l5.3,1.3c.77.19,2-2,1.55-2.57a27.54,27.54,0,0,0-2.92-3.19l-1.54,2.58,6.54,2.65c.69.29,2.06-2.05,1.54-2.57a88.25,88.25,0,0,0-7.43-6.64l-1.55,2.57,9.9,7.23c.55.4,2-2,1.55-2.57l-9.88-11.41L93.78,121l8.11,6.24c.52.4,2-2,1.55-2.57a130,130,0,0,1-9-11.07L92.86,116l7.19,4.52c.58.36,2-2,1.63-2.46A83.25,83.25,0,0,0,94,107.83l-1.54,2.57L97,112.9c.6.34,2-2,1.63-2.45q-2.77-3.75-5.44-7.57l-1.63,2.46,3.4,1c.69.21,2-1.89,1.63-2.46l-3.46-5.74-1.63,2.46c1.35.22,2.25-.8,2.72-2a2.89,2.89,0,0,0,.23-1.91c-.16-1-1.07-1.89-1.51-2.83a13.63,13.63,0,0,1-1.2-6.11c0-.89-1.76,1.24-1.76,2a14.77,14.77,0,0,0,.64,5A12.23,12.23,0,0,0,92,97.65c.26,1.07.6,1.21,1,.43-.69-.12-2,1.84-1.63,2.45l3.46,5.75,1.63-2.46-3.4-1c-.67-.21-2,1.92-1.64,2.46q2.68,3.81,5.44,7.56l1.63-2.46L94,107.83c-.64-.36-2,2-1.54,2.57a82.25,82.25,0,0,1,7.49,10l1.63-2.46-7.19-4.51c-.58-.36-2,2-1.63,2.46a133.65,133.65,0,0,0,9.12,11.3l1.55-2.57-8.11-6.24c-.52-.41-2,2-1.55,2.57l9.88,11.41,1.55-2.57-9.9-7.23c-.52-.38-2.16,2.09-1.55,2.57a88.38,88.38,0,0,1,7.44,6.64l1.54-2.57-6.54-2.66c-.68-.27-2.08,2.07-1.54,2.58a26.58,26.58,0,0,1,2.91,3.18l1.55-2.57-5.3-1.3c-.73-.17-1.94,1.85-1.64,2.46A5.36,5.36,0,0,0,94,133.48l1.55-2.57-8.68-1.35c-.69-.1-2.19,2.24-1.54,2.57a5.6,5.6,0,0,0,1.89.78l1.4-2.6-4.3-.56c-.62-.08-2,2.37-1.41,2.59l1,.39c.75.3,2.11-2.35,1.55-2.57Z"/><path class="cls-1" d="M83.6,35.86c5.55-.92,5.58,7.2,6.43,10.72.39,1.59,2.56-.4,2.25-1.67C91.19,40.43,90.86,32,84,33.09c-1.29.21-2.07,3-.42,2.77Z"/><path class="cls-1" d="M47.25,29a47.85,47.85,0,0,0,8,1.94c.82.16,3.11.24,3.63.85,1,1.21.5,4.3.5,5.77,0,.92,1.78-1.21,1.78-1.95a28,28,0,0,0,0-5c-.28-1.49-1.16-1.56-2.62-1.88-3.27-.7-6.57-1.1-9.72-2.28-.79-.3-2.12,2.35-1.54,2.57Z"/><path class="cls-1" d="M58.13,30.37A20.79,20.79,0,0,1,56.66,38c-.72,1.84,1.49,1.82,2.08.32a25,25,0,0,0,1.71-9,.82.82,0,0,0-1.22-.74,2,2,0,0,0-1.1,1.82Z"/><path class="cls-1" d="M47,10.86l.19-1c.12-.6-.5,0-.63.07a3.84,3.84,0,0,0-1,1.7l-.39.74.52-.13a3.08,3.08,0,0,1-.34-1.89l-1.67,2.2c.34,2.27,1.23,6.06,3.75,6.87.69.23,1.92-2.45,1.55-2.57-2.48-.8-3.29-4.41-3.63-6.68-.07-.43-.82.47-.85.51a3.73,3.73,0,0,0-.83,1.69,3.86,3.86,0,0,0,.35,2.24c.13.26.41,0,.53-.13a10.17,10.17,0,0,0,2.58-4.38l-1.62,1.77-.19,1c-.13.65.62-.07.74-.19A3.94,3.94,0,0,0,47,10.86Z"/><path class="cls-1" d="M49.67,20.27l1,.8c.55.44,1.81-2,1.63-2.46L52,17.86,50.4,20.32a17.29,17.29,0,0,1,4.39,3.1c.5.48,1.77-2,1.63-2.46a20.42,20.42,0,0,0-3.32-6.18l-1.49,2.47c.56-.1.75.68,1.36.48a3,3,0,0,0,1.51-2.29,14.34,14.34,0,0,0-1-4.21l-1.63,2.45c1.66.64,2.77,1.48,3.93-.18S56.49,10.69,56,9l-1.11,2.25c.23-.18,3.07.39,3.63.34a9.19,9.19,0,0,0,3.11-.94c.63-.3,1.74-2.86.92-2.47a8.2,8.2,0,0,1-5.28.58c-.88-.14-1.13-.26-1.86.33-.52.4-1.31,1.55-1.12,2.25,0,.07.5,1.72.86,1.27l.83-.72a6.08,6.08,0,0,1-2.58-.81c-.75-.28-1.78,1.9-1.63,2.46a14.1,14.1,0,0,1,.94,3.84l1.51-2.29c-.45.15-.81-.57-1.36-.48S51,16.56,51.39,17.12a20.54,20.54,0,0,1,3.32,6.18l1.63-2.46a17.55,17.55,0,0,0-4.4-3.09c-.68-.34-1.82,1.94-1.63,2.46l.28.75,1.63-2.46-1-.8c-.46-.37-2.16,2.09-1.55,2.57Z"/><path class="cls-1" d="M53,12.94a5.19,5.19,0,0,0,.68,2.88l1.22-2.47c-.17.06-.13.07-.21,0l-1.22,2.47A5.65,5.65,0,0,0,57.9,12c.18-.51.24-1.4-.47-1.51s-1.33.67-1.53,1.24a1.37,1.37,0,0,1-.61.85,2.66,2.66,0,0,1-1.31.47c-.89.11-1.81,1.69-1.22,2.47a1.44,1.44,0,0,0,1.63.53,1.89,1.89,0,0,0,1.22-2.47,3.15,3.15,0,0,1-.36-1.78.76.76,0,0,0-1.16-.7A2.14,2.14,0,0,0,53,12.94Z"/><path class="cls-1" d="M57.87,12.87a1,1,0,0,1-.18.27l.11-.09h0a.59.59,0,0,1,.43-.08,1.67,1.67,0,0,0,1.57-1.2c.18-.5.18-1.5-.55-1.56a3.58,3.58,0,0,0-3.51,2.31c-.25.53-.12,1.43.56,1.55s1.3-.63,1.57-1.2Z"/><path class="cls-1" d="M60.07,11.55l2.16.52c.23.06.6-.22.75-.36a2.75,2.75,0,0,0,.66-1c.19-.45.36-1.23-.27-1.38l-2.16-.52c-.23-.06-.6.22-.74.35a2.88,2.88,0,0,0-.67.95c-.19.46-.36,1.23.27,1.39Z"/><path class="cls-1" d="M62.22,12.88,59.8,20.15c-.16.5,0,1.08.58,1s1.1-1.09,1.28-1.63l2.42-7.26c.16-.51,0-1.09-.58-1s-1.1,1.1-1.28,1.63Z"/><path class="cls-1" d="M55.9,16.88l-2-2.76c-.71-1-2.48,1.4-1.86,2.26l2,2.75c.71,1,2.48-1.39,1.86-2.25Z"/><path class="cls-1" d="M54,129.73a200.7,200.7,0,0,0,2.66-26.8c0-1.1-1.77,1-1.84,1.64a43.92,43.92,0,0,0-.29,6.07c0,1.14,1.79-1.08,1.85-1.64a58.85,58.85,0,0,1,1.27-8l-1.52,2,1.05-.27c.7-.18,2-1.71,1.49-2.48a18.28,18.28,0,0,0-4.11-4.78L53,98a14.85,14.85,0,0,0,4.39,2c.76.22,2.18-1.82,1.66-2.44a28.13,28.13,0,0,0-3.61-3.63L53.93,96.5a14,14,0,0,0,4.47.58c.81,0,2-2,1.38-2.61a22.47,22.47,0,0,0-6.16-4.9l-1.55,2.58a47.39,47.39,0,0,0,8.47,3.58c.77.24,2.15-1.82,1.66-2.44a39.92,39.92,0,0,0-5.45-5.73L55.2,90.13l5.26,2.07c.91.36,1.85-1.78,1.65-2.44a23.56,23.56,0,0,0-2-4.85l-1.65,2.44L60.52,89c.67.55,1.95-1.86,1.66-2.44a21,21,0,0,0-3.41-4.88l-1.55,2.57L61,85.63c.91.33,1.88-1.76,1.66-2.44a28.09,28.09,0,0,0-2.39-5.41l-1.49,2.48,1.51,0c.87,0,1.71-1.74,1.49-2.48l-2-6.53c-.23-.77-1.92,1.46-1.81,2.11a8.17,8.17,0,0,0,.78,2.86c.37.91,1.76-1.51,1.8-1.85A14.63,14.63,0,0,0,60.33,69l-1.7,2.24c.93.24,1.41.7,2.35.52s1.42-1.27,1.53-2a11.65,11.65,0,0,0-1-5.34c-.32-.9-1.83,1.62-1.82,2.11a4.43,4.43,0,0,0,1.13,3.14c.65.81,1.74-1.38,1.8-1.84.43-3,1.25-6.09-.8-8.66s-6.26-4.13-9.14-5.44c-.82-.38-2.27,2.23-1.54,2.57A64.77,64.77,0,0,0,57.7,59c.83.28,2.29-2.17,1.55-2.57-3.27-1.74-9-4.78-12.33-2-.59.49-1.54,3.24-.36,2.26C49.47,54.3,55,57.54,57.7,59l1.55-2.57a64.94,64.94,0,0,1-6.59-2.68l-1.54,2.57a40.35,40.35,0,0,1,6.36,3.38,11.65,11.65,0,0,1,3.44,3,20.05,20.05,0,0,1-.15,6.56l1.8-1.85a3.16,3.16,0,0,1-1-2.73l-1.81,2.1a13.25,13.25,0,0,1,1,4.4l1.52-2a13.73,13.73,0,0,1-2-.45c-.83-.21-1.86,1.54-1.71,2.24a9.71,9.71,0,0,1,.25,4.79l1.8-1.85-.69-2.44L58,73.54l2,6.52,1.5-2.47-1.52,0c-.75,0-1.87,1.8-1.49,2.48a28,28,0,0,1,2.39,5.4l1.66-2.44-3.74-1.38c-.87-.31-2.14,1.93-1.55,2.57a18.49,18.49,0,0,1,3.19,4.63l1.66-2.45L60,84.78c-.66-.53-2,1.86-1.66,2.44a23.79,23.79,0,0,1,2,4.85L62,89.63l-5.25-2.07c-.83-.33-2.22,2-1.55,2.57a37.08,37.08,0,0,1,5.23,5.47l1.66-2.44a46.42,46.42,0,0,1-8.47-3.59c-.77-.41-2.29,2.17-1.55,2.58A22.33,22.33,0,0,1,58.24,97l1.38-2.61a9.28,9.28,0,0,1-4.14-.5c-.83-.23-2.25,2-1.55,2.57a17.74,17.74,0,0,1,3.39,3.37L59,97.43a15.57,15.57,0,0,1-4.4-2c-.71-.45-2.22,2-1.54,2.57a17.86,17.86,0,0,1,3.88,4.52l1.5-2.48-1.06.28c-.84.21-1.34,1.23-1.52,2a60.29,60.29,0,0,0-1.27,8l1.84-1.64a27,27,0,0,1,.26-5.53l-1.85,1.64a197.94,197.94,0,0,1-2.63,26.27c-.25,1.52,1.7-.61,1.83-1.38Z"/><path class="cls-1" d="M64,70.92l-.15-2.32-2,.48a61,61,0,0,1-.77,10.36l2.14-.84.44-10.52-2.18,1.17c.13,4.85.13,9.7-.07,14.54s.49,12.72-2.68,16.68c-1,1.18-.2,3.13,1.06,1.57,2.75-3.44,3-7.41,3.33-11.67a209.84,209.84,0,0,0,.54-22.29c-.05-1.82-2.14.09-2.18,1.17L61,79.77c-.07,1.7,2,.08,2.13-.84a63.47,63.47,0,0,0,.84-11c0-1.59-1.75-.27-2,.49a5.06,5.06,0,0,0-.07,4.27c.59,1.44,2.53-.72,2.11-1.75Z"/><path class="cls-1" d="M58.55,99A69.69,69.69,0,0,0,55.23,121c0,1.76,2.19,0,2.18-1.17a65.35,65.35,0,0,1,3-20.68c.6-1.89-1.42-1.69-1.9-.21Z"/><path class="cls-1" d="M37.86,62.74c-.08-2.6,1.75-4.24,3.48-5.91.64-.61,1.36-3.12,0-1.79-2.68,2.58-5.38,5.68-5.27,9.63,0,.67.69.14.92-.07a2.9,2.9,0,0,0,.89-1.86Z"/><path class="cls-1" d="M64.53,127.79q3-9.21,6.51-18.26c.72-1.86-1.3-1.61-1.85-.19q-3.5,9.06-6.52,18.27c-.62,1.89,1.37,1.65,1.86.18Z"/><path class="cls-1" d="M75.29,64.33c-3.67,4.82-.71,12.29,2.07,16.84.45.74,2.21-1.58,1.76-2.31a25.51,25.51,0,0,1-2.66-5.76c-.51-1.62-1.84-5.87-.6-7.5.78-1,.67-2.9-.57-1.27Z"/><path class="cls-2" d="M48.62,50.91c-3.89,1.72-11.07,4.32-12.55,8.92-1,3,.2,6.8.77,9.81.87,4.68,2,9.31,3,14s1.75,9.26,3,13.74a12.43,12.43,0,0,0,1.79,4.22,8.58,8.58,0,0,0,2,1.93,7.38,7.38,0,0,1,1.28,4.88c.68,5.22.44,10.73.65,16,.11,2.61-.87,7.79,1.2,9.75.43.41,2.18-2,1.54-2.57-1.89-1.8-1-10.46-1.11-13.12-.16-4-.29-8-.49-12-.1-2-.07-3.38-1.09-5S46.07,99,45.27,97.15A25.26,25.26,0,0,1,44,92.6Q41.64,81.79,39.31,71c-.65-3.09-3-9.33-1.19-12.18,1.5-2.31,7.23-4.31,9.62-5.36.68-.3,1.79-2.9.88-2.5Z"/><path class="cls-2" d="M49.11,52.49a84.7,84.7,0,0,1,11.33,3.59c2,.79,2.86.82,3.37,3.37.32,1.65-.07,4.19-.1,5.87-.19,9-.51,18.06-1,27.07-.33,5.83-4.61,10-5.52,15.94C56,116.26,55,124.25,54,132.21c-.2,1.55,1.74-.58,1.85-1.37l1.83-13.77c.65-4.89.49-11.5,3.16-15.78C62,99.41,63.45,98.16,64,95.92c.76-2.87.56-6.13.7-9.06.46-9.11.87-18.23.91-27.35,0-2.68.28-4-2.09-5.37C59.8,52,54.82,51,50.66,49.92c-1-.24-2.21,2.4-1.55,2.57Z"/><path class="cls-2" d="M43.51,28.33c-.31,6.22-1.83,17.81,3.42,22.54,4.67,4.21,7.94-2.07,9.74-5.57a72.58,72.58,0,0,0,4.09-9.61c.55-1.61,3-6.64,2-8.3-1.26-1.95-8-1.6-10.25-1.78-3.35-.27-12.23,1.28-12.83-2.86l-1.49,2.48a115.21,115.21,0,0,1,14.27-.59c3,.05,13.42-1.13,13.73,2.93l1.5-2.48-2.91.68c-.78.19-1.64,2.67-1.31,2.6l2.91-.69c.76-.18,1.55-1.77,1.5-2.48-.33-4.14-7.44-2.95-10.31-3.05a126.92,126.92,0,0,0-18.08.49c-.72.07-1.58,1.84-1.49,2.47l.4,2.77a.15.15,0,0,0,.19.12,104.86,104.86,0,0,1,17,.66c3.07.38,5.66-.24,5.18,3.44-.39,3-1.88,6.23-3,9-1.29,3-3.62,8.69-7.61,8.23C47.87,49,46.79,45.84,46.24,44c-1.72-5.7-1.33-11.84-1-17.71,0-.75-1.66,1.32-1.69,2Z"/><path class="cls-2" d="M45,22.25c-.89-2-.59-4.33-.6-6.53,0-1.16-.56-4.06,0-5.06,1.41-2.5,8.19-1.85,10.34-1.76s4.42.15,6.61.34c2.89.25,2.56,1.21,2.27,4-.41,3.86-1.5,7.76-2.24,11.57-.13.64,1.55-1.34,1.68-2,.61-3.12,1.23-6.23,1.82-9.35.29-1.46,1.47-4.66.55-6.08s-4.59-.8-6.08-.88c-3.07-.16-6.29-.54-9.34,0s-5.89,2-7,4.92c-.58,1.55-.33,3.31-.32,4.93,0,2.66-.46,5.86.61,8.32.18.4,2-1.67,1.68-2.37Z"/><path class="cls-2" d="M43.94,20.27a23.3,23.3,0,0,0,4,3.18c1,.61,2-1.76,1.69-2.42a32.76,32.76,0,0,0-2.9-5.69l-1.82,2.28a27.94,27.94,0,0,0,5.39,6.19c.74.64,1.92-1.63,1.76-2.2a49.86,49.86,0,0,0-4.23-9.54L46,14.35A60.69,60.69,0,0,0,51.84,21c.75.74,1.8-1.73,1.76-2.21A19.45,19.45,0,0,0,52,12.61l-1.5,2.48a13.15,13.15,0,0,1,3.24.48c.88.24,2.29-2.37,1.16-2.68a13.15,13.15,0,0,0-3.24-.48c-.93,0-1.84,1.69-1.49,2.48a17.6,17.6,0,0,1,1.51,5.74l1.76-2.2a58.3,58.3,0,0,1-5.6-6.36c-.71-.93-2.26,1.47-1.82,2.28a48.22,48.22,0,0,1,4.08,9.1l1.76-2.21a26.71,26.71,0,0,1-5.12-5.9c-.58-.91-2.35,1.44-1.82,2.28a32.72,32.72,0,0,1,2.89,5.69l1.69-2.43a22.91,22.91,0,0,1-4-3.18c-.61-.62-2.32,1.79-1.55,2.57Z"/><path class="cls-2" d="M49.6,11.76l2,1.24c1,.64,1.87-1.51,1.79-2.18a7.47,7.47,0,0,1-.16-1.49l-1.31,1.6a14.72,14.72,0,0,1,3.91.17l3.79.23c1.09.06,2.33-2.63,1.12-2.71l-4.55-.27a12.77,12.77,0,0,0-3.65-.07A2.17,2.17,0,0,0,51.2,9.89a9.57,9.57,0,0,0,.11,2.72l1.8-2.18-2-1.25c-1-.6-2.52,2-1.55,2.58Z"/><path class="cls-2" d="M45.56,11.63a13.39,13.39,0,0,1,7.29-.31c.8.19,1.94-2.48,1.55-2.57A13.84,13.84,0,0,0,46.85,9c-.56.18-1,.92-1.22,1.42-.05.12-.53,1.33-.07,1.18Z"/><path class="cls-2" d="M47.1,12.45a13.67,13.67,0,0,1,2,3.76c.46,1.41,2.4-.77,2.06-1.78A14.75,14.75,0,0,0,49,10.2c-.75-1-2.53,1.36-1.87,2.25Z"/><path class="cls-2" d="M75,35.6a67.62,67.62,0,0,0,2.84,10.55c.86,2.35,1.77,5.49,4,7,4.11,2.8,8.09-1.72,9.84-5.14a16.16,16.16,0,0,0,.64-13.41c-1.24-2.94-2.24-3-5.36-3.3a23,23,0,0,0-9.64,1c-1,.37-1.94,3.17-.56,2.69a18.85,18.85,0,0,1,6.38-1.1c1.36,0,4.27-.22,5.47.45,3,1.71,3,7.57,2.32,10.49s-3.39,8.39-7.55,5.75c-1.87-1.18-2.68-4.24-3.39-6.15a66.53,66.53,0,0,1-2.84-10.55c-.27-1.45-2.31.66-2.11,1.75Z"/><path class="cls-2" d="M82.93,25.91c-2.43-3.24-6.32-2-8.51.86-2.83,3.74-3.18,9.29-2.44,13.72.63,3.84,2.12,7.46,2.38,11.37.2,3-.94,6.44,0,9.34.43,1.39,1.7,2.34,2.14,3.66.67,2,.19,4.37,0,6.4-.18,2.31-.39,4,1.19,5.86.77.91,2.48-1.51,1.84-2.27-2.7-3.24.45-7.13-.58-10.79a13.24,13.24,0,0,0-1.41-2.62c-1.46-2.74-1.26-5-1.13-7.94a35.66,35.66,0,0,0-1.36-10.27,30.44,30.44,0,0,1-1.38-8.31c.08-3.34,3.37-12.13,7.42-6.74.7.93,2.44-1.46,1.84-2.27Z"/><path class="cls-2" d="M81.79,29.52c2.12-6.77,7.2-7.29,10.49-2.6a15.09,15.09,0,0,1,2.35,9c0,2.23-1,4.68-.82,6.86.12,1.18.41,1.22.88,2.37,1.54,3.78.72-3.53,1.33,3.67.36,4.28-2.37,7.87-1.53,12.41.37,2,.9,3.13.73,5.33a25.46,25.46,0,0,1-1.08,4.82,6,6,0,0,0,.12,4.19c.19.47,2-1.61,1.7-2.36-1.31-3.3,1.7-6.44,1.49-9.74-.13-2.06-1.23-3.88-1.35-6-.17-2.91,1.23-5.32,2.11-8s.81-3.84-.87-6c-1.83-2.31-1.77-1.48-1.38-5.31a40.7,40.7,0,0,0,.39-5.74C96.17,28,93.6,19.75,87.47,21.31c-4.25,1.09-6.17,6-7.33,9.69-.41,1.33,1.47-.89,1.65-1.48Z"/><path class="cls-2" d="M79.26,31.22c.16-.59,3-.92,3.6-.95a8.35,8.35,0,0,1,3.43.58c1.92.73,3.48,2.15,5.34,3l1.54-2.57a18.22,18.22,0,0,0-3.76-1.17c-1.59-.28-3.49.08-5-.66l-.28,2.05c2.36-2.62,6.54,1.34,8,2.91.9,1,2.61-1.43,1.88-2.24a45.24,45.24,0,0,1-5.13-6.11l-1.49,2.48a4,4,0,0,1,4.11,2.08l1.71-2.41-4-2.77c-1-.66-2.47,1.83-1.55,2.57a14.42,14.42,0,0,1,4.66,6.45c.53,1.41,2.45-.77,2.08-1.77a16.25,16.25,0,0,0-5.19-7.25L87.75,28l4,2.77c1,.69,2.16-1.65,1.71-2.41a4.9,4.9,0,0,0-4.89-2.54c-.94.08-2.05,1.55-1.49,2.48a45.16,45.16,0,0,0,5.13,6.1l1.88-2.24c-2.86-3.06-7.4-6.07-10.89-2.2-.31.35-1,1.69-.27,2.05a7,7,0,0,0,3.3.59,15.68,15.68,0,0,1,5.43,1.24c1.09.46,2.58-2.08,1.54-2.57-3.51-1.64-5.92-4.17-10.12-3.66-2.65.32-5.12,1.42-5.83,4.11-.5,1.9,1.74.64,2-.53Z"/><path class="cls-2" d="M92,35.71c.53,2.84-.47,5.85.16,8.5a4.9,4.9,0,0,1,1.38,3.23l.33,2.7.65,5.39c0,.21,1.78-1.53,1.68-2.37-.42-3.51-.63-7.09-1.7-10.44-1-3-.22-6.2-.82-9.38,0-.27-1.84,1.55-1.68,2.37Z"/><path class="cls-2" d="M90.23,50.09c.13,2.73,1.81,3.65,2.69,6.14,1.36,3.83,2.75,8.32.67,12.13-.71,1.29-1.48,1.92-1.72,3.46-.39,2.45,1,4.71.65,7.21l1.68-2c-3.42-2.62-.77-8.31-.52-11.77a18.8,18.8,0,0,0-.89-6.82c-.19-.66-2,1.43-1.76,2.31,1.49,5.1-.22,8.5-.33,13.39,0,2,.27,4.17,2,5.46.66.5,1.62-1.56,1.68-2,.34-2.52-1.16-5.69-.17-8,.68-1.62,2-2.55,2.36-4.45.54-2.7-.39-5.42-.88-8.06A18.37,18.37,0,0,0,95,53.67c-.73-1.85-2.82-3.36-2.92-5.49,0-1.07-1.89,1.1-1.85,1.91Z"/><path class="cls-2" d="M86.87,52.77,92,62.21c.31.58,2.09-1.65,1.72-2.34l-5.09-9.44c-.31-.59-2.09,1.65-1.72,2.34Z"/><path class="cls-2" d="M79.79,27.85c-1.08-.65-2,0-2.7.95-1.41,1.9-1.7,4.84-2.69,7-.92,2-1.3,3.15-.23,5,1.48,2.59,1.18,5.58,2.62,8.15.35.61,2.12-1.65,1.73-2.34a11,11,0,0,1-1.17-3.84,21,21,0,0,0-1.45-4.31c-.74-2,.22-3.58,1-5.38.15-.35.86-2.95,1.34-2.66.63.37,2.18-2.19,1.55-2.57Z"/><path class="cls-2" d="M78.13,52.1a91.81,91.81,0,0,0,1,18.07c0,.21,1.8-1.54,1.67-2.37a90.46,90.46,0,0,1-1-17.71c0-.73-1.66,1.34-1.68,2Z"/><path class="cls-2" d="M74.51,47q1.11,6.75,2.6,13.41c.36,1.6,2.55-.37,2.27-1.66Q78,52.41,76.91,46c-.31-1.83-2.62-.33-2.4,1Z"/><path class="cls-2" d="M75,27.71a14.51,14.51,0,0,0-.25,10.16c.19.54,2-1.54,1.72-2.34a12.3,12.3,0,0,1,.07-8.66c.18-.48.21-.88-.33-.82S75.18,27.32,75,27.71Z"/><path class="cls-2" d="M85.59,26.13c.62-1,2.8-.27,3.61-.07l.73-2.48c-1.44,1.1-2.93,3-4.66,2.32-1.32-.5-2-1.31-3.59-1.19a3.14,3.14,0,0,0-2.17,1A4.66,4.66,0,0,0,78.69,27c-.31.7.06,1.68-.13.39-.1-.67-.76-.3-1.06,0a6,6,0,0,0-2.09,5.31c.16,1.19,2-1,1.92-1.88l.37-1.54H76.64c.15,1,.85,1.31,1.76.86,1.15-.56,1-2.09,1.74-2.75s2.87.7,3.58,1.14c.37.22.6.55,1.09.6,1.59.16,3.73-2.35,4.84-3.2.43-.32,1.83-2.21.74-2.48-2.63-.66-4.51-.3-6,2-.92,1.52.21,2.22,1.15.69Z"/><path class="cls-2" d="M77.67,61c5.82,1,13.8-5.64,16,3.11a25.94,25.94,0,0,1,.62,7c-.14,3.32-1.58,5.56-2.71,8.51a10.74,10.74,0,0,0-.6,7.17c2.15,8,6,15.63,8.39,23.57,2.36,7.71,4.21,15.56,6,23.42l1.56-2.26c-7,.43-14,1.25-21.1.77-8.89-.6-17.6-2.62-26.52-1.19l.49,1.34c5.59-11.83,7.61-24.93,13.71-36.54,2.1-4,6.31-8.77,5.09-13.57-1.48-5.85-8.52-14.92-2.31-20.57.82-.74,1.11-3.28-.34-2-3.28,3-4.25,7-3.78,11.34a32.12,32.12,0,0,0,1.93,7.46c1.09,2.92,3.09,5.58,2.23,9-.51,2-2.26,4.17-3.25,6-6.75,12.34-9,26.19-14.94,38.83-.25.54-.33,1.48.49,1.34,9.2-1.47,18.3.89,27.48,1.36,6.57.33,13.12-.46,19.68-.86a2.16,2.16,0,0,0,1.57-2.26c-2-8.49-4-17-6.59-25.28q-1.57-5-3.37-9.86c-2.12-5.86-5.8-12.28-3.53-18.53,2.06-5.67,4.51-14,.29-19.55-3.69-4.84-10.62.42-15.38-.42-1-.17-2.31,2.48-1.15,2.69Z"/><path class="cls-2" d="M92.11,45.64A23.54,23.54,0,0,0,90,51.89c-.39,2.11.28,3.4,1,5.39.32.85,2.16-1.36,1.81-2.29-.62-1.64-1.23-2.89-.85-4.68a19.77,19.77,0,0,1,1.69-4.65c.9-1.82-1-1.24-1.57,0Z"/></g></svg>