<svg xmlns="http://www.w3.org/2000/svg" viewBox="0 0 141.82 141.73"><defs><style>.cls-1{fill:#a7c6c6;}.cls-2{fill:#0b3142;}</style></defs><title>Icon</title><g id="Icons_to_export" data-name="Icons to export"><path class="cls-1" d="M13.76,112.24l.05.2c.24.9,1,.86,1.72.58l.19-.08a3.55,3.55,0,0,0,1.77-3.52l-.68-2.84-3,3.61,2.89,2.6c1.59,1.44,3.38-2.81,2.86-4a33.75,33.75,0,0,1-2.73-10.53l-3.37,2.84a9.87,9.87,0,0,0,1.67,2.14c1.37,1.54,3.5-1.54,3.37-2.85l-1.12-11L14,92.21a82.17,82.17,0,0,0,7.44,11.05c1.49,1.88,3.83-2.22,3.15-3.73-2.7-6-5.92-12-7.19-18.46L14,84.4a47.26,47.26,0,0,0,4.18,5.36c1.54,1.69,3.7-1.94,3.33-3.34L17.89,72.65,14.57,76a94.31,94.31,0,0,0,8.08,10.88c1.44,1.68,3.82-1.93,3.32-3.33l-6.44-17.9L16.21,69,22.13,79c1.11,1.88,3.76-2,3.32-3.33C23.18,68.76,20.57,62,17.63,55.34l-3.15,3.73a103.13,103.13,0,0,0,7.67,11.54c1.33,1.74,3.84-2,3.32-3.34l-7-18.57L15.13,52,22,62.23c1.23,1.83,3.79-2,3.32-3.33L18.69,40l-3.32,3.33a54,54,0,0,0,6.4,8c1.68,1.74,3.86-2.19,3.15-3.74l-7-15.32L14.76,36l6.84,7.21c1.52,1.59,3.82-1.89,3.32-3.34L21.15,28.94l-3,3.61,7,6.6c1.46,1.37,3.24-2.58,3-3.61a35.12,35.12,0,0,0-2.25-7l-2.86,4a35.87,35.87,0,0,1,5.73,4.79c1.56,1.62,4.44-2.4,3.15-3.73a39.43,39.43,0,0,0-6.31-5.35c-1.81-1.23-3.4,2.75-2.86,4a30.16,30.16,0,0,1,1.91,6.24l3-3.61-7-6.61c-1.37-1.28-3.42,2.5-3,3.62l3.77,10.93,3.33-3.33-6.85-7.21c-1.67-1.76-3.86,2.19-3.15,3.73l7,15.33,3.15-3.74a53.35,53.35,0,0,1-6.39-8c-1.2-1.83-3.8,2-3.33,3.34l6.65,19,3.32-3.34L18.28,48.3c-1.22-1.81-3.84,2-3.32,3.33l7,18.58,3.32-3.33a104.53,104.53,0,0,1-7.67-11.54c-1.11-1.93-3.86,2.14-3.15,3.73q4.23,9.6,7.48,19.55l3.32-3.34-5.92-10c-1.09-1.85-3.81,2-3.32,3.33l6.44,17.91,3.32-3.34a94.31,94.31,0,0,1-8.08-10.88c-1.23-1.92-3.66,2-3.32,3.33l3.66,13.78L21.38,86a45.09,45.09,0,0,1-4.18-5.36c-1.32-2-3.56,2.11-3.33,3.34,1.33,6.76,4.73,13,7.54,19.25l3.15-3.73a82.27,82.27,0,0,1-7.44-11.06c-1-1.84-3.48,1.76-3.37,2.85l1.11,11,3.38-2.85a9.87,9.87,0,0,1-1.67-2.14c-1.2-1.75-3.48,1.71-3.38,2.85a39.38,39.38,0,0,0,3.18,12.3l2.87-4-2.89-2.61c-1.46-1.32-3.29,2.55-3,3.61l.68,2.85,1.77-3.51-.19.07,1.72.58-.05-.19c-.63-2.41-4,1.16-3.49,2.93Z"/><path class="cls-1" d="M18.49,115a110,110,0,0,0,18.58,1.16c1.93,0,3.89-4.58,1.81-4.53a111.1,111.1,0,0,1-18.58-1.17c-1.89-.27-4,4.22-1.81,4.54Z"/><path class="cls-1" d="M35.84,109.3A50.18,50.18,0,0,0,42.36,112c1,.34,3.36-3.56,2.58-4.29-2.12-2-4.14-4-6.09-6.12l-2.58,4.29c2.95.85,5.35,3,8.1,4.36,1.62.78,5.25,2.76,7.08,1.83,4.81-2.46,1.06-8.52-.35-11.55l-2.69,4.11a48.12,48.12,0,0,1,6.39,4c.71.52,3.49-3.6,2.58-4.28a47.75,47.75,0,0,0-6.39-4c-.93-.5-3.06,3.33-2.69,4.11,1,2.19,2.67,4.64,2.85,7.07l.8-2.32-.28.47,1.68-1.8c-5.48.4-9.63-4.89-14.5-6.29-1.06-.3-3.31,3.49-2.58,4.29,1.95,2.12,4,4.16,6.09,6.12l2.58-4.29A48.29,48.29,0,0,1,38.42,105c-1-.49-3.4,3.87-2.58,4.29Z"/><path class="cls-1" d="M66.24,109q2.27.81,4.58,1.49c1.33.38,3.06,1.14,4.45,1a3.07,3.07,0,0,0,2.65-2.38c.4-1.41-.22-2.28-1-3.45-1.29-2.06-4.44,1.79-3.27,3.66.26.7.4.73.45.12l1.79-2.46c.81-.08.78-.17-.08-.27l-1.34-.33c-.67-.17-1.33-.36-2-.55-1.54-.44-3.07-.94-4.58-1.48-2-.73-4.1,3.74-1.7,4.6Z"/><path class="cls-1" d="M76.35,108.45c3.05,1.31,8.54,3.77,11.64,1.55s1.86-5.62.9-8.63l-3,3.63a22.78,22.78,0,0,0,11.5,5.62c1.76.32,3.94-4.12,1.85-4.51a21.5,21.5,0,0,1-10.77-5.39c-1.35-1.22-3.34,2.57-3,3.63a20,20,0,0,0,1.18,3.07l1.7-1.49c-2.77,1.09-7-.71-9.42-1.76-1.81-.78-4.25,3.57-2.58,4.28Z"/><path class="cls-1" d="M100.21,111.34a38.25,38.25,0,0,0,20.1,1.91c1.15-.19,3.44-2.93,2.49-4.13l-.9-1.13-.24,1.9c4.45-9.08,2.53-18.45-.43-27.68l-3,3.83a60.11,60.11,0,0,1,2.13,7.7c.41,2,3.47-1.71,3.18-3.12a64.64,64.64,0,0,0-2.32-8.41c-.47-1.33-3.46,2.35-3,3.83,2.5,7.79,4.72,16.12.92,23.89-.2.41-.6,1.45-.24,1.89l.89,1.13,2.49-4.13a37.06,37.06,0,0,1-19.51-1.76c-1.57-.58-3.87,3.81-2.58,4.28Z"/><path class="cls-1" d="M117.3,93a61.2,61.2,0,0,0,5.92,11.63l3-3.81-3.4-4.26c-1.14-1.43-4,2.6-3,3.81l3.4,4.26c1.15,1.45,3.85-2.53,3-3.81a61.2,61.2,0,0,1-5.92-11.63c-.54-1.42-3.61,2.26-3,3.81Z"/><path class="cls-1" d="M117.79,102.39c.38,2.17.7,4.33,1,6.51l2.58-3.77c-1.3-.12-2.55-1.31-3.59-2L114.51,101c-1.47-1-3.15,3-2.79,4.06a24.28,24.28,0,0,0,2.64,5.36l2.79-4.05a32.38,32.38,0,0,0-7.64-4.71c-1.39-.55-3.65,3-2.79,4a20.86,20.86,0,0,0,5.73,5.19c1.7,1,4.72,2.71,6.78,2.3,1.79-.35,3-2.68,3.13-4.35.15-2.62-1.21-5.81-2.14-8.21-.52-1.35-3.58,2.32-3,3.83a37.93,37.93,0,0,1,1.3,3.9c.15.58.29,1.16.41,1.75,0,1.11.21,1.17.56.16l1.59-1.57c-1.75.6-5-1.39-6.4-2.29a19.33,19.33,0,0,1-5-4.53l-2.79,4a32.84,32.84,0,0,1,7.64,4.71c1.22.93,3.47-3,2.79-4a24.36,24.36,0,0,1-2.64-5.37l-2.79,4.06c2.13,1.41,4.83,4.06,7.43,4.3,1.41.12,2.72-2.63,2.58-3.78-.26-2.18-.57-4.35-1-6.51s-3.45,1.67-3.2,3.11Z"/><path class="cls-1" d="M118.61,103.77l3.61,3.39c1.37,1.29,3.3-.77,3.44-2.21.58-6.06-3.91-12.6-6.62-17.83l-3.22,3.69a69.37,69.37,0,0,0,9.16,11c1.55,1.5,3.6-1.26,3.49-2.78-.31-3.94-2.2-7.08-4-10.54l-7-13.39-3.21,3.7A61.83,61.83,0,0,0,126.6,91.17c1.14.86,2.66-1.09,3-1.92,1.19-3.33-.12-5.46-1.92-8.29-3-4.68-6-9.31-9-14l-3.21,3.7a32.78,32.78,0,0,0,8.94,8.55c1.38.9,3-1.4,3.12-2.51.46-3.28-1.41-5.57-3-8.41l-7.15-13-2.89,4C117.39,61.51,126.34,70,129,63.43c1.07-2.64-.76-5.66-1.86-8A93.33,93.33,0,0,0,121,45.11l-2.89,4,3.94,2.78c1.89,1.34,3.57-2.62,2.9-4-2-4-4-7.82-6.3-11.62l-2.89,4a40.53,40.53,0,0,0,4.95,2.09c2,.69,3.35-1.92,3.1-3.57A32.51,32.51,0,0,0,121.16,30l-2.68,3.72a17.46,17.46,0,0,1,4.27,1.55c2,.92,4.49-3.4,2.58-4.28a31.05,31.05,0,0,0-5.1-1.84c-1.52-.4-3.27,2.43-2.68,3.72a32.51,32.51,0,0,1,2.65,8.78l3.09-3.58a40.53,40.53,0,0,1-5-2.09c-1.94-1-3.8,2.47-2.9,4,2.25,3.79,4.34,7.65,6.29,11.61l2.9-4-3.94-2.78c-1.77-1.24-3.81,2.6-2.9,4,1.21,1.85,2.43,3.7,3.56,5.61,1.22,2.06,2,5.25,3.54,7q.94,3.42.63-.69A30.62,30.62,0,0,1,122.58,59c-1.93-1.21-3.73-2.62-5.53-4s-3.64,2.63-2.9,4l4.77,8.69c1.23,2.26,5.25,7.28,4.9,9.8L126.94,75a30.46,30.46,0,0,1-8.31-8c-1.37-1.92-4.3,2-3.21,3.7l5.5,8.53c1.15,1.79,6,7.51,5.31,9.58l3-1.91A58.94,58.94,0,0,1,117.52,75.1c-1.49-2-4.08,2-3.21,3.7l5.22,10c1.91,3.68,4.85,7.85,5.18,12l3.48-2.78a68.71,68.71,0,0,1-9.15-11c-1.36-2-4.1,2-3.22,3.69,2,3.85,6.61,10.3,6.17,14.88l3.44-2.22-3.61-3.39c-1.76-1.65-4.67,2.33-3.21,3.69Z"/><path class="cls-1" d="M31.89,33l1.16,1.81c1.28,2,4.41-1.49,3.54-3.2l-1.44-2.82c-1.08-2.13-3.77-.12-3.87,1.66-.1,1.95.15,5.31,2.26,6.26,2.29,1,4.4-2.24,5.47-3.73q.35-.47.66-1l-1.23.65a9.72,9.72,0,0,0,.94,1.65c.45.83.87,1.9,1.79,2.31,2.67,1.19,4.06-3,4.79-4.69.42-.95.15-2.39-1-2.64s-2.24,1-2.67,2a17.72,17.72,0,0,1-.95,2.08l1.36-1.25-.43.2,1.46,0c-.85-.44-1.24-2.32-1.83-3.09a2.67,2.67,0,0,0-2.75-1.2,4.54,4.54,0,0,0-2.57,2.11c-.48.66-.94,1.31-1.47,1.92q1.44.7.39-.57a3.49,3.49,0,0,1-.27-1.63L31.37,31.6l1.44,2.81,3.54-3.2L35.19,29.4c-1.35-2.13-4.54,1.7-3.3,3.64Z"/><path class="cls-1" d="M51.08,33.57a7,7,0,0,0,2,3.41c.81.78,3.71-3.2,2.58-4.29a6.08,6.08,0,0,1-1.68-3c-.09-.35-.56-.26-.78-.17a3.31,3.31,0,0,0-1.15,1,3.93,3.93,0,0,0-1,3Z"/><path class="cls-1" d="M55.5,33.51a1.84,1.84,0,0,0,2,1.45A4,4,0,0,0,60.34,33c0-.05.45-.53.44-.64.18-.24.08-.2-.32.12-.13.24-.26.32-.41.24s.2.52.23.62a2.82,2.82,0,0,0,1.32,1.84c1,.48,2.09-.51,2.6-1.35.39-.65,1-2.46,0-2.93-.37-.17-.39-.68-.56-1.11a2.3,2.3,0,0,0-1.35-1.5,2.94,2.94,0,0,0-2.8.88,4.48,4.48,0,0,0-1.22,1.49c-.18.27-.22.33-.11.18.31-.54.62-.63.93-.26-.26-1.15-1.58-.86-2.26-.31a3.46,3.46,0,0,0-1.3,3.21Z"/><path class="cls-1" d="M65.53,32.82c1.46,4.06,5.94.45,8.5-.09l-1.51-2.65a13,13,0,0,0-1.35,4.64,1.53,1.53,0,0,0,1.18,1.46c3.45,1,7.21-2.54,10.63-2.48l-1.07-.93c.22-.89.1-.73-.36.46l-.71,1.5L79.2,38.22c-1.08,2.27,1.47,3.31,3,1.8l1.66-1.64c2-2,0-5.24-2.31-2.94l-1.66,1.64,3,1.8C84,36.53,86.93,32.7,85.7,30c-.17-.39-.57-.93-1.07-.93a13.67,13.67,0,0,0-4.09.75c-1.77.51-4.76,2.22-6.53,1.72L75.19,33a13.54,13.54,0,0,1,1-2.27c.42-1,0-3-1.51-2.65-.47.09-5.53,1.51-5.36,2-1-2.66-4.57.61-3.8,2.75Z"/><path class="cls-1" d="M85.35,39.21a14.49,14.49,0,0,0-.85,3.37c-.26,1.39.65.87,1.29.19a25.88,25.88,0,0,1,5.62-4.65c2.46-1.5,4.4-.16,2.87,2.64-1.07,2,0,2.42,1.26.76.77-1,3.21-4.55,4.67-5,3.05-.82,1.46,2.09,1,3.63s.76.76,1.28.19c.27-.3,8.2-7.64,6.67-2.28-.1.35-.2.92.3.94l1.49,0c1.23,0,3.17-4.31,2.14-4.34s-.5-2.89-.81-3.77a.27.27,0,0,0-.34-.21c-3.56.53-7,4.26-9.27,6.79l1.28.18c.58-1.9,2.61-5.36,1.16-7.18l-.22,0c-4,1.33-7.46,5.85-9.93,9.1l1.26.76c.84-1.54,4.67-7.84,1.13-8.43-1.62-.27-5.11,2.49-6.26,3.31A35.47,35.47,0,0,0,86,39.93l1.29.18a14,14,0,0,1,.84-3.37c.7-2.2-2.43,1.49-2.74,2.47Z"/><path class="cls-1" d="M85.92,54.89a60.37,60.37,0,0,0,11.82,10.4c1.17.79,2.39-1.45,1.76-2.38a99.8,99.8,0,0,0-8.32-10.67c-1-1.16-2.84,1.13-2,2.18a59.88,59.88,0,0,0,9.57,9.26c1,.77,2.33-1.25,1.91-2.12A35.19,35.19,0,0,0,94,52.17c-1.1-1.11-2.9,1.17-2,2.18a73.86,73.86,0,0,0,7.66,7.35c.92.76,2.06-1,2-1.81A16.83,16.83,0,0,0,99.93,54L97.81,56A33,33,0,0,0,101,59.41c1.13,1.08,2.37-.86,2.12-1.93a25.35,25.35,0,0,0-1.81-5.12l-2.12,1.93a21,21,0,0,0,2.91,3.4c1,.93,2.29-.57,2.19-1.62a17.94,17.94,0,0,0-1.35-5.39l-2.12,1.93,3,2.67c1,.91,2.26-.55,2.18-1.61a7.51,7.51,0,0,0-1.28-3.89l-1.76,2.38L105.13,54c1.06.89,2.66-1.64,1.54-2.57l-2.23-1.86c-1.11-.92-2.33,1.48-1.77,2.38l.87,2.73,2.19-1.61-3-2.67c-1.07-1-2.59.8-2.12,1.93a16.36,16.36,0,0,1,1.22,4.76L104,55.5a21,21,0,0,1-2.91-3.4C100.3,50.9,98.52,53,99,54a25.67,25.67,0,0,1,1.81,5.11l2.12-1.92a32,32,0,0,1-3.14-3.45c-.9-1.14-2.64.91-2.12,1.93a14.69,14.69,0,0,1,1.62,5.23l2-1.8a68.93,68.93,0,0,1-7.23-7l-2,2.18a33.51,33.51,0,0,1,6.37,8.88l1.9-2.12a57.67,57.67,0,0,1-9.14-8.87l-2,2.18A100.92,100.92,0,0,1,97.52,65.1l1.77-2.38a57.84,57.84,0,0,1-11.39-10c-1-1.17-2.88,1.16-2,2.19Z"/><path class="cls-1" d="M103.47,59.79a37.11,37.11,0,0,0,1.86-4.64c.16-.5,0-1.13-.62-1s-1.1,1.05-1.29,1.62a30.84,30.84,0,0,1-1.61,3.95c-.2.4-.37,1.28.25,1.37s1.2-.87,1.41-1.3Z"/><path class="cls-2" d="M13.59,32.1,12.2,85.45c-.22,8.64-1.19,17.62-.66,26.23.42,6.69,6.36,4.93,11.68,4.91l53.29-.14c17.13,0,34.36.44,51.39-1.64.74-.09,1.37-1.28,1.37-1.93l-.38-53.76c-.06-8.48.47-17.21-.36-25.66-.16-1.66-.13-5-2.07-5.94-.73-.36-1.89.1-2.66.22a61.34,61.34,0,0,1-7.66.77c-17.16.31-34.58-1.46-51.73-2.24-16.65-.77-33.49-2.26-50.06.19-.87.13-1.46,1.45-1.34,2.22l.6,3.71c.23,1.39,2.24-.74,2.07-1.78l-.6-3.71-1.34,2.22c16.4-2.43,33.1-.9,49.57-.14,15.76.72,31.52,1.61,47.28,2.16a61.68,61.68,0,0,0,9.12-.2c2.48-.27,4.84-.83,6.31,1.4,1.18,1.76.58,5.89.61,8.07.11,8,.11,15.93.17,23.89l.35,49.78,1.36-1.93c-16.54,2-33.28,1.54-49.91,1.59l-48.36.13c-3.86,0-8,.49-11.84,0-3-.36-4.21-.9-4.75-4-.29-1.7.11-4.2.16-5.93l.61-23.71,1.29-49.4C15.75,29.17,13.62,31,13.59,32.1Z"/><path class="cls-2" d="M27,45l-.52,57.56c0,.19,0,.31.23.32,29.11,1.24,58.41-2.13,87.42-4.22.78-.06,1.58-1.82,1.49-2.48a249.8,249.8,0,0,1-1.3-55.94c0-.17,0-.32-.23-.31-28.91,1.56-57.89-.5-86.79,1.44-.78.05-1.85,2.64-1.28,2.6,24-1.6,48-.43,72-.9q4.44-.08,8.88-.25c3.87-.16,5.61-.31,5.28,4.23q-.63,8.72-.63,17.45a249.91,249.91,0,0,0,2.37,34L115.38,96c-23.61,1.7-47.3,4.06-71,4.44-2.9,0-5.81.06-8.71,0-3.17,0-6.58.78-7.48-2.89-.63-2.61.06-6.27.08-8.93l.08-8.94L28.71,43c0-.85-1.74,1.26-1.74,2Z"/><path class="cls-2" d="M97.55,67.85c3.88-3.32,14.81-13.2,9.73-19.27-1.91-2.27-5.34-1.95-7.55-.33-2.67,2-3.71,5.36-3.86,8.51L97.74,55C96,50.28,88.25,45.64,85.41,52c-1.1,2.49-.18,4.72,1.41,6.74,2.91,3.69,6.53,7,9.74,10.39.55.59,2.29-1.79,1.55-2.57-3.17-3.37-7.38-6.81-9.91-10.66-1.06-1.62-1.71-2.13-.14-3.47,1.36-1.16,2.3-.8,3.84-.06a8.56,8.56,0,0,1,4,4.85c.39,1,1.85-1.37,1.87-1.79.45-8.82,12.59-6.73,6.73,2.69a35.67,35.67,0,0,1-7.23,7.79c-.8.69-1.23,3.19.25,1.92Z"/><path class="cls-2" d="M41.47,65.82l24.66-.94c.72,0,1.78-2.61,1.31-2.59l-24.66.94c-.72,0-1.77,2.61-1.31,2.59Z"/><path class="cls-2" d="M42.15,74a258.24,258.24,0,0,1,31-1.32c.93,0,2.16-2.65,1.18-2.67a256.19,256.19,0,0,0-31,1.33c-.95.1-2.07,2.76-1.18,2.66Z"/><path class="cls-2" d="M41.9,81.54l34.85-1.49c.81,0,1.94-2.65,1.26-2.62L43.16,78.92c-.81,0-1.94,2.65-1.26,2.62Z"/><path class="cls-2" d="M113,104.36a46,46,0,0,1,5.62,7.77c.37.66,1.28.09,1.62-.25a2.41,2.41,0,0,0,.45-3.09c-.82-1.21-2.69,1.11-2,2.2l.23-.81,1.61-.25a46.49,46.49,0,0,0-5.61-7.77c-1-1.12-2.82,1.23-2,2.2Z"/><path class="cls-2" d="M116.44,105a34.92,34.92,0,0,0,5,4.93c.38.31,1.26-1.28,1.33-1.41.8-1.58.46-2.55-.22-4.17l-2.85-6.78-1.62,2.46a21.57,21.57,0,0,1,4.13,3.29c.66.68,1.84,3,3,2.56a3.81,3.81,0,0,0,1.53-2.36c.27-1.51-.83-3.39-1.52-4.68-.25-.47-2,1.71-1.68,2.36a12.82,12.82,0,0,1,1.56,4.25l.28-1-.16.35,1.2-1.43c-.91.18-2.47-2.41-3.08-3a22.15,22.15,0,0,0-3.69-2.85c-.54-.34-1.81,2-1.62,2.47l2,4.64c.24.55,2,3.67,1.7,4.21L123,107.4a35,35,0,0,1-5-4.93c-.21-.26-2.07,1.93-1.54,2.57Z"/><path class="cls-2" d="M120.83,95.29l3.29,2.12c.61.4,1.73-2,1.62-2.46-1.26-5.16-4.77-9.3-6.09-14.43L118,82.87a45.87,45.87,0,0,0,4.49,5.54c.47.5,1.66-2.07,1.62-2.46-.47-4.34-3.51-8.74-5.4-12.65L117,75.76l4.13,3.36c.53.43,1.75-2,1.63-2.46-1.11-4.08-3.14-8-4.79-11.92l-1.62,2.46,5.74,5.29c.52.48,1.67-2.06,1.62-2.47a19.08,19.08,0,0,0-2.28-6.92c-.28-.51-2,1.7-1.69,2.36a19.06,19.06,0,0,1,2.27,6.92l1.62-2.46-5.73-5.29c-.44-.4-1.83,2-1.62,2.46C118,71,120,74.94,121.1,79l1.62-2.47-4.13-3.36c-.48-.38-1.86,2-1.62,2.47,1.88,3.9,4.93,8.31,5.39,12.64L124,85.84a43.7,43.7,0,0,1-4.33-5.32c-.43-.61-1.85,1.77-1.7,2.35,1.33,5.14,4.84,9.27,6.09,14.43l1.62-2.46-3.28-2.12c-.52-.34-2.11,2.2-1.55,2.57Z"/><path class="cls-2" d="M119.46,62.49a20.16,20.16,0,0,0,3.87,3.14c.58.36,1.58-1.92,1.62-2.29a5.72,5.72,0,0,0-.42-2.83c-.19-.45-.87.49-1,.64-.24.33-.91,1.26-.71,1.73a5,5,0,0,1,.41,2.47l1.62-2.29A20.22,20.22,0,0,1,121,59.92c-.26-.27-2.08,2-1.54,2.57Z"/><path class="cls-2" d="M118.59,55.61A22,22,0,0,1,124,59.83c.51.55,2.26-1.81,1.55-2.57A22.21,22.21,0,0,0,120.14,53c-.83-.46-2.35,2.12-1.55,2.57Z"/><path class="cls-2" d="M118.72,53.24l5.47.47c.79.07,2.24-2.28,1.36-2.62L118,48.18l-1.35,2.62c2.25,0,5.81-.51,6.75-3,1-2.75-2.71-2.52-4.11-3.82l-.89,2.46,6-3.38c.53-.31,1.78-2.24.69-2.51s-2.91-.82-4.16-.49a1.15,1.15,0,0,0-1.57,1c.31-.23.62-.48.92-.72a7.19,7.19,0,0,0,2.6-3.88c.57-1.86-1.53-.34-1.83.66-.64,2.12-3.48,2.31-3.6,4.83,0,.2,0,.51.21.63.74.44,1.22.18,2.1.15a15,15,0,0,1,4.17.49l.69-2.5-6,3.38c-.62.35-1.56,1.82-.89,2.45,1.06,1,3.36.92,4,2.21l.11-1.16c.89-.94.49-.89-1.2.18a8,8,0,0,1-2.87.32c-.74,0-2.28,2.27-1.36,2.63L124,53.66,125.36,51l-5.48-.47c-1-.09-2.24,2.58-1.16,2.67Z"/><path class="cls-2" d="M119.85,37.3l2.34-4.18c.27-.48.56-1.39,0-1.77s-1.32.35-1.57.8l-2.34,4.18c-.27.48-.56,1.39,0,1.77s1.33-.35,1.58-.8Z"/><path class="cls-2" d="M23,35.36l5.26,4.81c1.16,1.06,2.39-.82,2.13-1.92A27.85,27.85,0,0,1,29.75,35c-.09-.71-.46-2.19-.15-2.85l-1,1.1c-.05,0,3.21,6,3.49,6.49.71,1.3,2.64-1,2-2.18-1-1.83-2-3.67-3-5.48-.61-1.07-1.53-2.18-2.83-1.34-1.15.74-1.11,2.09-1,3.31a31.4,31.4,0,0,0,.88,5.87L30.19,38l-5.25-4.81c-1.16-1.06-3,1.27-2,2.18Z"/><path class="cls-2" d="M33.81,34.72a37.12,37.12,0,0,0,1.71,5.86c.31.81,1.6-1.32,1.67-1.56.3-1,.62-2,1-3s.7-3.3,1.87-2,1,3.25,2.07,4.55c2,2.51,3.59-1.55,4.47-3s0-2.11-1-.57c-.55.93-.8,2.3-1.79,1.19a7.59,7.59,0,0,1-1.17-2.45c-.38-1-1-3.37-2.54-2.93-1.07.31-1.77,2-2.19,2.84a43.28,43.28,0,0,0-2.37,6.22l1.67-1.57a37.12,37.12,0,0,1-1.71-5.86c-.11-.52-1.92,1.45-1.74,2.33Z"/><path class="cls-2" d="M64.1,37.07a9.44,9.44,0,0,0,4.69-2.75l-.92.25a4.75,4.75,0,0,1,.5,3,4.13,4.13,0,0,0,.27,2.58c1.16,1.57,2.91-1.09,3-2.16.13-1.55-1.74.63-1.8,1.4l0,.22.63-1.32-.13.18.69-.63c-1.16.7-.8-2.08-.78-2.57a5.12,5.12,0,0,0-.6-3c-.24-.38-.73,0-.92.25a6.91,6.91,0,0,1-3.38,1.94A2.29,2.29,0,0,0,64,35.81c-.07.16-.5,1.41.07,1.26Z"/><path class="cls-2" d="M74.73,37.09c.11,1.33.41,1.91,1.68,1.72,2-.29,4.7-6.26,4.33-1.14-.06.81.56.77,1,.26a2.58,2.58,0,0,1,3.6-1.36l-.74,2.83c-.13.51,0,1.38.71.78,1.28-1.09,3.12-3.12,4.71-3.65,3.06-1,1.78,1.65,1.2,3.47-.1.32-.15,1.22.48.91a9.25,9.25,0,0,0,3-2.24c.64-.71,1.12-3.3-.17-1.87l-2,1.56.47.91c.42-1.29,2.7-5.57.92-6.5-2-1.05-6.9,4-8.25,5.12l.71.79c.47-1.79,1.23-3.62,1.18-5.48a.42.42,0,0,0-.17-.34c-2-.9-4.61,2-5.77,3.21l1,.26c.07-.89.93-4-.39-4.43-.43-.14-.81.31-1.12.5,0,0-4.32,4.65-4.48,2.81-.1-1.14-2,1-1.89,1.88Z"/><path class="cls-2" d="M98.1,35.92l-.11.16a1.54,1.54,0,0,0-.17,1.58l.13.19c.25.34.62.26,1,.13,1.51-.63,2.83-2.18,4.06-3.22l-1.35-.19c.32,1.11-1.36,3.41-1.9,4.31-.93,1.6.54,2.43,1.57.94,1.41-2,3.43-5.45,5.68-6.66L106,33c.5.53-1.16,4.66-1.38,5.42-.28,1,.64,1.41,1.35.82l6.27-5.19-1.35-.81a11.74,11.74,0,0,1-2.09,5.32c-.86,1.24.16,2.45,1.33,1.27l5.17-5.2-1.65-.22-.47,1.79c-.82,1.82,1.29,1.63,1.92.23a8.51,8.51,0,0,0,.75-3.17c.07-1.2-1.17-.71-1.65-.22L109,38.27l1.33,1.27A15.29,15.29,0,0,0,113,32.79c.14-.94-.56-1.47-1.35-.82l-6.27,5.19,1.35.81c.48-1.64,2.6-5.66,1.15-7.17a.73.73,0,0,0-1-.12c-3,1.61-5.33,5.46-7.23,8.2l1.57.94c1.16-2,3.15-4.61,2.45-7-.19-.66-.92-.55-1.35-.18-1,.87-2.24,2.32-3.49,2.84l1,.13-.14-.18L99.55,37l.11-.15c1.06-1.51-.52-2.43-1.56-.95Z"/><path class="cls-2" d="M61.18,105.15a11.23,11.23,0,0,0,3.54,6.28c.64.58,2.33-1.86,1.54-2.57a10.11,10.11,0,0,1-3.14-5.56c-.24-1.26-2.12,1-1.94,1.85Z"/><path class="cls-2" d="M65.34,106.51A19.56,19.56,0,0,0,67,109.06a7.82,7.82,0,0,0,1.93,2c1.79,1.05,3.42-1.22,3.21-2.84-.1-.72-1-.46-1.32-.17A2.17,2.17,0,0,0,70,110l0,.23.12-1,.6-.61-.3-.12c-.19-.19-.42-.34-.6-.53-.35-.37-.67-.77-1-1.17a20.36,20.36,0,0,1-1.66-2.56c-.61-1.1-2.46,1.22-1.9,2.24Z"/><path class="cls-2" d="M71.77,107.63c1.68,1.1,3.35,2.4,5.13,3.35a2.31,2.31,0,0,0,3.34-.85c.85-1.63-1-2.8-1.9-1.14q1.05-.42.24-.51a4.89,4.89,0,0,1-.69-.42c-.49-.31-1-.64-1.45-1l-3.13-2c-1.22-.8-2.79,1.76-1.54,2.57Z"/><path class="cls-2" d="M79.43,107.71c.77,1.33,1.08,1.12,2.31,1.5a6.08,6.08,0,0,1,2.09.75,5,5,0,0,0,2.18,1c1.14.11,1.54-.36,2.47-.78,1.78-.8,2.74-1,4.49-.33.94.39,1.84.84,2.74,1.31.72.37,2.21-2.23,1.55-2.57-2-1-5-3-7.21-1.68-1.59.95-2.8,1.71-4.67.52-.44-.28-4.2-2-4.21-2-.39-.66-2.15,1.63-1.74,2.33Z"/><path class="cls-2" d="M17.62,70.23a113.79,113.79,0,0,0,5.66-12c.22-.55.26-1.84-.69-1.19a30.2,30.2,0,0,1-3.71,2.24l0,2c1.84-2.16,3.59-4.37,5.27-6.66.25-.35,1.15-2.4,0-2l-3.77,1.26c-.86.29-1.94,3-.71,2.6l3.77-1.27,0-2c-1.68,2.29-3.43,4.5-5.27,6.66-.27.31-1.05,2.55,0,2a36.24,36.24,0,0,0,4.2-2.49l-.69-1.19a106.84,106.84,0,0,1-5.29,11.32c-.85,1.56.36,2.34,1.23.75Z"/><path class="cls-2" d="M21.34,49.72a4.46,4.46,0,0,1-2.83-.36l-.62,2.27c1.33-1.05,4.39-2.64,4.21-4.73-.07-.87-1-1.29-1.63-1.74l-3.54-2.51-.87,2.46A8.34,8.34,0,0,1,21.29,44c1,.1,2.27-2.57,1.16-2.68a9.84,9.84,0,0,0-6.19,1.45c-.54.32-1.66,1.9-.87,2.46L17.91,47c.7.5,1.91,1,2.29,1.8l0-.81-.12.36.78-1.3c-1,.95-2.18,1.76-3.26,2.61-.36.29-1.39,1.91-.62,2.26a5.12,5.12,0,0,0,3.22.47c1-.16,2.08-2.83,1.16-2.68Z"/></g></svg>